<?xml version="1.0" encoding="utf-8"?>
<!-- Generator: Adobe Illustrator 16.0.0, SVG Export Plug-In . SVG Version: 6.00 Build 0)  -->
<!DOCTYPE svg PUBLIC "-//W3C//DTD SVG 1.1//EN" "http://www.w3.org/Graphics/SVG/1.1/DTD/svg11.dtd">
<svg version="1.1" id="Layer_1" xmlns="http://www.w3.org/2000/svg" xmlns:xlink="http://www.w3.org/1999/xlink" x="0px" y="0px"
	 width="200px" height="150px" viewBox="0 0 200 150" enable-background="new 0 0 200 150" xml:space="preserve">
<g>
	<g>
		<path fill="#D35F27" d="M196.171,91.771c0,37.278-41.754,58.229-96.964,58.229c-55.21,0-96.964-20.951-96.964-58.229
			c0-37.279,41.754-53.438,96.964-53.438C154.417,38.333,196.171,54.491,196.171,91.771z"/>
	</g>
	<g>
		<path fill="#F7A9B4" d="M3.157,82.629c0,12.773,5.27,7.971,15.77,7.971c11,0.532,6,7.983,8,17.563
			c2.5,11.709,11,17.031,21.5,15.436c5.5-0.532,15.5-7.451,20.5-4.79c3.5,1.597,5,7.983,7.5,10.645c8,10.646,16.5,5.854,25-0.532
			c11-7.982,21-7.451,33.5-4.258c15.5,4.79,17.5,0,26.5-12.24c3-4.791,5-7.451,11-10.112c5.5-2.661,17-2.661,21-6.388
			c5.5-5.854,4.569-6.096,3.569-12.481c-1-9.048-3.197-14.732-11.197-20.587c-5.5-4.258-12.872-12.171-19.872-14.832
			c-7.5-2.661-15-6.388-23.5-7.452c-8.5-0.532-9.637-2.065-17.856-3.052c-28.666-3.441-57.577-0.438-82.077,8.078
			c-5,1.597-9.484,3.707-13.946,5.408C15.415,56.011,2.375,66.713,3.157,82.629"/>
	</g>
	<g>
		<g>
			<path fill="#F27294" d="M158.417,67.111c3.226,0,3.226-5,0-5S155.191,67.111,158.417,67.111L158.417,67.111z"/>
		</g>
	</g>
	<g>
		<g>
			<path fill="#F27294" d="M149.084,112.57c0.807,0,0.807-1.25,0-1.25S148.277,112.57,149.084,112.57L149.084,112.57z"/>
		</g>
	</g>
	<g>
		<g>
			<path fill="#F27294" d="M61.083,101.778c3.225,0,3.225-5,0-5S57.858,101.778,61.083,101.778L61.083,101.778z"/>
		</g>
	</g>
	<g>
		<g>
			<path fill="#F27294" d="M13.083,75.82c2.418,0,2.418-3.75,0-3.75S10.666,75.82,13.083,75.82L13.083,75.82z"/>
		</g>
	</g>
	<g>
		<g>
			<path fill="#F27294" d="M49.083,53.778c3.225,0,3.225-5,0-5S45.858,53.778,49.083,53.778L49.083,53.778z"/>
		</g>
	</g>
	<g>
		<g>
			<path fill="#F27294" d="M174.417,76.028c-0.224,0-0.444,0-0.667,0c-1.611,0-1.611,2.5,0,2.5c0.223,0,0.443,0,0.667,0
				C176.029,78.528,176.029,76.028,174.417,76.028L174.417,76.028z"/>
		</g>
	</g>
	<g>
		<g>
			<path fill="#F27294" d="M92.417,107.153c2.418,0,2.418-3.75,0-3.75S89.999,107.153,92.417,107.153L92.417,107.153z"/>
		</g>
	</g>
	<g>
		<g>
			<path fill="#F27294" d="M37.083,103.861c1.612,0,1.612-2.5,0-2.5S35.472,103.861,37.083,103.861L37.083,103.861z"/>
		</g>
	</g>
	<g>
		<g>
			<path fill="#F27294" d="M137.75,55.153c2.418,0,2.418-3.75,0-3.75S135.332,55.153,137.75,55.153L137.75,55.153z"/>
		</g>
	</g>
	<g>
		<g>
			<path fill="#B92025" d="M95.083,48.445c3.225,0,3.225-5,0-5S91.858,48.445,95.083,48.445L95.083,48.445z"/>
		</g>
	</g>
	<g>
		<g>
			<path fill="#B92025" d="M150.417,89.82c2.418,0,2.418-3.75,0-3.75S147.999,89.82,150.417,89.82L150.417,89.82z"/>
		</g>
	</g>
	<g>
		<g>
			<path fill="#B92025" d="M141.084,114.445c3.225,0,3.225-5,0-5S137.859,114.445,141.084,114.445L141.084,114.445z"/>
		</g>
	</g>
	<g>
		<g>
			<path fill="#B92025" d="M43.083,90.57c0.806,0,0.806-1.25,0-1.25S42.277,90.57,43.083,90.57L43.083,90.57z"/>
		</g>
	</g>
	<g>
		<g>
			<path fill="#B92025" d="M11.75,85.82c2.418,0,2.418-3.75,0-3.75S9.332,85.82,11.75,85.82L11.75,85.82z"/>
		</g>
	</g>
	<g>
		<g>
			<path fill="#B92025" d="M27.083,65.861c1.612,0,1.612-2.5,0-2.5S25.472,65.861,27.083,65.861L27.083,65.861z"/>
		</g>
	</g>
	<g>
		<g>
			<path fill="#B92025" d="M151.75,64.57c0.807,0,0.807-1.25,0-1.25S150.943,64.57,151.75,64.57L151.75,64.57z"/>
		</g>
	</g>
	<g>
		<g>
			<path fill="#B92025" d="M109.75,60.57c0.806,0,0.806-1.25,0-1.25S108.943,60.57,109.75,60.57L109.75,60.57z"/>
		</g>
	</g>
	<g>
		<g>
			<path fill="#B92025" d="M185.75,69.195c1.611,0,1.611-2.5,0-2.5S184.139,69.195,185.75,69.195L185.75,69.195z"/>
		</g>
	</g>
	<g>
		<g>
			<path fill="#B92025" d="M101.208,115.945c-0.005,0.23,0.103-0.605,0.042-0.326c-0.052,0.172-0.014,0.086,0.113-0.254
				c0.191-0.383,0.641-0.602,1.053-0.629c-1.02,0.068-1.875,0.801-1.875,1.875c0,0.97,0.854,1.943,1.875,1.875
				c1.42-0.098,2.508-1.084,2.542-2.541c0.024-1.021-0.871-1.875-1.875-1.875C102.043,114.07,101.231,114.924,101.208,115.945
				L101.208,115.945z"/>
		</g>
	</g>
	<g>
		<g>
			<path fill="#B92025" d="M72.417,105.195c1.612,0,1.612-2.5,0-2.5S70.805,105.195,72.417,105.195L72.417,105.195z"/>
		</g>
	</g>
	<g>
		<g>
			<path fill="#B92025" d="M47.083,114.445c3.225,0,3.225-5,0-5S43.858,114.445,47.083,114.445L47.083,114.445z"/>
		</g>
	</g>
	<g>
		<g>
			<path fill="#B92025" d="M139.084,47.861c0.223,0,0.443,0,0.666,0c1.611,0,1.611-2.5,0-2.5c-0.223,0-0.443,0-0.666,0
				C137.473,45.361,137.473,47.861,139.084,47.861L139.084,47.861z"/>
		</g>
	</g>
	<g>
		<g>
			<path fill="#B92025" d="M58.417,63.153c2.418,0,2.418-3.75,0-3.75S55.999,63.153,58.417,63.153L58.417,63.153z"/>
		</g>
	</g>
	<g>
		<g>
			<path fill="#FFFFFF" d="M29.75,87.111c3.225,0,3.225-5,0-5S26.524,87.111,29.75,87.111L29.75,87.111z"/>
		</g>
	</g>
	<g>
		<g>
			<path fill="#FFFFFF" d="M123.75,49.236c0.807,0,0.807-1.25,0-1.25S122.943,49.236,123.75,49.236L123.75,49.236z"/>
		</g>
	</g>
	<g>
		<g>
			<path fill="#FFFFFF" d="M145.084,75.778c3.225,0,3.225-5,0-5S141.859,75.778,145.084,75.778L145.084,75.778z"/>
		</g>
	</g>
	<g>
		<g>
			<path fill="#FFFFFF" d="M169.084,90.445c3.225,0,3.225-5,0-5S165.859,90.445,169.084,90.445L169.084,90.445z"/>
		</g>
	</g>
	<g>
		<g>
			<path fill="#FFFFFF" d="M125.084,114.486c2.418,0,2.418-3.75,0-3.75S122.666,114.486,125.084,114.486L125.084,114.486z"/>
		</g>
	</g>
	<g>
		<g>
			<path fill="#FFFFFF" d="M77.083,110.528c1.612,0,1.612-2.5,0-2.5S75.472,110.528,77.083,110.528L77.083,110.528z"/>
		</g>
	</g>
	<g>
		<g>
			<path fill="#FFFFFF" d="M47.083,101.236c0.806,0,0.806-1.25,0-1.25S46.277,101.236,47.083,101.236L47.083,101.236z"/>
		</g>
	</g>
	<g>
		<g>
			<path fill="#FFFFFF" d="M35.083,55.236c0.806,0,0.806-1.25,0-1.25S34.277,55.236,35.083,55.236L35.083,55.236z"/>
		</g>
	</g>
	<g>
		<g>
			<path fill="#FFFFFF" d="M19.083,73.861c1.612,0,1.612-2.5,0-2.5S17.472,73.861,19.083,73.861L19.083,73.861z"/>
		</g>
	</g>
	<g>
		<g>
			<path fill="#FFFFFF" d="M148.417,55.82c2.418,0,2.418-3.75,0-3.75S145.999,55.82,148.417,55.82L148.417,55.82z"/>
		</g>
	</g>
	<g>
		<g>
			<path fill="#FFFFFF" d="M108.417,57.153c2.418,0,2.418-3.75,0-3.75S105.999,57.153,108.417,57.153L108.417,57.153z"/>
		</g>
	</g>
	<path fill="#772415" d="M136.657,80.104c-3.984,6.128-16.769,11.496-37.45,11.496c-20.684,0-30.246-3.765-37.449-11.496
		C55.922,73.84,78.625,69.162,99.31,69.162C119.991,69.162,141.323,72.926,136.657,80.104z"/>
	<g>
		<g>
			<path fill="#FFFFFF" d="M71.143,44.42c-3.766,2.627-9.716,8.424-4.42,12.756c3.632,2.971,10.007,2.518,13.437-0.571
				c4.902-4.416,2.908-12.699-1.627-16.64c-4.9-4.258-12.696-3.788-18.369-1.558c-2.965,1.166-1.675,6.003,1.33,4.821
				c3.197-1.258,6.65-1.846,10.056-1.18c4.149,0.811,7.44,5.059,6.293,9.395c-0.681,2.57-4.443,2.975-6.556,2.51
				c-3.9-0.859,0.977-4.236,2.38-5.217C76.29,46.906,73.793,42.569,71.143,44.42L71.143,44.42z"/>
		</g>
	</g>
	<g>
		<g>
			<path fill="#FFFFFF" d="M33.209,66.254c0.816,0.699,1.663,1.351,2.529,1.987c0.427,0.286,0.824,0.607,1.192,0.965
				c0.024-0.184,0.05-0.367,0.074-0.552c-0.511,0.598-1.091,1.119-1.739,1.564c1.178,0,2.357,0,3.535,0
				c-3.017-2.447-6.29-5.744-1.063-7.327c4.129-1.251,9.637-0.413,12.943,2.425c2.433,2.088,5.986-1.432,3.535-3.535
				c-5.076-4.357-13.148-5.725-19.377-3.154c-2.563,1.058-4.806,3.014-5.089,5.922c-0.375,3.857,2.779,6.986,5.515,9.205
				c1.156,0.938,2.378,0.916,3.535,0c1.995-1.578,3.599-3.395,2.962-6.072c-0.534-2.246-3.43-3.604-5.019-4.963
				C34.31,60.634,30.755,64.155,33.209,66.254L33.209,66.254z"/>
		</g>
	</g>
	<ellipse fill="#231F20" cx="74.323" cy="50.613" rx="6.186" ry="6.293"/>
	<ellipse fill="#231F20" cx="40.254" cy="67.048" rx="3.275" ry="3.563"/>
	<polygon fill="#FFFFFF" points="107.989,104.241 97.239,87.57 111.33,97.909 109.182,93.422 107.559,90.037 106.958,83.497 
		115.197,84.209 110.75,76.111 120.227,79.295 120.407,72.09 127.525,74.778 124.911,68.271 128.389,72.371 120.795,56 
		145.184,76.194 	"/>
	<polygon fill="#FFFFFF" points="95.829,51.99 105.748,69.169 92.182,58.15 94.106,62.738 95.561,66.199 95.84,72.76 87.646,71.646 
		91.689,79.951 82.382,76.305 81.848,83.493 74.869,80.459 77.162,87.088 73.89,82.821 80.669,99.547 57.304,78.177 	"/>
</g>
</svg>
