<?xml version="1.0" encoding="utf-8"?>
<!-- Generator: Adobe Illustrator 16.0.0, SVG Export Plug-In . SVG Version: 6.00 Build 0)  -->
<!DOCTYPE svg PUBLIC "-//W3C//DTD SVG 1.1//EN" "http://www.w3.org/Graphics/SVG/1.1/DTD/svg11.dtd">
<svg version="1.1" id="Layer_1" xmlns="http://www.w3.org/2000/svg" xmlns:xlink="http://www.w3.org/1999/xlink" x="0px" y="0px"
	 width="200px" height="150px" viewBox="0 0 200 150" enable-background="new 0 0 200 150" xml:space="preserve">
<g>
	<path fill="#D35F27" d="M196.171,91.771c0,37.278-41.754,58.229-96.964,58.229S2.243,129.05,2.243,91.771
		c0-37.279,41.754-53.438,96.964-53.438S196.171,54.492,196.171,91.771z"/>
	<g>
		<g>
			<path fill="#EBDA93" d="M3.157,82.63c0,12.773,5.27,7.974,15.77,7.974c11,0.532,6,7.981,8,17.563
				c2.5,11.709,11,17.031,21.5,15.438c5.5-0.532,15.5-7.451,20.5-4.79c3.5,1.597,5,7.981,7.5,10.645c8,10.646,16.5,5.854,25-0.531
				c11-7.981,21-7.449,33.5-4.259c15.5,4.79,17.5,0,26.5-12.238c3-4.791,5-7.451,11-10.112c5.5-2.661,17-2.661,21-6.388
				c5.5-5.854,4.569-6.098,3.569-12.481c-1-9.048-3.197-14.732-11.197-20.587c-5.5-4.258-12.872-12.171-19.872-14.832
				c-7.5-2.661-15-6.388-23.5-7.452c-8.5-0.531-9.637-2.064-17.854-3.052c-28.666-3.44-57.577-0.438-82.077,8.078
				c-5,1.597-9.483,3.706-13.946,5.407C15.415,56.013,2.376,66.714,3.157,82.63"/>
		</g>
		<g>
			<g>
				<path fill="#7C953B" d="M150.749,71.237c0.807,0,0.807-1.25,0-1.25S149.942,71.237,150.749,71.237L150.749,71.237z"/>
			</g>
		</g>
		<g>
			<g>
				<path fill="#7C953B" d="M180.249,73.487c2.418,0,2.418-3.75,0-3.75S177.831,73.487,180.249,73.487L180.249,73.487z"/>
			</g>
		</g>
		<g>
			<g>
				<path fill="#7C953B" d="M154.749,100.112c3.225,0,3.225-5,0-5S151.524,100.112,154.749,100.112L154.749,100.112z"/>
			</g>
		</g>
		<g>
			<g>
				<path fill="#7C953B" d="M123.749,96.862c1.612,0,1.612-2.5,0-2.5S122.137,96.862,123.749,96.862L123.749,96.862z"/>
			</g>
		</g>
		<g>
			<g>
				<path fill="#7C953B" d="M96.249,111.987c2.418,0,2.418-3.75,0-3.75S93.831,111.987,96.249,111.987L96.249,111.987z"/>
			</g>
		</g>
		<g>
			<g>
				<path fill="#7C953B" d="M71.749,99.612c3.225,0,3.225-5,0-5S68.524,99.612,71.749,99.612L71.749,99.612z"/>
			</g>
		</g>
		<g>
			<g>
				<path fill="#7C953B" d="M51.249,108.237c0.807,0,0.807-1.25,0-1.25S50.442,108.237,51.249,108.237L51.249,108.237z"/>
			</g>
		</g>
		<g>
			<g>
				<path fill="#7C953B" d="M172.249,61.362c1.612,0,1.612-2.5,0-2.5S170.637,61.362,172.249,61.362L172.249,61.362z"/>
			</g>
		</g>
		<g>
			<g>
				<path fill="#7C953B" d="M25.749,57.237c0.807,0,0.807-1.25,0-1.25S24.942,57.237,25.749,57.237L25.749,57.237z"/>
			</g>
		</g>
		<g>
			<g>
				<path fill="#7C953B" d="M160.743,83.987c2.418,0,2.418-3.75,0-3.75S158.325,83.987,160.743,83.987L160.743,83.987z"/>
			</g>
		</g>
		<g>
			<g>
				<path fill="#7C953B" d="M135.749,108.487c2.418,0,2.418-3.75,0-3.75S133.331,108.487,135.749,108.487L135.749,108.487z"/>
			</g>
		</g>
		<g>
			<g>
				<path fill="#7C953B" d="M91.749,95.362c1.611,0,1.611-2.5,0-2.5S90.138,95.362,91.749,95.362L91.749,95.362z"/>
			</g>
		</g>
		<g>
			<g>
				<path fill="#7C953B" d="M47.745,99.362c1.611,0,1.611-2.5,0-2.5C46.133,96.862,46.133,99.362,47.745,99.362L47.745,99.362z"/>
			</g>
		</g>
		<g>
			<g>
				<path fill="#7C953B" d="M12.249,68.362c1.611,0,1.611-2.5,0-2.5S10.638,68.362,12.249,68.362L12.249,68.362z"/>
			</g>
		</g>
		<g>
			<g>
				<path fill="#7C953B" d="M133.749,70.362c1.612,0,1.612-2.5,0-2.5S132.137,70.362,133.749,70.362L133.749,70.362z"/>
			</g>
		</g>
		<g>
			<g>
				<path fill="#7C953B" d="M192.249,81.237c0.807,0,0.807-1.25,0-1.25S191.442,81.237,192.249,81.237L192.249,81.237z"/>
			</g>
		</g>
		<g>
			<g>
				<path fill="#7C953B" d="M113.749,114.737c0.807,0,0.807-1.25,0-1.25S112.942,114.737,113.749,114.737L113.749,114.737z"/>
			</g>
		</g>
		<g>
			<g>
				<path fill="#7C953B" d="M62.749,88.737c0.807,0,0.807-1.25,0-1.25S61.942,88.737,62.749,88.737L62.749,88.737z"/>
			</g>
		</g>
		<g>
			<g>
				<path fill="#7C953B" d="M178.249,88.237c0.807,0,0.807-1.25,0-1.25S177.442,88.237,178.249,88.237L178.249,88.237z"/>
			</g>
		</g>
		<g>
			<g>
				<path fill="#7C953B" d="M85.749,121.737c0.807,0,0.807-1.25,0-1.25S84.942,121.737,85.749,121.737L85.749,121.737z"/>
			</g>
		</g>
	</g>
	<path fill="#772415" d="M136.657,80.105c-3.984,6.128-16.77,11.496-37.449,11.496c-20.684,0-30.246-3.768-37.449-11.496
		c-5.836-6.265,16.867-10.942,37.551-10.942C119.991,69.163,141.323,72.927,136.657,80.105z"/>
	<g>
		<path fill="#A9862E" d="M10.841,99.317c0,0-15.938-21.211,19.76-43.188c0,0,41.348-23.379,78.16-27.257
			c0,0,53.741-13.995,65.411,15.229c0,0,4.386,15.658-18.37,17.429c0,0-74.097,13.655-83.053,18.851
			C72.749,80.382,23.781,111.485,10.841,99.317z"/>
		<path fill="#F7DC04" d="M12.603,88.29c0,0-8.601-21.928,49.687-45.341c0,0,61.464-18.836,76.94-16.097
			c0,0,29.627,1.259,14.184,11.708c0,0-25.41,2.002-43.441,8.844c0,0-45.141,12.708-55.519,22.925
			C54.453,70.329,19.813,94.806,12.603,88.29z"/>
	</g>
</g>
</svg>
