<?xml version="1.0" encoding="utf-8"?>
<!-- Generator: Adobe Illustrator 16.0.0, SVG Export Plug-In . SVG Version: 6.00 Build 0)  -->
<!DOCTYPE svg PUBLIC "-//W3C//DTD SVG 1.1//EN" "http://www.w3.org/Graphics/SVG/1.1/DTD/svg11.dtd">
<svg version="1.1" id="Layer_1" xmlns="http://www.w3.org/2000/svg" xmlns:xlink="http://www.w3.org/1999/xlink" x="0px" y="0px"
	 width="200px" height="150px" viewBox="0 0 200 150" enable-background="new 0 0 200 150" xml:space="preserve">
<g>
	<g>
		<path fill="#D35F27" d="M196.171,91.771c0,37.278-41.754,58.229-96.964,58.229c-55.21,0-96.964-20.951-96.964-58.229
			c0-37.279,41.754-53.437,96.964-53.437C154.417,38.333,196.171,54.491,196.171,91.771z"/>
	</g>
	<g>
		<path fill="#E9D3CD" d="M3.157,82.629c0,12.773,5.27,7.97,15.77,7.97c11,0.533,6,7.984,8,17.564c2.5,11.709,11,17.031,21.5,15.436
			c5.5-0.532,15.5-7.451,20.5-4.791c3.5,1.598,5,7.983,7.5,10.646c8,10.646,16.5,5.854,25-0.532c11-7.982,21-7.451,33.5-4.258
			c15.5,4.79,17.5,0,26.5-12.24c3-4.791,5-7.451,11-10.113c5.5-2.66,17-2.66,21-6.387c5.5-5.854,4.569-6.096,3.569-12.481
			c-1-9.048-3.197-14.732-11.197-20.587c-5.5-4.258-12.872-12.171-19.872-14.832c-7.5-2.661-15-6.388-23.5-7.452
			c-8.5-0.532-9.637-2.065-17.856-3.052c-28.666-3.441-57.577-0.438-82.077,8.078c-5,1.597-9.484,3.707-13.946,5.408
			C15.415,56.011,2.375,66.713,3.157,82.629"/>
	</g>
	<g>
		<path fill="#A8715D" d="M10.249,72.611c-4.5-12,22.5,2,25,4c12.5,10.5,5,19,11.5,31.5c8.5,15.5,10-15.5,7-22
			c-5-11-22-19.5-23.5-31.5c18-11.5,29,17.5,34.5,29c6.5,12.5,15,24.5,27.5,31.5c4,2,14,7.5,18,4.5c3-2,2.5-12.5,2-15
			c-1.5-13.5-12-22.5-22-31c-10-9-21-18-31-26.5c15.5-10,46,6.5,53.5,21.5c7,14.5,13,29.5,31.5,32c25,3.5,21-20,6-32
			c-13.5-10.5-32.5-15.5-48.5-20.5c-4-1.5-7-2-10-5c19.5-5.5,50-2,66.5,9.5c6.5,4,19.5,23.5,27.5,22c13.5-3-17.5-19.5-14.5-4.5"/>
		<g>
			<path fill="#923D20" d="M12.66,71.946c-0.708-2.116-0.364-1.879,2.016-1.494c2.827,0.458,5.577,1.559,8.218,2.627
				c4.651,1.882,9.462,4.045,13.05,7.602c6.159,6.106,4.424,15.066,6.317,22.782c0.908,3.702,4.171,12.448,9.504,11.342
				c7.908-1.643,6.21-19.868,5.398-25.279C54.875,74.278,35.149,68.942,32.66,53.946c-0.384,0.941-0.767,1.882-1.149,2.823
				c15.366-9.228,24.812,14.479,29.712,25.165c7.978,17.395,20.266,31.935,38.197,39.274c6.066,2.483,13.12,2.98,15.067-4.483
				c1.781-6.827,0.51-15.78-2.438-22.054c-4.417-9.396-12.265-16.221-20.031-22.829c-10.352-8.809-20.634-17.705-31-26.5
				c-0.168,1.309-0.337,2.618-0.506,3.926c8.526-5.136,19.372-2.174,27.819,1.647c8.732,3.95,17.7,10.315,22.261,18.956
				c4.576,8.67,8.06,17.667,15.185,24.683c6.725,6.62,17.324,10.028,26.662,8.657c17.237-2.529,12.846-21.043,4.996-30.993
				c-6.768-8.576-17.672-13.469-27.539-17.446c-6.045-2.437-12.285-4.389-18.507-6.314c-5.811-1.797-13.244-2.952-17.871-7.117
				c-0.367,1.393-0.735,2.786-1.103,4.178c18.189-4.904,39.563-2.855,56.718,4.812c6.753,3.019,11.437,7.389,16.394,12.723
				c4.463,4.803,9.552,11.224,15.968,13.472c3.683,1.29,8.368,0.533,10.009-3.38c1.493-3.563-3.203-7.024-5.641-8.552
				c-6.858-4.298-18.869-5.065-17.022,6.178c0.522,3.176,5.341,1.824,4.822-1.329c-1.077-6.554,11.897-1.009,13.035,2.619
				c-0.181-0.572-1.787,0.243-3.118-0.093c-2.652-0.669-5.025-2.998-6.986-4.761c-4.324-3.89-8.061-8.4-12.13-12.546
				c-8.446-8.605-20.973-12.523-32.508-14.765c-13.349-2.593-27.685-2.756-40.87,0.799c-1.748,0.471-2.517,2.905-1.103,4.178
				c7.161,6.448,18.864,7.938,27.788,10.847c11.295,3.682,23.346,8.123,32.394,16.087c5.373,4.729,10.015,12.005,9.536,19.402
				c-0.622,9.614-14.623,7.453-20.508,5.707c-10.053-2.983-15.764-12.373-20.215-21.153c-4.084-8.058-7.439-14.718-14.518-20.61
				C92.766,45.42,72.563,36.172,57.987,44.95c-1.293,0.779-1.763,2.86-0.506,3.926c8.958,7.601,18.018,15.081,26.858,22.82
				c7.593,6.646,15.888,12.982,21.352,21.607c4.084,6.446,5.677,15.571,3.729,23.032c-1.666,6.385-20.691-6.354-23.166-8.354
				c-13.872-11.207-19.08-27.598-27.651-42.421C52.29,54.645,41.781,44.769,28.988,52.45c-1.037,0.623-1.337,1.69-1.149,2.823
				c1.243,7.483,6.84,13.063,12.034,18.165C44.687,78.166,51,83.142,52.233,90.133c0.932,5.283,0.657,11.268-0.453,16.494
				c-0.221,1.037-0.522,2.063-1.016,3.002c-0.29,0.554,0.713,0.682-0.305-0.384c-2.988-3.122-3.892-8.411-4.304-12.524
				c-0.758-7.57-1.392-13.657-6.677-19.576c-3.207-3.591-7.822-5.58-12.113-7.537c-5.007-2.284-23.834-9.215-19.528,3.667
				C8.854,76.317,13.685,75.013,12.66,71.946L12.66,71.946z"/>
		</g>
	</g>
</g>
</svg>
