<?xml version="1.0" encoding="utf-8"?>
<!-- Generator: Adobe Illustrator 16.0.0, SVG Export Plug-In . SVG Version: 6.00 Build 0)  -->
<!DOCTYPE svg PUBLIC "-//W3C//DTD SVG 1.1//EN" "http://www.w3.org/Graphics/SVG/1.1/DTD/svg11.dtd">
<svg version="1.1" id="Layer_1" xmlns="http://www.w3.org/2000/svg" xmlns:xlink="http://www.w3.org/1999/xlink" x="0px" y="0px"
	 width="200px" height="150px" viewBox="0 0 200 150" enable-background="new 0 0 200 150" xml:space="preserve">
<g>
	<path fill="#D35F27" d="M196.14,92.887c0.021-0.559,0.032-0.553,0.032-1.116c0-37.279-41.754-53.438-96.963-53.438
		c-55.21,0-96.964,16.157-96.964,53.437c0,37.281,41.754,58.23,96.964,58.23c8.372,0,16.43-0.484,24.084-1.432l-0.196-0.221
		l-3.813-6.041l-2.478-4.394l3.599-8.787l7.252-9.735l-0.481-5l3.413-5.547l1.416-2.498l12.047-3.054l1.77-3.844l2.477-2.476
		l3.892-3.566l9.2-4.393h14.152l7.076,4.232l7.075-4.76l3.539,0.445l2.104,4.871C195.334,93.807,195.613,93.305,196.14,92.887z"/>
	<g>
		<path fill="#F7A9B4" d="M193.231,88.934l2.104,4.873c3.326-3.914,2.524-4.855,1.662-10.366c-1-9.048-4.197-14.732-12.197-20.587
			c-5.5-4.258-11.871-12.171-18.871-14.832c-7.5-2.661-15-6.388-23.5-7.452c-8.5-0.532-9.637-2.065-17.855-3.052
			c-28.667-3.441-57.578-0.438-82.078,8.078c-5,1.597-9.484,3.707-13.946,5.408C15.418,56.011,2.379,66.712,3.161,82.628
			c0,12.773,5.27,7.972,15.77,7.972c11,0.531,6,7.983,8,17.563c2.5,11.709,11,17.031,21.5,15.435c5.5-0.531,15.5-7.45,20.5-4.789
			c3.5,1.597,5,7.982,7.5,10.645c8,10.645,16.5,5.854,25-0.531c8.088-5.871,15.639-7.127,24.037-6.117l2.19-3.412l-0.481-5
			l3.414-5.547l1.415-2.498l12.047-3.053l1.77-3.845l2.477-2.476l3.892-3.566l9.2-4.393h14.152l7.076,4.232l7.075-4.76
			L193.231,88.934z"/>
	</g>
	<g>
		<g>
			<path fill="#F27294" d="M113.977,44.074c0.807,0,0.807-1.25,0-1.25S113.17,44.074,113.977,44.074L113.977,44.074z"/>
		</g>
	</g>
	<g>
		<g>
			<path fill="#F27294" d="M157.977,66.615c3.225,0,3.225-5,0-5S154.752,66.615,157.977,66.615L157.977,66.615z"/>
		</g>
	</g>
	<g>
		<g>
			<path fill="#F27294" d="M60.644,101.282c3.224,0,3.224-5,0-5S57.419,101.282,60.644,101.282L60.644,101.282z"/>
		</g>
	</g>
	<g>
		<g>
			<path fill="#F27294" d="M12.644,75.324c2.419,0,2.419-3.75,0-3.75S10.225,75.324,12.644,75.324L12.644,75.324z"/>
		</g>
	</g>
	<g>
		<g>
			<path fill="#F27294" d="M48.644,53.282c3.224,0,3.224-5,0-5S45.419,53.282,48.644,53.282L48.644,53.282z"/>
		</g>
	</g>
	<g>
		<g>
			<path fill="#F27294" d="M173.977,75.532c-0.223,0-0.445,0-0.667,0c-1.612,0-1.612,2.5,0,2.5c0.222,0,0.444,0,0.667,0
				C175.588,78.032,175.588,75.532,173.977,75.532L173.977,75.532z"/>
		</g>
	</g>
	<g>
		<g>
			<path fill="#F27294" d="M91.977,106.657c2.418,0,2.418-3.75,0-3.75S89.559,106.657,91.977,106.657L91.977,106.657z"/>
		</g>
	</g>
	<g>
		<g>
			<path fill="#F27294" d="M36.644,103.365c1.612,0,1.612-2.5,0-2.5S35.032,103.365,36.644,103.365L36.644,103.365z"/>
		</g>
	</g>
	<g>
		<g>
			<path fill="#F27294" d="M137.31,54.657c2.419,0,2.419-3.75,0-3.75S134.891,54.657,137.31,54.657L137.31,54.657z"/>
		</g>
	</g>
	<g>
		<g>
			<path fill="#B92025" d="M94.644,47.949c3.224,0,3.224-5,0-5S91.419,47.949,94.644,47.949L94.644,47.949z"/>
		</g>
	</g>
	<g>
		<g>
			<path fill="#B92025" d="M149.977,89.324c2.418,0,2.418-3.75,0-3.75S147.559,89.324,149.977,89.324L149.977,89.324z"/>
		</g>
	</g>
	<g>
		<g>
			<path fill="#B92025" d="M42.644,90.074c0.806,0,0.806-1.25,0-1.25S41.837,90.074,42.644,90.074L42.644,90.074z"/>
		</g>
	</g>
	<g>
		<g>
			<path fill="#B92025" d="M11.31,85.324c2.419,0,2.419-3.75,0-3.75S8.891,85.324,11.31,85.324L11.31,85.324z"/>
		</g>
	</g>
	<g>
		<g>
			<path fill="#B92025" d="M26.644,65.365c1.612,0,1.612-2.5,0-2.5S25.032,65.365,26.644,65.365L26.644,65.365z"/>
		</g>
	</g>
	<g>
		<g>
			<path fill="#B92025" d="M151.31,64.074c0.806,0,0.806-1.25,0-1.25S150.504,64.074,151.31,64.074L151.31,64.074z"/>
		</g>
	</g>
	<g>
		<g>
			<path fill="#B92025" d="M109.31,60.074c0.806,0,0.806-1.25,0-1.25S108.504,60.074,109.31,60.074L109.31,60.074z"/>
		</g>
	</g>
	<g>
		<g>
			<path fill="#B92025" d="M185.31,68.699c1.612,0,1.612-2.5,0-2.5S183.697,68.699,185.31,68.699L185.31,68.699z"/>
		</g>
	</g>
	<g>
		<g>
			<path fill="#B92025" d="M100.769,115.449c-0.005,0.23,0.103-0.605,0.042-0.326c-0.052,0.172-0.014,0.086,0.113-0.254
				c0.191-0.383,0.641-0.602,1.053-0.629c-1.02,0.068-1.875,0.801-1.875,1.875c0,0.97,0.854,1.943,1.875,1.875
				c1.42-0.098,2.508-1.084,2.542-2.541c0.024-1.021-0.871-1.875-1.875-1.875C101.604,113.574,100.792,114.428,100.769,115.449
				L100.769,115.449z"/>
		</g>
	</g>
	<g>
		<g>
			<path fill="#B92025" d="M71.977,104.699c1.612,0,1.612-2.5,0-2.5S70.365,104.699,71.977,104.699L71.977,104.699z"/>
		</g>
	</g>
	<g>
		<g>
			<path fill="#B92025" d="M46.644,113.949c3.224,0,3.224-5,0-5S43.419,113.949,46.644,113.949L46.644,113.949z"/>
		</g>
	</g>
	<g>
		<g>
			<path fill="#B92025" d="M138.644,47.365c0.222,0,0.444,0,0.666,0c1.612,0,1.612-2.5,0-2.5c-0.222,0-0.444,0-0.666,0
				C137.031,44.865,137.031,47.365,138.644,47.365L138.644,47.365z"/>
		</g>
	</g>
	<g>
		<g>
			<path fill="#B92025" d="M57.977,62.657c2.418,0,2.418-3.75,0-3.75S55.559,62.657,57.977,62.657L57.977,62.657z"/>
		</g>
	</g>
	<g>
		<g>
			<path fill="#FFFFFF" d="M29.31,86.615c3.224,0,3.224-5,0-5S26.085,86.615,29.31,86.615L29.31,86.615z"/>
		</g>
	</g>
	<g>
		<g>
			<path fill="#FFFFFF" d="M123.31,48.74c0.806,0,0.806-1.25,0-1.25S122.504,48.74,123.31,48.74L123.31,48.74z"/>
		</g>
	</g>
	<g>
		<g>
			<path fill="#FFFFFF" d="M144.644,75.282c3.224,0,3.224-5,0-5S141.42,75.282,144.644,75.282L144.644,75.282z"/>
		</g>
	</g>
	<g>
		<g>
			<path fill="#FFFFFF" d="M168.644,89.949c3.224,0,3.224-5,0-5S165.42,89.949,168.644,89.949L168.644,89.949z"/>
		</g>
	</g>
	<g>
		<g>
			<path fill="#FFFFFF" d="M124.644,113.99c2.419,0,2.419-3.75,0-3.75S122.225,113.99,124.644,113.99L124.644,113.99z"/>
		</g>
	</g>
	<g>
		<g>
			<path fill="#FFFFFF" d="M76.644,110.032c1.612,0,1.612-2.5,0-2.5S75.032,110.032,76.644,110.032L76.644,110.032z"/>
		</g>
	</g>
	<g>
		<g>
			<path fill="#FFFFFF" d="M46.644,100.74c0.806,0,0.806-1.25,0-1.25S45.837,100.74,46.644,100.74L46.644,100.74z"/>
		</g>
	</g>
	<g>
		<g>
			<path fill="#FFFFFF" d="M34.644,54.74c0.806,0,0.806-1.25,0-1.25S33.837,54.74,34.644,54.74L34.644,54.74z"/>
		</g>
	</g>
	<g>
		<g>
			<path fill="#FFFFFF" d="M18.644,73.365c1.612,0,1.612-2.5,0-2.5S17.032,73.365,18.644,73.365L18.644,73.365z"/>
		</g>
	</g>
	<g>
		<g>
			<path fill="#FFFFFF" d="M147.977,55.324c2.418,0,2.418-3.75,0-3.75S145.559,55.324,147.977,55.324L147.977,55.324z"/>
		</g>
	</g>
	<g>
		<g>
			<path fill="#FFFFFF" d="M107.977,56.657c2.418,0,2.418-3.75,0-3.75S105.559,56.657,107.977,56.657L107.977,56.657z"/>
		</g>
	</g>
	<path fill="#772415" d="M136.217,79.608c-3.984,6.128-16.768,11.496-37.449,11.496c-20.684,0-30.246-3.765-37.449-11.496
		c-5.836-6.264,16.867-10.942,37.551-10.942C119.551,68.666,140.883,72.43,136.217,79.608z"/>
	<g>
		<g>
			<path fill="#FFFFFF" d="M70.703,43.924c-3.766,2.627-9.716,8.424-4.419,12.756c3.631,2.971,10.006,2.518,13.436-0.571
				c4.902-4.416,2.908-12.699-1.627-16.64c-4.9-4.258-12.696-3.788-18.369-1.558c-2.965,1.166-1.675,6.003,1.33,4.821
				c3.197-1.258,6.65-1.846,10.056-1.18c4.149,0.811,7.44,5.059,6.292,9.395c-0.68,2.57-4.441,2.975-6.555,2.51
				c-3.9-0.859,0.977-4.236,2.38-5.217C75.85,46.41,73.354,42.073,70.703,43.924L70.703,43.924z"/>
		</g>
	</g>
	<g>
		<g>
			<path fill="#FFFFFF" d="M32.77,65.758c0.816,0.699,1.663,1.351,2.529,1.987c0.426,0.286,0.824,0.607,1.193,0.965
				c0.023-0.184,0.049-0.367,0.073-0.552c-0.511,0.598-1.091,1.119-1.739,1.564c1.178,0,2.357,0,3.535,0
				c-3.017-2.447-6.29-5.744-1.063-7.327c4.129-1.251,9.637-0.413,12.943,2.425c2.432,2.088,5.986-1.432,3.535-3.535
				c-5.076-4.357-13.148-5.725-19.377-3.154c-2.563,1.058-4.806,3.014-5.088,5.922c-0.376,3.857,2.778,6.986,5.514,9.205
				c1.156,0.938,2.378,0.916,3.535,0c1.995-1.578,3.599-3.395,2.962-6.072c-0.534-2.246-3.43-3.604-5.019-4.963
				C33.87,60.138,30.315,63.659,32.77,65.758L32.77,65.758z"/>
		</g>
	</g>
	<ellipse fill="#231F20" cx="73.883" cy="50.117" rx="6.186" ry="6.293"/>
	<ellipse fill="#231F20" cx="39.814" cy="66.552" rx="3.275" ry="3.563"/>
	<polygon fill="#FFFFFF" points="107.549,103.745 96.799,87.074 110.89,97.413 108.742,92.926 107.119,89.541 106.518,83.001 
		114.757,83.712 110.31,75.615 119.785,78.799 119.967,71.594 127.086,74.282 124.471,67.775 127.949,71.875 120.354,55.504 
		144.742,75.698 	"/>
	<polygon fill="#FFFFFF" points="95.389,51.494 105.308,68.673 91.742,57.654 93.667,62.242 95.122,65.703 95.4,72.264 
		87.206,71.149 91.25,79.455 81.942,75.809 81.408,82.997 74.429,79.963 76.722,86.592 73.45,82.325 80.229,99.051 56.864,77.681 	
		"/>
	<path fill="#E69F6B" d="M123.138,148.155l-3.813-6.041l-2.478-4.394l3.599-8.787l7.252-9.735l-0.481-5l3.413-5.548l1.416-2.498
		l12.047-3.053l1.769-3.844l2.478-2.477l3.892-3.566l9.2-4.393h14.152l7.076,4.232l7.075-4.76l3.539,0.445l2.104,4.874
		c0,0-2.86,6.401-2.86,8.599s0,10.598,0,10.598l-3.209,6.24l-6.124,1.76l-7.88,1.638l-8.062-0.985l-7.254-3.236l-7.375,3.541
		l-11.547,1.043l-3.439,4.334l-3.854,10l-5.835,3.589l-1.243,6.299L123.138,148.155L123.138,148.155z"/>
</g>
</svg>
