<?xml version="1.0" encoding="utf-8"?>
<!-- Generator: Adobe Illustrator 16.0.0, SVG Export Plug-In . SVG Version: 6.00 Build 0)  -->
<!DOCTYPE svg PUBLIC "-//W3C//DTD SVG 1.1//EN" "http://www.w3.org/Graphics/SVG/1.1/DTD/svg11.dtd">
<svg version="1.1" id="Layer_1" xmlns="http://www.w3.org/2000/svg" xmlns:xlink="http://www.w3.org/1999/xlink" x="0px" y="0px"
	 width="612px" height="792px" viewBox="0 0 612 792" enable-background="new 0 0 612 792" xml:space="preserve">
<g>
	<path fill="#D35F27" d="M415.422,403.159c0,37.278-41.754,58.229-96.964,58.229s-96.964-20.951-96.964-58.229
		c0-37.279,41.754-53.437,96.964-53.437S415.422,365.88,415.422,403.159z"/>
</g>
<g>
	<path fill="#ACA6B4" d="M222.408,394.018c0,12.773,5.27,7.972,15.77,7.972c11,0.532,6,7.983,8,17.563
		c2.5,11.709,11,17.031,21.5,15.436c5.5-0.532,15.5-7.451,20.5-4.79c3.5,1.597,5,7.983,7.5,10.645c8,10.646,16.5,5.854,25-0.532
		c11-7.982,21-7.451,33.5-4.258c15.5,4.79,17.5,0,26.5-12.24c3-4.791,5-7.451,11-10.112c5.5-2.661,17-2.661,21-6.388
		c5.5-5.854,4.569-6.096,3.569-12.481c-1-9.048-3.197-14.732-11.197-20.587c-5.5-4.258-12.872-12.171-19.872-14.832
		c-7.5-2.661-15-6.388-23.5-7.452c-8.5-0.532-9.637-2.065-17.855-3.052c-28.666-3.441-57.577-0.438-82.077,8.078
		c-5,1.597-9.484,3.707-13.946,5.408C234.666,367.4,221.627,378.102,222.408,394.018"/>
</g>
<path fill="#772415" d="M355.908,391.493c-3.984,6.128-16.768,11.496-37.449,11.496c-20.684,0-30.246-3.765-37.449-11.496
	c-5.836-6.265,16.867-10.942,37.551-10.942C339.242,380.551,360.574,384.314,355.908,391.493z"/>
<g>
	<g>
		<g>
			<g>
				<g>
					<path fill="none" d="M235.433,387.882c0.001,0,0.663,0.194,1.721,0.571c1.054,0.371,2.501,0.938,3.958,1.574
						c1.457,0.633,2.916,1.324,3.992,1.861c1.064,0.545,1.775,0.906,1.775,0.906l7.456-14.156c0,0-0.847-0.433-2.116-1.082
						c-1.271-0.633-2.973-1.441-4.724-2.202c-1.748-0.764-3.557-1.476-4.977-1.977c-1.413-0.504-2.429-0.805-2.429-0.805
						L235.433,387.882z"/>
					<path fill="#493E5B" d="M250.606,385.718c-2.104,3.888-6.31,5.692-9.495,4.31c-1.607-0.698-2.702-2.088-3.289-3.823
						c-0.575-1.738-0.693-3.861-0.061-5.975c0.634-2.119,2.017-3.795,3.828-4.693c1.805-0.904,3.97-1.021,5.905-0.18
						C251.397,377.056,252.709,381.836,250.606,385.718z"/>
				</g>
			</g>
			<g>
				<g>
					<path fill="none" d="M254.786,406.898c0,0,0.078,0.94,0.196,2.352c0.065,0.727,0.194,1.662,0.312,2.617
						c0.181,1.006,0.341,2.078,0.606,3.168c0.518,2.197,1.261,4.357,1.973,5.945c0.368,0.791,0.676,1.451,0.891,1.912
						c0.205,0.455,0.379,0.731,0.379,0.731l13.998-7.749c-0.01,0.032-0.232-0.505-0.607-1.302c-0.362-0.802-0.76-1.962-1.049-3.167
						c-0.154-0.605-0.241-1.271-0.361-1.874c-0.074-0.673-0.164-1.252-0.216-1.832c-0.1-1.202-0.167-2.004-0.167-2.004
						L254.786,406.898z"/>
					<path fill="#493E5B" d="M266.142,419.75c-1.943,1.09-4.074,1.291-6.052,0.447c-1.015-0.41-1.874-1.092-2.611-1.975
						c-0.773-0.875-1.266-1.978-1.578-3.188c-0.283-1.2-0.248-2.388-0.007-3.439c0.285-1.021,0.735-1.989,1.408-2.719
						c1.319-1.504,3.256-2.414,5.462-2.579c2.199-0.163,4.256,0.487,5.8,1.504c0.765,0.534,1.445,1.057,1.923,1.696
						c0.512,0.599,0.836,1.231,0.998,1.909c0.184,0.656,0.09,1.355-0.06,2.037c-0.182,0.697-0.562,1.445-0.993,2.162
						C269.507,417.066,268.048,418.682,266.142,419.75z"/>
				</g>
			</g>
			<g>
				<g>
					<path fill="none" d="M303.664,431.048c0,0,0.281,0.188,0.775,0.519c0.465,0.332,1.279,0.798,2.202,1.351
						c0.932,0.585,2.054,1.131,2.993,1.606c1.029,0.519,2.155,1.08,3.345,1.629c2.354,1.105,4.953,2.13,7.207,2.763
						c1.092,0.328,2.186,0.53,2.916,0.673c0.816,0.107,1.283,0.169,1.283,0.169l1.684-15.909c0,0-0.113-0.022-0.315-0.037
						c-0.272-0.068-0.63-0.11-1.224-0.293c-1.135-0.316-2.928-0.986-4.819-1.879c-0.942-0.435-1.916-0.921-2.853-1.392
						c-1.022-0.519-1.75-0.868-2.301-1.235c-0.582-0.359-1.054-0.604-1.423-0.875c-0.358-0.24-0.563-0.38-0.563-0.38
						L303.664,431.048z"/>
					<path fill="#493E5B" d="M325.229,431.801c-0.115,1.098-0.494,2.112-1.231,2.979c-0.371,0.436-0.783,0.799-1.289,1.131
						c-0.51,0.334-1.076,0.606-1.666,0.812c-2.422,0.846-5.46,0.651-8.063-0.568c-1.314-0.606-2.396-1.403-3.246-2.285
						c-0.209-0.219-0.404-0.445-0.59-0.678c-0.209-0.242-0.408-0.494-0.592-0.748c-0.371-0.525-0.691-1.112-0.935-1.672
						c-1.012-2.256-0.713-4.541,0.501-6.367c1.229-1.85,3.213-2.871,5.148-3.436c0.491-0.133,0.953-0.216,1.461-0.269
						c0.264-0.028,0.524-0.048,0.791-0.052c0.289,0.011,0.58,0.031,0.873,0.066c1.154,0.127,2.278,0.444,3.318,0.922
						c2.093,0.979,3.464,2.437,4.318,4.172c0.226,0.447,0.406,0.896,0.56,1.356c0.156,0.464,0.308,0.978,0.408,1.468
						C325.201,429.621,325.342,430.703,325.229,431.801z"/>
				</g>
			</g>
			<g>
				<g>
					<path fill="none" d="M362.404,419.925c0,0,1.08,0.119,2.697,0.298c0.854,0.043,1.83,0.109,2.914,0.122
						c1.114-0.026,2.271-0.019,3.533-0.181c2.467-0.242,5.143-0.882,7.213-1.854c0.508-0.203,0.978-0.443,1.396-0.688
						c0.412-0.238,0.773-0.446,1.07-0.617c0.293-0.163,0.521-0.351,0.676-0.455c0.156-0.112,0.238-0.174,0.238-0.174l-9.363-12.976
						c-0.008-0.004-0.012,0.035-0.102,0.08c-0.052,0.021-0.109,0.049-0.172,0.088c-0.052,0.046-0.132,0.093-0.261,0.127
						c-0.379,0.209-1.259,0.445-2.386,0.558c-0.531,0.086-1.188,0.063-1.766,0.091c-0.609-0.011-1.213-0.057-1.714-0.07
						c-1.077-0.119-1.794-0.199-1.794-0.199L362.404,419.925z"/>
					<path fill="#493E5B" d="M377.462,409.889c0.646,0.889,1.101,1.891,1.214,2.953c0.112,1.021-0.105,2.209-0.679,3.247
						c-1.14,2.179-3.702,3.797-6.447,4.075c-1.396,0.179-2.618-0.071-3.735-0.445c-1.064-0.445-1.988-1.068-2.686-1.849
						c-1.374-1.604-1.941-3.685-1.633-5.87c0.311-2.186,1.35-4.088,2.577-5.404c0.606-0.681,1.241-1.25,1.905-1.617
						c0.61-0.438,1.295-0.629,1.883-0.725c1.22-0.143,2.201,0.546,3.41,1.555c0.633,0.529,1.287,1.096,2.051,1.785
						C376.053,408.266,376.811,408.991,377.462,409.889z"/>
				</g>
			</g>
			<g>
				<g>
					<path fill="none" d="M415.084,378.193c0,0-0.066-0.119-0.189-0.342c-0.119-0.195-0.316-0.542-0.543-0.861
						c-0.476-0.707-1.121-1.482-1.875-2.238c-1.504-1.51-3.365-2.838-5.268-3.907c-1.896-1.073-3.871-1.888-5.477-2.402
						c-1.59-0.521-2.806-0.739-2.805-0.739l-3.162,15.684c0,0,0.362,0.058,1.051,0.281c0.674,0.213,1.664,0.619,2.547,1.121
						c0.884,0.487,1.609,1.069,1.789,1.267c0.091,0.092,0.082,0.09-0.01-0.035c-0.084-0.115-0.152-0.26-0.16-0.269L415.084,378.193z
						"/>
					<path fill="#493E5B" d="M397.348,375.545c0.405-2.16,1.635-3.997,3.512-4.922c1.855-0.939,4.244-0.963,6.351,0.222
						c2.101,1.175,3.517,3.374,3.746,5.701c0.117,1.157-0.078,2.313-0.599,3.261c-0.515,0.965-1.346,1.648-2.323,2.166
						c-0.972,0.516-1.978,0.887-2.845,1.309c-0.877,0.409-1.65,0.827-2.34,1.157c-1.373,0.664-2.513,0.901-3.485,0.351
						c-0.972-0.544-1.563-1.754-1.912-3.378C397.126,379.781,396.938,377.721,397.348,375.545z"/>
				</g>
			</g>
			<g>
				<g>
					<path fill="none" d="M265.319,400.084l14.102-7.561l-0.001-0.002l0,0c-3.346,0.521-3.234,0.502-5.021,0.78l0,0l0.001-0.001
						l0.002-0.001l0.008-0.004c0.007-0.003,0.018-0.008,0.031-0.014c0.027-0.013,0.068-0.031,0.121-0.058
						c0.106-0.049,0.263-0.121,0.462-0.212c0.396-0.184,0.965-0.444,1.646-0.759c1.362-0.628,3.179-1.465,4.995-2.303
						c3.633-1.674,7.265-3.35,7.265-3.35s-0.635-1.353-1.746-3.718c-0.292-0.597-0.615-1.258-0.967-1.979
						c-0.368-0.723-0.766-1.506-1.191-2.342c-0.222-0.418-0.451-0.85-0.687-1.295c-0.245-0.445-0.497-0.903-0.756-1.373
						c-0.132-0.235-0.266-0.474-0.4-0.715c-0.141-0.24-0.282-0.484-0.426-0.73c-0.144-0.247-0.289-0.496-0.436-0.749
						c-0.154-0.252-0.31-0.507-0.467-0.765c-0.158-0.257-0.318-0.518-0.48-0.78l-0.25-0.396l-0.26-0.399
						c-0.175-0.268-0.351-0.537-0.528-0.81l-0.272-0.409l-0.288-0.413c-0.192-0.276-0.387-0.554-0.583-0.835l-0.301-0.422
						l-0.318-0.424c-0.214-0.283-0.429-0.568-0.646-0.855l-0.163-0.217l-0.174-0.215l-0.354-0.434
						c-0.237-0.289-0.477-0.58-0.717-0.873l-0.091-0.109l-0.097-0.109l-0.196-0.219l-0.394-0.438l-0.397-0.44l-0.2-0.221
						l-0.101-0.111l-0.108-0.109l-0.878-0.879l-0.445-0.441l-0.482-0.436l-0.986-0.871l-0.125-0.108l-0.132-0.107l-0.272-0.212
						l-0.549-0.424l-0.554-0.422l-0.282-0.209l-0.304-0.202c-0.409-0.266-0.82-0.532-1.232-0.8l-0.155-0.1l-0.078-0.049
						l-0.083-0.047l-0.339-0.186l-0.683-0.365l-0.689-0.36l-0.173-0.089l-0.186-0.082l-0.374-0.158l-1.514-0.615l-0.098-0.035
						l-0.102-0.031l-0.203-0.063l-0.406-0.123l-0.819-0.236l-0.411-0.113l-0.206-0.057l-0.105-0.024l-0.107-0.021l-0.862-0.155
						l-0.867-0.141l-0.435-0.065l-0.055-0.007l-0.056-0.004l-0.11-0.007l-0.221-0.015l-0.888-0.047l-0.89-0.031l-0.223-0.005
						l-0.056-0.002l-0.056,0.004l-0.109,0.006l-0.44,0.027l-0.882,0.064l-0.882,0.082l-0.109,0.011l-0.106,0.019l-0.212,0.039
						l-0.424,0.079l-0.847,0.17l-0.845,0.183l-0.053,0.012l-0.049,0.016l-0.1,0.03l-0.198,0.062l-0.396,0.124l-0.791,0.257
						l-0.788,0.268l-0.099,0.033l-0.092,0.039l-0.182,0.078l-0.363,0.16l-1.444,0.654l-0.356,0.17l-0.328,0.185l-0.655,0.372
						l-1.302,0.761c-2.129,1.36-4.258,2.72-4.258,2.72s0.313,2.508,0.627,5.016l0.259,1.375l0.29,1.369l0.155,0.68l0.216,0.629
						l0.449,1.249l0.468,1.239l0.552,1.113l0.565,1.1l0.287,0.547l0.071,0.135l0.077,0.124l0.154,0.243
						c0.417,0.646,0.832,1.288,1.245,1.928l0.157,0.238l0.078,0.117l0.081,0.107l0.323,0.427l0.646,0.849l0.646,0.84l0.162,0.205
						l0.163,0.189l0.324,0.379c0.435,0.502,0.865,1,1.293,1.494c0.427,0.459,0.851,0.914,1.271,1.365l0.628,0.666l0.615,0.631
						c0.806,0.803,1.595,1.588,2.362,2.354c0.743,0.727,1.465,1.432,2.163,2.114c0.665,0.657,1.308,1.293,1.924,1.901
						c0.298,0.301,0.589,0.594,0.873,0.881c0.267,0.281,0.528,0.558,0.782,0.824c0.253,0.269,0.499,0.527,0.739,0.781
						c0.216,0.248,0.427,0.489,0.631,0.723c0.204,0.234,0.402,0.459,0.594,0.678l0.143,0.16l0.119,0.155
						c0.078,0.103,0.155,0.202,0.231,0.302c0.306,0.391,0.586,0.748,0.839,1.072c0.405,0.617,0.724,1.102,0.94,1.432
						C265.236,399.92,265.319,400.084,265.319,400.084z"/>
					<path fill="#493E5B" d="M281.664,389.953l-0.096,0.04l-0.099,0.032l-0.101,0.025l-0.104,0.02l-0.106,0.013l-0.11,0.006
						l-0.112-0.001l-0.114-0.008l-0.118-0.016l-0.12-0.021l-0.123-0.027l-0.126-0.033l-0.128-0.041l-0.131-0.049l-0.269-0.113
						l-0.279-0.139l-0.288-0.164l-0.298-0.188l-0.309-0.211l-0.316-0.234l-0.326-0.258l-0.679-0.581l-0.353-0.321l-0.361-0.345
						l-0.749-0.744l-0.78-0.821l-0.817-0.887l-1.736-1.957l-1.877-2.15c-0.802,1.838-0.775,1.777-1.203,2.759l0.006,0.009
						l0.012,0.019l0.024,0.035l0.047,0.071l0.095,0.144l0.187,0.297l0.363,0.586l0.677,1.134l0.159,0.276l0.154,0.279l0.292,0.563
						l0.534,1.086l0.24,0.521l0.114,0.256l0.104,0.264l0.194,0.52l0.177,0.5l0.158,0.482l0.14,0.464l0.123,0.446l0.026,0.109
						l0.023,0.113l0.041,0.225l0.07,0.432l0.053,0.41l0.036,0.39l0.019,0.367l0.001,0.346l-0.015,0.323l-0.032,0.303l-0.027,0.146
						l-0.034,0.145l-0.078,0.27l-0.045,0.127l-0.049,0.119l-0.052,0.115l-0.056,0.107l-0.06,0.104l-0.063,0.096l-0.066,0.093
						l-0.07,0.084l-0.073,0.08l-0.076,0.073l-0.08,0.068l-0.083,0.063l-0.086,0.057l-0.09,0.052l-0.093,0.047l-0.095,0.041
						l-0.098,0.035l-0.101,0.028l-0.103,0.024l-0.104,0.019l-0.107,0.015l-0.109,0.01l-0.111,0.004h-0.114l-0.232-0.016
						l-0.241-0.033l-0.247-0.049l-0.538-0.143l-0.289-0.091l-0.297-0.105l-0.304-0.118l-0.311-0.136l-0.315-0.146l-0.321-0.16
						l-0.695-0.352l-0.746-0.396l-1.608-0.927l-0.881-0.529l-0.927-0.575l-0.989-0.618l-1.029-0.67l-1.095-0.72l-1.135-0.772
						l-1.193-0.832l-1.237-0.897l-1.283-0.964l-0.657-0.514l-0.671-0.541l-0.677-0.554l-0.341-0.28l-0.345-0.295l-1.398-1.254
						l-0.354-0.32l-0.177-0.163l-0.178-0.175l-0.713-0.718l-0.718-0.732l-0.359-0.371l-0.091-0.094l-0.089-0.1l-0.179-0.207
						c-0.477-0.563-0.953-1.129-1.432-1.695l-0.18-0.217l-0.089-0.109l-0.088-0.119l-0.347-0.488l-0.692-0.99l-0.345-0.502
						l-0.172-0.253l-0.085-0.127l-0.043-0.063l-0.041-0.069l-0.637-1.147l-0.623-1.171l-0.154-0.296l-0.076-0.148l-0.067-0.162
						l-0.265-0.663l-0.509-1.343l-0.245-0.68l-0.06-0.17l-0.03-0.086l-0.015-0.043l-0.012-0.045l-0.088-0.371l-0.33-1.494
						l-0.289-1.514l-0.015-0.131l-0.008-0.13l-0.003-0.13l0.002-0.129l0.019-0.257l0.039-0.256l0.059-0.253l0.077-0.252l0.096-0.248
						l0.113-0.246l0.131-0.242l0.148-0.238l0.165-0.233l0.182-0.229l0.196-0.224l0.212-0.22l0.227-0.213l0.241-0.207l0.006-0.316
						l0.019-0.311l0.033-0.304l0.047-0.294l0.061-0.286l0.075-0.276l0.088-0.266l0.103-0.256l0.116-0.244l0.13-0.232l0.145-0.221
						l0.157-0.207l0.172-0.193l0.187-0.178l0.098-0.084l0.102-0.081l0.104-0.076l0.109-0.072l1.436-0.834l0.721-0.404l0.182-0.099
						l0.197-0.092l0.395-0.18l1.58-0.694l0.198-0.083l0.214-0.072l0.428-0.141l0.856-0.272l0.856-0.257l0.107-0.031l0.114-0.023
						l0.228-0.047l0.455-0.092l0.908-0.17l0.454-0.078l0.227-0.037l0.057-0.01l0.058-0.006l0.118-0.011l0.939-0.069l0.937-0.05
						l0.466-0.017l0.471,0.021l0.937,0.057l0.93,0.075l0.058,0.005l0.058,0.01l0.113,0.019l0.228,0.04l0.453,0.082l0.899,0.176
						l0.446,0.094l0.11,0.025l0.055,0.014l0.054,0.016l0.213,0.064l0.846,0.264l0.836,0.277l0.206,0.071l0.196,0.083l0.388,0.168
						l0.767,0.346l0.754,0.354l0.692,0.395l0.684,0.401l0.337,0.201l0.167,0.104l0.153,0.107l1.214,0.869l0.297,0.219l0.141,0.112
						l0.135,0.114l0.537,0.455l0.528,0.457l0.261,0.229l0.123,0.115l0.119,0.117l0.933,0.934l0.229,0.232l0.113,0.117l0.104,0.117
						l0.413,0.472l0.807,0.937l0.722,0.938l0.352,0.466l0.174,0.231l0.159,0.232l0.626,0.924l0.305,0.457l0.28,0.456l0.543,0.902
						l0.263,0.446l0.242,0.444l0.47,0.878l0.228,0.433l0.21,0.431l0.406,0.85l0.197,0.419l0.183,0.416l0.35,0.819l0.17,0.402
						l0.16,0.4l0.584,1.555l0.493,1.486l0.22,0.715l0.197,0.697l0.184,0.678l0.161,0.658l0.277,1.257l0.209,1.176l0.084,0.555
						l0.067,0.535l0.051,0.515l0.039,0.489l0.024,0.471l0.009,0.445l-0.005,0.425l-0.019,0.399l-0.031,0.377l-0.045,0.354
						l-0.06,0.329l-0.073,0.306l-0.086,0.28l-0.048,0.131l-0.052,0.125l-0.055,0.118l-0.058,0.112l-0.062,0.104l-0.065,0.101
						l-0.068,0.093l-0.071,0.086l-0.075,0.079l-0.078,0.074l-0.082,0.066l-0.086,0.061l-0.089,0.054L281.664,389.953z"/>
				</g>
			</g>
			<g>
				<g>
					<path fill="none" d="M312.57,398.416l11.104-11.521h-0.001h-0.001c0.224-1.316,0.457-2.707,0.704-4.17l0,0l0,0l0.002-0.002
						l0.008-0.004c0.008-0.004,0.018-0.01,0.029-0.018c0.025-0.016,0.064-0.037,0.116-0.067c0.101-0.06,0.249-0.146,0.438-0.256
						c0.377-0.221,0.916-0.536,1.563-0.914c1.296-0.757,3.022-1.766,4.749-2.774c3.453-2.018,6.908-4.035,6.908-4.035
						s-0.021-0.035-0.059-0.104c-0.041-0.065-0.101-0.162-0.18-0.29c-0.161-0.254-0.398-0.631-0.711-1.121
						c-0.078-0.123-0.161-0.252-0.249-0.389c-0.091-0.129-0.187-0.265-0.286-0.406c-0.202-0.281-0.423-0.588-0.661-0.92
						c-0.12-0.164-0.245-0.336-0.374-0.514c-0.133-0.166-0.271-0.339-0.413-0.518c-0.286-0.354-0.591-0.731-0.913-1.13
						c-0.332-0.376-0.682-0.773-1.049-1.188c-0.186-0.205-0.374-0.415-0.568-0.63c-0.197-0.205-0.399-0.414-0.606-0.627
						s-0.418-0.43-0.634-0.651l-0.329-0.331l-0.341-0.324c-0.229-0.218-0.465-0.439-0.701-0.664l-0.36-0.341l-0.183-0.172
						l-0.188-0.166c-0.506-0.44-1.025-0.896-1.563-1.364c-0.549-0.445-1.111-0.903-1.689-1.373
						c-0.591-0.447-1.195-0.907-1.814-1.377l-0.234-0.176l-0.238-0.168l-0.483-0.34c-0.324-0.227-0.652-0.457-0.983-0.688
						l-0.249-0.175l-0.255-0.166l-0.515-0.336c-0.345-0.225-0.693-0.451-1.046-0.68c-0.715-0.438-1.443-0.881-2.187-1.332
						c-0.758-0.424-1.528-0.855-2.312-1.293c-0.397-0.207-0.801-0.414-1.204-0.624l-0.609-0.314l-0.308-0.155l-0.313-0.149
						c-0.419-0.198-0.84-0.398-1.265-0.6l-0.641-0.3l-0.654-0.283c-0.438-0.188-0.881-0.379-1.324-0.569l-0.336-0.139l-0.341-0.134
						l-0.685-0.266l-0.689-0.268l-0.346-0.133l-0.354-0.125c-0.473-0.164-0.947-0.328-1.425-0.492l-0.722-0.242l-0.736-0.223
						c-0.493-0.146-0.988-0.295-1.485-0.443c-0.508-0.129-1.019-0.26-1.53-0.391l-0.771-0.193l-0.79-0.166
						c-0.529-0.108-1.06-0.217-1.592-0.326c-0.545-0.085-1.091-0.17-1.64-0.256l-0.826-0.123l-0.847-0.088l-0.849-0.085
						l-0.426-0.042l-0.214-0.02l-0.218-0.01l-1.751-0.076l-0.439-0.016l-0.449,0.007l-0.901,0.017l-0.902,0.021l-0.112,0.003
						l-0.115,0.009l-0.231,0.02l-0.462,0.038l-0.924,0.082l-0.463,0.044l-0.232,0.023l-0.235,0.037l-1.887,0.309l-0.235,0.041
						l-0.239,0.057l-0.478,0.115l-0.955,0.236l-0.477,0.121l-0.238,0.063l-0.24,0.079l-0.957,0.322l-0.955,0.334l-0.119,0.043
						l-0.118,0.047l-0.237,0.104l-0.473,0.209l-0.942,0.427l-0.469,0.218l-0.059,0.027l-0.058,0.029l-0.115,0.064l-0.229,0.128
						l-1.82,1.054c-4.526,2.921-9.053,5.841-9.053,5.841s4.104,3.489,8.21,6.979c5.006,4.219,10.012,8.438,14.705,12.393
						c4.583,3.966,8.861,7.669,12.528,10.842c1.897,1.638,3.637,3.139,5.179,4.47c0.737,0.633,1.427,1.227,2.064,1.775
						c0.619,0.545,1.188,1.045,1.701,1.496c0.498,0.451,0.942,0.854,1.33,1.207c0.379,0.351,0.7,0.648,0.963,0.892
						C312.3,398.156,312.57,398.416,312.57,398.416z"/>
					<path fill="#493E5B" d="M331.284,378.689l-0.091,0.048l-0.098,0.039l-0.101,0.03l-0.104,0.021l-0.108,0.014l-0.116,0.008h-0.12
						l-0.125-0.009l-0.13-0.017l-0.133-0.022l-0.139-0.03l-0.142-0.037l-0.296-0.097l-0.311-0.123l-0.323-0.149l-0.347-0.17
						l-0.371-0.189l-0.388-0.213l-0.821-0.489l-0.449-0.267l-0.465-0.289c-0.692-0.436-1.383-0.869-2.07-1.303
						c-0.816-0.5-1.633-0.998-2.445-1.496l-0.328-0.201l-0.164-0.102l-0.172-0.1l-0.697-0.402l-0.711-0.42l-0.746-0.414l-0.76-0.43
						l-0.191-0.109l-0.198-0.104l-0.399-0.212l-0.811-0.434l-0.204-0.111l-0.208-0.108l-0.424-0.213
						c-3.447,5.14-3.332,4.968-5.174,7.712l0.01,0.012l0.02,0.021l0.035,0.043l0.073,0.085l0.146,0.171l0.285,0.34l0.56,0.67
						l1.058,1.302l0.253,0.317l0.009,0.01c-0.131-0.113-0.068-0.058-0.101-0.084l0.017,0.02l0.031,0.039l0.063,0.078l0.125,0.156
						l0.486,0.615l0.914,1.192l0.834,1.147l0.385,0.552l0.363,0.54l0.656,1.039l0.294,0.494l0.271,0.477l0.244,0.468l0.222,0.448
						l0.196,0.43l0.172,0.41l0.147,0.393l0.124,0.371l0.096,0.355l0.069,0.336l0.046,0.314l0.014,0.149l0.008,0.146l0.002,0.139
						l-0.006,0.133l-0.012,0.127l-0.019,0.123l-0.022,0.116l-0.031,0.11l-0.037,0.105l-0.043,0.102l-0.049,0.094l-0.057,0.089
						l-0.063,0.083l-0.068,0.078l-0.075,0.07l-0.081,0.065l-0.086,0.06l-0.093,0.054l-0.099,0.048l-0.104,0.041l-0.108,0.035
						l-0.115,0.031l-0.121,0.022l-0.125,0.019l-0.133,0.014l-0.137,0.007l-0.142,0.001l-0.147-0.004l-0.31-0.023l-0.33-0.047
						l-0.351-0.066l-0.375-0.084l-0.395-0.104l-0.414-0.125l-0.433-0.146l-0.45-0.164l-0.469-0.182l-0.494-0.199l-0.514-0.217
						l-1.075-0.49l-1.156-0.559l-1.228-0.63l-1.305-0.702l-0.679-0.376l-0.172-0.097l-0.086-0.049l-0.043-0.025l-0.021-0.012
						c-0.095-0.081-0.102-0.086-0.118-0.1l-0.011-0.007l-0.348-0.202l-1.427-0.854l-1.482-0.917l-1.537-0.981l-1.587-1.044
						l-1.637-1.104l-1.681-1.162l-1.724-1.219l-1.764-1.274c-1.208-0.899-2.419-1.801-3.636-2.706
						c-1.278-0.962-2.56-1.926-3.851-2.896c-1.314-1.021-2.634-2.048-3.965-3.084c-1.342-1.077-2.691-2.162-4.055-3.258
						c-1.36-1.129-2.731-2.266-4.121-3.419l-0.417-0.368l-0.396-0.377l-0.378-0.389l-0.359-0.396l-0.339-0.406l-0.319-0.413
						l-0.3-0.42l-0.28-0.427l-0.26-0.431l-0.24-0.436l-0.219-0.438l-0.198-0.441l-0.177-0.443l-0.156-0.445l-0.136-0.444
						l-0.113-0.444l0.171-0.426l0.191-0.423l0.214-0.421l0.233-0.416l0.255-0.412l0.274-0.406l0.295-0.4l0.313-0.393l0.334-0.386
						l0.353-0.378l0.371-0.367l0.39-0.357l0.407-0.347l0.426-0.335l0.443-0.322l0.46-0.311l1.001-0.586l1.007-0.57l0.126-0.069
						l0.063-0.034l0.064-0.031l0.257-0.118l0.516-0.235l1.034-0.457l0.259-0.112l0.13-0.056l0.13-0.047l0.521-0.181l1.042-0.35
						l0.521-0.169l0.13-0.042l0.13-0.034l0.259-0.064l1.034-0.249l1.031-0.233l1.017-0.159l1.013-0.149l0.253-0.035l0.248-0.022
						l0.495-0.038l0.987-0.072l0.492-0.032l0.244-0.014l0.24-0.002l1.91,0.001l0.236,0.003l0.231,0.014l0.462,0.028l0.921,0.063
						l0.458,0.031l0.229,0.018l0.225,0.025l0.889,0.111l0.883,0.115l0.439,0.061l0.428,0.078l1.697,0.32l0.211,0.041l0.205,0.049
						l0.41,0.099l0.814,0.199l0.809,0.2l0.787,0.229l1.553,0.468l1.496,0.522l0.738,0.264l0.719,0.284l1.416,0.575l0.175,0.072
						l0.172,0.078l0.341,0.154l0.68,0.311l0.67,0.309l0.334,0.154l0.326,0.164l1.285,0.657l0.631,0.329l0.614,0.346l1.21,0.687
						l0.297,0.175l0.291,0.18l0.575,0.357l1.134,0.713l1.086,0.736l0.531,0.365l0.264,0.183l0.258,0.188l1.012,0.753l0.495,0.372
						l0.243,0.188l0.238,0.193l0.938,0.762l0.458,0.377l0.442,0.385l0.862,0.768l0.421,0.379l0.204,0.191l0.201,0.195l0.787,0.769
						l0.383,0.378l0.188,0.188l0.183,0.194l0.711,0.766l0.681,0.75l0.637,0.757l0.605,0.737l0.146,0.183l0.141,0.187l0.275,0.37
						l0.531,0.724l0.254,0.353l0.121,0.177l0.119,0.18l0.877,1.383l0.102,0.166l0.095,0.171l0.185,0.337l0.349,0.652l0.317,0.624
						l0.274,0.617l0.243,0.59l0.215,0.56l0.051,0.135l0.045,0.137l0.082,0.271l0.141,0.517l0.117,0.483l0.088,0.45l0.02,0.107
						l0.016,0.107l0.021,0.212l0.021,0.397l0.002,0.186l-0.004,0.176l-0.011,0.168l-0.017,0.16l-0.022,0.15l-0.028,0.141
						l-0.033,0.133l-0.04,0.125l-0.048,0.115l-0.051,0.107l-0.059,0.099l-0.064,0.091l-0.072,0.084l-0.076,0.074l-0.082,0.064
						L331.284,378.689z"/>
				</g>
			</g>
			<g>
				<g>
					<path fill="none" d="M357.407,381.581l7.866-13.932v-0.001l0,0c1.033,0.103,2.125,0.211,3.274,0.325v-0.001l0,0l0.001-0.002
						l0.004-0.008c0.004-0.006,0.01-0.017,0.016-0.029c0.016-0.027,0.035-0.067,0.063-0.119c0.056-0.104,0.134-0.256,0.235-0.449
						c0.203-0.388,0.494-0.941,0.842-1.605c0.697-1.328,1.625-3.1,2.555-4.871c1.857-3.543,3.715-7.086,3.715-7.086
						s-0.498-0.262-1.434-0.753c-0.115-0.062-0.24-0.126-0.371-0.193c-0.132-0.06-0.271-0.121-0.415-0.187
						c-0.291-0.129-0.608-0.271-0.95-0.424c-0.688-0.303-1.478-0.652-2.361-1.043l-0.336-0.148l-0.172-0.075l-0.176-0.067
						c-0.234-0.088-0.476-0.178-0.722-0.27c-0.493-0.184-1.01-0.376-1.548-0.576c-0.538-0.199-1.1-0.406-1.682-0.621l-0.219-0.081
						l-0.222-0.077l-0.451-0.14c-0.303-0.095-0.61-0.19-0.924-0.288c-0.627-0.193-1.274-0.393-1.94-0.599
						c-0.332-0.103-0.671-0.206-1.014-0.312l-0.129-0.04l-0.13-0.036l-0.261-0.066l-0.527-0.135
						c-0.707-0.18-1.434-0.365-2.178-0.554c-0.371-0.094-0.746-0.188-1.127-0.285l-0.572-0.144l-0.583-0.12
						c-0.78-0.159-1.576-0.321-2.39-0.487c-0.405-0.082-0.815-0.166-1.229-0.25l-0.623-0.125l-0.632-0.1
						c-0.845-0.133-1.705-0.268-2.578-0.404c-0.437-0.068-0.876-0.137-1.319-0.206l-0.332-0.052l-0.336-0.037l-0.675-0.076
						c-0.901-0.102-1.815-0.203-2.743-0.307l-0.695-0.078l-0.351-0.038l-0.353-0.028c-0.471-0.033-0.943-0.065-1.42-0.098
						c-0.951-0.064-1.914-0.129-2.885-0.194l-0.363-0.024l-0.367-0.009l-0.736-0.019c-0.492-0.012-0.986-0.023-1.482-0.035
						c-0.496-0.012-0.994-0.023-1.496-0.034l-0.752-0.017l-0.758,0.014c-1.013,0.021-2.031,0.045-3.059,0.066l-0.771,0.018
						l-0.192,0.005l-0.192,0.011l-0.39,0.025l-1.56,0.107l-1.567,0.11l-0.786,0.056l-0.197,0.015l-0.099,0.007l-0.099,0.012
						l-0.396,0.047c-1.059,0.129-2.119,0.258-3.184,0.387l-0.799,0.099l-0.199,0.028l-0.201,0.035l-0.402,0.071l-1.611,0.286
						l-1.612,0.292l-0.404,0.073l-0.202,0.039l-0.203,0.049L312.082,346l-3.254,0.801c-6.568,1.853-13.136,3.705-13.136,3.705
						s4.826,4.826,9.652,9.652l0.735,0.677l0.746,0.665l0.188,0.164l0.094,0.081l0.103,0.077l0.412,0.305l0.833,0.601l0.42,0.294
						l0.105,0.069l0.107,0.064l0.215,0.128l0.867,0.502l0.436,0.244l0.109,0.062l0.105,0.055l0.209,0.1l0.84,0.394l0.42,0.193
						l0.211,0.096l0.191,0.076l0.764,0.301l0.752,0.289l0.672,0.236c0.796,0.277,1.59,0.553,2.38,0.827l1.468,0.514l1.207,0.374
						c0.801,0.247,1.598,0.492,2.39,0.737c1.567,0.48,3.116,0.956,4.64,1.423c1.504,0.469,2.982,0.929,4.432,1.379
						c1.426,0.461,2.82,0.913,4.179,1.353c0.673,0.225,1.336,0.446,1.989,0.664c0.646,0.224,1.283,0.444,1.908,0.662
						c0.313,0.108,0.622,0.217,0.93,0.324c0.304,0.11,0.604,0.222,0.901,0.331c0.595,0.217,1.179,0.432,1.751,0.641
						c1.127,0.438,2.207,0.857,3.234,1.256c1.006,0.421,1.96,0.82,2.855,1.195c0.877,0.396,1.697,0.767,2.457,1.109
						c0.188,0.086,0.373,0.171,0.555,0.254c0.177,0.088,0.351,0.173,0.52,0.256c0.338,0.168,0.66,0.326,0.967,0.478
						c0.307,0.15,0.596,0.293,0.868,0.427l0.201,0.1l0.192,0.098c0.123,0.067,0.242,0.133,0.357,0.194
						c0.461,0.249,0.854,0.46,1.17,0.632C357.066,381.398,357.407,381.581,357.407,381.581z"/>
					<path fill="#493E5B" d="M372.264,360.889l-0.053,0.089l-0.063,0.085l-0.069,0.078L372,361.215l-0.087,0.07l-0.097,0.064
						l-0.104,0.059l-0.111,0.055l-0.121,0.051l-0.127,0.046l-0.138,0.04l-0.144,0.037l-0.152,0.031l-0.158,0.027l-0.342,0.041
						l-0.37,0.024l-0.405,0.021l-0.44,0.014l-0.47-0.001l-0.496-0.016l-0.523-0.029l-0.55-0.044l-0.575-0.058l-0.601-0.072
						l-0.31-0.041l-0.324-0.029l-1.361-0.137l-1.456-0.184l-0.763-0.109l-0.194-0.029l-0.099-0.014l-0.101-0.011l-0.403-0.04
						l-1.676-0.189l-1.762-0.229l-3.836-0.4c-3.201,1.676-3.096,1.619-4.805,2.514l0.014,0.008l0.025,0.016l0.054,0.029l0.104,0.059
						l0.209,0.119l0.414,0.235l0.809,0.466l0.783,0.461l0.754,0.476l1.434,0.928l0.678,0.452l0.646,0.463l1.208,0.902l1.097,0.865
						l0.972,0.862l0.44,0.414l0.413,0.402l0.384,0.391l0.354,0.378l0.317,0.379l0.287,0.367l0.259,0.354l0.227,0.34l0.195,0.324
						l0.166,0.311l0.135,0.295l0.057,0.143l0.048,0.139l0.04,0.135l0.032,0.131l0.024,0.127l0.017,0.123l0.009,0.12l0.001,0.116
						l-0.007,0.111l-0.016,0.107l-0.023,0.104l-0.029,0.101l-0.039,0.097l-0.048,0.092l-0.055,0.088l-0.063,0.084l-0.07,0.078
						l-0.076,0.075l-0.085,0.07l-0.093,0.065l-0.1,0.063l-0.105,0.057l-0.113,0.053l-0.121,0.049l-0.127,0.045l-0.135,0.041
						l-0.143,0.036l-0.146,0.032l-0.314,0.053l-0.343,0.037l-0.366,0.021l-0.393,0.005l-0.416-0.01l-0.439-0.024l-0.464-0.039
						l-0.495-0.039l-0.518-0.055l-1.102-0.147l-1.188-0.2l-1.292-0.219l-1.373-0.266c-1.007-0.205-2.012-0.408-3.016-0.613
						l-3.354-0.722c-2.561-0.57-5.107-1.138-7.677-1.71c-1.431-0.327-2.86-0.654-4.298-0.983c-1.521-0.36-3.043-0.722-4.574-1.085
						c-1.609-0.4-3.223-0.802-4.848-1.207c-0.836-0.219-1.674-0.439-2.516-0.66l-1.281-0.348L319,367.067l-0.323-0.09l-0.69-0.23
						c-0.791-0.25-1.582-0.502-2.379-0.756l-1.447-0.48l-1.652-0.623l-0.912-0.409l-0.455-0.21l-0.229-0.105l-0.113-0.054
						l-0.117-0.063l-0.949-0.529l-0.474-0.273l-0.235-0.139l-0.115-0.072l-0.115-0.079l-0.917-0.646l-0.454-0.332l-0.227-0.168
						l-0.057-0.041l-0.055-0.044l-0.104-0.089l-0.823-0.728l-0.813-0.745l-0.49-0.505l-0.469-0.513l-0.447-0.519l-0.425-0.524
						l-0.404-0.53l-0.382-0.534l-0.359-0.537l-0.337-0.54l-0.314-0.54l-0.291-0.542l-0.268-0.54l-0.245-0.539l-0.221-0.535
						l-0.196-0.533l-0.173-0.527l-0.147-0.523l0.384-0.383l0.408-0.377l0.432-0.369l0.455-0.359l0.476-0.351l0.498-0.341l0.519-0.33
						l0.538-0.318l0.559-0.306l0.576-0.294l0.594-0.279l0.611-0.265l0.628-0.251l0.644-0.234l0.659-0.217l0.673-0.201
						c1.199-0.291,2.391-0.581,3.576-0.869l0.443-0.104l0.224-0.052l0.11-0.023l0.109-0.02l0.879-0.152l1.751-0.296l1.738-0.282
						l1.715-0.183l1.701-0.173l0.845-0.083l0.211-0.021l0.21-0.015l0.419-0.021c1.105-0.047,2.207-0.094,3.307-0.141l0.816-0.031
						l0.809,0.006l1.604,0.021l1.585,0.027l0.785,0.016l0.777,0.047c1.021,0.072,2.041,0.144,3.06,0.215l0.751,0.057l0.374,0.031
						l0.371,0.045l1.472,0.18l2.873,0.374l2.77,0.497l1.348,0.254l0.665,0.129l0.164,0.033l0.164,0.038l0.327,0.078l2.556,0.626
						l1.237,0.313l0.305,0.078l0.151,0.041l0.151,0.045l0.599,0.184l2.321,0.729l1.119,0.363l0.273,0.09l0.137,0.045l0.137,0.051
						l0.537,0.206l2.071,0.812l0.989,0.4l0.482,0.199l0.237,0.099l0.233,0.11l1.805,0.873l1.671,0.846l0.397,0.207l0.098,0.051
						l0.098,0.057l0.189,0.114l0.74,0.448l1.381,0.87l1.238,0.829l0.287,0.203l0.273,0.218l0.52,0.425l0.483,0.411l0.448,0.397
						l0.41,0.385l0.375,0.371l0.338,0.355l0.301,0.343l0.136,0.166l0.124,0.172l0.217,0.335l0.182,0.316l0.076,0.152l0.067,0.147
						l0.058,0.144l0.05,0.139l0.04,0.135l0.029,0.129l0.021,0.126l0.012,0.121l0.004,0.116l-0.007,0.112l-0.016,0.107l-0.025,0.104
						l-0.034,0.099L372.264,360.889z"/>
				</g>
			</g>
		</g>
	</g>
</g>
<path fill="#100E14" d="M194.742,398.313c0,0,157.738-66.979,188.689-57.455l6.478,7.653c0,0-158.856,34.683-187.429,55.479
	L194.742,398.313z"/>
<g>
	<g>
		<path fill="#3D3A42" d="M202.075,403.949c23.947-21.389,55.194-27.842,85.649-34.354c15.572-3.33,30.961-7.426,46.523-10.828
			c8.706-1.902,17.655-3.719,26.019-6.855c7.889-2.959,14.569-8.727,23.166-9.697c1.719-0.194,1.737-2.91,0-2.714
			c-7.287,0.823-13.367,4.588-19.768,7.892c-8.669,4.475-18.887,6.248-28.339,8.361c-16.604,3.713-33.081,7.965-49.715,11.522
			c-30.529,6.528-61.489,13.349-85.454,34.753C198.85,403.197,200.775,405.109,202.075,403.949L202.075,403.949z"/>
	</g>
</g>
</svg>
