<?xml version="1.0" encoding="utf-8"?>
<!-- Generator: Adobe Illustrator 16.0.0, SVG Export Plug-In . SVG Version: 6.00 Build 0)  -->
<!DOCTYPE svg PUBLIC "-//W3C//DTD SVG 1.1//EN" "http://www.w3.org/Graphics/SVG/1.1/DTD/svg11.dtd">
<svg version="1.1" id="Layer_1" xmlns="http://www.w3.org/2000/svg" xmlns:xlink="http://www.w3.org/1999/xlink" x="0px" y="0px"
	 width="200px" height="150px" viewBox="198.9 308.884 200 150" enable-background="new 198.9 308.884 200 150"
	 xml:space="preserve">
<g>
	<g>
		<path fill="#D45D07" d="M395.071,400.654c0,37.278-41.754,58.229-96.964,58.229c-55.21,0-96.964-20.951-96.964-58.229
			c0-37.279,41.754-53.437,96.964-53.437C353.317,347.217,395.071,363.375,395.071,400.654z"/>
	</g>
	<g>
		<path fill="#F1EACE" d="M202.057,391.513c0,12.773,5.27,7.972,15.77,7.972c11,0.532,6,7.983,8,17.563
			c2.5,11.709,11,17.031,21.5,15.436c5.5-0.532,15.5-7.451,20.5-4.79c3.5,1.597,5,7.983,7.5,10.645c8,10.646,16.5,5.854,25-0.532
			c11-7.982,21-7.451,33.5-4.258c15.5,4.79,17.5,0,26.5-12.24c3-4.791,5-7.451,11-10.112c5.5-2.661,17-2.661,21-6.388
			c5.5-5.854,4.569-6.096,3.569-12.481c-1-9.048-3.197-14.732-11.197-20.587c-5.5-4.258-12.872-12.171-19.872-14.832
			c-7.5-2.661-15-6.388-23.5-7.452c-8.5-0.532-9.637-2.065-17.855-3.052c-28.667-3.441-57.578-0.438-82.078,8.078
			c-5,1.597-9.484,3.707-13.946,5.408C214.315,364.895,201.276,375.597,202.057,391.513"/>
	</g>
	<g>
		<g>
			<path fill="#CCC4B1" d="M264.502,351.193c-10.34-2.33-34.288-1.332-45.172,1.662c-14.695,3.992-0.545,11.313,3.266,16.969
				c2.72,4.324,1.086,3.66-3.266,7.653c-2.723,2.66-4.898,5.323-7.077,7.651c-1.087,1.663-6.531,6.322-4.899,7.984
				c3.812,2.994,24.491,0,28.846-1.33c4.899-1.997,8.164-5.656,12.52-8.317c3.809,4.325-1.089,9.981,2.721,14.306
				c6.53,8.649,24.491,3.328,35.376,4.326c-0.544,5.321-2.178,17.299,9.795,17.299c15.788-0.33,11.975-17.299,23.403-21.291
				c5.444,1.996,8.709,7.317,14.695,8.982c7.619,1.996,22.857,0.998,29.392-1.331c17.959-5.655,2.179-12.976-6.533-18.299
				c11.431-6.987,56.604,3.326,30.479-13.974c-3.267-1.996-5.987-5.324-9.797-7.32c-7.074-3.659-20.684-4.99-29.389-7.319
				c-13.063-3.327-31.023-4.99-41.364-11.645c-4.354-2.662-5.444-6.321-11.974-7.985c-14.697-3.992-25.58,7.319-31.567,13.975
				L264.502,351.193z"/>
		</g>
		<g>
			<g>
				<path fill="#47A2BB" d="M208.424,379.055c-0.708-2.116-0.364-1.878,2.016-1.493c2.828,0.457,5.578,1.559,8.218,2.627
					c4.651,1.882,9.462,4.045,13.05,7.602c6.159,6.106,4.423,15.065,6.317,22.782c0.909,3.702,4.171,12.447,9.503,11.342
					c7.909-1.643,6.21-19.869,5.398-25.279c-2.287-15.248-22.012-20.583-24.503-35.58c-0.383,0.941-0.766,1.883-1.149,2.823
					c15.366-9.227,24.812,14.479,29.712,25.166c7.977,17.394,20.266,31.935,38.197,39.273c6.067,2.483,13.12,2.981,15.068-4.483
					c1.781-6.826,0.509-15.779-2.439-22.053c-4.417-9.396-12.266-16.221-20.033-22.829c-10.352-8.809-20.634-17.704-31-26.5
					c-0.168,1.309-0.337,2.617-0.506,3.926c8.527-5.135,19.372-2.174,27.82,1.647c8.732,3.95,17.7,10.315,22.26,18.956
					c4.577,8.67,8.06,17.666,15.185,24.683c6.725,6.621,17.323,10.029,26.662,8.658c17.238-2.53,12.846-21.044,4.996-30.993
					c-6.766-8.576-17.672-13.468-27.539-17.445c-6.045-2.438-12.283-4.39-18.506-6.314c-5.81-1.798-13.244-2.951-17.871-7.117
					c-0.368,1.393-0.735,2.785-1.103,4.179c18.19-4.904,39.562-2.855,56.718,4.812c6.753,3.019,11.438,7.389,16.393,12.724
					c4.463,4.803,9.553,11.225,15.969,13.473c3.683,1.289,8.369,0.533,10.009-3.38c1.493-3.563-3.204-7.024-5.642-8.552
					c-6.857-4.299-18.869-5.065-17.021,6.179c0.521,3.175,5.339,1.823,4.821-1.33c-1.077-6.554,11.897-1.009,13.036,2.619
					c-0.18-0.571-1.787,0.243-3.118-0.093c-2.653-0.669-5.027-2.998-6.986-4.76c-4.323-3.891-8.061-8.4-12.13-12.546
					c-8.447-8.605-20.972-12.524-32.508-14.766c-13.35-2.593-27.685-2.755-40.87,0.799c-1.748,0.472-2.518,2.905-1.103,4.179
					c7.161,6.447,18.864,7.938,27.789,10.847c11.293,3.682,23.344,8.123,32.393,16.087c5.373,4.729,10.014,12.004,9.535,19.403
					c-0.62,9.613-14.623,7.452-20.506,5.706c-10.054-2.983-15.764-12.373-20.213-21.153c-4.086-8.058-7.441-14.718-14.519-20.609
					c-11.693-9.736-31.897-18.985-46.472-10.206c-1.293,0.778-1.763,2.859-0.506,3.926c8.958,7.601,18.018,15.081,26.858,22.819
					c7.593,6.646,15.888,12.982,21.352,21.607c4.084,6.447,5.677,15.571,3.729,23.032c-1.667,6.385-20.692-6.354-23.167-8.353
					c-13.872-11.207-19.08-27.599-27.651-42.421c-6.313-10.918-16.823-20.794-29.616-13.111c-1.038,0.623-1.337,1.689-1.149,2.823
					c1.243,7.482,6.839,13.063,12.034,18.164c4.814,4.727,11.128,9.703,12.361,16.695c0.932,5.283,0.658,11.267-0.453,16.494
					c-0.22,1.037-0.522,2.062-1.016,3.001c-0.29,0.554,0.713,0.682-0.305-0.383c-2.988-3.122-3.892-8.411-4.304-12.525
					c-0.758-7.57-1.392-13.656-6.677-19.576c-3.207-3.591-7.822-5.58-12.113-7.537c-5.007-2.284-23.833-9.215-19.528,3.667
					C204.619,383.427,209.449,382.122,208.424,379.055L208.424,379.055z"/>
			</g>
		</g>
		<g>
			<path fill="#2B200E" d="M322.431,341.957l14,4.032c0,0,1.5,19.014,0,19.014s-16.5-6.912-16.5-6.912L322.431,341.957z"/>
			<polygon fill="#ECE1C8" points="321.404,348.576 336.431,345.989 322.431,341.957 			"/>
		</g>
		<g>
			<path fill="#2B200E" d="M272.501,337.607l-16.83,4.865c0,0-1.801,22.944,0,22.944c1.804,0,19.836-8.343,19.836-8.343
				L272.501,337.607z"/>
			<polygon fill="#ECE1C8" points="273.733,345.596 255.67,342.473 272.501,337.607 			"/>
		</g>
		<g>
			<path fill="#2B200E" d="M279.914,348.095l7.809,2.844c0,0,0.837,13.406,0,13.406c-0.837,0-9.202-4.875-9.202-4.875
				L279.914,348.095z"/>
			<polygon fill="#ECE1C8" points="279.341,352.763 287.722,350.938 279.914,348.095 			"/>
		</g>
		<g>
			<path fill="#2B200E" d="M259.263,354.86l7.271,12.608c0,0-10.726,12.344-11.771,11.248c-1.046-1.096-7.23-16.137-7.23-16.137
				L259.263,354.86z"/>
			<polygon fill="#ECE1C8" points="254.448,358.028 266.534,367.469 259.263,354.86 			"/>
		</g>
		<g>
			<path fill="#2B200E" d="M277.413,358.417l-6.479,2.449c0,0-0.693,11.551,0,11.551c0.694,0,7.636-4.2,7.636-4.2L277.413,358.417z"
				/>
			<polygon fill="#ECE1C8" points="277.888,362.438 270.935,360.866 277.413,358.417 			"/>
		</g>
		<g>
			<path fill="#2B200E" d="M240.26,358.416l7.271,12.608c0,0-10.726,12.344-11.772,11.249c-1.046-1.096-7.23-16.137-7.23-16.137
				L240.26,358.416z"/>
			<polygon fill="#ECE1C8" points="235.445,361.584 247.531,371.024 240.26,358.416 			"/>
		</g>
		<g>
			<path fill="#2B200E" d="M307.362,348.729l14,1.662c0,0,1.5,7.838,0,7.838s-16.5-2.85-16.5-2.85L307.362,348.729z"/>
			<polygon fill="#ECE1C8" points="306.336,351.458 321.362,350.391 307.362,348.729 			"/>
		</g>
		<g>
			<path fill="#2B200E" d="M331.014,356.22l14,3.5c0,0,1.5,16.5,0,16.5s-16.5-6-16.5-6L331.014,356.22z"/>
			<polygon fill="#ECE1C8" points="329.987,361.965 345.014,359.72 331.014,356.22 			"/>
		</g>
		<g>
			<path fill="#2B200E" d="M305.244,346.037l-16.371,5.74c0,0-1.753,27.063,0,27.063c1.754,0,19.294-9.841,19.294-9.841
				L305.244,346.037z"/>
			<polygon fill="#ECE1C8" points="306.444,355.459 288.873,351.777 305.244,346.037 			"/>
		</g>
		<g>
			<path fill="#2B200E" d="M283.24,365.917l22.962,5.74c0,0,2.46,27.063,0,27.063c-2.46,0-27.063-9.841-27.063-9.841L283.24,365.917
				z"/>
			<polygon fill="#ECE1C8" points="281.556,375.339 306.202,371.657 283.24,365.917 			"/>
		</g>
		<g>
			<path fill="#2B200E" d="M322.806,362.417l-10.926,3.5c0,0-1.17,16.5,0,16.5c1.172,0,12.877-6,12.877-6L322.806,362.417z"/>
			<polygon fill="#ECE1C8" points="323.606,368.162 311.88,365.917 322.806,362.417 			"/>
		</g>
		<g>
			<path fill="#2B200E" d="M251.685,366.823l21.693,5.423c0,0,2.325,25.567,0,25.567c-2.324,0-25.567-9.297-25.567-9.297
				L251.685,366.823z"/>
			<polygon fill="#ECE1C8" points="250.095,375.725 273.378,372.246 251.685,366.823 			"/>
		</g>
	</g>
</g>
</svg>
