<?xml version="1.0" encoding="utf-8"?>
<!-- Generator: Adobe Illustrator 16.0.0, SVG Export Plug-In . SVG Version: 6.00 Build 0)  -->
<!DOCTYPE svg PUBLIC "-//W3C//DTD SVG 1.1//EN" "http://www.w3.org/Graphics/SVG/1.1/DTD/svg11.dtd">
<svg version="1.1" id="Layer_1" xmlns="http://www.w3.org/2000/svg" xmlns:xlink="http://www.w3.org/1999/xlink" x="0px" y="0px"
	 width="200px" height="150px" viewBox="0 0 200 150" enable-background="new 0 0 200 150" xml:space="preserve">
<g>
	<path fill="#D35F27" d="M196.14,92.887c0.021-0.559,0.032-0.553,0.032-1.116c0-37.279-41.754-53.438-96.963-53.438
		c-55.21,0-96.964,16.157-96.964,53.438S43.999,150,99.209,150c8.372,0,16.43-0.484,24.084-1.432l-0.196-0.221l-3.813-6.041
		l-2.478-4.394l3.599-8.787l7.252-9.735l-0.481-5l3.413-5.547l1.416-2.498l12.047-3.054l1.77-3.844l2.477-2.476l3.892-3.566
		l9.2-4.394h14.152l7.076,4.233l7.075-4.76l3.539,0.444l2.104,4.872C195.334,93.807,195.613,93.305,196.14,92.887z"/>
	<g>
		
			<linearGradient id="SVGID_1_" gradientUnits="userSpaceOnUse" x1="3.1279" y1="82.3555" x2="197.7549" y2="82.3555" gradientTransform="matrix(1 0 0 -1 0 168.2773)">
			<stop  offset="0" style="stop-color:#804099"/>
			<stop  offset="0.2043" style="stop-color:#214497"/>
			<stop  offset="0.414" style="stop-color:#06A14B"/>
			<stop  offset="0.6183" style="stop-color:#FFDE11"/>
			<stop  offset="0.8172" style="stop-color:#F26724"/>
			<stop  offset="1" style="stop-color:#EC2227"/>
		</linearGradient>
		<path fill="url(#SVGID_1_)" d="M193.231,88.934l2.104,4.873c3.326-3.915,2.524-4.855,1.662-10.366
			c-1-9.049-4.197-14.732-12.197-20.587c-5.5-4.259-11.871-12.172-18.871-14.832c-7.5-2.661-15-6.389-23.5-7.452
			c-8.5-0.532-9.637-2.065-17.855-3.053c-28.666-3.44-57.577-0.438-82.077,8.078c-5,1.598-9.484,3.707-13.946,5.408
			C15.419,56.011,2.38,66.712,3.161,82.628c0,12.773,5.27,7.971,15.77,7.971c11,0.532,6,7.984,8,17.564
			c2.5,11.709,11,17.031,21.5,15.435c5.5-0.531,15.5-7.45,20.5-4.789c3.5,1.597,5,7.982,7.5,10.645c8,10.646,16.5,5.854,25-0.531
			c8.088-5.871,15.638-7.127,24.037-6.117l2.19-3.411l-0.481-5l3.414-5.548l1.415-2.498l12.047-3.053l1.77-3.845l2.477-2.476
			l3.892-3.566l9.2-4.393h14.152l7.076,4.232l7.075-4.76L193.231,88.934z"/>
	</g>
	<path fill="#772415" d="M136.217,79.608c-3.984,6.128-16.768,11.496-37.449,11.496c-20.684,0-30.246-3.766-37.449-11.496
		c-5.836-6.265,16.867-10.942,37.551-10.942C119.551,68.666,140.883,72.43,136.217,79.608z"/>
	<g>
		<g>
			<g>
				<g>
					<g>
						<path fill="none" d="M15.742,75.997c0.001,0,0.663,0.194,1.721,0.571c1.054,0.37,2.501,0.938,3.958,1.573
							c1.457,0.633,2.916,1.325,3.992,1.861c1.064,0.544,1.775,0.907,1.775,0.907l7.456-14.156c0,0-0.847-0.433-2.116-1.082
							c-1.271-0.633-2.973-1.44-4.724-2.202c-1.748-0.763-3.557-1.476-4.978-1.977c-1.412-0.504-2.428-0.804-2.428-0.804
							L15.742,75.997z"/>
						<path fill="#F8D3E4" d="M30.916,73.833c-2.104,3.888-6.311,5.692-9.496,4.311c-1.607-0.699-2.702-2.088-3.289-3.824
							c-0.575-1.738-0.693-3.861-0.061-5.976c0.634-2.117,2.017-3.795,3.828-4.691c1.805-0.905,3.97-1.022,5.905-0.181
							C31.706,65.171,33.018,69.951,30.916,73.833z"/>
					</g>
				</g>
				<g>
					<g>
						<path fill="none" d="M35.095,95.014c0,0,0.078,0.94,0.196,2.352c0.065,0.727,0.194,1.663,0.312,2.618
							c0.181,1.006,0.341,2.077,0.606,3.168c0.518,2.196,1.261,4.354,1.973,5.944c0.368,0.791,0.676,1.451,0.891,1.912
							c0.205,0.455,0.379,0.731,0.379,0.731l13.998-7.749c-0.01,0.033-0.232-0.505-0.607-1.302c-0.363-0.802-0.76-1.962-1.049-3.167
							c-0.154-0.605-0.241-1.271-0.361-1.874c-0.074-0.673-0.164-1.252-0.216-1.832c-0.101-1.202-0.167-2.004-0.167-2.004
							L35.095,95.014z"/>
						<path fill="#F8D3E4" d="M46.451,107.865c-1.943,1.09-4.074,1.291-6.052,0.447c-1.015-0.41-1.874-1.092-2.611-1.975
							c-0.773-0.877-1.266-1.978-1.578-3.188c-0.283-1.201-0.248-2.389-0.007-3.44c0.285-1.021,0.735-1.989,1.408-2.719
							c1.319-1.505,3.256-2.415,5.462-2.579c2.199-0.164,4.256,0.487,5.801,1.504c0.764,0.534,1.444,1.057,1.922,1.696
							c0.512,0.597,0.836,1.231,0.998,1.909c0.184,0.656,0.09,1.354-0.059,2.037c-0.183,0.697-0.563,1.445-0.994,2.162
							C49.816,105.182,48.357,106.797,46.451,107.865z"/>
					</g>
				</g>
				<g>
					<g>
						<path fill="none" d="M83.973,119.163c0,0,0.281,0.188,0.775,0.521c0.465,0.33,1.279,0.796,2.202,1.349
							c0.932,0.585,2.055,1.131,2.993,1.606c1.029,0.519,2.155,1.08,3.344,1.63c2.354,1.104,4.953,2.13,7.207,2.762
							c1.092,0.328,2.186,0.531,2.917,0.673c0.816,0.108,1.283,0.17,1.283,0.17l1.683-15.912c0,0-0.113-0.021-0.315-0.035
							c-0.272-0.069-0.63-0.11-1.223-0.293c-1.136-0.316-2.928-0.986-4.82-1.88c-0.942-0.434-1.915-0.919-2.853-1.391
							c-1.023-0.519-1.749-0.868-2.301-1.235c-0.582-0.359-1.053-0.604-1.422-0.875c-0.359-0.24-0.564-0.38-0.564-0.38
							L83.973,119.163z"/>
						<path fill="#F8D3E4" d="M105.537,119.916c-0.114,1.098-0.494,2.112-1.231,2.979c-0.371,0.436-0.783,0.798-1.289,1.131
							c-0.51,0.333-1.076,0.606-1.666,0.809c-2.422,0.847-5.46,0.653-8.063-0.566c-1.315-0.606-2.395-1.403-3.247-2.285
							c-0.208-0.22-0.404-0.445-0.589-0.677c-0.209-0.244-0.409-0.495-0.592-0.75c-0.371-0.524-0.692-1.111-0.935-1.672
							c-1.012-2.256-0.713-4.541,0.501-6.366c1.229-1.851,3.213-2.871,5.148-3.436c0.492-0.133,0.954-0.216,1.461-0.269
							c0.264-0.028,0.525-0.047,0.791-0.051c0.289,0.01,0.581,0.03,0.874,0.065c1.154,0.128,2.278,0.444,3.318,0.922
							c2.093,0.979,3.464,2.438,4.319,4.173c0.225,0.446,0.405,0.896,0.559,1.355c0.156,0.463,0.308,0.979,0.408,1.468
							C105.51,117.736,105.651,118.818,105.537,119.916z"/>
					</g>
				</g>
				<g>
					<g>
						<path fill="none" d="M142.713,108.04c0,0,1.08,0.119,2.699,0.298c0.852,0.042,1.828,0.108,2.912,0.122
							c1.114-0.024,2.271-0.019,3.534-0.18c2.466-0.244,5.142-0.883,7.211-1.854c0.509-0.203,0.978-0.442,1.396-0.688
							c0.413-0.237,0.772-0.445,1.069-0.616c0.295-0.163,0.521-0.35,0.678-0.456c0.154-0.111,0.236-0.173,0.236-0.173l-9.361-12.977
							c-0.01-0.003-0.014,0.036-0.104,0.081c-0.051,0.021-0.107,0.05-0.171,0.089c-0.052,0.045-0.132,0.092-0.261,0.127
							c-0.379,0.208-1.26,0.444-2.385,0.557c-0.532,0.086-1.188,0.064-1.767,0.091c-0.608-0.011-1.213-0.057-1.715-0.07
							c-1.076-0.119-1.793-0.199-1.793-0.199L142.713,108.04z"/>
						<path fill="#F8D3E4" d="M157.771,98.006c0.646,0.888,1.101,1.889,1.214,2.951c0.112,1.022-0.105,2.209-0.679,3.247
							c-1.14,2.181-3.702,3.797-6.446,4.076c-1.396,0.178-2.619-0.072-3.736-0.445c-1.064-0.446-1.988-1.069-2.686-1.85
							c-1.374-1.604-1.941-3.685-1.633-5.87s1.35-4.088,2.577-5.404c0.606-0.681,1.241-1.25,1.905-1.617
							c0.61-0.439,1.295-0.629,1.883-0.725c1.22-0.143,2.201,0.546,3.41,1.557c0.633,0.526,1.287,1.094,2.051,1.785
							C156.361,96.381,157.119,97.106,157.771,98.006z"/>
					</g>
				</g>
				<g>
					<g>
						<path fill="none" d="M195.393,66.308c0,0-0.066-0.118-0.189-0.341c-0.119-0.194-0.316-0.542-0.543-0.86
							c-0.476-0.707-1.121-1.483-1.875-2.239c-1.504-1.509-3.365-2.837-5.268-3.907c-1.896-1.073-3.871-1.888-5.477-2.402
							c-1.59-0.52-2.805-0.739-2.805-0.739l-3.162,15.684c0,0,0.362,0.059,1.051,0.282c0.674,0.212,1.664,0.619,2.547,1.121
							c0.884,0.486,1.609,1.069,1.789,1.266c0.09,0.093,0.082,0.09-0.01-0.034c-0.084-0.116-0.152-0.26-0.16-0.268L195.393,66.308z"
							/>
						<path fill="#F8D3E4" d="M177.656,63.66c0.405-2.16,1.635-3.997,3.512-4.922c1.855-0.939,4.244-0.963,6.351,0.222
							c2.101,1.175,3.517,3.374,3.746,5.701c0.117,1.157-0.078,2.313-0.599,3.261c-0.514,0.964-1.346,1.649-2.323,2.166
							c-0.972,0.516-1.979,0.887-2.845,1.31c-0.877,0.409-1.65,0.828-2.34,1.156c-1.373,0.664-2.513,0.902-3.485,0.352
							c-0.972-0.544-1.563-1.753-1.912-3.378C177.435,67.897,177.246,65.836,177.656,63.66z"/>
					</g>
				</g>
				<g>
					<g>
						<path fill="none" d="M45.628,88.199l14.102-7.562l-0.001-0.001l0,0c-3.346,0.521-3.234,0.502-5.021,0.779l0,0h0.001
							l0.002-0.001l0.008-0.003c0.007-0.004,0.018-0.009,0.031-0.015c0.027-0.014,0.068-0.031,0.121-0.058
							c0.106-0.049,0.263-0.12,0.462-0.212c0.396-0.184,0.965-0.444,1.646-0.759c1.362-0.628,3.179-1.466,4.995-2.303
							c3.633-1.675,7.266-3.35,7.266-3.35S68.604,73.365,67.493,71c-0.292-0.597-0.615-1.259-0.967-1.979
							c-0.368-0.724-0.766-1.505-1.191-2.341c-0.222-0.419-0.451-0.852-0.687-1.297c-0.245-0.444-0.497-0.902-0.756-1.373
							c-0.132-0.234-0.266-0.473-0.4-0.714c-0.141-0.24-0.282-0.484-0.426-0.73c-0.144-0.246-0.289-0.496-0.436-0.749
							c-0.154-0.252-0.31-0.507-0.467-0.766c-0.158-0.257-0.318-0.518-0.48-0.779l-0.25-0.396l-0.26-0.398
							c-0.175-0.269-0.351-0.537-0.529-0.811l-0.271-0.41l-0.287-0.413c-0.193-0.275-0.389-0.554-0.584-0.834l-0.301-0.422
							l-0.318-0.424c-0.214-0.284-0.429-0.569-0.646-0.855l-0.163-0.217L57.9,54.876l-0.354-0.433
							c-0.237-0.289-0.477-0.58-0.717-0.873l-0.091-0.11l-0.097-0.108l-0.196-0.22l-0.394-0.438l-0.398-0.44l-0.199-0.221
							l-0.101-0.11l-0.108-0.109l-0.878-0.879l-0.445-0.441l-0.482-0.436l-0.987-0.871l-0.124-0.108l-0.132-0.106l-0.272-0.213
							l-0.548-0.423l-0.555-0.422l-0.282-0.209l-0.304-0.202c-0.409-0.266-0.82-0.531-1.232-0.8l-0.155-0.099l-0.078-0.049
							l-0.083-0.048l-0.339-0.185l-0.683-0.366l-0.689-0.359l-0.173-0.09l-0.185-0.081l-0.375-0.159l-1.514-0.615l-0.098-0.035
							l-0.102-0.032l-0.203-0.063l-0.406-0.123l-0.819-0.237l-0.411-0.113l-0.207-0.057l-0.104-0.024l-0.107-0.021l-0.862-0.155
							l-0.867-0.141l-0.435-0.065l-0.055-0.007l-0.056-0.004l-0.11-0.007l-0.221-0.014l-0.888-0.048l-0.891-0.03l-0.222-0.005
							l-0.056-0.001l-0.056,0.003l-0.109,0.006l-0.44,0.026l-0.882,0.065l-0.882,0.081l-0.109,0.011l-0.106,0.019l-0.212,0.038
							l-0.424,0.08l-0.847,0.17l-0.845,0.184l-0.053,0.012l-0.049,0.016l-0.1,0.029l-0.198,0.062l-0.396,0.125l-0.791,0.257
							l-0.788,0.267l-0.099,0.034l-0.092,0.038l-0.182,0.079l-0.363,0.159l-1.444,0.655l-0.356,0.169l-0.328,0.185l-0.655,0.373
							l-1.302,0.76c-2.129,1.36-4.258,2.72-4.258,2.72s0.313,2.508,0.627,5.016l0.259,1.375l0.29,1.369l0.155,0.68l0.216,0.628
							l0.449,1.25l0.468,1.239l0.552,1.113l0.565,1.1l0.287,0.546l0.071,0.136l0.077,0.124l0.154,0.243
							c0.417,0.646,0.832,1.288,1.245,1.928l0.156,0.238l0.079,0.117l0.081,0.106l0.323,0.428l0.646,0.849l0.646,0.84l0.162,0.205
							l0.163,0.189l0.324,0.378c0.435,0.502,0.865,1,1.293,1.495c0.427,0.459,0.851,0.913,1.271,1.362l0.628,0.667l0.615,0.63
							c0.806,0.805,1.595,1.591,2.362,2.355c0.743,0.726,1.465,1.432,2.163,2.114c0.665,0.656,1.308,1.293,1.924,1.902
							c0.297,0.3,0.588,0.594,0.873,0.881c0.268,0.28,0.528,0.557,0.782,0.823c0.253,0.269,0.499,0.527,0.739,0.781
							c0.216,0.248,0.427,0.489,0.631,0.723c0.204,0.234,0.402,0.459,0.594,0.678l0.143,0.161l0.119,0.154
							c0.078,0.104,0.155,0.202,0.231,0.302c0.306,0.391,0.586,0.749,0.839,1.072c0.405,0.616,0.724,1.103,0.94,1.433
							C45.545,88.035,45.628,88.199,45.628,88.199z"/>
						<path fill="#F8D3E4" d="M61.973,78.068l-0.096,0.04l-0.099,0.032l-0.101,0.025l-0.104,0.021l-0.106,0.012l-0.109,0.006
							l-0.113-0.001l-0.115-0.009l-0.117-0.016l-0.12-0.021l-0.123-0.027l-0.126-0.033l-0.128-0.041l-0.131-0.049l-0.269-0.112
							l-0.279-0.14l-0.288-0.164l-0.298-0.188l-0.309-0.211l-0.316-0.234L58.3,76.701l-0.679-0.581l-0.353-0.322l-0.361-0.344
							l-0.749-0.744l-0.78-0.82l-0.817-0.888l-1.736-1.958l-1.877-2.149c-0.802,1.838-0.775,1.776-1.203,2.759l0.006,0.009
							l0.012,0.018l0.024,0.036l0.047,0.072l0.095,0.144l0.187,0.296l0.363,0.585l0.677,1.135l0.159,0.276l0.154,0.278l0.292,0.564
							l0.534,1.086l0.24,0.521l0.114,0.255l0.104,0.265l0.194,0.519l0.177,0.501l0.158,0.482l0.14,0.464l0.123,0.445l0.026,0.109
							l0.023,0.114l0.041,0.224l0.07,0.433l0.053,0.411l0.036,0.389l0.019,0.367l0.001,0.346l-0.015,0.323l-0.032,0.302
							l-0.027,0.147l-0.034,0.145l-0.078,0.271l-0.045,0.126l-0.049,0.12l-0.052,0.113l-0.056,0.108l-0.06,0.103l-0.063,0.098
							l-0.065,0.091l-0.069,0.086l-0.074,0.079l-0.076,0.074l-0.08,0.067l-0.083,0.063l-0.086,0.057l-0.09,0.052l-0.093,0.046
							l-0.095,0.041l-0.098,0.035l-0.101,0.029l-0.103,0.023l-0.104,0.02l-0.107,0.015l-0.109,0.009l-0.111,0.005h-0.114
							l-0.232-0.017l-0.241-0.032l-0.247-0.051l-0.538-0.141l-0.289-0.091l-0.297-0.105l-0.304-0.119l-0.311-0.134l-0.315-0.146
							l-0.321-0.16l-0.696-0.352L47.109,82.9l-1.608-0.927l-0.881-0.529l-0.927-0.575l-0.989-0.62l-1.029-0.668l-1.095-0.72
							l-1.135-0.772l-1.193-0.833l-1.237-0.896l-1.283-0.964l-0.657-0.515l-0.671-0.541l-0.677-0.553l-0.341-0.281l-0.345-0.295
							l-1.398-1.253l-0.354-0.321l-0.177-0.162l-0.178-0.174l-0.713-0.719l-0.718-0.731l-0.359-0.372l-0.091-0.093l-0.09-0.101
							l-0.178-0.207c-0.477-0.563-0.953-1.129-1.432-1.695l-0.18-0.217l-0.089-0.108l-0.088-0.12l-0.347-0.488l-0.692-0.99
							l-0.345-0.502l-0.172-0.253l-0.085-0.127l-0.043-0.063l-0.041-0.069l-0.637-1.147l-0.624-1.171l-0.153-0.296l-0.076-0.147
							l-0.067-0.163l-0.264-0.663l-0.51-1.343l-0.245-0.68l-0.06-0.17l-0.03-0.085l-0.015-0.043l-0.012-0.046l-0.088-0.37
							l-0.33-1.495l-0.289-1.513l-0.014-0.131l-0.009-0.129l-0.003-0.129l0.002-0.13l0.019-0.257l0.039-0.256l0.059-0.253
							l0.077-0.251l0.096-0.249l0.113-0.246l0.131-0.242l0.148-0.237l0.165-0.234l0.181-0.229l0.197-0.225l0.212-0.219l0.227-0.213
							l0.241-0.207l0.006-0.317l0.019-0.311l0.033-0.303l0.047-0.294l0.061-0.286l0.075-0.276l0.088-0.266l0.103-0.255l0.116-0.245
							l0.13-0.232l0.145-0.22l0.157-0.207l0.172-0.193l0.186-0.179l0.099-0.084l0.102-0.081l0.104-0.076l0.109-0.072l1.436-0.834
							l0.721-0.403l0.182-0.1l0.197-0.091l0.395-0.18l1.58-0.694l0.198-0.083l0.214-0.071l0.428-0.142l0.856-0.271l0.856-0.258
							l0.107-0.029l0.114-0.024l0.228-0.047l0.455-0.091l0.908-0.169l0.454-0.079l0.227-0.038l0.057-0.009l0.058-0.006l0.118-0.011
							l0.939-0.068l0.937-0.05l0.466-0.018l0.471,0.021l0.937,0.057l0.93,0.075l0.058,0.005l0.058,0.009l0.113,0.02l0.228,0.04
							l0.453,0.081l0.899,0.177l0.446,0.094l0.11,0.024l0.055,0.014l0.054,0.016l0.213,0.064l0.846,0.264l0.835,0.277l0.207,0.07
							l0.196,0.083l0.388,0.168l0.767,0.346l0.754,0.354l0.692,0.396l0.684,0.4l0.337,0.202l0.167,0.104l0.154,0.106l1.213,0.87
							l0.297,0.219l0.141,0.112l0.135,0.114l0.537,0.456l0.528,0.457l0.261,0.229l0.123,0.116l0.119,0.117l0.933,0.934l0.229,0.232
							l0.113,0.117l0.104,0.117l0.413,0.473l0.807,0.937l0.722,0.938l0.352,0.465l0.174,0.231l0.159,0.232l0.626,0.923l0.305,0.457
							l0.28,0.457l0.543,0.902l0.263,0.445l0.242,0.445l0.47,0.877l0.228,0.434l0.209,0.431l0.407,0.85l0.197,0.418L60,61.503
							l0.35,0.819l0.17,0.403l0.16,0.398l0.584,1.556l0.493,1.485l0.22,0.715l0.197,0.697l0.184,0.678l0.162,0.658l0.277,1.257
							l0.208,1.177l0.084,0.556l0.067,0.535l0.051,0.514l0.039,0.491l0.024,0.469l0.009,0.446l-0.005,0.424l-0.019,0.4l-0.031,0.377
							l-0.045,0.354l-0.06,0.329l-0.073,0.305l-0.086,0.281l-0.048,0.131l-0.052,0.125l-0.055,0.118l-0.058,0.112l-0.062,0.104
							l-0.065,0.101l-0.067,0.093l-0.072,0.087l-0.075,0.08l-0.078,0.073l-0.082,0.065l-0.086,0.062l-0.089,0.053L61.973,78.068z"/>
					</g>
				</g>
				<g>
					<g>
						<path fill="none" d="M92.88,86.531l11.103-11.521v-0.001l0,0c0.222-1.316,0.456-2.707,0.703-4.17l0,0l0,0l0.002-0.001
							l0.008-0.004c0.007-0.004,0.017-0.01,0.029-0.017c0.026-0.017,0.065-0.038,0.116-0.068c0.101-0.059,0.249-0.146,0.438-0.256
							c0.377-0.221,0.917-0.536,1.564-0.914c1.295-0.757,3.022-1.766,4.75-2.774c3.452-2.018,6.907-4.034,6.907-4.034
							s-0.021-0.035-0.059-0.104c-0.041-0.064-0.101-0.162-0.18-0.29c-0.161-0.254-0.398-0.63-0.711-1.121
							c-0.078-0.123-0.161-0.252-0.249-0.388c-0.091-0.129-0.187-0.265-0.286-0.407c-0.202-0.28-0.423-0.587-0.661-0.919
							c-0.12-0.165-0.245-0.336-0.374-0.514c-0.133-0.167-0.271-0.339-0.413-0.519c-0.286-0.354-0.591-0.731-0.913-1.13
							c-0.332-0.376-0.682-0.772-1.049-1.188c-0.186-0.205-0.374-0.415-0.568-0.63c-0.196-0.205-0.399-0.414-0.606-0.627
							c-0.207-0.214-0.418-0.431-0.634-0.651l-0.329-0.332l-0.34-0.324c-0.229-0.217-0.465-0.438-0.701-0.664l-0.36-0.34
							l-0.183-0.172l-0.188-0.166c-0.506-0.441-1.025-0.896-1.563-1.365c-0.547-0.444-1.111-0.902-1.689-1.373
							c-0.591-0.447-1.196-0.906-1.815-1.377l-0.234-0.175l-0.239-0.168l-0.483-0.339c-0.324-0.228-0.652-0.457-0.983-0.688
							l-0.249-0.174l-0.255-0.167l-0.515-0.336c-0.345-0.225-0.693-0.451-1.045-0.68c-0.716-0.437-1.444-0.88-2.187-1.332
							c-0.758-0.424-1.528-0.855-2.311-1.293c-0.398-0.207-0.801-0.414-1.205-0.624l-0.609-0.314l-0.308-0.155l-0.313-0.149
							c-0.419-0.199-0.84-0.398-1.265-0.599l-0.64-0.301l-0.656-0.282c-0.438-0.189-0.879-0.38-1.323-0.57l-0.336-0.139
							l-0.341-0.134l-0.685-0.266l-0.689-0.267l-0.346-0.134l-0.353-0.125c-0.473-0.163-0.947-0.326-1.426-0.491l-0.721-0.242
							l-0.736-0.224c-0.493-0.146-0.988-0.295-1.485-0.442c-0.508-0.129-1.019-0.26-1.53-0.392l-0.771-0.193l-0.79-0.166
							c-0.529-0.108-1.06-0.216-1.592-0.325c-0.545-0.085-1.092-0.171-1.64-0.257l-0.826-0.122l-0.847-0.088l-0.849-0.085
							l-0.426-0.042l-0.214-0.021l-0.218-0.01l-1.751-0.076l-0.439-0.015l-0.449,0.006l-0.901,0.017l-0.902,0.021l-0.112,0.003
							l-0.115,0.009l-0.231,0.019l-0.462,0.039l-0.924,0.082l-0.463,0.043l-0.232,0.024l-0.235,0.037l-1.887,0.309l-0.235,0.041
							l-0.239,0.057l-0.478,0.114l-0.955,0.237l-0.477,0.122l-0.238,0.063l-0.24,0.078l-0.957,0.323l-0.955,0.333l-0.119,0.042
							l-0.118,0.048l-0.237,0.104l-0.473,0.208l-0.942,0.427l-0.469,0.217l-0.059,0.027l-0.058,0.03l-0.115,0.063l-0.229,0.128
							l-1.82,1.055c-4.526,2.92-9.053,5.84-9.053,5.84s4.104,3.488,8.21,6.979c5.006,4.219,10.012,8.438,14.705,12.394
							c4.583,3.966,8.861,7.668,12.527,10.842c1.898,1.638,3.638,3.139,5.18,4.469c0.737,0.634,1.427,1.229,2.064,1.775
							c0.619,0.545,1.188,1.046,1.701,1.498c0.498,0.45,0.943,0.854,1.33,1.205c0.379,0.352,0.701,0.649,0.963,0.893
							C92.609,86.272,92.88,86.531,92.88,86.531z"/>
						<path fill="#F8D3E4" d="M111.594,66.804l-0.092,0.049l-0.098,0.038l-0.101,0.03l-0.104,0.022l-0.108,0.014l-0.116,0.007h-0.12
							l-0.125-0.008l-0.13-0.016l-0.133-0.023l-0.139-0.031l-0.142-0.037l-0.296-0.096l-0.311-0.123l-0.323-0.148l-0.347-0.171
							l-0.371-0.189l-0.387-0.213l-0.822-0.489l-0.449-0.267l-0.464-0.288c-0.693-0.437-1.383-0.87-2.071-1.304
							c-0.817-0.5-1.632-0.997-2.445-1.495l-0.328-0.201l-0.165-0.103l-0.172-0.099l-0.697-0.403l-0.71-0.419l-0.746-0.415
							l-0.761-0.429l-0.191-0.109l-0.198-0.104l-0.4-0.211l-0.81-0.436l-0.204-0.11l-0.208-0.108l-0.424-0.213
							c-3.447,5.139-3.332,4.968-5.173,7.712l0.009,0.011l0.019,0.021l0.036,0.043l0.073,0.085l0.145,0.171l0.286,0.339l0.559,0.67
							l1.059,1.302l0.252,0.317l0.008,0.01c-0.131-0.112-0.068-0.058-0.1-0.083l0.017,0.021l0.031,0.039l0.063,0.078l0.125,0.155
							l0.486,0.615l0.914,1.192l0.834,1.147l0.385,0.552l0.363,0.54l0.656,1.038l0.294,0.494l0.271,0.478l0.244,0.468l0.221,0.448
							l0.196,0.43l0.172,0.41L98.48,77.8l0.124,0.371l0.095,0.356l0.07,0.336l0.046,0.314l0.014,0.149l0.008,0.144l0.001,0.14
							l-0.006,0.134l-0.011,0.128l-0.019,0.122l-0.023,0.116l-0.03,0.11l-0.037,0.105l-0.043,0.101l-0.05,0.095l-0.056,0.089
							L98.5,80.693l-0.068,0.078l-0.075,0.07l-0.081,0.065l-0.086,0.06l-0.093,0.054l-0.099,0.048l-0.104,0.041l-0.109,0.036
							l-0.115,0.028l-0.121,0.024l-0.125,0.019l-0.132,0.014l-0.137,0.007l-0.142,0.001l-0.147-0.004l-0.31-0.024l-0.33-0.046
							l-0.35-0.067l-0.375-0.084l-0.395-0.104l-0.414-0.125l-0.433-0.146l-0.45-0.164l-0.469-0.183l-0.494-0.198l-0.513-0.218
							l-1.075-0.489l-1.157-0.56l-1.227-0.629l-1.306-0.701L86.89,77.12l-0.172-0.098l-0.086-0.049l-0.043-0.024l-0.021-0.013
							c-0.095-0.081-0.102-0.086-0.118-0.1l-0.011-0.006l-0.348-0.203l-1.427-0.854l-1.482-0.918l-1.537-0.98l-1.587-1.043
							l-1.637-1.104l-1.681-1.162l-1.724-1.219l-1.764-1.273c-1.208-0.899-2.419-1.802-3.636-2.707
							c-1.278-0.961-2.56-1.926-3.851-2.896c-1.314-1.021-2.634-2.048-3.965-3.084c-1.342-1.078-2.691-2.162-4.055-3.258
							c-1.36-1.128-2.732-2.266-4.121-3.419l-0.417-0.368l-0.396-0.377l-0.378-0.388l-0.359-0.397l-0.339-0.406l-0.319-0.412
							l-0.301-0.421l-0.279-0.426l-0.26-0.431l-0.24-0.436l-0.219-0.438l-0.198-0.442l-0.177-0.442l-0.156-0.445l-0.136-0.444
							l-0.113-0.443l0.171-0.426l0.191-0.423l0.213-0.42l0.234-0.416l0.255-0.412l0.274-0.405l0.295-0.4l0.314-0.394l0.333-0.386
							l0.353-0.377l0.371-0.368l0.39-0.356l0.407-0.347l0.426-0.335l0.443-0.322l0.46-0.311l1.001-0.587l1.007-0.568l0.126-0.07
							l0.063-0.035l0.064-0.03l0.257-0.118l0.516-0.235l1.034-0.458l0.259-0.112l0.13-0.056l0.13-0.047l0.521-0.182l1.042-0.35
							l0.521-0.169l0.13-0.042l0.13-0.034l0.259-0.063l1.034-0.25l1.031-0.233l1.017-0.16l1.013-0.148l0.253-0.036l0.248-0.022
							l0.495-0.039l0.987-0.07l0.492-0.033l0.244-0.015l0.24-0.002h1.91l0.236,0.003l0.231,0.015l0.462,0.028l0.921,0.063
							l0.458,0.032l0.229,0.017l0.225,0.025l0.889,0.111l0.883,0.116l0.439,0.061l0.428,0.079l1.697,0.319l0.211,0.041l0.205,0.049
							l0.41,0.1l0.814,0.199l0.809,0.2l0.787,0.229l1.553,0.467l1.496,0.522l0.738,0.263l0.719,0.285l1.416,0.576l0.175,0.071
							l0.172,0.077l0.341,0.155l0.679,0.31l0.671,0.31l0.334,0.153l0.325,0.165l1.286,0.657l0.631,0.33l0.614,0.345l1.21,0.688
							l0.295,0.174l0.291,0.18l0.578,0.358l1.132,0.712l1.086,0.737l0.532,0.364l0.264,0.183l0.258,0.188l1.011,0.752l0.495,0.372
							l0.244,0.188l0.238,0.191l0.937,0.763l0.458,0.376l0.443,0.386l0.862,0.768l0.42,0.38l0.205,0.19l0.201,0.195l0.787,0.769
							l0.383,0.378l0.188,0.188l0.182,0.193l0.712,0.766l0.681,0.75l0.636,0.757l0.605,0.738l0.146,0.182l0.141,0.188l0.276,0.369
							l0.53,0.724l0.254,0.353l0.121,0.178l0.119,0.18l0.877,1.383l0.102,0.166l0.095,0.17l0.185,0.336l0.349,0.652l0.317,0.625
							l0.273,0.617l0.244,0.59l0.215,0.56l0.051,0.136l0.045,0.136l0.08,0.271l0.144,0.518l0.116,0.482l0.089,0.451l0.019,0.107
							l0.016,0.106l0.02,0.211l0.021,0.397l0.002,0.185l-0.004,0.177l-0.01,0.169l-0.018,0.158l-0.021,0.15l-0.029,0.142
							l-0.033,0.134l-0.04,0.125l-0.047,0.115l-0.052,0.107l-0.059,0.099l-0.064,0.092l-0.072,0.083l-0.076,0.073l-0.082,0.065
							L111.594,66.804z"/>
					</g>
				</g>
				<g>
					<g>
						<path fill="none" d="M137.716,69.696l7.866-13.933v-0.001l0,0c1.033,0.104,2.125,0.211,3.274,0.325l0,0l0,0l0.001-0.002
							l0.004-0.008c0.004-0.007,0.01-0.017,0.016-0.03c0.016-0.026,0.035-0.066,0.063-0.119c0.054-0.104,0.134-0.256,0.235-0.449
							c0.203-0.388,0.494-0.941,0.842-1.605c0.697-1.329,1.625-3.1,2.555-4.871c1.857-3.542,3.715-7.085,3.715-7.085
							s-0.498-0.262-1.434-0.753c-0.115-0.061-0.24-0.125-0.371-0.193c-0.132-0.059-0.27-0.12-0.416-0.186
							c-0.29-0.129-0.607-0.271-0.949-0.424c-0.688-0.305-1.478-0.653-2.361-1.044l-0.336-0.148l-0.172-0.075l-0.176-0.066
							c-0.234-0.088-0.476-0.179-0.722-0.271c-0.493-0.184-1.01-0.376-1.548-0.576c-0.538-0.198-1.1-0.405-1.682-0.622l-0.219-0.08
							l-0.222-0.077l-0.451-0.141c-0.303-0.094-0.61-0.189-0.924-0.288c-0.627-0.192-1.274-0.394-1.94-0.599
							c-0.332-0.104-0.671-0.207-1.014-0.313l-0.129-0.039l-0.13-0.036l-0.261-0.066l-0.527-0.135
							c-0.708-0.18-1.434-0.365-2.178-0.554c-0.371-0.095-0.746-0.189-1.127-0.285l-0.572-0.145l-0.583-0.12
							c-0.78-0.158-1.576-0.321-2.39-0.486c-0.405-0.083-0.815-0.166-1.229-0.25l-0.623-0.125l-0.632-0.101
							c-0.845-0.133-1.705-0.268-2.578-0.404c-0.437-0.068-0.876-0.137-1.319-0.206l-0.332-0.052l-0.336-0.038l-0.675-0.075
							c-0.901-0.102-1.815-0.203-2.743-0.308l-0.695-0.077l-0.351-0.039l-0.353-0.028c-0.471-0.032-0.943-0.065-1.42-0.099
							c-0.95-0.063-1.914-0.128-2.885-0.193l-0.363-0.024l-0.367-0.009l-0.736-0.018c-0.492-0.013-0.986-0.024-1.482-0.036
							s-0.994-0.023-1.496-0.034l-0.752-0.018l-0.758,0.015c-1.012,0.021-2.031,0.044-3.058,0.065l-0.771,0.019l-0.191,0.008
							l-0.193,0.01l-0.389,0.026l-1.56,0.107l-1.567,0.109l-0.786,0.057l-0.197,0.014l-0.099,0.007l-0.099,0.012l-0.396,0.048
							c-1.058,0.128-2.119,0.257-3.183,0.386l-0.799,0.099l-0.2,0.028l-0.201,0.036l-0.402,0.07l-1.611,0.287l-1.613,0.292
							L93.61,33.83l-0.202,0.039l-0.203,0.049l-0.814,0.197l-3.254,0.801c-6.568,1.854-13.136,3.705-13.136,3.705
							s4.826,4.826,9.652,9.653l0.735,0.676l0.746,0.665l0.188,0.164l0.095,0.082l0.102,0.077l0.412,0.306l0.833,0.6l0.42,0.294
							l0.106,0.069l0.107,0.064l0.215,0.127l0.867,0.502l0.436,0.245l0.109,0.061l0.106,0.055l0.209,0.101l0.839,0.394l0.42,0.193
							l0.211,0.095L93,53.12l0.764,0.301l0.752,0.289l0.672,0.237c0.796,0.276,1.59,0.552,2.38,0.827l1.467,0.514l1.207,0.374
							c0.801,0.248,1.597,0.493,2.39,0.738c1.567,0.48,3.116,0.956,4.64,1.423c1.505,0.468,2.982,0.929,4.431,1.379
							c1.426,0.461,2.819,0.913,4.179,1.353c0.673,0.226,1.336,0.446,1.989,0.664c0.646,0.225,1.283,0.445,1.908,0.662
							c0.313,0.109,0.622,0.217,0.93,0.324c0.304,0.111,0.604,0.221,0.901,0.331c0.595,0.218,1.179,0.432,1.751,0.642
							c1.127,0.438,2.207,0.856,3.234,1.256c1.006,0.421,1.96,0.819,2.855,1.194c0.877,0.396,1.697,0.768,2.457,1.109
							c0.188,0.086,0.373,0.171,0.555,0.254c0.177,0.087,0.351,0.173,0.519,0.256c0.339,0.167,0.661,0.326,0.968,0.478
							c0.307,0.15,0.596,0.293,0.868,0.427l0.201,0.099l0.192,0.1c0.123,0.066,0.242,0.132,0.357,0.193
							c0.461,0.249,0.854,0.46,1.17,0.632C137.377,69.514,137.716,69.696,137.716,69.696z"/>
						<path fill="#F8D3E4" d="M152.572,49.004l-0.053,0.089l-0.063,0.084l-0.069,0.079l-0.079,0.074l-0.087,0.069l-0.097,0.063
							l-0.104,0.061l-0.111,0.055l-0.121,0.05l-0.127,0.046l-0.138,0.041l-0.144,0.037l-0.152,0.032l-0.158,0.027l-0.342,0.041
							l-0.37,0.023l-0.405,0.021l-0.44,0.014l-0.47-0.001l-0.495-0.015l-0.524-0.03l-0.55-0.044l-0.576-0.059l-0.6-0.071
							l-0.31-0.041l-0.324-0.029l-1.361-0.136l-1.456-0.185l-0.763-0.108l-0.194-0.029l-0.099-0.015l-0.1-0.011l-0.406-0.041
							l-1.675-0.188l-1.761-0.229l-3.836-0.399c-3.201,1.675-3.096,1.62-4.805,2.514l0.014,0.008l0.027,0.016l0.052,0.029
							l0.104,0.06l0.209,0.118l0.414,0.235l0.809,0.466l0.783,0.461l0.754,0.476l1.434,0.928l0.676,0.452l0.646,0.462l1.207,0.903
							l1.098,0.864l0.971,0.862l0.441,0.414l0.413,0.402l0.384,0.391l0.354,0.378l0.318,0.379l0.287,0.367l0.258,0.354l0.227,0.339
							l0.197,0.325l0.166,0.311l0.135,0.295l0.056,0.142l0.048,0.14l0.04,0.135l0.032,0.131l0.023,0.127l0.018,0.124l0.009,0.12
							l0.001,0.116l-0.007,0.112l-0.017,0.106l-0.022,0.104l-0.03,0.1l-0.039,0.096l-0.047,0.093l-0.055,0.088l-0.063,0.083
							l-0.07,0.079l-0.077,0.074l-0.085,0.07l-0.092,0.066l-0.101,0.062l-0.106,0.057l-0.112,0.054l-0.121,0.049l-0.127,0.045
							l-0.136,0.041l-0.141,0.036l-0.147,0.033l-0.315,0.053l-0.342,0.037l-0.367,0.021l-0.392,0.005l-0.416-0.01l-0.438-0.024
							l-0.465-0.039l-0.495-0.04l-0.518-0.055l-1.103-0.147l-1.188-0.201l-1.292-0.218l-1.373-0.267
							c-1.007-0.205-2.011-0.408-3.015-0.613l-3.354-0.723c-2.56-0.569-5.108-1.138-7.677-1.71c-1.43-0.327-2.86-0.655-4.297-0.982
							c-1.521-0.36-3.044-0.723-4.575-1.084c-1.609-0.401-3.223-0.803-4.847-1.207c-0.837-0.22-1.675-0.439-2.516-0.661
							l-1.281-0.347l-0.645-0.178l-0.323-0.089l-0.691-0.229c-0.79-0.251-1.582-0.503-2.379-0.756l-1.447-0.48L92.816,53
							l-0.912-0.409l-0.456-0.209l-0.228-0.105l-0.113-0.054l-0.118-0.063l-0.949-0.53l-0.473-0.272l-0.235-0.139l-0.117-0.072
							L89.1,51.067l-0.916-0.646l-0.454-0.332l-0.227-0.167l-0.056-0.042l-0.055-0.043l-0.104-0.089l-0.823-0.727l-0.813-0.745
							l-0.49-0.505l-0.469-0.513l-0.446-0.519l-0.426-0.525l-0.404-0.53l-0.382-0.533l-0.359-0.538l-0.337-0.54l-0.314-0.541
							l-0.291-0.541l-0.268-0.541l-0.244-0.539l-0.221-0.536l-0.197-0.533l-0.172-0.528l-0.148-0.521l0.384-0.384l0.408-0.376
							l0.432-0.369l0.454-0.36l0.477-0.351l0.498-0.341l0.519-0.33l0.538-0.318l0.559-0.306l0.576-0.293l0.594-0.279l0.611-0.265
							l0.628-0.25l0.644-0.234l0.659-0.218l0.673-0.201c1.199-0.292,2.391-0.581,3.576-0.869l0.445-0.104l0.222-0.053l0.11-0.022
							l0.11-0.021l0.879-0.151l1.751-0.297l1.738-0.281l1.715-0.184l1.701-0.173l0.845-0.083l0.211-0.021l0.21-0.016l0.418-0.02
							c1.106-0.047,2.208-0.094,3.308-0.143l0.816-0.029l0.81,0.005l1.604,0.02l1.585,0.027l0.785,0.016l0.776,0.047
							c1.022,0.072,2.043,0.145,3.061,0.216l0.751,0.057l0.374,0.03l0.371,0.045l1.471,0.181l2.874,0.374l2.769,0.497l1.349,0.254
							l0.665,0.128l0.164,0.033l0.164,0.039l0.326,0.078l2.557,0.625l1.236,0.313l0.306,0.079l0.151,0.04l0.15,0.046l0.6,0.184
							l2.322,0.729l1.117,0.362l0.274,0.09l0.137,0.045l0.136,0.051l0.537,0.206l2.071,0.813l0.989,0.399l0.482,0.199l0.238,0.1
							l0.234,0.11l1.804,0.872l1.671,0.847l0.396,0.208l0.099,0.051l0.097,0.057l0.19,0.114l0.741,0.449l1.379,0.87l1.24,0.828
							l0.287,0.204l0.272,0.217l0.521,0.425l0.482,0.412l0.447,0.397l0.41,0.384l0.375,0.371l0.338,0.356l0.302,0.342l0.137,0.166
							l0.123,0.172l0.218,0.334l0.182,0.317l0.076,0.151l0.066,0.147l0.059,0.143l0.049,0.14l0.039,0.134l0.031,0.13l0.021,0.125
							l0.012,0.121l0.004,0.117l-0.007,0.111l-0.016,0.107l-0.025,0.104l-0.033,0.099L152.572,49.004z"/>
					</g>
				</g>
			</g>
		</g>
	</g>
	<path fill="#E69F6B" d="M123.138,148.155l-3.813-6.041l-2.478-4.394l3.599-8.787l7.252-9.735l-0.481-5l3.413-5.548l1.416-2.498
		l12.047-3.053l1.769-3.844l2.478-2.477l3.892-3.566l9.2-4.393h14.152l7.076,4.232l7.075-4.76l3.539,0.445l2.104,4.874
		c0,0-2.86,6.401-2.86,8.599s0,10.598,0,10.598l-3.209,6.24l-6.124,1.76l-7.88,1.638l-8.062-0.986l-7.254-3.235l-7.375,3.541
		l-11.547,1.044l-3.439,4.334l-3.854,9.999l-5.835,3.589l-1.243,6.299L123.138,148.155L123.138,148.155z"/>
</g>
</svg>
