<?xml version="1.0" encoding="utf-8"?>
<!-- Generator: Adobe Illustrator 16.0.0, SVG Export Plug-In . SVG Version: 6.00 Build 0)  -->
<!DOCTYPE svg PUBLIC "-//W3C//DTD SVG 1.1//EN" "http://www.w3.org/Graphics/SVG/1.1/DTD/svg11.dtd">
<svg version="1.1" id="Layer_1" xmlns="http://www.w3.org/2000/svg" xmlns:xlink="http://www.w3.org/1999/xlink" x="0px" y="0px"
	 width="200px" height="150px" viewBox="0 0 200 150" enable-background="new 0 0 200 150" xml:space="preserve">
<g>
	<path fill="#D35F27" d="M196.14,92.887c0.021-0.559,0.032-0.553,0.032-1.116c0-37.279-41.754-53.438-96.963-53.438
		c-55.21,0-96.964,16.157-96.964,53.438S43.999,150,99.208,150c8.372,0,16.43-0.484,24.084-1.432l-0.196-0.221l-3.813-6.041
		l-2.478-4.394l3.599-8.787l7.252-9.735l-0.481-5l3.413-5.547l1.416-2.498l12.047-3.054l1.77-3.844l2.477-2.476l3.892-3.566
		l9.2-4.393h14.152l7.076,4.232l7.075-4.76l3.539,0.445l2.104,4.871C195.334,93.807,195.613,93.305,196.14,92.887z"/>
	<g>
		<path fill="#E9D3CD" d="M193.231,88.934l2.104,4.873c3.326-3.914,2.524-4.855,1.662-10.366c-1-9.048-4.197-14.732-12.197-20.587
			c-5.5-4.258-11.871-12.171-18.871-14.832c-7.5-2.661-15-6.388-23.5-7.452c-8.5-0.532-9.637-2.065-17.855-3.052
			c-28.667-3.441-57.578-0.438-82.078,8.078c-5,1.597-9.484,3.707-13.946,5.408C15.418,56.011,2.379,66.712,3.161,82.628
			c0,12.772,5.27,7.972,15.77,7.972c11,0.531,6,7.983,8,17.563c2.5,11.709,11,17.03,21.5,15.435c5.5-0.531,15.5-7.451,20.5-4.789
			c3.5,1.597,5,7.982,7.5,10.645c8,10.645,16.5,5.854,25-0.532c8.088-5.87,15.639-7.127,24.037-6.116l2.19-3.412l-0.481-5
			l3.414-5.547l1.415-2.498l12.047-3.054l1.77-3.844l2.477-2.476l3.892-3.566l9.2-4.393h14.152l7.076,4.232l7.075-4.76
			L193.231,88.934z"/>
	</g>
	<g>
		<path fill="#A8715D" d="M9.809,72.115c-4.5-12,22.5,2,25,4c12.5,10.5,5,19,11.5,31.5c8.5,15.5,10-15.5,7-22
			c-5-11-22-19.5-23.5-31.5c18-11.5,29,17.5,34.5,29c6.5,12.5,15,24.5,27.5,31.5c4,2,14,7.5,18,4.5c3-2,2.5-12.5,2-15
			c-1.5-13.5-12-22.5-22-31c-10-9-21-18-31-26.5c15.5-10,46,6.5,53.5,21.5c7,14.5,13,29.5,31.5,32c25,3.5,21-20,6-32
			c-13.5-10.5-32.5-15.5-48.5-20.5c-4-1.5-7-2-10-5c19.5-5.5,50-2,66.5,9.5c6.5,4,19.5,23.5,27.5,22c13.5-3-17.5-19.5-14.5-4.5"/>
		<g>
			<path fill="#923D20" d="M12.219,71.45c-0.707-2.116-0.363-1.879,2.017-1.494c2.827,0.458,5.577,1.559,8.218,2.627
				c4.651,1.882,9.462,4.045,13.05,7.602c6.159,6.106,4.424,15.066,6.317,22.782c0.908,3.702,4.171,12.448,9.504,11.342
				c7.908-1.643,6.21-19.868,5.398-25.279C54.436,73.782,34.709,68.446,32.219,53.45c-0.383,0.941-0.766,1.882-1.148,2.823
				c15.366-9.228,24.812,14.479,29.712,25.165c7.978,17.395,20.266,31.935,38.197,39.274c6.066,2.483,13.119,2.98,15.067-4.483
				c1.781-6.827,0.509-15.78-2.439-22.054c-4.416-9.396-12.265-16.221-20.031-22.829c-10.352-8.809-20.634-17.705-31-26.5
				c-0.168,1.309-0.337,2.618-0.506,3.926c8.526-5.136,19.372-2.174,27.819,1.647c8.732,3.95,17.7,10.315,22.261,18.956
				c4.575,8.67,8.059,17.667,15.186,24.683c6.724,6.62,17.322,10.028,26.66,8.657c17.238-2.529,12.847-21.043,4.996-30.993
				c-6.767-8.576-17.672-13.469-27.539-17.446c-6.045-2.437-12.283-4.389-18.506-6.314c-5.811-1.797-13.244-2.952-17.871-7.117
				c-0.367,1.393-0.735,2.786-1.104,4.178c18.189-4.904,39.563-2.855,56.719,4.812c6.754,3.019,11.438,7.389,16.393,12.723
				c4.463,4.803,9.553,11.224,15.969,13.472c3.683,1.29,8.369,0.533,10.009-3.38c1.493-3.563-3.203-7.024-5.642-8.552
				c-6.857-4.298-18.868-5.065-17.021,6.178c0.521,3.176,5.339,1.824,4.82-1.329c-1.076-6.554,11.897-1.009,13.036,2.619
				c-0.18-0.572-1.787,0.243-3.118-0.093c-2.651-0.669-5.026-2.998-6.986-4.761c-4.323-3.89-8.061-8.4-12.13-12.546
				c-8.445-8.605-20.972-12.523-32.508-14.765c-13.35-2.593-27.684-2.756-40.868,0.799c-1.749,0.471-2.518,2.905-1.104,4.178
				c7.161,6.448,18.865,7.938,27.789,10.847c11.293,3.682,23.345,8.123,32.393,16.087c5.373,4.729,10.014,12.005,9.536,19.402
				c-0.622,9.614-14.623,7.453-20.507,5.707c-10.055-2.983-15.764-12.374-20.215-21.153c-4.086-8.058-7.44-14.718-14.519-20.61
				c-11.693-9.736-31.896-18.984-46.472-10.206c-1.293,0.779-1.763,2.86-0.506,3.926c8.958,7.601,18.018,15.081,26.858,22.82
				c7.593,6.646,15.888,12.982,21.352,21.607c4.083,6.446,5.676,15.571,3.729,23.032c-1.666,6.385-20.691-6.354-23.166-8.354
				c-13.872-11.207-19.08-27.598-27.651-42.421C51.85,54.148,41.341,44.272,28.548,51.954c-1.037,0.623-1.337,1.69-1.148,2.823
				c1.242,7.483,6.839,13.063,12.033,18.165c4.814,4.727,11.128,9.703,12.361,16.694c0.932,5.283,0.657,11.268-0.453,16.494
				c-0.221,1.037-0.522,2.063-1.016,3.002c-0.29,0.554,0.713,0.682-0.305-0.384c-2.988-3.122-3.892-8.411-4.304-12.524
				c-0.758-7.57-1.392-13.657-6.677-19.576c-3.207-3.591-7.822-5.58-12.113-7.537c-5.007-2.284-23.834-9.215-19.527,3.667
				C8.415,75.821,13.245,74.517,12.219,71.45L12.219,71.45z"/>
		</g>
	</g>
	<path fill="#E69F6B" d="M123.138,148.155l-3.813-6.041l-2.478-4.394l3.599-8.787l7.252-9.735l-0.481-5l3.413-5.548l1.416-2.498
		l12.047-3.053l1.769-3.844l2.478-2.477l3.892-3.566l9.2-4.393h14.152l7.076,4.232l7.075-4.76l3.539,0.445l2.104,4.874
		c0,0-2.86,6.401-2.86,8.599s0,10.598,0,10.598l-3.209,6.24l-6.124,1.76l-7.88,1.638l-8.062-0.985l-7.254-3.236l-7.375,3.541
		l-11.547,1.044l-3.439,4.334l-3.854,9.999l-5.835,3.589l-1.243,6.299L123.138,148.155L123.138,148.155z"/>
</g>
</svg>
