<?xml version="1.0" encoding="utf-8"?>
<!-- Generator: Adobe Illustrator 16.0.0, SVG Export Plug-In . SVG Version: 6.00 Build 0)  -->
<!DOCTYPE svg PUBLIC "-//W3C//DTD SVG 1.1//EN" "http://www.w3.org/Graphics/SVG/1.1/DTD/svg11.dtd">
<svg version="1.1" id="Layer_1" xmlns="http://www.w3.org/2000/svg" xmlns:xlink="http://www.w3.org/1999/xlink" x="0px" y="0px"
	 width="200px" height="150px" viewBox="0 0 200 150" enable-background="new 0 0 200 150" xml:space="preserve">
<g>
	<g>
		<g>
			<path fill="#D35F27" d="M196.171,91.771c0,37.278-41.754,58.229-96.964,58.229c-55.21,0-96.964-20.951-96.964-58.229
				c0-37.279,41.753-53.437,96.964-53.437C154.417,38.334,196.171,54.491,196.171,91.771z"/>
		</g>
		<path fill="#772415" d="M136.656,80.274c-3.983,6.128-16.768,11.496-37.45,11.496S68.96,88.006,61.757,80.274
			c-5.835-6.264,16.868-10.942,37.551-10.942C119.992,69.332,141.322,73.096,136.656,80.274z"/>
	</g>
	<g>
		<path fill="#34140E" d="M3.157,82.629c0,12.773,5.27,7.97,15.77,7.97c11,0.533,6,7.984,8,17.564c2.5,11.709,11,17.031,21.5,15.436
			c5.5-0.532,15.5-7.451,20.5-4.791c3.5,1.598,5,7.983,7.5,10.646c8,10.646,16.5,5.854,25-0.532c11-7.982,21-7.451,33.5-4.258
			c15.5,4.79,17.5,0,26.5-12.24c3-4.791,5-7.451,11-10.113c5.5-2.66,17-2.66,21-6.387c5.5-5.854,4.569-6.096,3.569-12.481
			c-1-9.048-4.198-14.732-12.198-20.587c-5.5-4.258-11.871-12.171-18.871-14.832c-7.5-2.661-15-6.388-23.5-7.452
			c-8.5-0.532-9.637-2.065-17.855-3.052c-28.667-3.441-57.578,0.563-82.078,9.079c-5,1.597-9.485,2.706-13.946,4.407
			C15.416,56.011,2.375,66.713,3.157,82.629"/>
	</g>
	<g>
		<path fill="#6D97BA" d="M52.501,36.813c0,0-0.558,19.317,10.84,19.774c0,0,17.295-2.478,16.645-13.889
			c0,0,0.433-22.009-15.949-16.51C64.038,26.188,53.541,29.7,52.501,36.813z"/>
		<path fill="#B7D6E1" d="M60.702,27.089c0,0,13.962-4.679,15.102,1.197c0.164,0.84,0.063,1.896-0.375,3.209
			c0,0-4.318,7.547-21.193,6.071C54.236,37.566,47.533,33.26,60.702,27.089z"/>
	</g>
	<g>
		<polygon fill="#CC9D53" points="87.52,37.585 105.532,33.417 116.846,54.852 113.124,65.271 90.498,69.737 83.948,67.801 
			79.036,63.931 74.868,51.577 75.463,47.26 		"/>
		<path fill="#F8F3BA" d="M98.238,24.039c-0.595,0.297-5.805,2.53-5.805,2.53l-1.787,0.893l1.042,2.53l-1.042,4.614
			c0,0,1.34,5.359,1.936,5.657c0.596,0.298,5.656,3.275,5.656,3.275l6.401,5.21h1.637l3.275,0.744l3.126,3.274l5.509,1.786
			l6.399-1.042l1.488-3.721l2.978-4.317l-0.596-4.614l0.596-4.615l-3.125-5.508l-7.593-6.698l-5.954-0.745l-4.764-0.744l-1.19-4.317
			l-8.336-1.489l-2.233,2.828L98.238,24.039z"/>
		<path fill="#F8F3BA" d="M113.422,59.913c0,0,5.063-0.893,5.358,0c0.298,0.893,2.827,7.294,2.827,7.294l-2.529,3.87l0.745,4.912
			l-2.979,4.764c0,0-5.359,2.529-5.806,2.529c-0.447,0-4.316,0-4.316,0l-6.104-3.273l-6.063-1.638v-5.359
			c0,0-3.912,0.895-3.912,0.446c0-0.446-1.19-5.618-1.19-5.618s4.466-1.229,3.87-1.675c-0.596-0.447,0-4.912,0-4.912
			c0-0.596,5.359-4.764,5.806-4.316c0.446,0.445,6.4,4.316,6.4,4.316s0.446,2.084,0,2.529c-0.446,0.447,2.828,3.574,2.828,4.021
			c0,0.447,1.489-3.274,1.489-3.274L113.422,59.913z"/>
		<path fill="#F8F3BA" d="M66.83,54.553c0-0.297,5.508-4.168,5.508-4.168h1.638h4.763l1.638,12.206l-1.34,1.34l4.912,2.68v3.126
			c0,0-7.146,2.084-7.74,2.084s-3.274-1.82-3.274-1.729c0,0.091,2.381-3.779,1.935-3.779c-0.447,0-3.87-1.637-3.87-1.637
			l-0.744,1.935l-3.424-1.786l-1.638-3.723L66.83,54.553z"/>
		<path fill="#F8F3BA" d="M89.456,47.26l-5.508,3.125h-3.572l-3.87-3.125l-0.894-2.383l-2.382-1.935l-0.893-5.358v-2.68l2.53-2.828
			l3.275-2.53l0.743-2.977c0,0,2.978,0.297,2.829,0.744c-0.149,0.447,5.508,4.019,5.508,4.019s0.893,2.828,0.744,3.274
			c-0.149,0.447-0.447,2.978-0.447,2.978l1.936,5.062L89.456,47.26L89.456,47.26z"/>
		<path fill="#CE7E29" d="M77.25,35.649h3.646c0,0,0.968,2.531,1.266,2.828c0.298,0.298,0,2.68,0,2.68l-2.39,2.232H77.25
			l-0.596-3.869L77.25,35.649z"/>
		<path fill="#CE7E29" d="M103.598,26.569l3.274,0.893l2.978,1.489l2.381-1.191l1.787-1.191c0,0,2.53,0.744,2.828,1.191
			c0.299,0.446,4.912,3.274,4.764,3.721c-0.148,0.446-0.894,3.721-1.34,4.168c-0.445,0.446-3.424,1.936-3.424,1.936l-3.424,0.893
			h-1.936l-1.638,1.043l1.488,1.785l-1.488,2.084c0,0-2.084,0.298-2.531,0c-0.446-0.297-0.07-6.723-0.07-6.723
			s-0.822-2.356-0.822-3.25c0-0.893,0-2.977,0-2.977l-2.828-2.679V26.569L103.598,26.569z"/>
		<path fill="#CE7E29" d="M116.846,43.389c0,0,1.786,1.34,2.383,1.191c0.596-0.148,3.869-1.059,3.869-1.059l0.744,2.547
			c0,0-3.572,4.912-4.316,4.316c-0.744-0.595-1.936-3.125-1.936-3.125h-2.382L116.846,43.389z"/>
		<path fill="#CE7E29" d="M99.578,61.103c0.744-0.445,4.615,1.193,4.02,1.787c-0.596,0.596-4.02,3.572-4.02,3.572l2.041,2.383
			c0,0,0.7,4.465,0,4.316c-0.701-0.149-3.231,0.004-3.231,0.004l-2.531-3.072c0,0,0-3.928,0-4.375
			C95.855,65.271,99.578,61.103,99.578,61.103z"/>
		<path fill="#CE7E29" d="M116.102,67.951c0,0.446-2.828,0-2.828,0l-1.524-2.407l-2.521,0.496l-1.165,2.109l1.786,1.943l2.233,1.729
			l2.231-1.729c0,0,2.978,1.579,2.531,0.836C116.398,70.185,116.102,67.951,116.102,67.951z"/>
		<path fill="#CE7E29" d="M68.616,58.721c0.147,0.745,2.382,3.126,2.382,3.126v2.829l-3.126-3.649L68.616,58.721z"/>
		<path fill="#F8F3BA" d="M88.711,45.332c0.893,0.298,12.354,0,12.354,0l2.531,7.294l-2.978,2.348c0,0-8.336,1.672-8.336,1.82
			c0,0.148-8.188,1.637-7.89,0.745c0.298-0.895-2.084-11.017-1.19-11.017S88.711,45.332,88.711,45.332z"/>
		<path fill="#CE7E29" d="M90.541,49.217c0.669,0.604,3.841-1.629,3.841,0c0,1.631-0.668,5.397-1.92,5.397s-6.793,0-6.793,0
			l-1.139-3.003L90.541,49.217z"/>
	</g>
	<g>
		<polygon fill="#CC9D53" points="158.379,52.108 155.674,61.831 142.443,61.656 138.422,57.151 142.189,45.141 144.828,42.506 
			147.965,41.162 154.975,42.389 156.889,43.802 		"/>
		<path fill="#F8F3BA" d="M162.072,60.782c0.014-0.362,0.304-3.442,0.304-3.442l0.038-1.09l-1.484-0.161l-1.938-1.705
			c0,0-2.919-0.756-3.218-0.549s-3.047,1.856-3.047,1.856l-4.168,1.708l-0.429,0.784l-1.212,1.376l-2.386,0.643l-2.294,2.175
			l-1.174,3.34l1.396,1.685l1.292,2.554l2.367,0.921l2.057,1.49l3.456-0.061l5.193-1.891l1.912-2.659l1.6-2.089l2.38,0.557
			l2.89-3.607l-0.771-1.81L162.072,60.782z"/>
		<path fill="#F8F3BA" d="M140.913,58.693c0,0-0.894,2.66-1.399,2.569c-0.505-0.091-4.234-0.549-4.234-0.549l-1.194-2.224
			l-2.549-0.927l-1.506-2.671c0,0,0.187-3.229,0.304-3.443c0.117-0.213,1.127-2.069,1.127-2.069l3.163-2.07l2.366-2.478l2.569,1.399
			c0,0,0.593-2.108,0.808-1.991c0.215,0.116,3.005,0.896,3.005,0.896s-0.578,2.461-0.208,2.292c0.369-0.169,2.354,1.282,2.354,1.282
			c0.286,0.156,0.885,3.813,0.553,3.91c-0.33,0.098-3.738,1.941-3.738,1.941s-1.116-0.33-1.213-0.661
			c-0.099-0.331-2.452,0.423-2.666,0.307c-0.215-0.117,1.182,1.568,1.182,1.568L140.913,58.693z"/>
		<path fill="#F8F3BA" d="M155.646,37.759c0.144,0.078,0.561,3.729,0.561,3.729l-0.428,0.785l-1.243,2.283l-6.279-2.402
			l-0.292-0.992l-2.566,1.654l-1.498-0.815c0,0,0.865-3.969,1.021-4.254c0.155-0.286,1.729-1.095,1.684-1.119
			c-0.045-0.023,1.189,2.128,1.308,1.914c0.116-0.214,1.794-1.427,1.794-1.427l-0.732-0.862l1.75-1.175l2.212,0.188L155.646,37.759z
			"/>
		<path fill="#F8F3BA" d="M153.234,50.509l-0.06-3.457l0.935-1.711l2.508-1.039l1.375,0.193l1.549-0.637l2.802,0.971l1.284,0.7
			l0.695,1.952l0.357,2.229l1.233,1.133c0,0-0.921,1.351-1.097,1.162c-0.176-0.188-3.364,1.591-3.364,1.591
			s-1.589-0.312-1.765-0.499c-0.176-0.188-1.311-0.991-1.311-0.991l-2.932-0.395L153.234,50.509z"/>
		<path fill="#CE7E29" d="M161.988,47.69l-0.952,1.748c0,0-1.466-0.197-1.687-0.131c-0.222,0.063-1.285-0.701-1.285-0.701
			l-0.445-1.729l0.658-1.208l2.011,0.725L161.988,47.69z"/>
		<path fill="#CE7E29" d="M159.461,62.69l-1.283,1.338l-1.49,1.038l-0.051,1.452l0.104,1.167c0,0-1.018,1.019-1.311,1.044
			c-0.291,0.027-2.852,1.5-3.026,1.313s-1.552-1.399-1.647-1.73c-0.098-0.329-0.033-2.146-0.033-2.146l0.465-1.873l0.506-0.928
			l-0.072-1.057l-1.244,0.246l-0.609-1.257c0,0,0.4-1.077,0.66-1.213c0.26-0.137,3.241,1.722,3.241,1.722s1.344,0.221,1.772,0.454
			c0.428,0.233,1.427,0.777,1.427,0.777l2.021-0.656L159.461,62.69z"/>
		<path fill="#CE7E29" d="M147.938,64.649c0,0-1.107,0.507-1.191,0.831c-0.085,0.324-0.504,2.131-0.504,2.131l-1.414-0.309
			c0,0-1.423-2.995-0.942-3.196c0.481-0.201,2.003-0.111,2.003-0.111l0.622-1.142L147.938,64.649z"/>
		<path fill="#CE7E29" d="M143.957,51.747c0.02,0.474-1.775,1.901-1.905,1.461c-0.13-0.442-0.663-2.86-0.663-2.86l-1.675,0.354
			c0,0-2.323-0.829-2.069-1.126c0.255-0.297,0.843-1.551,0.843-1.551l2.134-0.411c0,0,1.883,1.026,2.098,1.143
			C142.932,48.875,143.957,51.747,143.957,51.747z"/>
		<path fill="#CE7E29" d="M136.359,57.878c-0.213-0.116,0.738-1.354,0.738-1.354l1.553-0.103l0.421-1.337l-0.708-1.109l-1.397,0.349
			l-1.411,0.619l0.245,1.521c0,0-1.534,1.015-1.061,0.995C135.212,57.438,136.359,57.878,136.359,57.878z"/>
		<path fill="#CE7E29" d="M153.184,37.528c-0.396-0.124-2.121,0.325-2.121,0.325l-1.355-0.738l2.564-0.546L153.184,37.528z"/>
		<path fill="#F8F3BA" d="M154.354,50.656c-0.375,0.35-3.226,5.922-3.226,5.922l-4.157-0.691l-0.349-2.039
			c0,0,1.375-4.433,1.304-4.472c-0.07-0.038,1.354-4.352,1.703-3.976c0.352,0.375,5.825,1.877,5.592,2.306
			C154.988,48.133,154.354,50.656,154.354,50.656z"/>
		<path fill="#CE7E29" d="M152.014,50.519c-0.464,0.163-0.222,2.267-1.003,1.841c-0.78-0.426-2.411-1.729-2.086-2.329
			c0.327-0.6,1.772-3.256,1.772-3.256l1.738,0.238L152.014,50.519z"/>
	</g>
	<g>
		<path fill="#D697A7" d="M117.234,55.906c0,0-0.238,14.487,8.377,14.725c0,0,13.043-2.019,12.443-10.568
			c0,0,0.119-16.507-12.203-12.231C125.852,47.831,117.953,50.563,117.234,55.906z"/>
		<path fill="#F5D6E0" d="M123.339,48.538c0,0,10.505-3.639,11.421,0.757c0.131,0.627,0.065,1.419-0.254,2.408
			c0,0-3.189,5.7-15.953,4.75C118.553,56.453,113.448,53.288,123.339,48.538z"/>
	</g>
	<g>
		<polygon fill="#CC9D53" points="36.95,63.271 45.865,51.004 64.396,58.198 67.693,66.653 56.081,81.585 50.982,83.907 
			45.859,84.151 36.635,78.739 34.684,75.746 		"/>
		<path fill="#F8F3BA" d="M36.306,49.117c-0.208,0.504-2.235,4.688-2.235,4.688l-0.626,1.515l2.005,1.006l1.836,3.419
			c0,0,3.711,2.599,4.24,2.463c0.529-0.136,5.264-1.012,5.264-1.012l6.766-0.215l1.014-0.881l2.429-1.3l3.697,0.348l4.372-1.854
			l3.405-4.087l-1.079-3.104l-0.477-4.275l-2.85-2.538l-2.113-3.178l-4.897-1.731l-8.303-0.067l-4.088,2.74l-3.351,2.101
			l-3.059-2.034l-5.963,3.56l0.137,2.953L36.306,49.117z"/>
		<path fill="#F8F3BA" d="M64.998,63.174c0,0,2.655-3.274,3.319-2.881c0.665,0.393,5.673,2.997,5.673,2.997l0.514,3.758l3.103,2.643
			l0.717,4.551c0,0-1.96,4.448-2.236,4.688c-0.276,0.24-2.674,2.32-2.674,2.32l-5.54,1.254l-4.635,2.244l-2.882-3.318
			c0,0-1.942,2.656-2.183,2.379c-0.24-0.276-3.757-2.84-3.757-2.84s2.105-3.162,1.497-3.118c-0.61,0.043-2.641-3.043-2.641-3.043
			c-0.32-0.368,0.758-5.832,1.275-5.794c0.516,0.035,6.285-0.77,6.285-0.77s1.397,1.051,1.36,1.566
			c-0.036,0.518,3.673,0.694,3.913,0.97c0.241,0.277-0.838-2.828-0.838-2.828L64.998,63.174z"/>
		<path fill="#F8F3BA" d="M33.256,84.905c-0.159-0.185,1.171-5.543,1.171-5.543l1.015-0.881l2.95-2.561l7.577,6.68l-0.109,1.551
			l4.483-0.981l1.68,1.936c0,0-3.305,5.133-3.673,5.453c-0.37,0.319-3.007,0.633-2.958,0.69c0.049,0.057-0.557-3.623-0.833-3.382
			c-0.277,0.24-3.277,1.066-3.277,1.066l0.58,1.598l-3.082,0.734l-3.016-1.425L33.256,84.905z"/>
		<path fill="#F8F3BA" d="M43.351,68.222l-1.732,4.896l-2.212,1.921l-4.078,0.146l-1.834-0.994l-2.516,0.081l-3.434-2.838
			l-1.441-1.661l0.047-3.112l0.668-3.327l-1.141-2.244c0,0,2.005-1.416,2.153-1.06c0.147,0.356,5.572-0.473,5.572-0.473
			s2.073,1.271,2.222,1.629c0.147,0.356,1.324,2.085,1.324,2.085l3.919,2.094L43.351,68.222z"/>
		<path fill="#CE7E29" d="M29.547,67.593l2.258-1.961c0,0,1.96,1.048,2.305,1.071c0.345,0.024,1.439,1.66,1.439,1.66l-0.28,2.667
			l-1.563,1.355l-2.449-2.075L29.547,67.593z"/>
		<path fill="#CE7E29" d="M40.986,47.802l2.508-1.206l2.645-0.68l0.834-2.019L47.44,42.2c0,0,1.967-0.9,2.392-0.783
			c0.425,0.116,4.804-0.612,4.951-0.256c0.148,0.356,1.448,2.785,1.412,3.302c-0.037,0.517-1.08,3.04-1.08,3.04l-1.641,2.394
			l-1.199,1.04l-0.453,1.526l1.881,0.306l0.199,2.091c0,0-1.13,1.306-1.568,1.36c-0.436,0.057-3.658-4.126-3.658-4.126
			s-1.776-1.017-2.256-1.571c-0.48-0.553-1.601-1.844-1.601-1.844l-3.193-0.14L40.986,47.802z"/>
		<path fill="#CE7E29" d="M58.234,51.099c0,0,1.827-0.13,2.116-0.542c0.289-0.413,1.828-2.736,1.828-2.736l1.83,1.178
			c0,0,0.428,4.963-0.353,4.994c-0.781,0.032-2.879-0.896-2.879-0.896l-1.475,1.28L58.234,51.099z"/>
		<path fill="#CE7E29" d="M57.062,71.354c0.222-0.676,3.5-1.742,3.451-1.054c-0.049,0.688-0.569,4.373-0.569,4.373l2.545,0.379
			c0,0,2.834,2.39,2.321,2.674c-0.515,0.284-2,1.739-2,1.739l-3.22-0.542c0,0-2.112-2.433-2.352-2.71
			C56.999,75.938,57.062,71.354,57.062,71.354z"/>
		<path fill="#CE7E29" d="M70.978,66.713c0.24,0.277-1.751,1.521-1.751,1.521l-2.239-0.671l-1.294,1.661l0.412,1.934l2.151,0.243
			l2.313-0.13L71.023,69c0,0,2.693-0.622,2.017-0.843C72.364,67.937,70.978,66.713,70.978,66.713z"/>
		<path fill="#CE7E29" d="M36.604,86.526c0.493,0.382,3.156,0.655,3.156,0.655l1.521,1.753l-3.898-0.58L36.604,86.526z"/>
		<path fill="#F8F3BA" d="M41.853,67.428c0.713-0.296,7.653-6.643,7.653-6.643l5.489,3.157l-0.582,3.055
			c0,0-4.265,5.518-4.185,5.609c0.08,0.092-4.191,5.415-4.486,4.703c-0.296-0.714-7.214-5.703-6.66-6.185
			C39.634,70.646,41.853,67.428,41.853,67.428z"/>
		<path fill="#CE7E29" d="M45.075,68.852c0.739,0.015,1.503-3.074,2.379-2.064c0.877,1.01,2.488,3.702,1.713,4.375
			c-0.775,0.673-4.208,3.652-4.208,3.652l-2.32-1.248L45.075,68.852z"/>
	</g>
	<g>
		<path fill="#6D97BA" d="M136.641,63.622c0,0-6.199,19.279,4.303,22.824c0,0,16.867,2.188,19.613-9.463
			c0,0,6.872-22.021-10.029-20.925C150.525,56.059,139.7,56.748,136.641,63.622z"/>
		<path fill="#B7D6E1" d="M147.148,56.061c0,0,14.404-0.926,13.74,5.293c-0.096,0.889-0.498,1.923-1.293,3.127
			c0,0-6.248,6.422-21.561,0.368C138.036,64.849,133.046,58.702,147.148,56.061z"/>
	</g>
	<g>
		<polygon fill="#CC9D53" points="138.107,78.887 134.992,90.082 119.76,89.881 115.128,84.694 119.466,70.864 122.504,67.831 
			126.116,66.283 134.188,67.697 136.393,69.324 		"/>
		<path fill="#F8F3BA" d="M142.359,88.875c0.017-0.416,0.351-3.964,0.351-3.964l0.044-1.255l-1.71-0.186l-2.233-1.963
			c0,0-3.359-0.871-3.703-0.632c-0.345,0.238-3.51,2.137-3.51,2.137l-4.8,1.967l-0.492,0.903l-1.396,1.584l-2.747,0.739
			l-2.642,2.505l-1.351,3.846l1.606,1.939l1.486,2.939l2.728,1.061l2.366,1.716l3.979-0.069l5.979-2.176l2.201-3.063l1.844-2.406
			l2.74,0.643l3.326-4.154l-0.889-2.083L142.359,88.875z"/>
		<path fill="#F8F3BA" d="M117.996,86.469c0,0-1.029,3.063-1.611,2.959c-0.583-0.104-4.877-0.633-4.877-0.633l-1.375-2.561
			l-2.935-1.066l-1.734-3.075c0,0,0.215-3.719,0.35-3.965s1.298-2.383,1.298-2.383l3.642-2.384l2.727-2.854l2.959,1.611
			c0,0,0.683-2.428,0.93-2.293c0.246,0.134,3.459,1.032,3.459,1.032s-0.665,2.834-0.239,2.64c0.427-0.194,2.711,1.478,2.711,1.478
			c0.329,0.18,1.02,4.391,0.638,4.502c-0.381,0.112-4.307,2.235-4.307,2.235s-1.285-0.38-1.396-0.761s-2.822,0.486-3.068,0.353
			c-0.247-0.135,1.359,1.806,1.359,1.806L117.996,86.469z"/>
		<path fill="#F8F3BA" d="M134.962,62.365c0.164,0.09,0.646,4.294,0.646,4.294l-0.492,0.904l-1.432,2.628l-7.23-2.766l-0.336-1.143
			l-2.956,1.905l-1.726-0.939c0,0,0.998-4.57,1.178-4.898c0.179-0.329,1.988-1.261,1.938-1.288c-0.052-0.027,1.369,2.45,1.504,2.204
			c0.135-0.247,2.066-1.644,2.066-1.644l-0.844-0.993l2.016-1.353l2.547,0.216L134.962,62.365z"/>
		<path fill="#F8F3BA" d="M132.186,77.047l-0.068-3.98l1.074-1.971l2.888-1.196l1.584,0.223l1.782-0.733l3.228,1.118l1.479,0.807
			l0.8,2.247l0.413,2.568l1.42,1.305c0,0-1.061,1.555-1.262,1.338c-0.202-0.217-3.875,1.832-3.875,1.832s-1.829-0.358-2.03-0.574
			c-0.202-0.217-1.509-1.142-1.509-1.142l-3.377-0.453L132.186,77.047z"/>
		<path fill="#CE7E29" d="M142.264,73.8l-1.097,2.013c0,0-1.688-0.229-1.94-0.151c-0.256,0.074-1.479-0.807-1.479-0.807l-0.515-1.99
			l0.76-1.392l2.314,0.835L142.264,73.8z"/>
		<path fill="#CE7E29" d="M139.354,91.072l-1.478,1.54l-1.717,1.195l-0.061,1.672l0.12,1.345c0,0-1.171,1.173-1.508,1.202
			c-0.335,0.031-3.283,1.728-3.485,1.511c-0.2-0.217-1.784-1.611-1.896-1.992s-0.039-2.473-0.039-2.473l0.536-2.157l0.582-1.067
			l-0.083-1.217l-1.433,0.283l-0.703-1.447c0,0,0.461-1.239,0.761-1.396c0.298-0.157,3.731,1.982,3.731,1.982
			s1.549,0.255,2.041,0.522c0.492,0.269,1.644,0.896,1.644,0.896l2.329-0.756L139.354,91.072z"/>
		<path fill="#CE7E29" d="M126.086,93.328c0,0-1.275,0.583-1.373,0.956c-0.098,0.374-0.58,2.454-0.58,2.454l-1.629-0.355
			c0,0-1.638-3.447-1.085-3.68c0.554-0.232,2.308-0.129,2.308-0.129l0.715-1.314L126.086,93.328z"/>
		<path fill="#CE7E29" d="M121.501,78.471c0.022,0.545-2.046,2.188-2.194,1.682c-0.148-0.509-0.764-3.293-0.764-3.293l-1.928,0.409
			c0,0-2.676-0.955-2.383-1.297c0.293-0.342,0.97-1.785,0.97-1.785l2.456-0.474c0,0,2.168,1.182,2.415,1.315
			C120.318,75.164,121.501,78.471,121.501,78.471z"/>
		<path fill="#CE7E29" d="M112.754,85.531c-0.246-0.134,0.85-1.56,0.85-1.56l1.787-0.118l0.484-1.54l-0.814-1.277l-1.608,0.401
			l-1.626,0.713l0.283,1.752c0,0-1.768,1.168-1.223,1.146C111.432,85.024,112.754,85.531,112.754,85.531z"/>
		<path fill="#CE7E29" d="M132.124,62.099c-0.456-0.143-2.44,0.374-2.44,0.374l-1.563-0.85l2.954-0.629L132.124,62.099z"/>
		<path fill="#F8F3BA" d="M133.473,77.215c-0.433,0.402-3.714,6.818-3.714,6.818l-4.786-0.796l-0.401-2.349
			c0,0,1.584-5.104,1.502-5.148s1.559-5.011,1.961-4.578c0.403,0.433,6.707,2.161,6.438,2.655
			C134.203,74.311,133.473,77.215,133.473,77.215z"/>
		<path fill="#CE7E29" d="M130.777,77.056c-0.533,0.188-0.256,2.61-1.154,2.12c-0.899-0.49-2.777-1.991-2.401-2.683
			c0.376-0.69,2.042-3.749,2.042-3.749l2,0.274L130.777,77.056z"/>
	</g>
	<g>
		<path fill="#D697A7" d="M59.229,62.482c0,0-10.034,14.568-1.501,20.59c0,0,14.523,6.697,19.699-2.396
			c0,0,11.278-16.701-4.046-20.624C73.38,60.052,63.566,57.531,59.229,62.482z"/>
		<path fill="#F5D6E0" d="M70.369,59.087c0,0,13.059,3.348,11.011,8.431c-0.291,0.727-0.893,1.488-1.884,2.279
			c0,0-7.072,3.654-19.307-5.874C60.188,63.923,57.179,57.279,70.369,59.087z"/>
	</g>
	<g>
		<path fill="#93B174" d="M98.439,82.221c0,0-0.285,15.25,9.966,15.5c0,0,15.517-2.125,14.805-11.125
			c0,0,0.143-17.375-14.521-12.875C108.69,73.721,99.293,76.596,98.439,82.221z"/>
		<path fill="#D6E8D3" d="M105.702,74.465c0,0,12.5-3.83,13.588,0.797c0.155,0.66,0.077,1.494-0.302,2.535c0,0-3.797,6-18.982,5
			C100.006,82.798,93.934,79.465,105.702,74.465z"/>
	</g>
	<g>
		<path fill="#93B174" d="M43.932,83.266c0,0-0.241,12.064,8.42,12.264c0,0,13.109-1.682,12.508-8.802
			c0,0,0.12-13.748-12.267-10.188C52.592,76.54,44.654,78.814,43.932,83.266z"/>
		<path fill="#D6E8D3" d="M50.065,77.129c0,0,10.56-3.031,11.48,0.631c0.131,0.522,0.066,1.182-0.254,2.005
			c0,0-3.208,4.749-16.036,3.956C45.255,83.72,40.124,81.085,50.065,77.129z"/>
	</g>
	<g>
		<polygon fill="#CC9D53" points="94.48,83.526 91.775,93.249 78.545,93.074 74.523,88.569 78.291,76.559 80.93,73.923 
			84.066,72.58 91.077,73.808 92.991,75.22 		"/>
		<path fill="#F8F3BA" d="M98.173,92.2c0.014-0.362,0.304-3.442,0.304-3.442l0.038-1.09l-1.484-0.16l-1.939-1.705
			c0,0-2.919-0.756-3.218-0.549c-0.298,0.207-3.047,1.855-3.047,1.855l-4.168,1.708l-0.428,0.784l-1.212,1.376l-2.386,0.643
			l-2.294,2.175l-1.173,3.34l1.396,1.686l1.292,2.555l2.367,0.92l2.057,1.49l3.456-0.061l5.193-1.891l1.912-2.66l1.6-2.088
			l2.38,0.557l2.89-3.607l-0.771-1.811L98.173,92.2z"/>
		<path fill="#F8F3BA" d="M77.015,90.111c0,0-0.894,2.66-1.399,2.568c-0.505-0.09-4.235-0.549-4.235-0.549l-1.194-2.224
			l-2.549-0.927l-1.506-2.671c0,0,0.188-3.229,0.304-3.443c0.117-0.213,1.127-2.069,1.127-2.069l3.163-2.07l2.367-2.478l2.569,1.399
			c0,0,0.593-2.108,0.808-1.991c0.214,0.116,3.004,0.896,3.004,0.896s-0.578,2.461-0.208,2.292c0.37-0.169,2.354,1.282,2.354,1.282
			c0.286,0.156,0.885,3.813,0.553,3.91c-0.33,0.098-3.739,1.941-3.739,1.941s-1.116-0.33-1.213-0.661
			c-0.098-0.331-2.452,0.423-2.665,0.308c-0.215-0.117,1.181,1.567,1.181,1.567L77.015,90.111z"/>
		<path fill="#F8F3BA" d="M91.749,69.177c0.143,0.078,0.56,3.729,0.56,3.729l-0.428,0.785l-1.243,2.283l-6.279-2.402l-0.292-0.992
			L81.5,74.234l-1.498-0.815c0,0,0.866-3.97,1.022-4.255c0.155-0.285,1.728-1.094,1.684-1.118c-0.045-0.023,1.189,2.128,1.307,1.914
			c0.116-0.214,1.794-1.427,1.794-1.427l-0.732-0.863l1.75-1.174l2.212,0.188L91.749,69.177z"/>
		<path fill="#F8F3BA" d="M89.336,81.927l-0.06-3.457l0.934-1.711l2.508-1.039l1.375,0.193l1.549-0.637l2.802,0.971l1.284,0.7
			l0.695,1.952l0.358,2.23l1.233,1.133c0,0-0.921,1.351-1.096,1.162c-0.176-0.188-3.365,1.591-3.365,1.591s-1.589-0.313-1.764-0.5
			c-0.176-0.188-1.311-0.99-1.311-0.99l-2.932-0.394L89.336,81.927z"/>
		<path fill="#CE7E29" d="M98.089,79.108l-0.952,1.748c0,0-1.466-0.197-1.686-0.131c-0.222,0.063-1.285-0.701-1.285-0.701
			l-0.446-1.729l0.659-1.208l2.01,0.725L98.089,79.108z"/>
		<path fill="#CE7E29" d="M95.563,94.108l-1.283,1.338l-1.49,1.038l-0.052,1.452l0.104,1.167c0,0-1.018,1.019-1.31,1.044
			c-0.291,0.026-2.853,1.5-3.027,1.313s-1.551-1.399-1.647-1.73c-0.098-0.329-0.034-2.146-0.034-2.146l0.466-1.873l0.505-0.928
			l-0.072-1.058l-1.244,0.246l-0.61-1.256c0,0,0.401-1.078,0.661-1.214c0.259-0.137,3.241,1.722,3.241,1.722
			s1.344,0.222,1.772,0.455c0.428,0.232,1.427,0.776,1.427,0.776l2.022-0.655L95.563,94.108z"/>
		<path fill="#CE7E29" d="M84.041,96.067c0,0-1.108,0.507-1.192,0.831c-0.085,0.324-0.504,2.131-0.504,2.131l-1.414-0.309
			c0,0-1.423-2.995-0.942-3.196c0.48-0.201,2.003-0.11,2.003-0.11l0.622-1.143L84.041,96.067z"/>
		<path fill="#CE7E29" d="M80.059,83.165c0.02,0.474-1.776,1.901-1.905,1.462c-0.13-0.442-0.664-2.86-0.664-2.86l-1.674,0.354
			c0,0-2.323-0.829-2.069-1.126c0.254-0.297,0.842-1.551,0.842-1.551l2.134-0.411c0,0,1.883,1.026,2.097,1.143
			C79.033,80.293,80.059,83.165,80.059,83.165z"/>
		<path fill="#CE7E29" d="M72.461,89.297c-0.214-0.116,0.738-1.354,0.738-1.354l1.552-0.103l0.421-1.338l-0.708-1.108l-1.396,0.349
			l-1.412,0.619l0.246,1.521c0,0-1.534,1.015-1.062,0.994C71.313,88.856,72.461,89.297,72.461,89.297z"/>
		<path fill="#CE7E29" d="M89.285,68.945c-0.396-0.123-2.12,0.325-2.12,0.325l-1.356-0.737l2.565-0.547L89.285,68.945z"/>
		<path fill="#F8F3BA" d="M90.457,82.074c-0.376,0.35-3.226,5.922-3.226,5.922l-4.158-0.691l-0.348-2.038
			c0,0,1.375-4.433,1.304-4.472c-0.071-0.038,1.354-4.352,1.703-3.976c0.352,0.375,5.825,1.877,5.592,2.306
			C91.089,79.551,90.457,82.074,90.457,82.074z"/>
		<path fill="#CE7E29" d="M88.116,81.937c-0.464,0.163-0.222,2.267-1.003,1.841c-0.781-0.426-2.412-1.729-2.086-2.329
			c0.327-0.6,1.773-3.256,1.773-3.256l1.737,0.238L88.116,81.937z"/>
	</g>
</g>
</svg>
