<?xml version="1.0" encoding="utf-8"?>
<!-- Generator: Adobe Illustrator 16.0.0, SVG Export Plug-In . SVG Version: 6.00 Build 0)  -->
<!DOCTYPE svg PUBLIC "-//W3C//DTD SVG 1.1//EN" "http://www.w3.org/Graphics/SVG/1.1/DTD/svg11.dtd">
<svg version="1.1" id="Layer_1" xmlns="http://www.w3.org/2000/svg" xmlns:xlink="http://www.w3.org/1999/xlink" x="0px" y="0px"
	 width="200px" height="150px" viewBox="0 0 200 150" enable-background="new 0 0 200 150" xml:space="preserve">
<g>
	<path fill="#D35F27" d="M196.14,92.887c0.02-0.559,0.033-0.553,0.033-1.116c0-37.279-41.754-53.438-96.964-53.438
		c-55.21,0-96.964,16.157-96.964,53.437c0,37.281,41.754,58.23,96.964,58.23c8.371,0,16.43-0.484,24.083-1.432l-0.195-0.221
		l-3.813-6.041l-2.479-4.394l3.598-8.787l7.254-9.735l-0.482-5l3.414-5.547l1.414-2.498l12.048-3.054l1.769-3.844l2.477-2.476
		l3.893-3.566l9.2-4.393h14.151l7.076,4.232l7.076-4.76l3.539,0.445l2.104,4.871C195.335,93.807,195.614,93.305,196.14,92.887z"/>
	<g>
		<path fill="#5E0F0B" d="M193.231,88.934l2.104,4.873c3.328-3.914,2.525-4.855,1.664-10.366c-1-9.048-4.198-14.732-12.198-20.587
			c-5.5-4.258-11.871-12.171-18.871-14.832c-7.5-2.661-15-6.388-23.5-7.452c-8.5-0.532-9.638-2.065-17.856-3.052
			c-28.666-3.441-57.577-0.438-82.077,8.078c-5,1.597-9.484,3.707-13.946,5.408C15.418,56.011,2.379,66.712,3.161,82.628
			c0,12.773,5.27,7.972,15.77,7.972c11,0.531,6,7.983,8,17.563c2.5,11.709,11,17.031,21.5,15.435c5.5-0.531,15.5-7.45,20.5-4.789
			c3.5,1.597,5,7.982,7.5,10.645c8,10.645,16.5,5.854,25-0.531c8.088-5.871,15.639-7.127,24.037-6.117l2.191-3.412l-0.482-5
			l3.414-5.547l1.414-2.498l12.048-3.053l1.769-3.845l2.477-2.476l3.893-3.566l9.2-4.393h14.151l7.076,4.232l7.076-4.76
			L193.231,88.934z"/>
	</g>
	<g>
		<path fill="#D2A92A" d="M65.244,28.386c-9.61-3.232-31.868-1.848-41.984,2.307c-13.658,5.539-0.507,15.694,3.035,23.541
			c2.528,6,1.01,5.077-3.035,10.617c-2.53,3.69-4.553,7.384-6.577,10.615c-1.011,2.308-6.07,8.771-4.554,11.076
			c3.543,4.155,22.763,0,26.811-1.846c4.554-2.771,7.588-7.848,11.636-11.539c3.54,6-1.012,13.848,2.529,19.848
			c6.069,12,22.763,4.616,32.88,6.002c-0.506,7.383-2.024,24,9.104,24c14.673-0.461,11.13-24,21.75-29.541
			c5.062,2.771,8.096,10.153,13.658,12.465c7.082,2.769,21.246,1.385,27.316-1.849c16.691-7.846,2.025-18.001-6.07-25.386
			c10.622-9.693,52.608,4.614,28.327-19.387c-3.034-2.77-5.563-7.386-9.104-10.154c-6.574-5.077-19.223-6.924-27.314-10.155
			c-12.14-4.615-28.834-6.924-38.444-16.154c-4.047-3.693-5.06-8.771-11.129-11.078C80.419,6.23,70.305,21.923,64.739,31.156
			L65.244,28.386z"/>
	</g>
	<g>
		<path fill="#E4CB7A" d="M76.222,15.572c-6.238-2.792-20.688-1.595-27.255,1.994c-8.866,4.786-0.33,13.56,1.97,20.339
			c1.642,5.184,0.655,4.386-1.97,9.171c-1.643,3.19-2.957,6.379-4.271,9.171c-0.655,1.994-3.939,7.577-2.955,9.571
			c2.3,3.589,14.777,0,17.406-1.595c2.955-2.393,4.924-6.779,7.553-9.969c2.298,5.183-0.657,11.962,1.643,17.146
			c3.939,10.368,14.775,3.989,21.344,5.185c-0.328,6.378-1.313,20.736,5.911,20.736c9.524-0.397,7.225-20.736,14.12-25.52
			c3.284,2.394,5.255,8.771,8.865,10.768c4.599,2.393,13.793,1.195,17.732-1.597c10.835-6.779,1.314-15.552-3.939-21.932
			c6.896-8.374,34.151,3.987,18.389-16.749c-1.971-2.393-3.613-6.38-5.909-8.772c-4.269-4.387-12.479-5.981-17.733-8.772
			c-7.879-3.988-18.718-5.982-24.957-13.958c-2.627-3.189-3.284-7.577-7.225-9.571C86.074-3.57,79.505,9.989,75.895,17.964
			L76.222,15.572z"/>
	</g>
	<g>
		<g>
			<path fill="#B01F24" d="M92.145,17.205c-7.899,1.724-7.104,8.488-1,12.148c5.465,3.278,14.813,2.774,17.443-4.021
				c4.232-10.932-24.133-11.309-29.58-11.287c-6.883,0.027-13.125,2.236-12.58,10.023c0.655,9.357,7.427,15.238,16.072,17.465
				c8.269,2.13,17.6,1.572,25.966,0.328c7.064-1.053,15.775-3,20.111-9.227c4.866-6.986-3.244-15.49-8.662-19.004
				c-8.766-5.689-20.729-6.188-30.834-6.143C80.598,7.525,72.032,8.5,63.776,10.453c-7.563,1.789-16.709,5.076-20.314,12.576
				C35.83,38.913,55.854,45.693,67.538,47.87c20.839,3.884,42.313,2.085,63.358,2.325c5.848,0.066,11.416-1.81,13.07-7.941
				c1.604-5.945-3.197-12.955-6.488-17.431c-1.889-2.568-6.23-0.079-4.316,2.523c2.7,3.674,7.773,10.21,5.488,15.005
				c-2.242,4.701-13.459,2.758-17.563,2.793c-12.4,0.106-24.805,0.453-37.191-0.347c-9.184-0.593-40.021-2.143-36.717-17.302
				c2.008-9.211,14.72-11.699,22.475-13.197c8.953-1.729,18.217-2.121,27.305-1.617c5.641,0.313,11.211,1.301,16.507,3.285
				c4.771,1.785,11.113,6.325,11.466,11.912c0.459,7.301-16.155,9.027-20.907,9.566c-8.796,1-19.882,1.246-27.48-3.886
				c-2.89-1.952-7.611-9.735-4.61-13.037c1.803-1.983,7.032-1.512,9.553-1.448c6.745,0.174,14.651,0.51,20.855,3.418
				c3.104,1.455,0.114,3.127-2.309,3.797c-2.078,0.574-4.546-0.324-6.365-1.254c-2.555-1.305-3.331-2.326-0.195-3.012
				C96.623,21.338,95.288,16.519,92.145,17.205L92.145,17.205z"/>
		</g>
	</g>
	<g>
		<g>
			<path fill="#B01F24" d="M39.745,27.097c-6.268,7.816-27.263,23.444-14.009,33.844c2.918,2.291,6.677,3.372,10.125,4.583
				c6.025,2.116,11.815,4.611,17.982,6.366c11.788,3.354,24.068,4.939,36.28,5.632c21.393,1.214,44.169,3.708,64.942-2.905
				c7.256-2.311,14.952-4.71,21.55-8.553c2.454-1.43,4.584-3.309,5.01-6.198c0.619-4.187-3.713-7.174-6.625-9.299
				c-2.678-1.952-5.231,2.501-2.588,4.429c1.271,0.929,5.314,3.435,3.39,5.369c-1.005,1.01-2.45,1.676-3.689,2.338
				c-3.005,1.605-6.274,2.732-9.479,3.858c-6.43,2.259-12.782,4.487-19.512,5.688c-17.373,3.101-35.511,0.979-52.997,0.146
				c-10.005-0.479-19.936-1.861-29.694-4.109c-8.832-2.033-16.987-5.537-25.498-8.51c-3.327-1.161-8.329-2.808-8.44-7.07
				c-0.072-2.754,2.792-6.037,4.359-8.051c3.844-4.938,8.614-9.057,12.521-13.93C45.417,28.171,41.813,24.517,39.745,27.097
				L39.745,27.097z"/>
		</g>
	</g>
	<g>
		<path fill="#9F4422" d="M134.809,48.615l14,3.5c0,0,1.5,16.5,0,16.5s-16.5-6-16.5-6L134.809,48.615z"/>
		<polygon fill="#CE9D92" points="133.782,54.36 148.809,52.115 134.809,48.615 		"/>
	</g>
	<g>
		<path fill="#9F4422" d="M71.012,48.615l-6.479,2.449c0,0-0.693,11.551,0,11.551c0.694,0,7.636-4.2,7.636-4.2L71.012,48.615z"/>
		<polygon fill="#CE9D92" points="71.486,52.636 64.534,51.064 71.012,48.615 		"/>
	</g>
	<g>
		<path fill="#9F4422" d="M104.708,5.283l7.809,2.844c0,0,0.837,13.406,0,13.406s-9.202-4.875-9.202-4.875L104.708,5.283z"/>
		<polygon fill="#CE9D92" points="104.137,9.951 112.518,8.127 104.708,5.283 		"/>
	</g>
	<g>
		<path fill="#9F4422" d="M31.096,51.508l7.271,12.608c0,0-10.726,12.344-11.772,11.248s-7.23-16.137-7.23-16.137L31.096,51.508z"/>
		<polygon fill="#CE9D92" points="26.281,54.676 38.367,64.116 31.096,51.508 		"/>
	</g>
	<g>
		<path fill="#9F4422" d="M105.151,41.125l14,1.662c0,0,1.5,7.838,0,7.838s-16.5-2.85-16.5-2.85L105.151,41.125z"/>
		<polygon fill="#CE9D92" points="104.125,43.854 119.151,42.787 105.151,41.125 		"/>
	</g>
	<path fill="#E69F6B" d="M123.138,148.155l-3.813-6.041l-2.479-4.394l3.598-8.787l7.254-9.735l-0.482-5l3.414-5.548l1.414-2.498
		l12.048-3.053l1.769-3.844l2.477-2.477l3.893-3.566l9.2-4.393h14.151l7.076,4.232l7.076-4.76l3.539,0.445l2.104,4.874
		c0,0-2.859,6.401-2.859,8.599s0,10.598,0,10.598l-3.209,6.24l-6.124,1.76l-7.88,1.638l-8.061-0.985l-7.256-3.236l-7.375,3.541
		l-11.546,1.043l-3.44,4.334l-3.854,10l-5.835,3.589l-1.243,6.299L123.138,148.155L123.138,148.155z"/>
</g>
</svg>
