<?xml version="1.0" encoding="utf-8"?>
<!-- Generator: Adobe Illustrator 16.0.0, SVG Export Plug-In . SVG Version: 6.00 Build 0)  -->
<!DOCTYPE svg PUBLIC "-//W3C//DTD SVG 1.1//EN" "http://www.w3.org/Graphics/SVG/1.1/DTD/svg11.dtd">
<svg version="1.1" id="Layer_1" xmlns="http://www.w3.org/2000/svg" xmlns:xlink="http://www.w3.org/1999/xlink" x="0px" y="0px"
	 width="200px" height="150px" viewBox="0 0 200 150" enable-background="new 0 0 200 150" xml:space="preserve">
<g>
	<path fill="#D35F27" d="M196.141,92.888c0.021-0.561,0.033-0.555,0.033-1.116c0-37.279-41.755-53.438-96.963-53.438
		C44,38.333,2.246,54.49,2.246,91.771C2.246,129.051,44,150,99.21,150c8.373,0,16.429-0.482,24.083-1.432l-0.196-0.221l-3.813-6.041
		l-2.478-4.396l3.599-8.787l7.252-9.733l-0.479-5l3.414-5.549l1.415-2.497l12.047-3.055l1.769-3.844l2.479-2.477l3.892-3.565
		l9.2-4.394h14.152l7.076,4.231l7.073-4.76l3.539,0.444l2.104,4.87C195.335,93.808,195.614,93.306,196.141,92.888z"/>
	<g>
		<path fill="#EBDA93" d="M193.232,88.935l2.104,4.873c3.324-3.914,2.522-4.855,1.662-10.366c-1-9.048-4.197-14.732-12.197-20.587
			c-5.5-4.258-11.871-12.172-18.871-14.832c-7.5-2.661-15-6.389-23.5-7.452c-8.5-0.532-9.637-2.065-17.855-3.052
			c-28.666-3.441-57.578-0.438-82.078,8.078c-5,1.597-9.483,3.707-13.945,5.408C15.419,56.013,2.38,66.714,3.162,82.629
			c0,12.773,5.271,7.974,15.771,7.974c11,0.529,6,7.981,8,17.563c2.5,11.709,11,17.031,21.5,15.437c5.5-0.531,15.5-7.45,20.5-4.789
			c3.5,1.597,5,7.98,7.5,10.645c8,10.646,16.5,5.854,25-0.531c8.088-5.871,15.639-7.127,24.037-6.115l2.188-3.411l-0.479-5
			l3.414-5.548l1.415-2.498l12.047-3.055l1.769-3.845l2.479-2.476l3.892-3.566l9.2-4.393h14.152l7.074,4.23l7.075-4.76
			L193.232,88.935z"/>
	</g>
	<path fill="#E69F6B" d="M123.139,148.156l-3.813-6.041l-2.478-4.394l3.598-8.787l7.253-9.735l-0.479-5l3.413-5.548l1.416-2.498
		l12.047-3.053l1.769-3.846l2.479-2.477l3.892-3.566l9.2-4.393h14.152l7.074,4.23l7.075-4.76l3.539,0.445l2.104,4.874
		c0,0-2.86,6.4-2.86,8.599s0,10.6,0,10.6l-3.21,6.24l-6.124,1.762l-7.88,1.638l-8.063-0.986l-7.255-3.233l-7.375,3.541
		l-11.546,1.044l-3.438,4.334l-3.854,9.999l-5.835,3.589l-1.243,6.299L123.139,148.156L123.139,148.156z"/>
	<g>
		<g>
			<path fill="#7C953B" d="M150.31,70.741c0.807,0,0.807-1.25,0-1.25S149.503,70.741,150.31,70.741L150.31,70.741z"/>
		</g>
	</g>
	<g>
		<g>
			<path fill="#7C953B" d="M179.81,72.991c2.418,0,2.418-3.75,0-3.75S177.392,72.991,179.81,72.991L179.81,72.991z"/>
		</g>
	</g>
	<g>
		<g>
			<path fill="#7C953B" d="M123.31,96.366c1.611,0,1.611-2.5,0-2.5S121.698,96.366,123.31,96.366L123.31,96.366z"/>
		</g>
	</g>
	<g>
		<g>
			<path fill="#7C953B" d="M95.81,111.491c2.418,0,2.418-3.75,0-3.75S93.392,111.491,95.81,111.491L95.81,111.491z"/>
		</g>
	</g>
	<g>
		<g>
			<path fill="#7C953B" d="M71.31,99.116c3.225,0,3.225-5,0-5S68.085,99.116,71.31,99.116L71.31,99.116z"/>
		</g>
	</g>
	<g>
		<g>
			<path fill="#7C953B" d="M50.81,107.741c0.807,0,0.807-1.25,0-1.25S50.003,107.741,50.81,107.741L50.81,107.741z"/>
		</g>
	</g>
	<g>
		<g>
			<path fill="#7C953B" d="M171.81,60.866c1.611,0,1.611-2.5,0-2.5S170.198,60.866,171.81,60.866L171.81,60.866z"/>
		</g>
	</g>
	<g>
		<g>
			<path fill="#7C953B" d="M25.31,56.741c0.807,0,0.807-1.25,0-1.25S24.503,56.741,25.31,56.741L25.31,56.741z"/>
		</g>
	</g>
	<g>
		<g>
			<path fill="#7C953B" d="M160.304,83.491c2.418,0,2.418-3.75,0-3.75S157.886,83.491,160.304,83.491L160.304,83.491z"/>
		</g>
	</g>
	<g>
		<g>
			<path fill="#7C953B" d="M91.31,94.866c1.611,0,1.611-2.5,0-2.5S89.699,94.866,91.31,94.866L91.31,94.866z"/>
		</g>
	</g>
	<g>
		<g>
			<path fill="#7C953B" d="M47.306,98.866c1.611,0,1.611-2.5,0-2.5C45.694,96.366,45.694,98.866,47.306,98.866L47.306,98.866z"/>
		</g>
	</g>
	<g>
		<g>
			<path fill="#7C953B" d="M11.81,67.866c1.611,0,1.611-2.5,0-2.5S10.199,67.866,11.81,67.866L11.81,67.866z"/>
		</g>
	</g>
	<g>
		<g>
			<path fill="#7C953B" d="M133.31,69.866c1.611,0,1.611-2.5,0-2.5S131.698,69.866,133.31,69.866L133.31,69.866z"/>
		</g>
	</g>
	<g>
		<g>
			<path fill="#7C953B" d="M113.31,114.241c0.807,0,0.807-1.25,0-1.25S112.503,114.241,113.31,114.241L113.31,114.241z"/>
		</g>
	</g>
	<g>
		<g>
			<path fill="#7C953B" d="M62.31,88.241c0.807,0,0.807-1.25,0-1.25S61.503,88.241,62.31,88.241L62.31,88.241z"/>
		</g>
	</g>
	<g>
		<g>
			<path fill="#7C953B" d="M177.81,87.741c0.807,0,0.807-1.25,0-1.25S177.003,87.741,177.81,87.741L177.81,87.741z"/>
		</g>
	</g>
	<g>
		<g>
			<path fill="#7C953B" d="M85.31,121.241c0.807,0,0.807-1.25,0-1.25S84.503,121.241,85.31,121.241L85.31,121.241z"/>
		</g>
	</g>
	<path fill="#772415" d="M136.218,79.609c-3.984,6.128-16.77,11.496-37.449,11.496c-20.684,0-30.246-3.768-37.449-11.496
		c-5.836-6.265,16.867-10.942,37.551-10.942C119.552,68.667,140.884,72.431,136.218,79.609z"/>
	<g>
		<path fill="#A9862E" d="M10.402,98.821c0,0-15.939-21.211,19.76-43.188c0,0,41.348-23.379,78.159-27.257
			c0,0,53.742-13.995,65.412,15.229c0,0,4.386,15.658-18.371,17.429c0,0-74.095,13.655-83.051,18.851
			C72.31,79.886,23.342,110.989,10.402,98.821z"/>
		<path fill="#F7DC04" d="M12.164,87.794c0,0-8.601-21.928,49.687-45.341c0,0,61.463-18.836,76.94-16.097
			c0,0,29.627,1.259,14.184,11.708c0,0-25.41,2.002-43.441,8.844c0,0-45.14,12.708-55.518,22.925
			C54.014,69.833,19.375,94.31,12.164,87.794z"/>
	</g>
</g>
</svg>
