<?xml version="1.0" encoding="utf-8"?>
<!-- Generator: Adobe Illustrator 16.0.0, SVG Export Plug-In . SVG Version: 6.00 Build 0)  -->
<!DOCTYPE svg PUBLIC "-//W3C//DTD SVG 1.1//EN" "http://www.w3.org/Graphics/SVG/1.1/DTD/svg11.dtd">
<svg version="1.1" id="Layer_1" xmlns="http://www.w3.org/2000/svg" xmlns:xlink="http://www.w3.org/1999/xlink" x="0px" y="0px"
	 width="200px" height="150px" viewBox="0 0 200 150" enable-background="new 0 0 200 150" xml:space="preserve">
<g>
	<g>
		<path fill="#D35F27" d="M196.171,91.771c0,37.278-41.754,58.229-96.964,58.229S2.243,129.049,2.243,91.771
			c0-37.279,41.754-53.438,96.964-53.438S196.171,54.491,196.171,91.771z"/>
	</g>
	<g>
		<path fill="#5E0F0B" d="M3.157,82.629c0,12.773,5.27,7.972,15.77,7.972c11,0.532,6,7.983,8,17.563
			c2.5,11.709,11,17.031,21.5,15.436c5.5-0.532,15.5-7.451,20.5-4.79c3.5,1.597,5,7.983,7.5,10.645c8,10.646,16.5,5.854,25-0.532
			c11-7.982,21-7.451,33.5-4.258c15.5,4.79,17.5,0,26.5-12.24c3-4.791,5-7.451,11-10.112c5.5-2.661,17-2.661,21-6.388
			c5.5-5.854,4.569-6.096,3.569-12.481c-1-9.048-3.197-14.732-11.197-20.587c-5.5-4.258-12.872-12.171-19.872-14.832
			c-7.5-2.661-15-6.388-23.5-7.452c-8.5-0.532-9.637-2.065-17.855-3.052c-28.666-3.441-57.577-0.438-82.077,8.078
			c-5,1.597-9.484,3.707-13.946,5.408C15.415,56.011,2.376,66.713,3.157,82.629"/>
	</g>
	<g>
		<path fill="#D2A92A" d="M65.684,28.882c-9.61-3.232-31.868-1.848-41.984,2.307c-13.658,5.539-0.507,15.694,3.035,23.541
			c2.528,6,1.01,5.077-3.035,10.617c-2.53,3.69-4.553,7.384-6.577,10.615c-1.011,2.308-6.07,8.771-4.554,11.076
			c3.543,4.155,22.763,0,26.811-1.846c4.554-2.771,7.588-7.848,11.636-11.539c3.54,6-1.012,13.848,2.529,19.848
			c6.069,12,22.763,4.616,32.88,6.002c-0.506,7.383-2.024,24,9.104,24c14.673-0.461,11.13-24,21.751-29.541
			c5.062,2.771,8.095,10.153,13.657,12.465c7.082,2.769,21.246,1.385,27.316-1.849c16.692-7.846,2.025-18.001-6.07-25.386
			c10.623-9.693,52.608,4.614,28.328-19.387c-3.035-2.77-5.564-7.386-9.104-10.154c-6.575-5.077-19.224-6.924-27.315-10.155
			c-12.14-4.615-28.834-6.924-38.443-16.154c-4.047-3.693-5.061-8.771-11.129-11.078C80.86,6.727,70.745,22.419,65.18,31.652
			L65.684,28.882z"/>
	</g>
	<g>
		<path fill="#E4CB7A" d="M76.662,15.647c-6.238-2.806-20.688-1.604-27.255,2.004c-8.866,4.811-0.33,13.629,1.97,20.443
			c1.642,5.211,0.655,4.409-1.97,9.219c-1.643,3.207-2.957,6.412-4.271,9.218c-0.655,2.004-3.938,7.616-2.955,9.62
			c2.3,3.607,14.777,0,17.406-1.604c2.955-2.405,4.924-6.814,7.553-10.02c2.298,5.21-0.657,12.024,1.643,17.234
			c3.938,10.421,14.775,4.009,21.344,5.211c-0.328,6.411-1.313,20.842,5.911,20.842c9.524-0.399,7.225-20.842,14.12-25.651
			c3.283,2.406,5.255,8.816,8.865,10.824c4.599,2.405,13.793,1.202,17.732-1.606c10.835-6.813,1.314-15.631-3.939-22.044
			c6.896-8.417,34.151,4.007,18.389-16.835c-1.971-2.405-3.613-6.413-5.909-8.817c-4.269-4.41-12.479-6.012-17.733-8.818
			c-7.879-4.008-18.718-6.013-24.957-14.029c-2.627-3.206-3.284-7.616-7.225-9.621c-8.867-4.811-15.435,8.818-19.046,16.834
			L76.662,15.647z"/>
	</g>
	<g>
		<g>
			<path fill="#B01F24" d="M92.585,17.701c-7.899,1.724-7.104,8.488-1,12.148c5.465,3.278,14.813,2.774,17.443-4.021
				c4.231-10.932-24.133-11.309-29.58-11.287c-6.883,0.027-13.125,2.236-12.58,10.023c0.655,9.357,7.427,15.238,16.072,17.465
				c8.269,2.13,17.6,1.572,25.966,0.328c7.064-1.053,15.775-3,20.111-9.227c4.866-6.986-3.244-15.49-8.662-19.004
				c-8.766-5.689-20.729-6.188-30.834-6.143c-8.483,0.037-17.049,1.012-25.304,2.965c-7.563,1.789-16.709,5.076-20.314,12.576
				C36.27,39.409,56.294,46.189,67.978,48.366c20.839,3.884,42.313,2.085,63.358,2.325c5.848,0.066,11.416-1.81,13.071-7.941
				c1.604-5.945-3.198-12.955-6.489-17.431c-1.888-2.568-6.229-0.079-4.316,2.523c2.701,3.674,7.773,10.21,5.488,15.005
				c-2.242,4.701-13.459,2.758-17.562,2.793c-12.401,0.106-24.805,0.453-37.192-0.347C75.152,44.7,44.315,43.15,47.619,27.991
				c2.008-9.211,14.72-11.699,22.475-13.197c8.953-1.729,18.217-2.121,27.305-1.617c5.641,0.313,11.211,1.301,16.507,3.285
				c4.771,1.785,11.113,6.325,11.466,11.912c0.459,7.301-16.155,9.027-20.907,9.566c-8.796,1-19.882,1.246-27.479-3.886
				c-2.89-1.952-7.611-9.735-4.61-13.037c1.803-1.983,7.032-1.512,9.553-1.448c6.745,0.174,14.651,0.51,20.855,3.418
				c3.104,1.455,0.114,3.127-2.309,3.797c-2.078,0.574-4.546-0.324-6.365-1.254c-2.555-1.305-3.331-2.326-0.195-3.012
				C97.063,21.834,95.728,17.015,92.585,17.701L92.585,17.701z"/>
		</g>
	</g>
	<g>
		<g>
			<path fill="#B01F24" d="M40.185,27.593c-6.268,7.816-27.263,23.444-14.009,33.844c2.918,2.291,6.677,3.372,10.125,4.583
				c6.025,2.116,11.815,4.611,17.982,6.366c11.788,3.354,24.068,4.939,36.28,5.632c21.393,1.214,44.17,3.708,64.942-2.905
				c7.257-2.311,14.952-4.71,21.55-8.553c2.455-1.43,4.584-3.309,5.011-6.198c0.618-4.187-3.714-7.174-6.626-9.299
				c-2.678-1.952-5.231,2.501-2.588,4.429c1.271,0.929,5.314,3.435,3.39,5.369c-1.005,1.01-2.45,1.676-3.688,2.338
				c-3.006,1.605-6.274,2.732-9.48,3.858c-6.429,2.259-12.782,4.487-19.512,5.688c-17.372,3.101-35.51,0.979-52.996,0.146
				C80.56,72.412,70.628,71.03,60.87,68.782c-8.832-2.033-16.987-5.537-25.498-8.51c-3.327-1.161-8.329-2.808-8.439-7.07
				c-0.072-2.754,2.792-6.037,4.359-8.051c3.844-4.938,8.614-9.057,12.521-13.93C45.858,28.667,42.254,25.013,40.185,27.593
				L40.185,27.593z"/>
		</g>
	</g>
	<g>
		<path fill="#9F4422" d="M135.249,49.111l14,3.5c0,0,1.5,16.5,0,16.5s-16.5-6-16.5-6L135.249,49.111z"/>
		<polygon fill="#CE9D92" points="134.223,54.856 149.249,52.611 135.249,49.111 		"/>
	</g>
	<g>
		<path fill="#9F4422" d="M71.452,49.111l-6.479,2.449c0,0-0.693,11.551,0,11.551c0.694,0,7.636-4.2,7.636-4.2L71.452,49.111z"/>
		<polygon fill="#CE9D92" points="71.927,53.132 64.974,51.561 71.452,49.111 		"/>
	</g>
	<g>
		<path fill="#9F4422" d="M105.149,5.779l7.809,2.844c0,0,0.837,13.406,0,13.406s-9.202-4.875-9.202-4.875L105.149,5.779z"/>
		<polygon fill="#CE9D92" points="104.577,10.447 112.958,8.623 105.149,5.779 		"/>
	</g>
	<g>
		<path fill="#9F4422" d="M31.536,52.004l7.271,12.608c0,0-10.726,12.344-11.772,11.248s-7.23-16.137-7.23-16.137L31.536,52.004z"/>
		<polygon fill="#CE9D92" points="26.721,55.172 38.807,64.612 31.536,52.004 		"/>
	</g>
	<g>
		<path fill="#9F4422" d="M105.592,41.621l14,1.662c0,0,1.5,7.838,0,7.838s-16.5-2.85-16.5-2.85L105.592,41.621z"/>
		<polygon fill="#CE9D92" points="104.565,44.35 119.592,43.283 105.592,41.621 		"/>
	</g>
</g>
</svg>
