<?xml version="1.0" encoding="utf-8"?>
<!-- Generator: Adobe Illustrator 16.0.0, SVG Export Plug-In . SVG Version: 6.00 Build 0)  -->
<!DOCTYPE svg PUBLIC "-//W3C//DTD SVG 1.1//EN" "http://www.w3.org/Graphics/SVG/1.1/DTD/svg11.dtd">
<svg version="1.1" id="Layer_1" xmlns="http://www.w3.org/2000/svg" xmlns:xlink="http://www.w3.org/1999/xlink" x="0px" y="0px"
	 width="200px" height="150px" viewBox="198.9 308.884 200 150" enable-background="new 198.9 308.884 200 150"
	 xml:space="preserve">
<g>
	<path fill="#D35F27" d="M395.041,401.771c0.021-0.56,0.033-0.554,0.033-1.116c0-37.279-41.755-53.438-96.965-53.438
		s-96.964,16.157-96.964,53.438c0,37.28,41.754,58.229,96.964,58.229c8.373,0,16.431-0.483,24.085-1.432l-0.196-0.221l-3.813-6.041
		l-2.478-4.395l3.599-8.787l7.252-9.734l-0.48-5l3.414-5.548l1.415-2.497l12.047-3.055l1.769-3.844l2.479-2.476l3.892-3.566
		l9.2-4.393h14.152l7.076,4.231l7.074-4.76l3.539,0.445l2.104,4.87C394.235,402.691,394.515,402.189,395.041,401.771z"/>
	<g>
		<path fill="#F1E9CE" d="M392.133,397.818l2.104,4.873c3.325-3.914,2.523-4.855,1.662-10.366c-1-9.048-4.197-14.732-12.197-20.587
			c-5.5-4.258-11.871-12.171-18.871-14.832c-7.5-2.661-15-6.388-23.5-7.452c-8.5-0.532-9.637-2.065-17.855-3.052
			c-28.667-3.441-57.578-0.438-82.078,8.078c-5,1.597-9.484,3.707-13.946,5.408c-13.132,5.008-26.171,15.709-25.39,31.625
			c0,12.772,5.27,7.971,15.77,7.971c11,0.53,6,7.982,8,17.563c2.5,11.709,11,17.031,21.5,15.436c5.5-0.531,15.5-7.45,20.5-4.789
			c3.5,1.597,5,7.981,7.5,10.645c8,10.646,16.5,5.854,25-0.531c8.088-5.871,15.639-7.127,24.038-6.117l2.189-3.411l-0.48-5
			l3.414-5.548l1.415-2.497l12.047-3.054l1.769-3.845l2.479-2.476l3.892-3.566l9.2-4.393h14.152l7.075,4.231l7.075-4.76
			L392.133,397.818z"/>
	</g>
	<g>
		<g>
			<path fill="#CBC4B1" d="M264.063,350.698c-10.34-2.33-34.288-1.332-45.172,1.662c-14.695,3.992-0.545,11.313,3.266,16.969
				c2.72,4.324,1.086,3.66-3.266,7.653c-2.723,2.66-4.898,5.323-7.077,7.651c-1.087,1.663-6.531,6.322-4.899,7.984
				c3.812,2.994,24.491,0,28.846-1.33c4.899-1.997,8.164-5.656,12.521-8.317c3.809,4.325-1.089,9.981,2.721,14.306
				c6.53,8.648,24.491,3.328,35.376,4.325c-0.544,5.321-2.178,17.3,9.795,17.3c15.788-0.33,11.976-17.3,23.403-21.291
				c5.444,1.996,8.709,7.316,14.694,8.981c7.619,1.996,22.857,0.998,29.393-1.331c17.959-5.654,2.179-12.976-6.533-18.299
				c11.431-6.987,56.604,3.326,30.479-13.974c-3.268-1.996-5.987-5.324-9.798-7.32c-7.073-3.659-20.684-4.99-29.389-7.319
				c-13.063-3.327-31.022-4.99-41.363-11.645c-4.354-2.662-5.445-6.321-11.975-7.985c-14.697-3.992-25.58,7.319-31.567,13.975
				L264.063,350.698z"/>
		</g>
		<g>
			<g>
				<path fill="#47A2BB" d="M207.984,378.56c-0.708-2.116-0.364-1.878,2.016-1.493c2.828,0.457,5.578,1.559,8.218,2.627
					c4.651,1.882,9.462,4.045,13.05,7.602c6.159,6.106,4.423,15.065,6.317,22.782c0.909,3.702,4.171,12.447,9.503,11.342
					c7.909-1.643,6.21-19.869,5.398-25.279c-2.287-15.248-22.012-20.583-24.503-35.58c-0.383,0.941-0.766,1.883-1.149,2.823
					c15.366-9.227,24.812,14.479,29.712,25.166c7.977,17.395,20.266,31.936,38.197,39.273c6.067,2.482,13.121,2.98,15.067-4.483
					c1.781-6.826,0.509-15.778-2.438-22.053c-4.417-9.396-12.266-16.221-20.033-22.829c-10.352-8.809-20.634-17.704-31-26.5
					c-0.168,1.309-0.337,2.617-0.506,3.926c8.527-5.135,19.372-2.174,27.82,1.647c8.732,3.95,17.7,10.315,22.26,18.956
					c4.577,8.67,8.06,17.666,15.185,24.683c6.726,6.621,17.323,10.029,26.662,8.658c17.238-2.53,12.846-21.044,4.996-30.993
					c-6.766-8.576-17.672-13.468-27.539-17.445c-6.045-2.438-12.283-4.39-18.506-6.314c-5.811-1.798-13.245-2.951-17.872-7.117
					c-0.368,1.393-0.735,2.785-1.103,4.179c18.19-4.904,39.563-2.855,56.719,4.812c6.753,3.019,11.438,7.389,16.393,12.724
					c4.463,4.803,9.554,11.225,15.97,13.473c3.683,1.289,8.368,0.533,10.009-3.38c1.493-3.563-3.204-7.024-5.643-8.552
					c-6.856-4.299-18.869-5.065-17.021,6.179c0.521,3.175,5.339,1.823,4.82-1.33c-1.076-6.554,11.897-1.009,13.036,2.619
					c-0.181-0.571-1.786,0.243-3.117-0.093c-2.653-0.669-5.027-2.998-6.986-4.76c-4.323-3.891-8.063-8.4-12.13-12.546
					c-8.447-8.605-20.974-12.524-32.508-14.766c-13.351-2.593-27.685-2.755-40.87,0.799c-1.748,0.472-2.518,2.905-1.103,4.179
					c7.161,6.447,18.864,7.938,27.789,10.847c11.293,3.682,23.344,8.123,32.394,16.087c5.373,4.729,10.014,12.004,9.535,19.403
					c-0.62,9.613-14.623,7.452-20.507,5.706c-10.054-2.983-15.764-12.373-20.213-21.153c-4.086-8.058-7.44-14.718-14.519-20.609
					c-11.693-9.736-31.897-18.985-46.472-10.206c-1.293,0.778-1.763,2.859-0.506,3.926c8.958,7.601,18.018,15.081,26.858,22.819
					c7.593,6.646,15.888,12.982,21.352,21.607c4.084,6.447,5.677,15.571,3.729,23.032c-1.667,6.385-20.692-6.354-23.167-8.354
					c-13.872-11.207-19.08-27.599-27.651-42.42c-6.313-10.918-16.823-20.794-29.616-13.111c-1.038,0.623-1.337,1.689-1.149,2.823
					c1.243,7.482,6.839,13.063,12.034,18.164c4.814,4.727,11.128,9.703,12.361,16.695c0.932,5.283,0.658,11.267-0.453,16.494
					c-0.22,1.037-0.522,2.062-1.016,3.001c-0.29,0.554,0.713,0.682-0.305-0.383c-2.988-3.122-3.892-8.411-4.304-12.525
					c-0.758-7.57-1.392-13.656-6.677-19.576c-3.207-3.591-7.822-5.58-12.113-7.537c-5.007-2.284-23.833-9.215-19.528,3.667
					C204.18,382.932,209.009,381.627,207.984,378.56L207.984,378.56z"/>
			</g>
		</g>
		<g>
			<path fill="#2C2111" d="M321.991,341.462l14,4.032c0,0,1.5,19.014,0,19.014s-16.5-6.912-16.5-6.912L321.991,341.462z"/>
			<polygon fill="#ECE1C9" points="320.965,348.081 335.991,345.494 321.991,341.462 			"/>
		</g>
		<g>
			<path fill="#2C2111" d="M272.062,337.112l-16.83,4.865c0,0-1.801,22.944,0,22.944c1.804,0,19.836-8.343,19.836-8.343
				L272.062,337.112z"/>
			<polygon fill="#ECE1C9" points="273.293,345.101 255.23,341.978 272.062,337.112 			"/>
		</g>
		<g>
			<path fill="#2C2111" d="M279.475,347.6l7.809,2.844c0,0,0.837,13.406,0,13.406c-0.837,0-9.202-4.875-9.202-4.875L279.475,347.6z"
				/>
			<polygon fill="#ECE1C9" points="278.901,352.268 287.283,350.443 279.475,347.6 			"/>
		</g>
		<g>
			<path fill="#2C2111" d="M258.824,354.365l7.271,12.608c0,0-10.726,12.344-11.771,11.248c-1.046-1.096-7.23-16.137-7.23-16.137
				L258.824,354.365z"/>
			<polygon fill="#ECE1C9" points="254.008,357.533 266.094,366.974 258.824,354.365 			"/>
		</g>
		<g>
			<path fill="#2C2111" d="M276.974,357.922l-6.479,2.449c0,0-0.693,11.551,0,11.551c0.694,0,7.636-4.2,7.636-4.2L276.974,357.922z"
				/>
			<polygon fill="#ECE1C9" points="277.449,361.943 270.496,360.371 276.974,357.922 			"/>
		</g>
		<g>
			<path fill="#2C2111" d="M239.82,357.921l7.271,12.608c0,0-10.726,12.344-11.772,11.249c-1.046-1.096-7.23-16.137-7.23-16.137
				L239.82,357.921z"/>
			<polygon fill="#ECE1C9" points="235.005,361.089 247.091,370.529 239.82,357.921 			"/>
		</g>
		<g>
			<path fill="#2C2111" d="M306.923,348.234l14,1.662c0,0,1.5,7.838,0,7.838s-16.5-2.85-16.5-2.85L306.923,348.234z"/>
			<polygon fill="#ECE1C9" points="305.897,350.963 320.923,349.896 306.923,348.234 			"/>
		</g>
		<g>
			<path fill="#2C2111" d="M330.574,355.725l14,3.5c0,0,1.5,16.5,0,16.5s-16.5-6-16.5-6L330.574,355.725z"/>
			<polygon fill="#ECE1C9" points="329.548,361.47 344.574,359.225 330.574,355.725 			"/>
		</g>
		<g>
			<path fill="#2C2111" d="M304.805,345.542l-16.371,5.74c0,0-1.753,27.063,0,27.063c1.754,0,19.293-9.841,19.293-9.841
				L304.805,345.542z"/>
			<polygon fill="#ECE1C9" points="306.004,354.964 288.434,351.282 304.805,345.542 			"/>
		</g>
		<g>
			<path fill="#2C2111" d="M282.8,365.422l22.962,5.74c0,0,2.461,27.063,0,27.063c-2.46,0-27.063-9.841-27.063-9.841L282.8,365.422z
				"/>
			<polygon fill="#ECE1C9" points="281.117,374.844 305.762,371.162 282.8,365.422 			"/>
		</g>
		<g>
			<path fill="#2C2111" d="M322.366,361.922l-10.926,3.5c0,0-1.171,16.5,0,16.5c1.172,0,12.877-6,12.877-6L322.366,361.922z"/>
			<polygon fill="#ECE1C9" points="323.167,367.667 311.44,365.422 322.366,361.922 			"/>
		</g>
		<g>
			<path fill="#2C2111" d="M251.246,366.328l21.693,5.423c0,0,2.325,25.567,0,25.567c-2.324,0-25.567-9.297-25.567-9.297
				L251.246,366.328z"/>
			<polygon fill="#ECE1C9" points="249.655,375.23 272.938,371.751 251.246,366.328 			"/>
		</g>
	</g>
	<path fill="#E69F6B" d="M322.039,457.04l-3.813-6.041l-2.478-4.394l3.598-8.787l7.253-9.735l-0.48-5l3.413-5.548l1.416-2.498
		l12.047-3.053l1.769-3.845l2.479-2.477l3.892-3.566l9.2-4.393h14.152l7.075,4.231l7.075-4.76l3.539,0.445l2.104,4.874
		c0,0-2.86,6.401-2.86,8.599c0,2.198,0,10.599,0,10.599l-3.209,6.239l-6.124,1.761l-7.88,1.638l-8.063-0.985l-7.255-3.235
		l-7.375,3.541l-11.546,1.043l-3.438,4.335l-3.854,9.999l-5.835,3.589l-1.243,6.299L322.039,457.04L322.039,457.04z"/>
</g>
</svg>
