<?xml version="1.0" encoding="utf-8"?>
<!-- Generator: Adobe Illustrator 16.0.0, SVG Export Plug-In . SVG Version: 6.00 Build 0)  -->
<!DOCTYPE svg PUBLIC "-//W3C//DTD SVG 1.1//EN" "http://www.w3.org/Graphics/SVG/1.1/DTD/svg11.dtd">
<svg version="1.1" id="Layer_1" xmlns="http://www.w3.org/2000/svg" xmlns:xlink="http://www.w3.org/1999/xlink" x="0px" y="0px"
	 width="200px" height="150px" viewBox="0 0 200 150" enable-background="new 0 0 200 150" xml:space="preserve">
<g>
	<path fill="#E69F6B" d="M123.138,148.154l-3.813-6.041l-2.479-4.394l3.598-8.787l7.254-9.735l-0.482-5l3.414-5.548l1.415-2.498
		l12.047-3.053l1.769-3.844l2.478-2.476l3.892-3.566l9.2-4.393h14.151l7.076,4.232l7.076-4.76l3.539,0.445l2.104,4.873
		c0,0-2.859,6.402-2.859,8.6s0,10.597,0,10.597l-3.209,6.241l-6.124,1.759l-7.88,1.638l-8.061-0.985l-7.256-3.236l-7.375,3.541
		l-11.546,1.044l-3.44,4.334l-3.854,9.999l-5.835,3.589l-1.243,6.299L123.138,148.154L123.138,148.154z"/>
	<path fill="#D35F27" d="M196.14,92.886c0.02-0.558,0.033-0.552,0.033-1.116c0-37.279-41.754-53.437-96.964-53.437
		S2.245,54.49,2.245,91.77c0,37.28,41.754,58.23,96.964,58.23c8.371,0,16.43-0.484,24.084-1.433l-0.196-0.22l-3.813-6.041
		l-2.479-4.395l3.598-8.787l7.254-9.734l-0.482-5l3.414-5.548l1.415-2.498l12.047-3.054l1.769-3.844l2.478-2.476l3.892-3.565
		l9.2-4.394h14.151l7.076,4.233l7.076-4.76l3.539,0.444l2.104,4.872C195.335,93.806,195.614,93.304,196.14,92.886z"/>
	<g>
		<path fill="#34140E" d="M193.231,88.934l2.104,4.872c3.327-3.914,2.524-4.854,1.663-10.366c-1-9.048-4.198-14.732-12.198-20.587
			c-5.5-4.258-11.871-12.171-18.871-14.832c-7.5-2.661-15-6.388-23.5-7.452c-8.5-0.532-9.637-2.064-17.856-3.052
			c-28.666-3.441-57.577,0.563-82.077,9.079c-5,1.597-9.484,2.706-13.946,4.407C15.419,56.011,2.38,66.711,3.161,82.627
			c0,12.773,5.27,7.971,15.77,7.971c11,0.532,6,7.983,8,17.563c2.5,11.709,11,17.031,21.5,15.436c5.5-0.532,15.5-7.451,20.5-4.79
			c3.5,1.597,5,7.983,7.5,10.646c8,10.645,16.5,5.854,25-0.533c8.088-5.869,15.639-7.127,24.037-6.115l2.191-3.412l-0.482-5
			l3.414-5.548l1.415-2.498l12.047-3.054l1.769-3.844l2.478-2.476l3.892-3.565l9.2-4.394h14.151l7.076,4.233l7.076-4.76
			L193.231,88.934z"/>
	</g>
	<path fill="#772415" d="M136.659,80.273c-3.983,6.129-16.768,11.496-37.449,11.496c-20.682,0-30.245-3.765-37.449-11.496
		c-5.835-6.264,16.868-10.942,37.551-10.942C119.995,69.332,141.325,73.096,136.659,80.273z"/>
	<g>
		<path fill="#6D97BA" d="M52.505,36.812c0,0-0.559,19.317,10.84,19.774c0,0,17.295-2.479,16.645-13.889
			c0,0,0.432-22.009-15.949-16.511C64.04,26.187,53.544,29.701,52.505,36.812z"/>
		<path fill="#B7D6E1" d="M60.704,27.088c0,0,13.962-4.679,15.102,1.196c0.164,0.84,0.063,1.896-0.375,3.209
			c0,0-4.318,7.548-21.192,6.072C54.239,37.565,47.535,33.26,60.704,27.088z"/>
	</g>
	<g>
		<polygon fill="#CC9D53" points="87.522,37.583 105.534,33.415 116.848,54.851 113.126,65.271 90.5,69.737 83.951,67.801 
			79.038,63.931 74.87,51.576 75.466,47.26 		"/>
		<path fill="#F8F3BA" d="M98.241,24.038c-0.595,0.297-5.805,2.53-5.805,2.53l-1.787,0.894l1.042,2.529l-1.042,4.615
			c0,0,1.34,5.358,1.936,5.656c0.596,0.298,5.656,3.275,5.656,3.275l6.401,5.21h1.637l3.275,0.744l3.126,3.274l5.508,1.786
			l6.4-1.042l1.487-3.721l2.979-4.317l-0.596-4.614l0.596-4.615l-3.126-5.508l-7.592-6.697l-5.954-0.744l-4.764-0.744l-1.19-4.317
			l-8.336-1.489l-2.233,2.828L98.241,24.038z"/>
		<path fill="#F8F3BA" d="M113.424,59.912c0,0,5.062-0.893,5.358,0s2.828,7.294,2.828,7.294l-2.531,3.87l0.746,4.912l-2.979,4.764
			c0,0-5.359,2.529-5.806,2.529s-4.316,0-4.316,0l-6.104-3.273l-6.062-1.638v-5.359c0,0-3.912,0.895-3.912,0.446
			c0-0.446-1.19-5.618-1.19-5.618s4.466-1.229,3.87-1.675c-0.596-0.447,0-4.912,0-4.912c0-0.596,5.359-4.764,5.806-4.316
			c0.446,0.445,6.4,4.316,6.4,4.316s0.446,2.084,0,2.529c-0.446,0.447,2.828,3.574,2.828,4.02c0,0.447,1.489-3.274,1.489-3.274
			L113.424,59.912z"/>
		<path fill="#F8F3BA" d="M66.832,54.553c0-0.297,5.508-4.168,5.508-4.168h1.638h4.763l1.638,12.206l-1.34,1.34l4.912,2.68v3.126
			c0,0-7.145,2.084-7.74,2.084c-0.595,0-3.274-1.82-3.274-1.729s2.381-3.779,1.935-3.779c-0.447,0-3.87-1.637-3.87-1.637
			l-0.744,1.935l-3.424-1.786l-1.638-3.723L66.832,54.553z"/>
		<path fill="#F8F3BA" d="M89.458,47.26l-5.508,3.125h-3.572l-3.87-3.125l-0.894-2.383l-2.382-1.935l-0.893-5.358v-2.681l2.53-2.828
			l3.275-2.529l0.743-2.978c0,0,2.978,0.298,2.829,0.744c-0.149,0.446,5.508,4.019,5.508,4.019s0.893,2.828,0.744,3.275
			c-0.149,0.446-0.447,2.978-0.447,2.978l1.936,5.061L89.458,47.26L89.458,47.26z"/>
		<path fill="#CE7E29" d="M77.252,35.648h3.646c0,0,0.968,2.531,1.266,2.828c0.298,0.298,0,2.68,0,2.68l-2.39,2.232h-2.521
			l-0.596-3.869L77.252,35.648z"/>
		<path fill="#CE7E29" d="M103.6,26.569l3.274,0.894l2.978,1.488l2.381-1.191l1.787-1.19c0,0,2.53,0.744,2.828,1.19
			c0.298,0.447,4.912,3.275,4.763,3.722c-0.147,0.446-0.893,3.722-1.339,4.168s-3.424,1.936-3.424,1.936l-3.424,0.893h-1.937
			l-1.637,1.043l1.488,1.785l-1.488,2.084c0,0-2.084,0.298-2.531,0c-0.446-0.297-0.07-6.724-0.07-6.724s-0.822-2.355-0.822-3.25
			c0-0.893,0-2.978,0-2.978l-2.828-2.68V26.569L103.6,26.569z"/>
		<path fill="#CE7E29" d="M116.848,43.389c0,0,1.786,1.34,2.382,1.191s3.87-1.059,3.87-1.059l0.744,2.547
			c0,0-3.572,4.912-4.315,4.316c-0.746-0.595-1.937-3.125-1.937-3.125h-2.382L116.848,43.389z"/>
		<path fill="#CE7E29" d="M99.58,61.102c0.744-0.445,4.615,1.193,4.02,1.787c-0.596,0.596-4.02,3.572-4.02,3.572l2.041,2.383
			c0,0,0.7,4.465,0,4.316c-0.701-0.149-3.231,0.004-3.231,0.004l-2.531-3.072c0,0,0-3.928,0-4.375
			C95.859,65.271,99.58,61.102,99.58,61.102z"/>
		<path fill="#CE7E29" d="M116.103,67.951c0,0.446-2.827,0-2.827,0l-1.524-2.407l-2.521,0.496l-1.165,2.109l1.786,1.943l2.233,1.729
			l2.231-1.729c0,0,2.978,1.579,2.53,0.836C116.401,70.184,116.103,67.951,116.103,67.951z"/>
		<path fill="#CE7E29" d="M68.618,58.721C68.766,59.466,71,61.847,71,61.847v2.829l-3.126-3.649L68.618,58.721z"/>
		<path fill="#F8F3BA" d="M88.714,45.331c0.893,0.298,12.354,0,12.354,0l2.531,7.294l-2.978,2.348c0,0-8.336,1.672-8.336,1.82
			s-8.188,1.637-7.89,0.745c0.298-0.895-2.084-11.017-1.19-11.017S88.714,45.331,88.714,45.331z"/>
		<path fill="#CE7E29" d="M90.542,49.217c0.669,0.604,3.841-1.629,3.841,0c0,1.631-0.668,5.397-1.92,5.397s-6.793,0-6.793,0
			l-1.139-3.003L90.542,49.217z"/>
	</g>
	<g>
		<polygon fill="#CC9D53" points="158.381,52.107 155.676,61.83 142.446,61.656 138.424,57.15 142.191,45.14 144.829,42.505 
			147.967,41.161 154.977,42.389 156.891,43.802 		"/>
		<path fill="#F8F3BA" d="M162.075,60.782c0.014-0.362,0.304-3.442,0.304-3.442l0.038-1.09l-1.484-0.161l-1.939-1.705
			c0,0-2.918-0.756-3.217-0.549s-3.048,1.855-3.048,1.855l-4.168,1.708l-0.428,0.784l-1.212,1.376l-2.387,0.643l-2.293,2.175
			l-1.174,3.34l1.396,1.685l1.292,2.554l2.366,0.921l2.058,1.49l3.456-0.061l5.193-1.891l1.912-2.659l1.6-2.089l2.38,0.557
			l2.89-3.607l-0.771-1.81L162.075,60.782z"/>
		<path fill="#F8F3BA" d="M140.915,58.692c0,0-0.895,2.66-1.399,2.569c-0.505-0.091-4.235-0.549-4.235-0.549l-1.193-2.224
			l-2.549-0.927l-1.506-2.671c0,0,0.187-3.229,0.304-3.443c0.116-0.213,1.127-2.069,1.127-2.069l3.163-2.07l2.367-2.478l2.568,1.399
			c0,0,0.594-2.108,0.809-1.991c0.214,0.116,3.004,0.896,3.004,0.896s-0.578,2.461-0.208,2.292s2.354,1.282,2.354,1.282
			c0.286,0.156,0.886,3.813,0.554,3.91c-0.33,0.098-3.739,1.941-3.739,1.941s-1.116-0.33-1.214-0.661s-2.451,0.423-2.664,0.307
			c-0.215-0.117,1.181,1.568,1.181,1.568L140.915,58.692z"/>
		<path fill="#F8F3BA" d="M155.649,37.759c0.143,0.078,0.561,3.729,0.561,3.729l-0.428,0.785l-1.244,2.283l-6.278-2.402
			l-0.292-0.992l-2.566,1.654l-1.498-0.815c0,0,0.865-3.97,1.021-4.255c0.154-0.285,1.729-1.094,1.684-1.118
			c-0.045-0.023,1.189,2.128,1.307,1.914c0.117-0.214,1.795-1.427,1.795-1.427l-0.732-0.863l1.75-1.174l2.212,0.188L155.649,37.759z
			"/>
		<path fill="#F8F3BA" d="M153.237,50.509l-0.06-3.457l0.935-1.711l2.508-1.039l1.375,0.193l1.549-0.637l2.802,0.971l1.284,0.7
			l0.695,1.952l0.357,2.23l1.232,1.133c0,0-0.92,1.351-1.096,1.162s-3.365,1.591-3.365,1.591s-1.588-0.312-1.764-0.499
			c-0.176-0.188-1.311-0.991-1.311-0.991l-2.932-0.394L153.237,50.509z"/>
		<path fill="#CE7E29" d="M161.991,47.689l-0.953,1.748c0,0-1.465-0.197-1.686-0.131c-0.222,0.064-1.285-0.701-1.285-0.701
			l-0.445-1.729l0.658-1.208l2.01,0.725L161.991,47.689z"/>
		<path fill="#CE7E29" d="M159.463,62.689l-1.283,1.338l-1.49,1.038l-0.052,1.452l0.104,1.167c0,0-1.018,1.019-1.31,1.044
			c-0.291,0.027-2.853,1.5-3.026,1.313c-0.176-0.188-1.552-1.399-1.647-1.731c-0.099-0.329-0.034-2.146-0.034-2.146l0.467-1.873
			l0.504-0.928l-0.072-1.057l-1.243,0.246l-0.61-1.257c0,0,0.401-1.077,0.661-1.213c0.259-0.137,3.241,1.722,3.241,1.722
			s1.344,0.221,1.771,0.454c0.428,0.233,1.428,0.777,1.428,0.777l2.021-0.656L159.463,62.689z"/>
		<path fill="#CE7E29" d="M147.94,64.648c0,0-1.107,0.507-1.191,0.831c-0.086,0.324-0.504,2.131-0.504,2.131l-1.414-0.309
			c0,0-1.424-2.995-0.942-3.196c0.481-0.201,2.003-0.111,2.003-0.111l0.622-1.142L147.94,64.648z"/>
		<path fill="#CE7E29" d="M143.958,51.746c0.021,0.474-1.775,1.901-1.904,1.461c-0.13-0.442-0.664-2.86-0.664-2.86l-1.674,0.355
			c0,0-2.323-0.829-2.069-1.126c0.255-0.297,0.843-1.551,0.843-1.551l2.133-0.411c0,0,1.884,1.026,2.098,1.143
			C142.933,48.874,143.958,51.746,143.958,51.746z"/>
		<path fill="#CE7E29" d="M136.362,57.877c-0.214-0.116,0.738-1.354,0.738-1.354l1.553-0.103l0.42-1.337l-0.707-1.109l-1.397,0.349
			l-1.412,0.619l0.246,1.521c0,0-1.534,1.015-1.062,0.995S136.362,57.877,136.362,57.877z"/>
		<path fill="#CE7E29" d="M153.185,37.526c-0.396-0.123-2.12,0.325-2.12,0.325l-1.356-0.737l2.565-0.547L153.185,37.526z"/>
		<path fill="#F8F3BA" d="M154.356,50.656c-0.376,0.35-3.226,5.922-3.226,5.922l-4.158-0.691l-0.349-2.039
			c0,0,1.375-4.433,1.305-4.472c-0.071-0.038,1.354-4.352,1.703-3.976c0.352,0.375,5.824,1.877,5.592,2.306
			C154.991,48.133,154.356,50.656,154.356,50.656z"/>
		<path fill="#CE7E29" d="M152.016,50.518c-0.464,0.163-0.222,2.267-1.003,1.841c-0.781-0.426-2.412-1.729-2.086-2.329
			c0.327-0.6,1.773-3.256,1.773-3.256l1.736,0.238L152.016,50.518z"/>
	</g>
	<g>
		<path fill="#D697A7" d="M117.237,55.906c0,0-0.238,14.487,8.377,14.725c0,0,13.043-2.02,12.443-10.568
			c0,0,0.119-16.507-12.204-12.231C125.854,47.83,117.954,50.562,117.237,55.906z"/>
		<path fill="#F5D6E0" d="M123.341,48.537c0,0,10.505-3.639,11.421,0.757c0.131,0.627,0.065,1.419-0.254,2.408
			c0,0-3.19,5.7-15.953,4.75C118.555,56.452,113.45,53.287,123.341,48.537z"/>
	</g>
	<g>
		<polygon fill="#CC9D53" points="36.952,63.27 45.868,51.003 64.399,58.198 67.697,66.653 56.083,81.583 50.986,83.907 
			45.863,84.15 36.638,78.739 34.687,75.745 		"/>
		<path fill="#F8F3BA" d="M36.308,49.117c-0.209,0.504-2.235,4.688-2.235,4.688l-0.626,1.515l2.005,1.006l1.836,3.419
			c0,0,3.711,2.599,4.24,2.463c0.528-0.136,5.265-1.012,5.265-1.012l6.766-0.215l1.014-0.881l2.43-1.3l3.696,0.348l4.372-1.854
			l3.404-4.087l-1.078-3.104l-0.478-4.275l-2.85-2.538l-2.112-3.178l-4.897-1.731l-8.304-0.067l-4.088,2.74l-3.351,2.101
			l-3.06-2.034l-5.963,3.56l0.137,2.953L36.308,49.117z"/>
		<path fill="#F8F3BA" d="M65,63.174c0,0,2.655-3.274,3.319-2.881c0.664,0.393,5.673,2.997,5.673,2.997l0.514,3.758l3.103,2.643
			l0.717,4.551c0,0-1.96,4.448-2.236,4.688c-0.276,0.24-2.674,2.32-2.674,2.32l-5.54,1.254l-4.636,2.244l-2.881-3.318
			c0,0-1.942,2.656-2.184,2.379c-0.24-0.276-3.758-2.84-3.758-2.84s2.105-3.162,1.497-3.118c-0.61,0.043-2.642-3.043-2.642-3.043
			c-0.32-0.368,0.759-5.832,1.275-5.794c0.516,0.035,6.285-0.769,6.285-0.769s1.397,1.051,1.36,1.566
			c-0.036,0.518,3.673,0.694,3.913,0.97c0.24,0.277-0.838-2.828-0.838-2.828L65,63.174z"/>
		<path fill="#F8F3BA" d="M33.259,84.904c-0.159-0.185,1.171-5.542,1.171-5.542l1.015-0.881l2.949-2.561l7.578,6.68l-0.109,1.551
			l4.482-0.98l1.681,1.936c0,0-3.305,5.133-3.673,5.453c-0.37,0.32-3.008,0.633-2.959,0.69c0.05,0.057-0.557-3.622-0.833-3.382
			c-0.276,0.24-3.277,1.066-3.277,1.066l0.579,1.598l-3.081,0.734l-3.016-1.425L33.259,84.904z"/>
		<path fill="#F8F3BA" d="M43.353,68.222l-1.731,4.896l-2.212,1.921l-4.078,0.145l-1.834-0.994l-2.516,0.081l-3.434-2.838
			l-1.441-1.661l0.047-3.112l0.668-3.327l-1.141-2.244c0,0,2.006-1.416,2.153-1.061c0.147,0.356,5.572-0.473,5.572-0.473
			s2.073,1.271,2.222,1.629c0.147,0.356,1.324,2.085,1.324,2.085l3.92,2.094L43.353,68.222z"/>
		<path fill="#CE7E29" d="M29.55,67.593l2.258-1.961c0,0,1.961,1.048,2.305,1.071c0.346,0.024,1.441,1.66,1.441,1.66l-0.28,2.667
			l-1.563,1.355l-2.449-2.075L29.55,67.593z"/>
		<path fill="#CE7E29" d="M40.988,47.802l2.509-1.206l2.645-0.68l0.835-2.019l0.467-1.697c0,0,1.967-0.9,2.391-0.783
			c0.426,0.116,4.805-0.612,4.951-0.256c0.148,0.356,1.448,2.785,1.412,3.302c-0.037,0.517-1.08,3.04-1.08,3.04l-1.641,2.394
			l-1.199,1.04l-0.453,1.526l1.881,0.306l0.199,2.091c0,0-1.131,1.306-1.568,1.36c-0.436,0.057-3.658-4.126-3.658-4.126
			s-1.775-1.017-2.256-1.571c-0.48-0.553-1.601-1.844-1.601-1.844l-3.192-0.14L40.988,47.802z"/>
		<path fill="#CE7E29" d="M58.238,51.098c0,0,1.826-0.13,2.115-0.542c0.289-0.413,1.828-2.736,1.828-2.736l1.83,1.178
			c0,0,0.429,4.963-0.353,4.994c-0.781,0.032-2.88-0.896-2.88-0.896l-1.475,1.28L58.238,51.098z"/>
		<path fill="#CE7E29" d="M57.064,71.354c0.222-0.676,3.501-1.742,3.45-1.054c-0.049,0.688-0.568,4.373-0.568,4.373l2.545,0.379
			c0,0,2.834,2.39,2.32,2.674c-0.514,0.284-1.999,1.739-1.999,1.739l-3.22-0.542c0,0-2.111-2.433-2.352-2.71
			C57,75.937,57.064,71.354,57.064,71.354z"/>
		<path fill="#CE7E29" d="M70.98,66.712c0.24,0.277-1.751,1.521-1.751,1.521l-2.238-0.671l-1.295,1.661l0.412,1.934l2.152,0.243
			l2.313-0.13l0.453-2.271c0,0,2.693-0.622,2.017-0.843C72.368,67.935,70.98,66.712,70.98,66.712z"/>
		<path fill="#CE7E29" d="M36.606,86.525c0.492,0.383,3.156,0.655,3.156,0.655l1.521,1.753l-3.898-0.58L36.606,86.525z"/>
		<path fill="#F8F3BA" d="M41.854,67.428c0.713-0.296,7.653-6.643,7.653-6.643l5.489,3.157l-0.582,3.055
			c0,0-4.265,5.518-4.186,5.609c0.08,0.092-4.191,5.415-4.486,4.703c-0.296-0.714-7.213-5.703-6.66-6.185
			C39.637,70.646,41.854,67.428,41.854,67.428z"/>
		<path fill="#CE7E29" d="M45.077,68.851c0.738,0.015,1.504-3.074,2.379-2.064c0.877,1.01,2.488,3.702,1.713,4.375
			c-0.775,0.673-4.207,3.652-4.207,3.652l-2.32-1.248L45.077,68.851z"/>
	</g>
	<g>
		<path fill="#6D97BA" d="M136.642,63.621c0,0-6.197,19.279,4.303,22.825c0,0,16.867,2.188,19.614-9.464
			c0,0,6.872-22.021-10.03-20.925C150.528,56.058,139.702,56.747,136.642,63.621z"/>
		<path fill="#B7D6E1" d="M147.151,56.06c0,0,14.403-0.926,13.739,5.293c-0.095,0.889-0.498,1.923-1.292,3.127
			c0,0-6.249,6.422-21.561,0.368C138.038,64.848,133.048,58.701,147.151,56.06z"/>
	</g>
	<g>
		<polygon fill="#CC9D53" points="138.11,78.887 134.993,90.08 119.762,89.88 115.13,84.693 119.468,70.864 122.506,67.83 
			126.118,66.283 134.189,67.697 136.394,69.324 		"/>
		<path fill="#F8F3BA" d="M142.362,88.873c0.017-0.416,0.351-3.963,0.351-3.963l0.044-1.255l-1.71-0.186l-2.233-1.963
			c0,0-3.359-0.871-3.703-0.632c-0.345,0.238-3.51,2.137-3.51,2.137l-4.8,1.967l-0.492,0.903l-1.396,1.584l-2.748,0.74l-2.642,2.504
			l-1.35,3.846l1.606,1.939l1.486,2.94l2.727,1.06l2.367,1.717l3.979-0.069l5.979-2.177l2.201-3.063l1.844-2.406l2.739,0.643
			l3.327-4.154l-0.889-2.083L142.362,88.873z"/>
		<path fill="#F8F3BA" d="M117.997,86.469c0,0-1.028,3.063-1.61,2.958c-0.583-0.104-4.877-0.632-4.877-0.632l-1.375-2.562
			l-2.935-1.065l-1.734-3.075c0,0,0.215-3.719,0.35-3.965c0.135-0.246,1.298-2.383,1.298-2.383l3.642-2.384l2.727-2.854l2.958,1.611
			c0,0,0.684-2.428,0.93-2.293c0.246,0.134,3.459,1.032,3.459,1.032s-0.664,2.834-0.238,2.64s2.711,1.477,2.711,1.477
			c0.328,0.18,1.019,4.391,0.637,4.502c-0.38,0.112-4.306,2.235-4.306,2.235s-1.285-0.38-1.396-0.761
			c-0.112-0.381-2.823,0.486-3.069,0.353c-0.246-0.135,1.359,1.806,1.359,1.806L117.997,86.469z"/>
		<path fill="#F8F3BA" d="M134.964,62.365c0.164,0.09,0.645,4.294,0.645,4.294l-0.492,0.904l-1.432,2.628l-7.23-2.766l-0.336-1.143
			l-2.955,1.905l-1.727-0.938c0,0,0.998-4.57,1.178-4.898c0.18-0.329,1.989-1.261,1.938-1.288c-0.052-0.027,1.369,2.45,1.504,2.204
			c0.136-0.247,2.065-1.644,2.065-1.644l-0.844-0.993l2.017-1.353l2.547,0.216L134.964,62.365z"/>
		<path fill="#F8F3BA" d="M132.187,77.046l-0.068-3.98l1.074-1.971l2.889-1.196l1.584,0.223l1.783-0.733l3.227,1.118l1.479,0.807
			l0.801,2.247l0.412,2.568l1.42,1.305c0,0-1.06,1.555-1.262,1.338c-0.201-0.217-3.875,1.832-3.875,1.832s-1.828-0.358-2.029-0.574
			c-0.203-0.217-1.51-1.142-1.51-1.142l-3.375-0.453L132.187,77.046z"/>
		<path fill="#CE7E29" d="M142.265,73.8l-1.096,2.013c0,0-1.688-0.228-1.941-0.151c-0.255,0.074-1.479-0.807-1.479-0.807
			l-0.514-1.99l0.758-1.392l2.314,0.835L142.265,73.8z"/>
		<path fill="#CE7E29" d="M139.354,91.072l-1.477,1.539l-1.717,1.195l-0.061,1.672l0.12,1.346c0,0-1.171,1.172-1.508,1.201
			c-0.335,0.031-3.283,1.728-3.485,1.512c-0.201-0.218-1.785-1.611-1.896-1.994c-0.112-0.379-0.039-2.472-0.039-2.472l0.535-2.157
			l0.582-1.067l-0.082-1.218l-1.434,0.285l-0.703-1.447c0,0,0.463-1.24,0.762-1.397c0.297-0.157,3.731,1.982,3.731,1.982
			s1.548,0.255,2.041,0.522c0.492,0.27,1.644,0.896,1.644,0.896l2.328-0.756L139.354,91.072z"/>
		<path fill="#CE7E29" d="M126.088,93.326c0,0-1.276,0.584-1.373,0.957c-0.099,0.373-0.58,2.453-0.58,2.453l-1.629-0.354
			c0,0-1.638-3.448-1.085-3.681c0.553-0.231,2.307-0.129,2.307-0.129l0.717-1.313L126.088,93.326z"/>
		<path fill="#CE7E29" d="M121.503,78.471c0.021,0.545-2.047,2.188-2.194,1.682c-0.149-0.509-0.764-3.293-0.764-3.293l-1.929,0.409
			c0,0-2.674-0.955-2.383-1.297c0.293-0.342,0.971-1.785,0.971-1.785l2.455-0.474c0,0,2.168,1.182,2.416,1.315
			C120.321,75.163,121.503,78.471,121.503,78.471z"/>
		<path fill="#CE7E29" d="M112.756,85.531c-0.246-0.135,0.85-1.561,0.85-1.561l1.787-0.118l0.483-1.54l-0.813-1.277l-1.608,0.401
			l-1.627,0.713l0.283,1.752c0,0-1.767,1.168-1.222,1.146C111.434,85.023,112.756,85.531,112.756,85.531z"/>
		<path fill="#CE7E29" d="M132.126,62.098c-0.456-0.143-2.441,0.374-2.441,0.374l-1.563-0.85l2.955-0.629L132.126,62.098z"/>
		<path fill="#F8F3BA" d="M133.475,77.215c-0.433,0.402-3.714,6.818-3.714,6.818l-4.787-0.796l-0.4-2.349
			c0,0,1.584-5.104,1.502-5.148s1.559-5.011,1.961-4.578c0.403,0.433,6.707,2.161,6.438,2.655
			C134.204,74.31,133.475,77.215,133.475,77.215z"/>
		<path fill="#CE7E29" d="M130.78,77.056c-0.533,0.188-0.256,2.61-1.154,2.12c-0.899-0.49-2.777-1.991-2.401-2.683
			c0.376-0.69,2.042-3.749,2.042-3.749l2,0.274L130.78,77.056z"/>
	</g>
	<g>
		<path fill="#D697A7" d="M59.232,62.481c0,0-10.034,14.568-1.501,20.59c0,0,14.522,6.697,19.698-2.396
			c0,0,11.278-16.701-4.046-20.624C73.384,60.052,63.57,57.531,59.232,62.481z"/>
		<path fill="#F5D6E0" d="M70.371,59.086c0,0,13.059,3.348,11.011,8.431c-0.291,0.727-0.893,1.488-1.883,2.279
			c0,0-7.072,3.654-19.308-5.874C60.191,63.922,57.181,57.279,70.371,59.086z"/>
	</g>
	<g>
		<path fill="#93B174" d="M98.443,82.221c0,0-0.285,15.25,9.966,15.5c0,0,15.517-2.125,14.805-11.125c0,0,0.143-17.375-14.52-12.875
			C108.694,73.721,99.296,76.596,98.443,82.221z"/>
		<path fill="#D6E8D3" d="M105.704,74.465c0,0,12.499-3.83,13.588,0.797c0.154,0.66,0.076,1.494-0.303,2.535c0,0-3.797,6-18.98,5
			C100.009,82.797,93.937,79.465,105.704,74.465z"/>
	</g>
	<g>
		<path fill="#93B174" d="M43.935,83.265c0,0-0.241,12.065,8.42,12.265c0,0,13.108-1.683,12.508-8.803
			c0,0,0.119-13.748-12.268-10.188C52.595,76.539,44.656,78.813,43.935,83.265z"/>
		<path fill="#D6E8D3" d="M50.069,77.128c0,0,10.56-3.031,11.479,0.631c0.132,0.522,0.066,1.182-0.254,2.005
			c0,0-3.207,4.748-16.036,3.956C45.258,83.72,40.125,81.083,50.069,77.128z"/>
	</g>
	<g>
		<polygon fill="#CC9D53" points="94.484,83.525 91.779,93.248 78.548,93.074 74.527,88.568 78.294,76.558 80.933,73.923 
			84.07,72.579 91.079,73.807 92.993,75.22 		"/>
		<path fill="#F8F3BA" d="M98.177,92.199c0.014-0.361,0.303-3.441,0.303-3.441l0.039-1.09l-1.484-0.161l-1.939-1.705
			c0,0-2.92-0.756-3.219-0.549c-0.297,0.207-3.047,1.856-3.047,1.856l-4.168,1.707l-0.428,0.784l-1.211,1.376l-2.387,0.643
			l-2.293,2.176l-1.174,3.34l1.396,1.686l1.291,2.554l2.367,0.921l2.057,1.49l3.457-0.062l5.193-1.891l1.912-2.659l1.6-2.089
			l2.379,0.557l2.891-3.606l-0.771-1.811L98.177,92.199z"/>
		<path fill="#F8F3BA" d="M77.017,90.111c0,0-0.893,2.659-1.398,2.568s-4.236-0.549-4.236-0.549l-1.193-2.225l-2.549-0.927
			l-1.506-2.671c0,0,0.186-3.229,0.303-3.443c0.117-0.213,1.127-2.069,1.127-2.069l3.164-2.07l2.367-2.478l2.568,1.399
			c0,0,0.594-2.108,0.809-1.991c0.213,0.116,3.004,0.896,3.004,0.896s-0.578,2.461-0.209,2.292c0.371-0.169,2.355,1.282,2.355,1.282
			c0.285,0.156,0.885,3.813,0.553,3.91c-0.33,0.098-3.74,1.941-3.74,1.941s-1.115-0.33-1.213-0.662
			c-0.098-0.33-2.451,0.424-2.664,0.308c-0.215-0.117,1.18,1.567,1.18,1.567L77.017,90.111z"/>
		<path fill="#F8F3BA" d="M91.75,69.177c0.143,0.078,0.561,3.729,0.561,3.729l-0.428,0.785l-1.244,2.283l-6.279-2.402L84.07,72.58
			l-2.568,1.654l-1.498-0.815c0,0,0.867-3.97,1.023-4.255c0.154-0.285,1.727-1.094,1.684-1.118
			c-0.045-0.023,1.189,2.128,1.307,1.914c0.115-0.214,1.793-1.427,1.793-1.427l-0.732-0.863l1.75-1.174l2.213,0.188L91.75,69.177z"
			/>
		<path fill="#F8F3BA" d="M89.339,81.927L89.28,78.47l0.934-1.711l2.508-1.039l1.375,0.193l1.549-0.637l2.801,0.971l1.285,0.7
			l0.695,1.952l0.357,2.23l1.234,1.133c0,0-0.922,1.351-1.096,1.162c-0.176-0.188-3.365,1.591-3.365,1.591s-1.59-0.312-1.764-0.499
			c-0.176-0.188-1.311-0.991-1.311-0.991L91.55,83.13L89.339,81.927z"/>
		<path fill="#CE7E29" d="M98.093,79.107l-0.953,1.748c0,0-1.465-0.197-1.686-0.131c-0.221,0.064-1.285-0.701-1.285-0.701
			l-0.445-1.729l0.658-1.208l2.01,0.725L98.093,79.107z"/>
		<path fill="#CE7E29" d="M95.565,94.107l-1.283,1.338l-1.49,1.038l-0.053,1.452l0.105,1.167c0,0-1.018,1.019-1.311,1.044
			c-0.291,0.027-2.852,1.5-3.027,1.313c-0.174-0.188-1.551-1.398-1.646-1.73c-0.098-0.329-0.035-2.146-0.035-2.146l0.467-1.873
			l0.504-0.928l-0.072-1.057l-1.244,0.246l-0.609-1.257c0,0,0.4-1.077,0.66-1.214c0.26-0.137,3.242,1.723,3.242,1.723
			s1.344,0.221,1.771,0.454c0.427,0.233,1.428,0.776,1.428,0.776l2.021-0.655L95.565,94.107z"/>
		<path fill="#CE7E29" d="M84.042,96.066c0,0-1.107,0.508-1.191,0.831c-0.086,0.324-0.504,2.132-0.504,2.132l-1.414-0.31
			c0,0-1.424-2.995-0.943-3.196s2.004-0.111,2.004-0.111l0.621-1.142L84.042,96.066z"/>
		<path fill="#CE7E29" d="M80.062,83.164c0.02,0.474-1.777,1.901-1.906,1.461c-0.129-0.442-0.664-2.86-0.664-2.86l-1.674,0.355
			c0,0-2.322-0.829-2.068-1.126c0.254-0.297,0.842-1.551,0.842-1.551l2.133-0.411c0,0,1.883,1.026,2.098,1.143
			C79.034,80.292,80.062,83.164,80.062,83.164z"/>
		<path fill="#CE7E29" d="M72.464,89.295c-0.213-0.116,0.738-1.354,0.738-1.354l1.553-0.103l0.42-1.338l-0.707-1.108L73.07,85.74
			l-1.412,0.619l0.246,1.521c0,0-1.533,1.015-1.061,0.994C71.315,88.855,72.464,89.295,72.464,89.295z"/>
		<path fill="#CE7E29" d="M89.286,68.945c-0.395-0.123-2.119,0.325-2.119,0.325l-1.357-0.737l2.566-0.547L89.286,68.945z"/>
		<path fill="#F8F3BA" d="M90.458,82.074c-0.375,0.35-3.225,5.922-3.225,5.922l-4.158-0.691l-0.348-2.039
			c0,0,1.375-4.433,1.303-4.472c-0.07-0.038,1.354-4.353,1.703-3.976c0.352,0.375,5.826,1.877,5.592,2.306
			C91.093,79.551,90.458,82.074,90.458,82.074z"/>
		<path fill="#CE7E29" d="M88.118,81.936c-0.465,0.163-0.223,2.268-1.004,1.841c-0.781-0.426-2.412-1.729-2.086-2.329
			c0.328-0.6,1.773-3.256,1.773-3.256l1.738,0.238L88.118,81.936z"/>
	</g>
</g>
</svg>
