<?xml version="1.0" encoding="utf-8"?>
<!-- Generator: Adobe Illustrator 16.0.0, SVG Export Plug-In . SVG Version: 6.00 Build 0)  -->
<!DOCTYPE svg PUBLIC "-//W3C//DTD SVG 1.1//EN" "http://www.w3.org/Graphics/SVG/1.1/DTD/svg11.dtd">
<svg version="1.1" id="Layer_1" xmlns="http://www.w3.org/2000/svg" xmlns:xlink="http://www.w3.org/1999/xlink" x="0px" y="0px"
	 width="612px" height="227.384px" viewBox="0 0 612 227.384" enable-background="new 0 0 612 227.384" xml:space="preserve">
<g>
	<path fill="#79C9AD" d="M18.961,110.292c0,0-11.458,3.431-13.567,4.439c0,0-1.779,0.712,7.831,0.527c0,0,9.892-0.527,0,1.663
		c0,0-7.622,1.21-0.552,1.235c0,0,6.863-0.394-0.348,1.535c0,0-16.494,4.703-10.586,7.033c0,0,5.907,2.664,16.315,0
		c0,0,6.775-2.552,7.186-4.328c0,0,0.409-3.636,16.162-2.706c0,0,16.597,1.629,19.41,4.054c0,0,0.281,1.537,4.5,0.982
		c0,0-9.564,4.328,0,7.324c0,0,8.158,1.554,14.346,0c0,0,3.795-1.443,3.867-2.663c0,0,3.447-1.998,6.541-2.22
		c0,0,2.039-0.36,2.25,0.638c0,0,0.844,5.243,10.76,8.156c0,0,1.145,0.416,1.417,1.249c0,0-1.627,6.491,2.17,4.411
		c0,0,1.055-1.749,1.899-0.333c0,0-2.954,2.413-1.055,3.412c0,0,4.008,2.663,7.595,1.249c0,0,2.743-0.75,2.321-2.997
		c0,0-2.444-1.914,0.044-3.578c0,0,1.116-0.208,1.116,0.291c0,0,1.372,1.207,2.11-0.624c0,0,0.95-0.791,1.16,0.499
		c0,0,1.477,1.706,2.849-0.125c0,0,1.372-1.041,1.583,0.083c0,0-0.844,1.54,2.004,1.458c0,0,0.632-0.042,1.054,0.582
		c0,0-0.738,1.72,1.372,2.386c0,0,2.743,0.61,3.375-0.805c0,0,0-0.916-0.738-2.539c0,0-0.95-1.915,2.426-1.873
		c0,0,3.586,0.083,1.582,3.579c0,0-9.74,15.73,12.624,18.948c0,0,35.019,4.272,41.77-9.154c0,0-0.285-5.762-7.318-11.81
		c0,0-4.507-4.863,0.789-7.254c0,0,3.068-1.671,8.229,0.216c0,0,3.654,1.171,3.3-1.657c0,0,0.675-1.664,5.202-0.235
		c0,0,4.427,1.819,4.287,4.039c0,0,0.142,0.916,0.774-0.083c0,0,0.632-2.165-1.125-3.08c0,0-2.18-1.692,3.375-0.526
		c0,0,9.74,4.064,12.693,6.644c0,0,3.798,2.997,12.342,3.205c0,0,10.654,0.208,13.081-3.579c0,0,1.582-3.412-1.055-6.034
		c0,0-1.793-2.122,0.738-1.332c0,0,0.625,0.416,0.787,0.957c0,0,0.69,0.874,1.429-0.458c0,0,0.633-0.916-1.372-2.039
		c0,0-0.971-0.874,1.466-1.623c0,0,0.854-0.291,0.538-1.124c0,0-1.899-5.611-11.287-8.152l2.492-0.275
		c0,0,11.116,2.497,15.898,5.864c0,0,1.688,0.982,0,1.981c0,0-1.313,0.444,0.75,1.109c0,0,2.625,1.11,4.033,2.053
		c0,0,0.422,0.888,0.985,1.608c0,0,1.688,0.611,1.828-0.443c0,0,0.281-0.888,1.406-0.167c0,0,2.392,1.443,2.251-0.277
		c0,0-0.422-2.552-3.376-3.718c0,0-2.954-0.888,0.14-1.387c0,0,1.913,0.118,1.548,1.11c0,0-0.844,0.943,3.797,1.72
		c0,0,1.969,0.555,1.688,1.554c0,0-0.563,1.11,2.391,0.5c0,0,0.984,0,0-1.166c0,0-2.672-2.275-5.625-3.828
		c0,0-1.688-0.833-1.829-1.499c0,0-2.105-3.587-11.813-5.483c0,0,13.501,2.265,15.329,3.43c0,0,4.356,2.386,8.296,2.275
		c0,0,3.519,0.222,3.941,1.276c0,0,0,0.655,2.25,0.883c0,0,3.375,0.039,0-1.532c0,0-5.626-3.013-9.846-3.624
		c0,0-0.492-8.091-8.698-8.61"/>
	<path fill="#79C9AD" d="M45.335,130.748c0,0-0.912-3.789,7.769-3.264c0,0,2.015,0.433,4.945,0.811c0,0-3.407,2.985-6.539,3.996
		C51.51,132.291,45.032,132.161,45.335,130.748z"/>
	<path fill="#79C9AD" d="M77.068,135.729c0,0-3.208,2.349-1.326,2.999c0,0,2.532,2.391-2.203,1.622c0,0-4.638-0.747-0.995-2.312
		c0,0,0.987-1.496-1.654-1.396c0,0-1.61-1.434,1.788-1.315C72.678,135.327,76.298,136.094,77.068,135.729z"/>
	<path fill="#79C9AD" d="M199.48,139.655c0,0,7.357-1.412,7.667,1.329c0,0-1.552,1.605,0,3.086c0,0-6.642-0.072-7.667-1.351
		C199.48,142.719,197.425,139.933,199.48,139.655z"/>
	<path fill="#79C9AD" d="M109.354,151.24c0,0,9.655-2.121,6.235,3.359c0,0-5.028,0.795-6.235-0.619
		C109.354,153.98,108.348,152.301,109.354,151.24z"/>
	<path fill="#79C9AD" d="M238.924,145.401c0,0,4.482-0.93,6.096,2.872c0,0,2.831,4.103-2.879,2.54
		C242.141,150.813,238.047,146.999,238.924,145.401z"/>
	<rect x="0.461" y="38.667" fill="#79C9AD" width="612" height="74.707"/>
	<path fill="#79C9AD" d="M345.343,112.33c0,0-11.881,0.173-13.99,1.182c0,0-1.779,0.712,7.83,0.527c0,0,9.893-0.527,0,1.664
		c0,0-7.621,1.21-0.552,1.234c0,0,6.863-0.394-0.349,1.535c0,0-16.494,4.703-10.586,7.034c0,0,5.907,2.663,16.315,0
		c0,0,6.775-2.553,7.186-4.328c0,0,0.409-3.636,16.161-2.706c0,0,16.598,1.629,19.41,4.054c0,0,0.281,1.536,4.501,0.982
		c0,0-9.563,4.328,0,7.324c0,0,8.157,1.554,14.347,0c0,0,3.795-1.442,3.866-2.663c0,0,3.446-1.998,6.541-2.22
		c0,0,2.038-0.36,2.249,0.638c0,0,0.845,5.244,10.76,8.157c0,0,1.146,0.416,1.417,1.248c0,0-1.628,6.492,2.17,4.411
		c0,0,1.055-1.748,1.899-0.333c0,0-2.954,2.414-1.055,3.413c0,0,4.008,2.663,7.594,1.248c0,0,2.743-0.749,2.321-2.996
		c0,0-2.444-1.915,0.044-3.579c0,0,1.116-0.208,1.116,0.291c0,0,1.372,1.207,2.11-0.624c0,0,0.949-0.791,1.159,0.5
		c0,0,1.478,1.706,2.849-0.125c0,0,1.371-1.041,1.582,0.083c0,0-0.844,1.54,2.005,1.457c0,0,0.632-0.042,1.054,0.582
		c0,0-0.737,1.72,1.373,2.386c0,0,2.742,0.61,3.375-0.805c0,0,0-0.916-0.738-2.539c0,0-0.949-1.915,2.426-1.873
		c0,0,3.587,0.083,1.582,3.579c0,0-9.739,15.729,12.624,18.947c0,0,35.019,4.272,41.771-9.154c0,0-0.285-5.762-7.318-11.81
		c0,0-4.508-4.862,0.789-7.253c0,0,3.068-1.671,8.229,0.215c0,0,3.654,1.172,3.301-1.657c0,0,0.674-1.664,5.201-0.236
		c0,0,4.427,1.819,4.287,4.04c0,0,0.142,0.916,0.773-0.083c0,0,0.633-2.164-1.125-3.08c0,0-2.18-1.691,3.376-0.526
		c0,0,9.739,4.064,12.693,6.644c0,0,3.798,2.996,12.342,3.204c0,0,10.654,0.208,13.081-3.579c0,0,1.582-3.412-1.055-6.034
		c0,0-1.794-2.122,0.738-1.331c0,0,0.624,0.416,0.786,0.957c0,0,0.69,0.874,1.429-0.458c0,0,0.633-0.916-1.371-2.039
		c0,0-0.971-0.874,1.466-1.623c0,0,0.854-0.291,0.538-1.124c0,0-1.898-5.61-11.287-8.152l2.492-0.275c0,0,11.115,2.496,15.897,5.864
		c0,0,1.688,0.982,0,1.98c0,0-1.313,0.444,0.75,1.109c0,0,2.626,1.11,4.032,2.053c0,0,0.422,0.888,0.985,1.609
		c0,0,1.688,0.61,1.827-0.444c0,0,0.281-0.888,1.406-0.167c0,0,2.393,1.443,2.252-0.277c0,0-0.422-2.552-3.376-3.717
		c0,0-2.954-0.888,0.14-1.387c0,0,1.913,0.117,1.549,1.11c0,0-0.844,0.943,3.797,1.72c0,0,1.969,0.555,1.688,1.554
		c0,0-0.563,1.11,2.391,0.5c0,0,0.984,0,0-1.165c0,0-2.672-2.275-5.625-3.829c0,0-1.688-0.832-1.829-1.499
		c0,0-2.104-3.587-11.813-5.483c0,0,13.501,2.265,15.329,3.43c0,0,4.355,2.386,8.296,2.275c0,0,3.519,0.222,3.94,1.276
		c0,0,0,0.655,2.25,0.883c0,0,3.375,0.039,0-1.531c0,0-5.625-3.013-9.846-3.624c0,0-0.491-8.091-8.697-8.61"/>
	<path fill="#79C9AD" d="M564.881,147.116c0,0,4.482-0.93,6.096,2.872c0,0,2.831,4.103-2.879,2.54
		C568.098,152.527,564.004,148.713,564.881,147.116z"/>
	<path fill="#79C9AD" d="M162.407,96.968c0,0-11.881,0.173-13.99,1.182c0,0-1.779,0.712,7.83,0.527c0,0,9.893-0.527,0,1.664
		c0,0-7.621,1.21-0.552,1.234c0,0,6.863-0.394-0.349,1.535c0,0-16.494,4.704-10.586,7.034c0,0,5.907,2.663,16.315,0
		c0,0,6.775-2.552,7.186-4.328c0,0,0.409-3.636,16.161-2.706c0,0,16.598,1.629,19.41,4.054c0,0,0.281,1.537,4.501,0.982
		c0,0-9.563,4.328,0,7.324c0,0,8.157,1.553,14.347,0c0,0,3.795-1.443,3.866-2.664c0,0,3.446-1.997,6.541-2.219
		c0,0,2.038-0.361,2.249,0.638c0,0,0.845,5.243,10.76,8.156c0,0,1.146,0.416,1.417,1.249c0,0-1.628,6.491,2.17,4.411
		c0,0,1.055-1.749,1.899-0.333c0,0-2.954,2.413-1.055,3.412c0,0,4.008,2.663,7.594,1.249c0,0,2.743-0.749,2.321-2.997
		c0,0-2.444-1.915,0.044-3.579c0,0,1.116-0.208,1.116,0.292c0,0,1.372,1.207,2.11-0.624c0,0,0.949-0.791,1.159,0.499
		c0,0,1.478,1.706,2.849-0.125c0,0,1.371-1.04,1.582,0.083c0,0-0.844,1.539,2.005,1.457c0,0,0.632-0.042,1.054,0.583
		c0,0-0.737,1.72,1.373,2.386c0,0,2.742,0.61,3.375-0.805c0,0,0-0.916-0.738-2.539c0,0-0.949-1.914,2.426-1.873
		c0,0,3.587,0.083,1.582,3.579c0,0-9.739,15.729,12.624,18.948c0,0,35.019,4.272,41.771-9.155c0,0-0.285-5.762-7.318-11.81
		c0,0-4.508-4.862,0.789-7.253c0,0,3.068-1.671,8.229,0.216c0,0,3.654,1.171,3.301-1.657c0,0,0.674-1.664,5.201-0.236
		c0,0,4.427,1.82,4.287,4.04c0,0,0.142,0.916,0.773-0.083c0,0,0.633-2.165-1.125-3.08c0,0-2.18-1.692,3.376-0.527
		c0,0,9.739,4.064,12.693,6.645c0,0,3.798,2.996,12.342,3.204c0,0,10.654,0.208,13.081-3.579c0,0,1.582-3.412-1.055-6.034
		c0,0-1.794-2.123,0.738-1.332c0,0,0.624,0.416,0.786,0.957c0,0,0.69,0.874,1.429-0.458c0,0,0.633-0.916-1.371-2.039
		c0,0-0.971-0.874,1.466-1.623c0,0,0.854-0.292,0.538-1.124c0,0-1.898-5.61-11.287-8.152l2.492-0.275c0,0,11.115,2.496,15.897,5.864
		c0,0,1.688,0.982,0,1.981c0,0-1.313,0.444,0.75,1.109c0,0,2.626,1.11,4.032,2.053c0,0,0.422,0.888,0.985,1.609
		c0,0,1.688,0.61,1.827-0.444c0,0,0.281-0.887,1.406-0.167c0,0,2.393,1.443,2.252-0.277c0,0-0.422-2.552-3.376-3.718
		c0,0-2.954-0.888,0.14-1.387c0,0,1.913,0.118,1.549,1.11c0,0-0.844,0.943,3.797,1.72c0,0,1.969,0.555,1.688,1.554
		c0,0-0.563,1.11,2.391,0.499c0,0,0.984,0,0-1.165c0,0-2.672-2.275-5.625-3.828c0,0-1.688-0.833-1.829-1.499
		c0,0-2.104-3.587-11.813-5.483c0,0,13.501,2.265,15.329,3.43c0,0,4.355,2.386,8.296,2.275c0,0,3.519,0.222,3.94,1.276
		c0,0,0,0.655,2.25,0.882c0,0,3.375,0.04,0-1.531c0,0-5.625-3.013-9.846-3.623c0,0-0.491-8.092-8.697-8.611"/>
</g>
<g>
	<path fill="#EF4B6D" d="M189.837,97.454c6.168,0.39,12.196,3.233,12.196,3.233c3.277,0.659,8.328,4.471,8.328,4.471
		c2.957,1.97,0.474,2.042,0.474,2.042c-1.718-0.22-1.921-1.094-1.921-1.094c-0.635-1.392-3.278-1.557-3.278-1.557
		c-2.85,0.293-6.778-2.729-6.778-2.729c-1.698-1.487-12.282-4.011-12.282-4.011c7.693,2.172,10.345,6.879,10.345,6.879
		c0.31,0.883,1.801,1.932,1.801,1.932c2.644,1.962,5.304,4.899,5.304,4.899c1.081,1.518,0.361,1.554,0.361,1.554
		c-1.972,0.923-1.903-0.578-1.903-0.578c-0.104-1.344-1.716-2.01-1.716-2.01c-3.639-0.866-3.313-2.155-3.313-2.155
		c-0.041-1.336-1.477-1.423-1.477-1.423c-2.111,0.781,0.327,1.856,0.327,1.856c2.522,1.445,3.623,4.835,3.623,4.835
		c0.635,2.289-1.562,0.452-1.562,0.452c-1.048-0.92-0.979,0.274-0.979,0.274c0.224,1.411-1.201,0.66-1.201,0.66
		c-0.635-0.941-1.22-2.11-1.22-2.11c-1.321-1.208-3.587-2.591-3.587-2.591c-1.716-0.813-0.892-1.453-0.892-1.453
		c0.926-1.394-0.614-2.642-0.614-2.642c-4.543-4.316-13.454-7.237-13.454-7.237l-1.74,0.459c7.66,3.045,10.788,10.459,10.788,10.459
		c0.489,1.099-0.046,1.519-0.046,1.519c-1.553,1.089-0.571,2.219-0.571,2.219c1.815,1.425,1.635,2.67,1.635,2.67
		c-0.129,1.804-0.904,0.663-0.904,0.663c-0.286-0.716-0.873-1.247-0.873-1.247c-2.098-0.962-0.128,1.803-0.128,1.803
		c2.743,3.4,2.642,8.01,2.642,8.01c-0.604,5.142-8.467,5.256-8.467,5.256c-6.319,0.037-10.027-3.819-10.027-3.819
		c-2.959-3.333-11.349-8.396-11.349-8.396c-4.427-1.35-2.308,0.827-2.308,0.827c1.571,1.157,1.776,4.067,1.776,4.067
		c-0.152,1.355-0.541,0.139-0.541,0.139c-0.583-2.966-5.844-7.681-5.844-7.681c-2.729-2.67-3.874-0.198-3.874-0.198
		c-0.591,2.164-3.757,1.313-3.757,1.313c-2.831-0.756-4.011,1.233-4.011,1.233c-1.766,5.403,3.452,10.833,3.452,10.833
		c7.021,7.808,8.602,17.312,8.602,17.312c-0.783,18.16-27.741,13.75-27.741,13.75c-17.368-3.469-15.108-24.81-15.108-24.81
		c0.384-4.738-2.268-4.716-2.268-4.716c-2.482,0.069-1.195,2.587-1.195,2.587c1.043,2.138,1.327,3.358,1.327,3.358
		c-0.025,1.911-2.221,1.197-2.221,1.197c-1.751-0.81-1.743-3.131-1.743-3.131c-0.501-0.817-0.953-0.739-0.953-0.739
		c-2.059,0.216-1.919-1.869-1.919-1.869c-0.502-1.491-1.183-0.053-1.183-0.053c-0.438,2.493-2.047,0.272-2.047,0.272
		c-0.552-1.714-1.003-0.624-1.003-0.624c0.027,2.47-1.351,0.91-1.351,0.91c-0.154-0.666-0.907-0.348-0.907-0.348
		c-1.306,2.312,1.077,4.776,1.077,4.776c1.004,2.982-0.771,4.082-0.771,4.082c-2.187,2.02-5.947-1.385-5.947-1.385
		c-1.7-1.263-0.284-4.591-0.284-4.591c-1.056-1.857-1.288,0.514-1.288,0.514c-2.135,2.915-2.954-5.804-2.954-5.804
		c-0.456-1.1-1.424-1.613-1.424-1.613c-8.161-3.521-10.401-10.483-10.401-10.483c-0.464-1.326-1.845-0.769-1.845-0.769
		c-2.196,0.41-4.101,3.201-4.101,3.201c0.326,1.631-2.005,3.695-2.005,3.695c-4.05,2.3-10.502,0.528-10.502,0.528
		c-7.929-3.645-2.268-9.77-2.268-9.77c-2.917,0.895-3.598-1.144-3.598-1.144c-2.812-3.131-15.464-4.693-15.464-4.693
		c-11.818-0.661-10.992,4.204-10.992,4.204c0.249,2.383-3.919,6.038-3.919,6.038c-6.794,3.936-11.944,0.601-11.944,0.601
		c-5.045-2.891,5.572-9.772,5.572-9.772c4.681-2.839-0.222-2.061-0.222-2.061c-5.182,0.228,0.023-1.667,0.023-1.667
		c6.564-3.287-0.515-2.219-0.515-2.219c-6.978,0.601-5.895-0.415-5.895-0.415c1.231-1.422,9.874-2.091,9.874-2.091"/>
	<path fill="#EF4B6D" d="M593.595,105.908c5.743,1.327,9.608,4.878,9.608,4.878c2.73,1.119,4.957,5.404,4.957,5.404
		c1.488,2.271-0.985,1.946-0.985,1.946c-1.52-0.472-1.098-1.305-1.098-1.305c0.365-1.374-2.096-1.941-2.096-1.941
		c-2.989-0.179-4.679-3.565-4.679-3.565c-0.604-1.629-9.143-5.604-9.143-5.604c5.969,3.198,5.218,7.928,5.218,7.928
		c-0.324,0.857,0.388,2.052,0.388,2.052c1.188,2.213,1.701,5.322,1.701,5.322c-0.021,1.56-0.75,1.48-0.75,1.48
		c-2.578,0.535-1.448-0.829-1.448-0.829c0.852-1.247-0.249-2.112-0.249-2.112c-2.938-1.365-1.704-2.494-1.704-2.494
		c0.907-1.231-0.433-1.537-0.433-1.537c-2.613,0.384-0.996,1.752-0.996,1.752c1.437,1.72,0.104,4.998,0.104,4.998
		c-1.001,2.197-1.845,0.169-1.845,0.169c-0.368-1.008-1.146,0.098-1.146,0.098c-0.783,1.328-1.641,0.416-1.641,0.416
		c0.047-0.962,0.305-2.125,0.305-2.125c-0.432-1.313-1.662-2.937-1.662-2.937c-1.099-1.014,0.16-1.471,0.16-1.471
		c1.892-1.131,1.273-2.517,1.273-2.517c-1.372-4.668-7.996-8.744-7.996-8.744l-2.023,0.147c5.316,3.993,3.11,11.277,3.11,11.277
		c-0.303,1.083-1.121,1.384-1.121,1.384c-2.289,0.754-2.132,1.943-2.132,1.943c0.762,1.591-0.297,2.703-0.297,2.703
		c-1.404,1.632-1.352,0.465-1.352,0.465c0.229-0.7,0.032-1.279,0.032-1.279c-1.365-1.211-1.403,1.632-1.403,1.632
		c0.264,3.546-3.103,7.753-3.103,7.753c-4.235,4.615-11.99,3.485-11.99,3.485c-6.193-0.959-7.077-5.075-7.077-5.075
		c-0.525-3.519-5.122-9.474-5.122-9.474c-3.363-1.932-2.838,0.395-2.838,0.395c0.713,1.307-1.151,4.005-1.151,4.005
		c-1.11,1.218-0.626,0.042-0.626,0.042c1.534-2.809-0.256-7.955-0.256-7.955c-0.77-2.875-3.64-0.79-3.64-0.79
		c-2.113,1.89-4.599,0.611-4.599,0.611c-2.226-1.137-4.789,0.5-4.789,0.5c-5.556,4.674-4.313,10.467-4.313,10.467
		c1.315,8.257-3.882,17.212-3.882,17.212c-13.643,16.514-36.824,8.239-36.824,8.239c-14.489-5.907,2.851-25.104,2.851-25.104
		c3.734-4.28,1.131-4.676,1.131-4.676c-2.471-0.328-3.001,2.182-3.001,2.182c-0.498,2.122-1.087,3.285-1.087,3.285
		c-1.379,1.747-3.018,0.749-3.018,0.749c-1.135-1.018,0.52-3.143,0.52-3.143c0.092-0.828-0.406-0.827-0.406-0.827
		c-2.161-0.125-0.546-2.014-0.546-2.014c0.567-1.444-1.118-0.234-1.118-0.234c-2.194,2.216-2.188-0.072-2.188-0.072
		c0.675-1.656-0.539-0.729-0.539-0.729c-1.725,2.267-1.962,0.621-1.962,0.621c0.322-0.634-0.639-0.46-0.639-0.46
		c-2.916,1.913-2.338,4.544-2.338,4.544c-1.135,2.89-3.646,3.619-3.646,3.619c-3.566,1.506-4.822-2.203-4.822-2.203
		c-0.763-1.424,2.979-4.251,2.979-4.251c0.286-1.867-1.621,0.268-1.621,0.268c-4.15,2.336,1.233-5.781,1.233-5.781
		c0.337-1.079-0.245-1.702-0.245-1.702c-5.469-4.508-2.715-11.239-2.715-11.239c0.485-1.287-1.256-0.993-1.256-0.993
		c-2.434,0.03-6.273,2.288-6.273,2.288c-0.838,1.545-4.576,3.07-4.576,3.07c-5.585,1.471-10.624-1.166-10.624-1.166
		c-5.153-4.585,4.714-9.307,4.714-9.307c-3.48,0.362-2.7-1.614-2.7-1.614c-0.522-3.31-11.764-6.729-11.764-6.729
		c-11.063-2.463-13.708,2.125-13.708,2.125c-1.448,2.223-8.105,4.916-8.105,4.916c-9.424,2.538-12.082-1.326-12.082-1.326
		c-2.875-3.441,12.366-8.077,12.366-8.077c6.582-1.866,1.246-1.923,1.246-1.923c-5.219-0.605,1.204-1.523,1.204-1.523
		c8.736-1.98,1.071-2.114,1.071-2.114c-7.237-0.546-5.46-1.307-5.46-1.307c2.211-1.109,11.119-0.364,11.119-0.364"/>
	<path fill="#EF4B6D" d="M423.198,93.921c10.258,0.528,19.318,2.899,19.318,2.899c5.271,0.621,12.303,3.685,12.303,3.685
		c4.219,1.597,0,1.558,0,1.558c-2.813-0.231-2.813-0.898-2.813-0.898c-0.529-1.072-4.924-1.297-4.924-1.297
		c-4.926,0.113-10.369-2.314-10.369-2.314c-2.283-1.185-19.156-3.488-19.156-3.488c12.133,1.928,14.764,5.577,14.764,5.577
		c0.174,0.677,2.283,1.524,2.283,1.524c3.693,1.579,7.031,3.894,7.031,3.894c1.229,1.184,0,1.184,0,1.184
		c-3.689,0.621-2.986-0.507-2.986-0.507c0.352-1.016-2.109-1.58-2.109-1.58c-5.803-0.79-4.748-1.75-4.748-1.75
		c0.457-1.009-1.936-1.129-1.936-1.129c-3.865,0.508-0.174,1.411-0.174,1.411c3.689,1.185,4.219,3.781,4.219,3.781
		c0.178,1.749-2.813,0.282-2.813,0.282c-1.406-0.733-1.758,0.169-1.758,0.169c-0.174,1.072-2.285,0.452-2.285,0.452
		c-0.703-0.733-1.232-1.637-1.232-1.637c-1.754-0.959-5.037-2.088-5.037-2.088c-2.578-0.677-0.936-1.129-0.936-1.129
		c2.109-1.015,0-2.014,0-2.014c-5.977-3.425-19.871-5.964-19.871-5.964l-3.115,0.279c11.734,2.585,14.107,8.292,14.107,8.292
		c0.393,0.847-0.672,1.143-0.672,1.143c-3.049,0.762-1.834,1.651-1.834,1.651c2.506,1.143,1.713,2.073,1.713,2.073
		c-0.924,1.354-1.783,0.466-1.783,0.466c-0.201-0.55-0.984-0.973-0.984-0.973c-3.164-0.804-0.922,1.354-0.922,1.354
		c3.295,2.667,1.318,6.136,1.318,6.136c-3.035,3.852-16.348,3.64-16.348,3.64c-10.682-0.212-15.43-3.259-15.43-3.259
		c-3.689-2.624-15.863-6.757-15.863-6.757c-6.939-1.185-4.219,0.535-4.219,0.535c2.199,0.932,1.406,3.132,1.406,3.132
		c-0.789,1.016-0.967,0.085-0.967,0.085c0.178-2.257-6.854-6.01-6.854-6.01c-3.561-2.116-6.459-0.296-6.459-0.296
		c-1.85,1.608-6.857,0.846-6.857,0.846c-4.482-0.677-7.254,0.777-7.254,0.777c-5.098,4.005,1.58,8.294,1.58,8.294
		c8.793,6.15,7.738,13.373,7.738,13.373c-8.441,13.656-52.208,9.311-52.208,9.311c-27.951-3.272-15.776-19.27-15.776-19.27
		c2.506-3.556-1.979-3.64-1.979-3.64c-4.216-0.042-3.031,1.904-3.031,1.904c0.924,1.65,0.924,2.582,0.924,2.582
		c-0.791,1.439-4.218,0.818-4.218,0.818c-2.639-0.678-1.716-2.427-1.716-2.427c-0.525-0.635-1.319-0.593-1.319-0.593
		c-3.557,0.085-2.504-1.481-2.504-1.481c-0.263-1.142-1.978-0.085-1.978-0.085c-1.714,1.863-3.561,0.128-3.561,0.128
		c-0.261-1.312-1.449-0.508-1.449-0.508c-0.922,1.862-2.635,0.634-2.635,0.634c0-0.507-1.396-0.296-1.396-0.296
		c-3.111,1.693-0.056,3.64-0.056,3.64c0.525,2.285-2.899,3.047-2.899,3.047c-4.482,1.439-9.495-1.269-9.495-1.269
		c-2.373-1.016,1.319-3.471,1.319-3.471c-1.055-1.439-2.374,0.339-2.374,0.339c-4.745,2.116-2.711-4.486-2.711-4.486
		c-0.338-0.846-1.771-1.27-1.771-1.27c-12.394-2.962-13.445-8.294-13.445-8.294c-0.265-1.016-2.813-0.649-2.813-0.649
		c-3.867,0.225-8.175,2.256-8.175,2.256c-0.091,1.242-4.833,2.709-4.833,2.709c-7.737,1.58-17.931,0-17.931,0
		c-11.954-3.047,0-7.448,0-7.448c-5.273,0.564-5.625-0.999-5.625-0.999c-3.517-2.466-24.261-4.123-24.261-4.123
		c-19.686-0.946-20.197,2.752-20.197,2.752c-0.515,1.806-8.979,4.401-8.979,4.401c-13.01,2.708-20.392,0-20.392,0
		c-7.384-2.37,13.229-7.153,13.229-7.153c9.015-1.962,0.436-1.562,0.436-1.562c-8.833-0.024,0.692-1.255,0.692-1.255
		c12.364-2.229,0-1.692,0-1.692c-12.015,0.188-9.787-0.536-9.787-0.536c2.635-1.025,17.482-1.202,17.482-1.202"/>
	<polygon fill="#EF4B6D" points="625,106.791 300.5,97.454 -14.5,106.791 -14.5,38.667 625,38.667 	"/>
</g>
<g>
	<path fill="#333333" d="M24.544,88.61c-6.168,0.39-12.196,3.233-12.196,3.233c-3.277,0.659-8.328,4.471-8.328,4.471
		c-2.957,1.97-0.474,2.042-0.474,2.042c1.718-0.221,1.921-1.094,1.921-1.094c0.635-1.392,3.278-1.557,3.278-1.557
		c2.85,0.293,6.778-2.729,6.778-2.729c1.698-1.487,12.282-4.011,12.282-4.011c-7.693,2.172-10.345,6.879-10.345,6.879
		c-0.31,0.883-1.801,1.932-1.801,1.932c-2.644,1.962-5.304,4.899-5.304,4.899c-1.081,1.518-0.361,1.554-0.361,1.554
		c1.972,0.923,1.903-0.578,1.903-0.578c0.104-1.344,1.716-2.011,1.716-2.011c3.639-0.866,3.313-2.155,3.313-2.155
		c0.041-1.336,1.477-1.423,1.477-1.423c2.111,0.781-0.327,1.856-0.327,1.856c-2.522,1.445-3.623,4.835-3.623,4.835
		c-0.635,2.289,1.562,0.452,1.562,0.452c1.048-0.92,0.979,0.274,0.979,0.274c-0.224,1.411,1.201,0.66,1.201,0.66
		c0.635-0.941,1.22-2.11,1.22-2.11c1.321-1.208,3.587-2.591,3.587-2.591c1.716-0.813,0.892-1.453,0.892-1.453
		c-0.926-1.394,0.614-2.642,0.614-2.642c4.543-4.316,13.454-7.237,13.454-7.237l1.74,0.459c-7.66,3.045-10.788,10.459-10.788,10.459
		c-0.489,1.099,0.046,1.519,0.046,1.519c1.553,1.089,0.571,2.219,0.571,2.219c-1.815,1.425-1.635,2.67-1.635,2.67
		c0.129,1.804,0.904,0.663,0.904,0.663c0.286-0.715,0.873-1.247,0.873-1.247c2.098-0.962,0.128,1.803,0.128,1.803
		c-2.743,3.4-2.642,8.01-2.642,8.01c0.604,5.142,8.467,5.256,8.467,5.256c6.319,0.037,10.027-3.819,10.027-3.819
		c2.959-3.333,11.349-8.396,11.349-8.396c4.427-1.35,2.308,0.827,2.308,0.827c-1.571,1.157-1.776,4.067-1.776,4.067
		c0.152,1.355,0.541,0.139,0.541,0.139c0.583-2.966,5.844-7.681,5.844-7.681c2.729-2.67,3.874-0.198,3.874-0.198
		c0.591,2.164,3.757,1.313,3.757,1.313c2.831-0.756,4.011,1.233,4.011,1.233c1.766,5.403-3.452,10.833-3.452,10.833
		c-7.021,7.808-8.602,17.313-8.602,17.313c0.783,18.16,27.741,13.75,27.741,13.75c17.368-3.469,15.108-24.81,15.108-24.81
		c-0.384-4.738,2.268-4.716,2.268-4.716c2.482,0.069,1.195,2.587,1.195,2.587c-1.043,2.137-1.327,3.358-1.327,3.358
		c0.025,1.911,2.221,1.197,2.221,1.197c1.751-0.81,1.743-3.131,1.743-3.131c0.501-0.817,0.953-0.739,0.953-0.739
		c2.059,0.216,1.919-1.869,1.919-1.869c0.502-1.491,1.183-0.053,1.183-0.053c0.438,2.494,2.047,0.273,2.047,0.273
		c0.552-1.714,1.003-0.624,1.003-0.624c-0.027,2.47,1.351,0.91,1.351,0.91c0.154-0.666,0.907-0.348,0.907-0.348
		c1.306,2.312-1.077,4.776-1.077,4.776c-1.004,2.982,0.771,4.082,0.771,4.082c2.187,2.02,5.947-1.385,5.947-1.385
		c1.7-1.263,0.284-4.591,0.284-4.591c1.056-1.857,1.288,0.514,1.288,0.514c2.135,2.915,2.954-5.804,2.954-5.804
		c0.456-1.1,1.424-1.613,1.424-1.613c8.161-3.521,10.401-10.483,10.401-10.483c0.464-1.326,1.845-0.769,1.845-0.769
		c2.196,0.41,4.101,3.201,4.101,3.201c-0.326,1.631,2.005,3.695,2.005,3.695c4.05,2.3,10.502,0.528,10.502,0.528
		c7.929-3.645,2.268-9.77,2.268-9.77c2.917,0.895,3.598-1.144,3.598-1.144c2.812-3.131,15.464-4.693,15.464-4.693
		c11.818-0.661,10.992,4.204,10.992,4.204c-0.249,2.383,3.919,6.038,3.919,6.038c6.794,3.936,11.944,0.601,11.944,0.601
		c5.045-2.891-5.572-9.772-5.572-9.772c-4.681-2.839,0.222-2.061,0.222-2.061c5.182,0.228-0.023-1.667-0.023-1.667
		c-6.564-3.287,0.515-2.219,0.515-2.219c6.978,0.601,5.895-0.415,5.895-0.415c-1.231-1.422-9.874-2.091-9.874-2.091"/>
	<path fill="#333333" d="M418.406,87.349c-6.302,0.551-12.094,3.48-12.094,3.48c-3.28,0.731-7.925,4.574-7.925,4.574
		c-2.757,1.997-0.187,1.998-0.187,1.998c1.737-0.262,1.817-1.117,1.817-1.117c0.45-1.369,3.149-1.604,3.149-1.604
		c2.981,0.205,6.584-2.84,6.584-2.84c1.531-1.491,12.069-4.237,12.069-4.237c-7.611,2.324-9.648,6.97-9.648,6.97
		c-0.188,0.867-1.57,1.927-1.57,1.927c-2.436,1.98-4.743,4.907-4.743,4.907c-0.891,1.504-0.143,1.52-0.143,1.52
		c2.169,0.841,1.878-0.614,1.878-0.614c-0.092-1.308,1.472-2.001,1.472-2.001c3.623-0.942,3.096-2.185,3.096-2.185
		c-0.154-1.3,1.313-1.424,1.313-1.424c2.291,0.7-0.063,1.812-0.063,1.812c-2.386,1.474-3.018,4.797-3.018,4.797
		c-0.318,2.241,1.677,0.396,1.677,0.396c0.942-0.923,1.047,0.239,1.047,0.239c-0.021,1.377,1.336,0.607,1.336,0.607
		c0.517-0.932,0.947-2.083,0.947-2.083c1.182-1.209,3.313-2.617,3.313-2.617c1.648-0.836,0.704-1.436,0.704-1.436
		c-1.16-1.328,0.243-2.583,0.243-2.583c4.045-4.32,12.798-7.404,12.798-7.404l1.861,0.397c-7.446,3.17-9.574,10.46-9.574,10.46
		c-0.341,1.081,0.271,1.474,0.271,1.474c1.764,1.015,0.918,2.14,0.918,2.14c-1.661,1.435-1.291,2.639-1.291,2.639
		c0.398,1.749,1.028,0.619,1.028,0.619c0.189-0.703,0.716-1.236,0.716-1.236c2.021-0.992,0.398,1.749,0.398,1.749
		c-2.322,3.379-1.538,7.854-1.538,7.854c1.383,4.978,9.506,4.87,9.506,4.87c6.52-0.14,9.772-3.989,9.772-3.989
		c2.559-3.32,10.458-8.471,10.458-8.471c4.364-1.434,2.501,0.739,2.501,0.739c-1.448,1.167-1.229,4-1.229,4
		c0.357,1.313,0.577,0.121,0.577,0.121c0.163-2.897,4.888-7.624,4.888-7.624c2.419-2.67,3.965-0.3,3.965-0.3
		c0.931,2.086,4.068,1.17,4.068,1.17c2.806-0.813,4.317,1.086,4.317,1.086c2.62,5.2-1.956,10.618-1.956,10.618
		c-6.085,7.78-6.309,17.056-6.309,17.056c3.493,17.618,30.632,12.584,30.632,12.584c17.392-3.853,11.906-24.52,11.906-24.52
		c-1.097-4.591,1.641-4.644,1.641-4.644c2.568-0.002,1.614,2.479,1.614,2.479c-0.759,2.106-0.871,3.299-0.871,3.299
		c0.308,1.856,2.468,1.102,2.468,1.102c1.686-0.836,1.334-3.09,1.334-3.09c0.395-0.808,0.873-0.744,0.873-0.744
		c2.153,0.153,1.701-1.869,1.701-1.869c0.297-1.462,1.213-0.084,1.213-0.084c0.818,2.41,2.147,0.208,2.147,0.208
		c0.317-1.68,0.944-0.634,0.944-0.634c0.337,2.399,1.525,0.846,1.525,0.846c0.061-0.651,0.884-0.363,0.884-0.363
		c1.69,2.21-0.401,4.669-0.401,4.669c-0.595,2.924,1.397,3.944,1.397,3.944c2.553,1.9,5.927-1.511,5.927-1.511
		c1.564-1.274-0.386-4.468-0.386-4.468c0.813-1.833,1.403,0.463,1.403,0.463c2.631,2.772,2.187-5.72,2.187-5.72
		c0.306-1.082,1.229-1.607,1.229-1.607c7.895-3.647,9.172-10.473,9.172-10.473c0.283-1.3,1.788-0.797,1.788-0.797
		c2.324,0.336,4.702,2.995,4.702,2.995c-0.096,1.593,2.612,3.533,2.612,3.533c4.517,2.122,10.905,0.221,10.905,0.221
		c7.635-3.761,0.895-9.553,0.895-9.553c3.139,0.788,3.54-1.212,3.54-1.212c2.435-3.119,15.248-4.989,15.248-4.989
		c12.085-0.971,11.953,3.778,11.953,3.778c0.097,2.322,4.933,5.756,4.933,5.756c7.588,3.634,12.401,0.251,12.401,0.251
		c4.774-2.948-7.188-9.337-7.188-9.337c-5.246-2.627-0.077-2.008-0.077-2.008c5.375,0.077-0.271-1.618-0.271-1.618
		c-7.252-3.01,0.203-2.17,0.203-2.17c7.283,0.389,6.017-0.567,6.017-0.567c-1.48-1.347-10.488-1.757-10.488-1.757"/>
	<path fill="#333333" d="M423.198,85.077c10.258,0.528,19.318,2.899,19.318,2.899c5.271,0.621,12.303,3.685,12.303,3.685
		c4.219,1.597,0,1.558,0,1.558c-2.813-0.231-2.813-0.898-2.813-0.898c-0.529-1.072-4.924-1.297-4.924-1.297
		c-4.926,0.113-10.369-2.314-10.369-2.314c-2.283-1.185-19.156-3.488-19.156-3.488c12.133,1.928,14.764,5.577,14.764,5.577
		c0.174,0.677,2.283,1.524,2.283,1.524c3.693,1.579,7.031,3.894,7.031,3.894c1.229,1.184,0,1.184,0,1.184
		c-3.689,0.621-2.986-0.507-2.986-0.507c0.352-1.016-2.109-1.58-2.109-1.58c-5.803-0.791-4.748-1.75-4.748-1.75
		c0.457-1.009-1.936-1.129-1.936-1.129c-3.865,0.508-0.174,1.411-0.174,1.411c3.689,1.185,4.219,3.781,4.219,3.781
		c0.178,1.749-2.813,0.282-2.813,0.282c-1.406-0.733-1.758,0.169-1.758,0.169c-0.174,1.072-2.285,0.452-2.285,0.452
		c-0.703-0.733-1.232-1.637-1.232-1.637c-1.754-0.959-5.037-2.088-5.037-2.088c-2.578-0.677-0.936-1.129-0.936-1.129
		c2.109-1.015,0-2.014,0-2.014c-5.977-3.425-19.871-5.964-19.871-5.964l-3.115,0.279c11.734,2.585,14.107,8.292,14.107,8.292
		c0.393,0.847-0.672,1.143-0.672,1.143c-3.049,0.762-1.834,1.651-1.834,1.651c2.506,1.143,1.713,2.073,1.713,2.073
		c-0.924,1.354-1.783,0.466-1.783,0.466c-0.201-0.55-0.984-0.973-0.984-0.973c-3.164-0.804-0.922,1.354-0.922,1.354
		c3.295,2.667,1.318,6.136,1.318,6.136c-3.035,3.852-16.348,3.64-16.348,3.64c-10.682-0.212-15.43-3.259-15.43-3.259
		c-3.689-2.624-15.863-6.757-15.863-6.757c-6.939-1.185-4.219,0.535-4.219,0.535c2.199,0.932,1.406,3.132,1.406,3.132
		c-0.789,1.016-0.967,0.085-0.967,0.085c0.178-2.257-6.854-6.01-6.854-6.01c-3.561-2.116-6.459-0.296-6.459-0.296
		c-1.85,1.608-6.857,0.846-6.857,0.846c-4.482-0.677-7.254,0.777-7.254,0.777c-5.098,4.005,1.58,8.294,1.58,8.294
		c8.793,6.15,7.738,13.373,7.738,13.373c-8.441,13.656-52.208,9.311-52.208,9.311c-27.951-3.272-15.776-19.27-15.776-19.27
		c2.506-3.556-1.979-3.64-1.979-3.64c-4.216-0.042-3.031,1.904-3.031,1.904c0.924,1.65,0.924,2.582,0.924,2.582
		c-0.791,1.439-4.218,0.818-4.218,0.818c-2.639-0.678-1.716-2.427-1.716-2.427c-0.525-0.635-1.319-0.593-1.319-0.593
		c-3.557,0.085-2.504-1.481-2.504-1.481c-0.263-1.143-1.978-0.085-1.978-0.085c-1.714,1.863-3.561,0.128-3.561,0.128
		c-0.261-1.312-1.449-0.508-1.449-0.508c-0.922,1.862-2.635,0.634-2.635,0.634c0-0.507-1.396-0.296-1.396-0.296
		c-3.111,1.693-0.056,3.64-0.056,3.64c0.525,2.285-2.899,3.047-2.899,3.047c-4.482,1.439-9.495-1.269-9.495-1.269
		c-2.373-1.016,1.319-3.471,1.319-3.471c-1.055-1.439-2.374,0.339-2.374,0.339c-4.745,2.116-2.711-4.486-2.711-4.486
		c-0.338-0.846-1.771-1.27-1.771-1.27c-12.394-2.962-13.445-8.294-13.445-8.294c-0.265-1.016-2.813-0.649-2.813-0.649
		c-3.867,0.225-8.175,2.256-8.175,2.256c-0.091,1.242-4.833,2.709-4.833,2.709c-7.737,1.58-17.931,0-17.931,0
		c-11.954-3.047,0-7.448,0-7.448c-5.273,0.564-5.625-0.999-5.625-0.999c-3.517-2.466-24.261-4.123-24.261-4.123
		c-19.686-0.946-20.197,2.752-20.197,2.752c-0.515,1.806-8.979,4.401-8.979,4.401c-13.01,2.708-20.392,0-20.392,0
		c-7.384-2.37,13.229-7.153,13.229-7.153c9.015-1.962,0.436-1.562,0.436-1.562c-8.833-0.025,0.692-1.255,0.692-1.255
		c12.364-2.229,0-1.692,0-1.692c-12.015,0.188-9.787-0.536-9.787-0.536c2.635-1.025,17.482-1.202,17.482-1.202"/>
	<polygon fill="#333333" points="625,102.369 298.5,84.027 -14.5,102.369 -14.5,38.667 625,38.667 	"/>
	<rect x="-8.667" y="-7.333" fill="#333333" width="642" height="58.667"/>
</g>
</svg>
