<?xml version="1.0" encoding="utf-8"?>
<!-- Generator: Adobe Illustrator 16.0.0, SVG Export Plug-In . SVG Version: 6.00 Build 0)  -->
<!DOCTYPE svg PUBLIC "-//W3C//DTD SVG 1.1//EN" "http://www.w3.org/Graphics/SVG/1.1/DTD/svg11.dtd">
<svg version="1.1" id="Layer_1" xmlns="http://www.w3.org/2000/svg" xmlns:xlink="http://www.w3.org/1999/xlink" x="0px" y="0px"
	 width="566.042px" height="503.83px" viewBox="0 0 566.042 503.83" enable-background="new 0 0 566.042 503.83"
	 xml:space="preserve">
<g>
	<path fill="none" stroke="#7AC9AD" stroke-width="2" stroke-miterlimit="10" d="M38.316,133.573c0,0-23.429,1.32-27.588,9.024
		c0,0-3.509,5.445,15.441,4.03c0,0,19.506-4.03,0,12.708c0,0-15.028,9.246-1.089,9.431c0,0,13.533-3.01-0.687,11.729
		c0,0-32.524,35.933-20.874,53.735c0,0,11.647,20.348,32.171,0c0,0,13.36-19.499,14.169-33.064c0,0,0.807-27.779,31.869-20.671
		c0,0,32.728,12.448,38.274,30.972c0,0,0.554,11.742,8.874,7.504c0,0-18.858,33.064,0,55.955c0,0,16.086,11.868,28.289,0
		c0,0,7.484-11.023,7.625-20.348c0,0,6.797-15.262,12.898-16.957c0,0,4.02-2.754,4.436,4.876c0,0,1.664,40.058,21.217,62.313
		c0,0,2.258,3.18,2.793,9.537c0,0-3.209,49.596,4.279,33.701c0,0,2.079-13.355,3.744-2.543c0,0-5.824,18.438-2.08,26.068
		c0,0,7.904,20.346,14.977,9.537c0,0,5.408-5.723,4.576-22.891c0,0-4.819-14.625,0.087-27.34c0,0,2.2-1.59,2.2,2.225
		c0,0,2.705,9.221,4.161-4.768c0,0,1.872-6.041,2.286,3.814c0,0,2.913,13.033,5.617-0.953c0,0,2.705-7.949,3.121,0.633
		c0,0-1.664,11.764,3.952,11.131c0,0,1.247-0.318,2.079,4.449c0,0-1.455,13.143,2.705,18.229c0,0,5.408,4.662,6.656-6.148
		c0,0,0-6.994-1.455-19.393c0,0-1.873-14.625,4.783-14.307c0,0,7.072,0.637,3.12,27.342c0,0-19.206,120.174,24.892,144.76
		c0,0,69.052,32.641,82.365-69.941c0,0-0.563-44.02-14.43-90.225c0,0-8.888-37.146,1.557-55.415c0,0,6.049-12.766,16.227,1.648
		c0,0,7.205,8.95,6.506-12.66c0,0,1.33-12.711,10.258-1.803c0,0,8.729,13.902,8.453,30.862c0,0,0.279,6.994,1.525-0.637
		c0,0,1.248-16.534-2.219-23.528c0,0-4.299-12.926,6.656-4.023c0,0,19.207,31.048,25.031,50.759c0,0,7.488,22.891,24.338,24.48
		c0,0,21.01,1.59,25.793-27.342c0,0,3.119-26.068-2.08-46.099c0,0-3.535-16.213,1.457-10.174c0,0,1.23,3.178,1.551,7.313
		c0,0,1.361,6.676,2.816-3.496c0,0,1.248-6.996-2.703-15.578c0,0-1.914-6.677,2.891-12.399c0,0,1.686-2.226,1.061-8.583
		c0,0-3.744-42.865-22.256-62.286l4.912-2.101c0,0,21.92,19.072,31.35,44.801c0,0,3.328,7.504,0,15.135c0,0-2.588,3.391,1.479,8.477
		c0,0,5.178,8.479,7.953,15.686c0,0,0.832,6.783,1.941,12.291c0,0,3.328,4.664,3.604-3.391c0,0,0.555-6.783,2.773-1.273
		c0,0,4.717,11.023,4.439-2.117c0,0-0.832-19.5-6.656-28.401c0,0-5.824-6.782,0.275-10.599c0,0,3.771,0.896,3.053,8.479
		c0,0-1.664,7.207,7.488,13.141c0,0,3.883,4.24,3.328,11.871c0,0-1.109,8.477,4.713,3.814c0,0,1.941,0,0-8.902
		c0,0-5.268-17.381-11.092-29.248c0,0-3.328-6.359-3.607-11.447c0,0-4.15-27.404-23.293-41.891c0,0,26.623,17.303,30.229,26.205
		c0,0,8.588,18.229,16.357,17.381c0,0,6.938,1.694,7.771,9.748c0,0-0.002,5.008,4.436,6.743c0,0,6.656,0.3,0-11.7
		c0,0-11.094-23.02-19.414-27.682c0,0-14.291-17.809-30.473-21.771"/>
	<path fill="none" stroke="#7AC9AD" stroke-width="2" stroke-miterlimit="10" d="M388.133,307.342c0,0,14.506-7.57,15.119,7.121
		c0,0-3.061,8.605,0,16.547c0,0-13.098-0.383-15.119-7.24C388.133,323.77,384.079,308.831,388.133,307.342z"/>
	<g>
		<path fill="none" stroke="#FAEE48" stroke-width="2" stroke-miterlimit="10" d="M179.166,151.026"/>
		<path fill="none" stroke="#FAEE48" stroke-width="2" stroke-miterlimit="10" d="M191.686,170.466c0,0,13.103-11.529,3.659-35.608"
			/>
		<path fill="none" stroke="#FAEE48" stroke-width="2" stroke-miterlimit="10" d="M190.442,126.88c0,0,19.137-15.379,38.953,9.645
			C229.395,136.524,207.674,160.402,190.442,126.88z"/>
		<path fill="none" stroke="#FAEE48" stroke-width="2" stroke-miterlimit="10" d="M195.627,165.513c0,0,15.029-4.13,30.496,16.036"
			/>
		<path fill="none" stroke="#FAEE48" stroke-width="2" stroke-miterlimit="10" d="M220.872,142.621c0,0-11.694,17.773-3.828,29.542"
			/>
		<path fill="none" stroke="#FAEE48" stroke-width="2" stroke-miterlimit="10" d="M232.704,182.62c0,0,22.66-18.73-3.309-46.095
			c-0.149-0.157-0.794,1.553-0.945,1.395"/>
		<path fill="none" stroke="#FAEE48" stroke-width="2" stroke-miterlimit="10" d="M228.45,137.919
			c29.505-17.487,48.404,0.979,48.404,0.979s-15.074,20.668-38.082,10.784"/>
		<path fill="none" stroke="#FAEE48" stroke-width="2" stroke-miterlimit="10" d="M234.439,181.026c0,0,29.504-19.463,54.998,13.596
			"/>
		<path fill="none" stroke="#FAEE48" stroke-width="2" stroke-miterlimit="10" d="M270.67,178.816
			c-10.438-28.543,6.184-39.917,6.184-39.917s32.569,20.254,5.42,47.831"/>
		<path fill="none" stroke="#FAEE48" stroke-width="2" stroke-miterlimit="10" d="M319.071,188.906c0,0,11.441-3.035,11.912-3.927
			c0,0-16.838-20.758-40.289-9.644"/>
		<path fill="none" stroke="#FAEE48" stroke-width="2" stroke-miterlimit="10" d="M288.765,151.003
			c20.303,18.572,42.219-7.834,42.219-7.834s-18.209-23.996-54.129-4.271"/>
		<path fill="none" stroke="#FAEE48" stroke-width="2" stroke-miterlimit="10" d="M318.538,174.975c0,0-8.188-12.944,3.781-23.949"
			/>
		<path fill="none" stroke="#FAEE48" stroke-width="2" stroke-miterlimit="10" d="M330.983,143.169c0,0,26.428,13.174,1.889,43.56
			c0,0-3.713-2.945-4.721-4.109"/>
		<path fill="none" stroke="#FAEE48" stroke-width="2" stroke-miterlimit="10" d="M338.696,178.017c0,0,2.527,5.098,6.93,7.709"/>
		<path fill="none" stroke="#FAEE48" stroke-width="2" stroke-miterlimit="10" d="M371.584,182.506c0,0,9.131-6.76,9.445-8.333
			c0,0-7.305-6.45-10.229-7.239c0,0-15.755-5.988-29.753,6.606"/>
		<path fill="none" stroke="#FAEE48" stroke-width="2" stroke-miterlimit="10" d="M369.379,142.339c0,0-11.169,14.594,1.422,24.595"
			/>
		<path fill="none" stroke="#FAEE48" stroke-width="2" stroke-miterlimit="10" d="M378.167,171.767c0,0,15.85-21.372-1.07-35.681"/>
		<path fill="none" stroke="#FAEE48" stroke-width="2" stroke-miterlimit="10" d="M336.856,147.638c0,0,14.469,3.388,21.551,0.325
			c0,0,8.578-2.324,18.689-11.877c0,0-2.203-9.757-17.154-9.285c0,0-17.627,0.525-28.959,16.367"/>
		<path fill="none" stroke="#FAEE48" stroke-width="2" stroke-miterlimit="10" d="M401.536,112.597c0,0-13.711-2.233-22.145,5.687
			c0,0-4.885,4.744-7.055,11.512"/>
		<path fill="none" stroke="#FAEE48" stroke-width="2" stroke-miterlimit="10" d="M401.536,112.597c0,0,7.797,16.61-24.439,23.489"
			/>
		<path fill="none" stroke="#FAEE48" stroke-width="2" stroke-miterlimit="10" d="M383.28,161.788
			c16.041-21.796,29.227-13.268,29.227-13.268s-0.143,3.911-3.061,9.51"/>
		<path fill="none" stroke="#FAEE48" stroke-width="2" stroke-miterlimit="10" d="M385.733,175.335c0,0-1.869-0.533-4.703-1.162"/>
		<path fill="none" stroke="#FAEE48" stroke-width="2" stroke-miterlimit="10" d="M419.836,130.905c0,0-6.188,5.181-8.441,17.058"/>
		<path fill="none" stroke="#FAEE48" stroke-width="2" stroke-miterlimit="10" d="M400.573,123.951c0,0-4.158,20.108,3.357,22.926"
			/>
		<path fill="none" stroke="#FAEE48" stroke-width="2" stroke-miterlimit="10" d="M174.704,115.535
			c5.666,0.065,15.738,11.345,15.738,11.345c-17.785,9.679-21.882-4.292-21.882-4.292s3.349,11.645-1.628,17.294"/>
		<path fill="none" stroke="#FAEE48" stroke-width="2" stroke-miterlimit="10" d="M186.891,128.583
			c-9.286,7.161-7.726,22.442-7.726,22.442s-7.136-16.168-24.123-10.897"/>
		<path fill="none" stroke="#FAEE48" stroke-width="2" stroke-miterlimit="10" d="M405,120.432c0,0,7.506,1.543,9.725,17.55"/>
		<path fill="none" stroke="#FAEE48" stroke-width="2" stroke-miterlimit="10" d="M179.166,151.026c0,0,1.434,6.533,0.335,9.961"/>
		<path fill="none" stroke="#FAEE48" stroke-width="2" stroke-miterlimit="10" d="M412.506,149.181c0,0,2.807,1.563,6.518,0.785"/>
		<path fill="none" stroke="#FAEE48" stroke-width="2" stroke-miterlimit="10" d="M401.313,121.976c0,0,5.119-1.124,8.02-5.605"/>
		<path fill="none" stroke="#FAEE48" stroke-width="2" stroke-miterlimit="10" d="M397.629,112.513c0,0-0.498-2.827,0.637-7.455"/>
		<path fill="none" stroke="#FAEE48" stroke-width="2" stroke-miterlimit="10" d="M252.381,139.434c0,0,9.228-3.068,11.146,3.187
			C263.528,142.621,258.205,146.948,252.381,139.434z"/>
		<path fill="none" stroke="#FAEE48" stroke-width="2" stroke-miterlimit="10" d="M226.124,143.169c0,0,10.768,6.792,8.861,17.1
			C234.985,160.269,227.065,156.431,226.124,143.169z"/>
		<path fill="none" stroke="#FAEE48" stroke-width="2" stroke-miterlimit="10" d="M203.735,126.785c0,0,8.311,0.777,7.142,5.289
			C210.876,132.073,205.198,137.167,203.735,126.785z"/>
		<path fill="none" stroke="#FAEE48" stroke-width="2" stroke-miterlimit="10" d="M191.686,142.339c0,0,4.508,11.123,0,17.93
			C191.686,160.269,186.846,161.052,191.686,142.339z"/>
		<path fill="none" stroke="#FAEE48" stroke-width="2" stroke-miterlimit="10" d="M250.208,181.548c0,0,17.216-1.579,20.049,7.358
			C270.256,188.906,254.29,186.73,250.208,181.548z"/>
		<path fill="none" stroke="#FAEE48" stroke-width="2" stroke-miterlimit="10" d="M296.46,142.339c0,0,13.508-5.93,16.314,0
			C312.774,142.339,308.497,147.031,296.46,142.339z"/>
		<path fill="none" stroke="#FAEE48" stroke-width="2" stroke-miterlimit="10" d="M286.191,160.274c0,0,8.498,5.124,0,10.192
			C286.191,170.466,281.942,166.9,286.191,160.274z"/>
		<path fill="none" stroke="#FAEE48" stroke-width="2" stroke-miterlimit="10" d="M179.915,123.951c0,0,3.924,2.942,2.029,4.633
			C181.944,128.583,177.729,125.506,179.915,123.951z"/>
		<path fill="none" stroke="#FAEE48" stroke-width="2" stroke-miterlimit="10" d="M169.509,151.306c0,0,5.823-1.267,6.296,0.413
			C175.805,151.719,173.917,156.926,169.509,151.306z"/>
		<path fill="none" stroke="#FAEE48" stroke-width="2" stroke-miterlimit="10" d="M195.627,172.163c0,0,9.012-0.258,10.553,4.371
			C206.18,176.534,198.583,174.896,195.627,172.163z"/>
		<path fill="none" stroke="#FAEE48" stroke-width="2" stroke-miterlimit="10" d="M285.813,187.394c0,0,11.805-3.112,16.526,1.513
			C302.339,188.906,285.657,193.846,285.813,187.394z"/>
		<path fill="none" stroke="#FAEE48" stroke-width="2" stroke-miterlimit="10" d="M359.47,174.173c0,0-8.336-4.689-15.896,3.843
			C343.573,178.017,349.97,181.956,359.47,174.173z"/>
		<path fill="none" stroke="#FAEE48" stroke-width="2" stroke-miterlimit="10" d="M325.474,154.332c0,0,8.342,7.566,4.094,12.603
			C329.567,166.934,320.438,168.485,325.474,154.332z"/>
		<path fill="none" stroke="#FAEE48" stroke-width="2" stroke-miterlimit="10" d="M339.64,145.373c0,0,7.395-9.373,14.006-9.959
			C353.646,135.414,348.294,147.576,339.64,145.373z"/>
		<path fill="none" stroke="#FAEE48" stroke-width="2" stroke-miterlimit="10" d="M375.522,143.169c0,0,3.146,10.809,0,14.454
			C375.522,157.623,367.809,149.464,375.522,143.169z"/>
		<path fill="none" stroke="#FAEE48" stroke-width="2" stroke-miterlimit="10" d="M382.131,132.073c0,0,3.463-5.744,5.824-4.012
			C387.956,128.061,387.797,133.568,382.131,132.073z"/>
		<path fill="none" stroke="#FAEE48" stroke-width="2" stroke-miterlimit="10" d="M403.93,127.735c0,0,8.576,0.238,6.688,7.678
			C410.618,135.414,403.223,137.326,403.93,127.735z"/>
		<path fill="none" stroke="#FAEE48" stroke-width="2" stroke-miterlimit="10" d="M390.157,160.009c0,0,1.383-7.207,9.27-8.089
			C399.426,151.92,397.711,158.278,390.157,160.009z"/>
		<path fill="none" stroke="#FAEE48" stroke-width="2" stroke-miterlimit="10" d="M413.452,146.876c0,0,2.203-3.646,3.775-1.237
			C417.227,145.639,414.729,149.128,413.452,146.876z"/>
		<path fill="none" stroke="#FAEE48" stroke-width="2" stroke-miterlimit="10" d="M403.063,118.302c0,0,1.197-2.604,1.938-1.932
			C405,116.371,404.114,120.041,403.063,118.302z"/>
		<path fill="none" stroke="#FAEE48" stroke-width="2" stroke-miterlimit="10" d="M170.297,122.867c0,0,3.637,0.768,2.36,2.518
			C172.658,125.385,170.391,125.014,170.297,122.867z"/>
		<path fill="none" stroke="#FAEE48" stroke-width="2" stroke-miterlimit="10" d="M195.226,128.583c0,0,5.122-0.352,5.679,4.284
			C200.905,132.868,197.806,134.299,195.226,128.583z"/>
		<path fill="none" stroke="#FAEE48" stroke-width="2" stroke-miterlimit="10" d="M229.158,172.16c0,0,5.613-3.518,2.834,3.176
			C231.992,175.335,229.946,175.656,229.158,172.16z"/>
		<path fill="none" stroke="#FAEE48" stroke-width="2" stroke-miterlimit="10" d="M220.187,151.306c0,0,2.204-7.036,3.935-2.314
			C224.122,148.992,223.649,156.611,220.187,151.306z"/>
		<path fill="none" stroke="#FAEE48" stroke-width="2" stroke-miterlimit="10" d="M203.735,136.874c0,0,5.016-3.761,5.277,1.808
			C209.012,138.682,206.565,140.88,203.735,136.874z"/>
		<path fill="none" stroke="#FAEE48" stroke-width="2" stroke-miterlimit="10" d="M186.891,163c0,0,6.54,0.729,3.551,3.983
			C190.442,166.983,184.915,165.52,186.891,163z"/>
		<path fill="none" stroke="#FAEE48" stroke-width="2" stroke-miterlimit="10" d="M245.998,146.241c0,0,5.375-0.317,3.147,2.94
			C249.145,149.181,245.21,150.413,245.998,146.241z"/>
		<path fill="none" stroke="#FAEE48" stroke-width="2" stroke-miterlimit="10" d="M239.544,181.872c0,0,7.819-4.341,6.35,0.748
			C245.894,182.62,240.532,184.861,239.544,181.872z"/>
		<path fill="none" stroke="#FAEE48" stroke-width="2" stroke-miterlimit="10" d="M226.124,160.269c0,0-0.615-7.542,0.832-7.607
			c0,0,3.305,3.156,2.202,7.612C229.158,160.274,227.339,162.418,226.124,160.269z"/>
		<path fill="none" stroke="#FAEE48" stroke-width="2" stroke-miterlimit="10" d="M281.25,183.426c0,0-6.61-4.281-3.619-7.476
			c0,0,10.541-1.068,8.182,3.062C285.813,179.013,282.623,184.458,281.25,183.426z"/>
		<path fill="none" stroke="#FAEE48" stroke-width="2" stroke-miterlimit="10" d="M276.854,168.822c0,0,3.377-4.306,3.65-1.838
			c0,0-0.828,5.682-2.873,4.784C277.631,171.767,275.518,170.307,276.854,168.822z"/>
		<path fill="none" stroke="#FAEE48" stroke-width="2" stroke-miterlimit="10" d="M293.38,180.337c0,0,5.025-3.819,4.867,2.169
			C298.247,182.506,295.192,185.741,293.38,180.337z"/>
		<path fill="none" stroke="#FAEE48" stroke-width="2" stroke-miterlimit="10" d="M299.349,183.466c0,0,3.691-7.231,7.279,0
			C306.628,183.466,300.86,186.885,299.349,183.466z"/>
		<path fill="none" stroke="#FAEE48" stroke-width="2" stroke-miterlimit="10" d="M314.3,142.064c0,0,5.51-1.131,3.936,1.797
			C318.235,143.861,314.616,144.264,314.3,142.064z"/>
		<path fill="none" stroke="#FAEE48" stroke-width="2" stroke-miterlimit="10" d="M299.349,154.332c0,0,15.078-0.271,17.061-2.411
			C316.409,151.92,308.163,159.986,299.349,154.332z"/>
		<path fill="none" stroke="#FAEE48" stroke-width="2" stroke-miterlimit="10" d="M335.231,163c0,0,5.982-3.631,1.732,3.219
			C336.964,166.22,335.073,166.464,335.231,163z"/>
		<path fill="none" stroke="#FAEE48" stroke-width="2" stroke-miterlimit="10" d="M348.138,171.767c0,0,3.148-3.732,4.406-2.315
			C352.544,169.452,350.567,173.508,348.138,171.767z"/>
		<path fill="none" stroke="#FAEE48" stroke-width="2" stroke-miterlimit="10" d="M372.336,160.658c0,0,6.334,3.601,3.814,6.276
			C376.151,166.934,372.768,166.028,372.336,160.658z"/>
		<path fill="none" stroke="#FAEE48" stroke-width="2" stroke-miterlimit="10" d="M354.669,137.345c0,0,7.791-4.249,4.801,1.417
			C359.47,138.762,354.591,139.548,354.669,137.345z"/>
		<path fill="none" stroke="#FAEE48" stroke-width="2" stroke-miterlimit="10" d="M386.95,169.13c0,0,1.779,4.321-1.217,4.878
			C385.733,174.008,384.055,169.439,386.95,169.13z"/>
		<path fill="none" stroke="#FAEE48" stroke-width="2" stroke-miterlimit="10" d="M393.622,116.371c0,0,6.609-4.049,6.609-1.846
			c0,0,0.795,7.094-1.965,5.907C398.266,120.432,393.622,118.688,393.622,116.371z"/>
		<path fill="none" stroke="#FAEE48" stroke-width="2" stroke-miterlimit="10" d="M405.323,143.169c0,0,6.385-0.459,4.01,1.647
			C409.333,144.816,405.692,146.159,405.323,143.169z"/>
	</g>
	<g>
		<path fill="none" stroke="#F04D6E" stroke-width="2" stroke-miterlimit="10" d="M441.151,143.169c0,0-8.939-38.716-15.328-50.992
			c0,0-22.916-57.13-80.517-83.098c0,0-5.666-3.778-13.691-6.61c0,0-8.971-3.306-21.721,0c0,0-9.441,3.305-12.746,5.193
			c0,0-7.77,4.637-19.101,4.991c0,0-5.667,1.77-19.121-4.958c0,0-9.206-8.498-31.515-1.77c0,0-34.347,19.475-57.716,48.51
			c0,0-33.64,29.455-44.263,88.733c0,0,26.558,59.632,69.049,93.271c0,0,43.553,33.284,93.126,29.389
			c0,0,75.067-1.416,121.099-58.779C408.706,207.049,439.25,169.228,441.151,143.169z"/>
		<path fill="none" stroke="#F04D6E" stroke-width="2" stroke-miterlimit="10" d="M425.823,141.542c0,0-16.764-35.409-43.674-46.74
			c0,0-20.537-6.374-40.367-16.288c0,0-26.379-3.177-30.805-7.436c0,0-8.322,4.259-19.496,0c0,0-10.624,5.99-32.106,1.741
			c0,0-3.638,1.801-25.945,3.571c0,0-9.914,2.833-12.747,7.082c0,0-8.498,4.604-14.871,6.02c0,0-4.351,1.853-6.728,4.25
			c0,0-15.227,14.872-20.893,17.705c0,0-20.893,24.786-25.14,26.911c0,0,34.701,31.16,47.448,37.888c0,0,9.914,4.249,17.704,4.249
			c0,0,22.308,2.479,32.577,6.727c0,0,21.244,4.958,23.369,6.02c0,0,14.162,3.187,24.079,0c0,0,24.432-5.312,30.451-6.02
			c0,0,22.309-2.124,31.513-2.479c0,0,14.166-1.416,21.602-6.727C381.795,178.014,424.172,149.687,425.823,141.542z"/>
		<path fill="none" stroke="#F04D6E" stroke-width="2" stroke-miterlimit="10" d="M279.167,74.118c0,0,0.826,12.551,0.669,14.912
			c0,0-0.474,7.396-7.869,8.813c0,0-27.228,1.417-40.763-4.25c0,0-4.721-1.219-6.295-7.534c0,0,0-4.195,0-6.121"/>
		<path fill="none" stroke="#F04D6E" stroke-width="2" stroke-miterlimit="10" d="M284.834,73.275c0,0-0.354,13.708,0,16.699
			c0,0,0.194,6.61,9.006,8.026c0,0,24.238,1.259,35.412-2.518c0,0,6.453-1.731,7.555-3.462c0,0,3.875-4.735,4.063-13.621"/>
		<path fill="none" stroke="#F04D6E" stroke-width="2" stroke-miterlimit="10" d="M290.694,18.319c0,0,8.598,6.728,7.535,12.393
			c0,0-1.199,1.062-4.85,4.25c0,0-6.834-3.896-7.543-8.321C285.836,26.64,287.762,19.027,290.694,18.319z"/>
		<path fill="none" stroke="#F04D6E" stroke-width="2" stroke-miterlimit="10" d="M278.26,32.45c0,0,8.972-2.061,8.972,2.511
			c0,0,1.063,2.918-7.377,2.446C279.855,37.408,275.901,36.7,278.26,32.45z"/>
		<path fill="none" stroke="#F04D6E" stroke-width="2" stroke-miterlimit="10" d="M260.792,27.729c0,0,8.263-2.179,11.096-1.089
			c0,0,1.652,4.394,0,7.227c0,0,0.001,2.782,2.832,2.125c0,0,3.305,2.597,0,3.305c0,0-8.971-2.125-10.387,0
			c0,0-2.833,2.092-1.18-6.39c0,0-0.473-1.164-2.361-3.289C260.792,29.618,258.415,25.842,260.792,27.729z"/>
		<path fill="none" stroke="#F04D6E" stroke-width="2" stroke-miterlimit="10" d="M324.296,29.146c0,0-1.416-2.427,1.18-2.63
			c0,0,9.443,2.117,6.375,6.504C331.851,33.02,327.599,32.214,324.296,29.146z"/>
		<path fill="none" stroke="#F04D6E" stroke-width="2" stroke-miterlimit="10" d="M254.18,26.516c0,0,4.25-2.075,2.834,5.471
			c0,0,0.957,7.074,2.722,8.727c0,0-0.36,3.305-5.556,0C254.18,40.713,244.739,31.205,254.18,26.516z"/>
		<path fill="none" stroke="#F04D6E" stroke-width="2" stroke-miterlimit="10" d="M316.503,31.987c0,0,4.016-2.781,1.654,2.736
			c0,0-3.449,5.518-5.383,4.102C312.774,38.825,316.978,34.121,316.503,31.987z"/>
	</g>
	<g>
		<path fill="none" stroke="#7AC9AD" stroke-width="2" stroke-miterlimit="10" d="M214.323,181.377c0,0-6.648,0.245-7.827,1.676
			c0,0-0.996,1.011,4.381,0.747c0,0,5.533-0.747,0,2.36c0,0-4.265,1.715-0.31,1.75c0,0,3.84-0.559-0.195,2.177
			c0,0-9.228,6.671-5.922,9.976c0,0,3.305,3.776,9.128,0c0,0,3.791-3.621,4.021-6.138c0,0,0.229-5.158,9.043-3.838
			c0,0,9.284,2.311,10.858,5.75c0,0,0.157,2.18,2.519,1.394c0,0-5.352,6.137,0,10.387c0,0,4.563,2.203,8.026,0
			c0,0,2.122-2.046,2.163-3.777c0,0,1.929-2.832,3.658-3.147c0,0,1.142-0.511,1.26,0.905c0,0,0.471,7.437,6.02,11.568
			c0,0,0.641,0.59,0.793,1.771c0,0-0.91,9.207,1.215,6.257c0,0,0.59-2.479,1.062-0.473c0,0-1.652,3.423-0.59,4.84
			c0,0,2.243,3.777,4.249,1.771c0,0,1.535-1.063,1.298-4.25c0,0-1.366-2.714,0.025-5.076c0,0,0.625-0.294,0.625,0.414
			c0,0,0.767,1.712,1.18-0.886c0,0,0.531-1.121,0.647,0.709c0,0,0.828,2.419,1.596-0.178c0,0,0.767-1.475,0.885,0.118
			c0,0-0.473,2.184,1.121,2.065c0,0,0.354-0.059,0.591,0.827c0,0-0.413,2.439,0.767,3.383c0,0,1.535,0.866,1.889-1.141
			c0,0,0-1.299-0.412-3.6c0,0-0.532-2.714,1.356-2.656c0,0,2.007,0.117,0.886,5.076c0,0-5.449,22.31,7.063,26.874
			c0,0,19.592,6.058,23.37-12.985c0,0,0.473-10.071-3.463-18.649c0,0-2.99-5.98-0.707-11.567c0,0,1.24-2.027,3.246-1.084
			c0,0,2.244,1.063,3.07-1.18c0,0,1.299-2.537,2.891,0.413c0,0,3.148,5.233,3.068,8.38c0,0,0.08,1.299,0.434-0.118
			c0,0,0.354-3.069-0.629-4.367c0,0-1.221-2.4,1.889-0.749c0,0,5.449,5.765,7.102,9.424c0,0,2.125,4.249,6.904,4.544
			c0,0,5.961,0.295,7.318-5.076c0,0,0.887-4.84-0.59-8.558c0,0-1.002-3.01,0.414-1.889c0,0,0.35,0.59,0.439,1.357
			c0,0,0.387,1.239,0.799-0.649c0,0,0.355-1.298-0.766-2.892c0,0-0.545-1.239,0.818-2.3c0,0,0.479-0.414,0.303-1.595
			c0,0-1.063-7.957-6.316-11.563l1.395-0.39c0,0,6.221,3.541,8.895,8.317c0,0,0.945,1.394,0,2.81c0,0-0.732,0.63,0.42,1.574
			c0,0,1.469,1.574,2.256,2.912c0,0,0.236,1.259,0.553,2.283c0,0,0.943,0.866,1.021-0.63c0,0,0.158-1.258,0.787-0.236
			c0,0,1.338,2.046,1.26-0.394c0,0-0.236-3.621-1.889-5.273c0,0-1.652-1.259,0.078-1.967c0,0,1.07,0.167,0.865,1.574
			c0,0-0.473,1.338,2.127,2.44c0,0,1.1,0.787,0.943,2.203c0,0-0.316,1.574,1.336,0.708c0,0,0.551,0,0-1.652
			c0,0-1.494-3.227-3.148-5.429c0,0-0.943-1.18-1.021-2.125c0,0-1.178-5.088-6.607-7.777c0,0,7.551,3.212,8.576,4.864
			c0,0,2.436,3.385,4.641,3.227c0,0,1.968,0.315,2.203,1.81c0,0,0,0.93,1.26,1.252c0,0,1.889,0.055,0-2.172
			c0,0-3.148-4.273-5.507-5.139c0,0-4.055-3.306-8.646-4.041"/>
		<path fill="none" stroke="#7AC9AD" stroke-width="2" stroke-miterlimit="10" d="M264.51,232.11c0,0,2.832-1.416,1.829,2.243
			c0,0-1.476,0.531-1.829-0.413C264.51,233.94,264.214,232.819,264.51,232.11z"/>
		<g>
			<path fill="none" stroke="#F04D6E" stroke-width="2" stroke-miterlimit="10" d="M215.465,193.926c0,0-6.649,2.203-4.898,5.508
				C210.567,199.434,212.79,201.48,215.465,193.926z"/>
			<path fill="none" stroke="#F04D6E" stroke-width="2" stroke-miterlimit="10" d="M237.971,192.825c0,0,3.146-1.26,2.676,1.101
				c0,0-1.188,3.172-2.676,1.878C237.971,195.804,237.184,194.555,237.971,192.825z"/>
			<path fill="none" stroke="#F04D6E" stroke-width="2" stroke-miterlimit="10" d="M319.062,206.535
				c-2.754-3.444,1.93-1.985,1.93-1.985c2.479,0.826,7.16,4.485,7.16,4.485c2.793,2.951,6.412,1.771,6.412,1.771
				c2.008-2.007-1.77-7.318-1.77-7.318c-3.777-6.138-18.295-8.617-18.295-8.617c-4.014-1.298-6.256,1.244-6.256,1.244
				c-1.182,3.134-8.895,3.573-8.895,3.573c-3.227,0.803-15.046-0.804-15.046-0.804c-1.396-1.062-4.447,0.804-4.447,0.804
				c-1.239,1.158-5.018,1.911-5.018,1.911c-1.888,0-1.888-1.729-1.888-1.729c-0.354-1.138,2.007-0.986,2.007-0.986
				c3.067,0.236,1.455-1.18,1.455-1.18c-1.142,0.236-10.309-2.714-10.309-2.714c-1.771-0.354-1.534,0.816-1.534,0.816
				c0.826,0.581,2.951,2.489,2.951,2.489c1.534,2.242,0,1.393,0,1.393c-2.008,1.158-7.287-3.573-7.287-3.573
				c-5.4-6.546-16.557,3.573-16.557,3.573s-2.893,1.852-0.826,4.507c0,0,2.301,2.421,5.133-0.471c0,0,4.781-5.666,6.966-4.25
				c0,0,1.063,1.476,2.597,1.24c0,0,1.063-0.591,1.239,1.062c0,0,0.118,4.307-0.826,2.419c0,0-2.461-4.15-2.187,0.735"/>
			<path fill="none" stroke="#F04D6E" stroke-width="2" stroke-miterlimit="10" d="M306.628,204.549c0,0-3.461-2.479-5.469,5.665
				c0,0,2.416,28.566-5.342,27.975c0,0-5.002-0.236-6.381-6.492c0,0-1.142-11.804-2.323-16.762c0,0-2.244-6.609-5.607-6.846
				c0,0-1.827-0.826-2.182,0.59c0,0-0.828,5.548-4.487,0.354c0,0-2.95-3.074-1.063,2.004c0,0,1.771,0.593,1.89,2.481
				c0,0,1.437,0.708,1.189-0.118c0,0,2.118-1.712,3.65,4.544"/>
			<path fill="none" stroke="#F04D6E" stroke-width="2" stroke-miterlimit="10" d="M269.43,217.945c0,0,0.392-3.304-1.143-0.884
				c0,0-0.768,1.121-0.768,2.715c0,0-0.178,4.721-2.479,4.485c0,0-1.416-0.118-1.121-0.944c0,0-0.204-0.177,0.459-0.472
				c0,0,0.603-0.177,0.722-0.708c0,0,0.792-3.069,0.367-4.132c0,0-0.189-0.944-0.662-0.649c0,0-1.122-0.12-0.06-1.181
				c0,0,0.59-1.003,0.354-1.946c0,0-0.494-1.653-1.222,0.413c0,0-0.786,4.013-0.431,5.017c0,0-0.532,1.416-0.886-0.177
				c0,0,0.059-1.535,0-2.184c0,0-0.207-1.766-0.782-0.057"/>
			<path fill="none" stroke="#F04D6E" stroke-width="2" stroke-miterlimit="10" d="M270.647,214.523c0,0,0.473-3.247,0.591-0.532
				c0,0,0.058,1.667-0.296,1.66C270.942,215.652,270.47,215.507,270.647,214.523z"/>
			<path fill="none" stroke="#F04D6E" stroke-width="2" stroke-miterlimit="10" d="M272.655,211.631c0,0,1.039,1.462,0.489,2.649
				c0,0-0.549,1.233-0.785,0C272.359,214.281,272.299,212.753,272.655,211.631z"/>
		</g>
		<path fill="none" stroke="#7AC9AD" stroke-width="2" stroke-miterlimit="10" d="M358.999,195.106c0,0,2.664-0.236,2.041,1.966
			C361.04,197.072,360.1,197.309,358.999,195.106z"/>
		<path fill="none" stroke="#7AC9AD" stroke-width="2" stroke-miterlimit="10" d="M369.778,198.261c0,0,0.865-1.109,2.361,1.33
			c0,0,1.889,2.519,0,2.046C372.139,201.638,370.014,199.451,369.778,198.261z"/>
		<path fill="none" stroke="#F04D6E" stroke-width="2" stroke-miterlimit="10" d="M249.459,222.57c0,0,8.639-4.093,10.773,2.832
			c0,0-0.246,1.888,0,4.406c0,0-8.413,0.157-12.031-1.259C248.202,228.549,245.989,223.617,249.459,222.57z"/>
		<path fill="none" stroke="#F04D6E" stroke-width="2" stroke-miterlimit="10" d="M313.671,221.196c0,0,7.555-1.845,8.027,0
			c0,0,0.787,5.307,0,5.937c0,0-7.082,1.103-8.027-0.786C313.671,226.346,314.931,222.5,313.671,221.196z"/>
		<path fill="none" stroke="#F04D6E" stroke-width="2" stroke-miterlimit="10" d="M318.866,229.022c0,0,4.563,0.009,5.035-1.569
			c0,0,2.99-3.301,3.148,0c0,0,0.164,3.228-3.307,2.361c0,0-2.605,0.596-1.695,2.027c0,0-1.768,2.032-2.553,0
			C319.495,231.841,319.651,229.179,318.866,229.022z"/>
		<path fill="none" stroke="#F04D6E" stroke-width="2" stroke-miterlimit="10" d="M240.695,221.368c0,0,3.73-1.946,3.887,1.83
			c0,0-0.787,2.213,0,4.254c0,0-3.366-0.099-3.887-1.862C240.695,225.591,239.653,221.75,240.695,221.368z"/>
	</g>
	<path fill="none" stroke="#F04D6E" stroke-width="2" stroke-miterlimit="10" d="M401.276,245.621
		c7.701,2.533,14.502,13.912,14.502,13.912c3.959,2.979,9.238,17.687,9.238,17.687c3.166,7.666,0,7.475,0,7.475
		c-2.113-1.109-2.113-4.309-2.113-4.309c-0.395-5.146-3.695-6.227-3.695-6.227c-3.697,0.541-7.785-11.107-7.785-11.107
		c-1.715-5.686-14.385-16.741-14.385-16.741c9.109,9.255,11.086,26.764,11.086,26.764c0.133,3.25,1.715,7.313,1.715,7.313
		c2.771,7.582,5.279,18.688,5.279,18.688c0.922,5.686,0,5.686,0,5.686c-2.771,2.98-2.244-2.436-2.244-2.436
		c0.264-4.877-1.582-7.584-1.582-7.584c-4.357-3.793-3.564-8.396-3.564-8.396c0.342-4.842-1.451-5.416-1.451-5.416
		c-2.904,2.438-0.133,6.771-0.133,6.771c2.771,5.686,3.168,18.145,3.168,18.145c0.131,8.395-2.111,1.354-2.111,1.354
		c-1.057-3.521-1.32,0.813-1.32,0.813c-0.133,5.146-1.717,2.168-1.717,2.168c-0.527-3.52-0.924-7.854-0.924-7.854
		c-1.318-4.605-3.783-10.021-3.783-10.021c-1.936-3.25-0.703-5.416-0.703-5.416c1.584-4.875,0-9.668,0-9.668
		c-4.486-16.439-14.918-28.625-14.918-28.625l-2.34,1.342c8.811,12.408,10.592,39.794,10.592,39.794
		c0.297,4.063-0.504,5.484-0.504,5.484c-2.287,3.656-1.377,7.922-1.377,7.922c1.881,5.484,1.287,9.951,1.287,9.951
		c-0.693,6.5-1.34,2.234-1.34,2.234c-0.152-2.641-0.738-4.67-0.738-4.67c-2.375-3.861-0.693,6.498-0.693,6.498
		c2.475,12.797,0.99,29.453,0.99,29.453c-2.277,18.484-12.273,17.469-12.273,17.469c-8.018-1.018-11.582-15.641-11.582-15.641
		c-2.771-12.594-11.91-32.43-11.91-32.43c-5.213-5.688-3.168,2.57-3.168,2.57c1.65,4.469,1.055,15.031,1.055,15.031
		c-0.594,4.875-0.727,0.406-0.727,0.406c0.133-10.834-5.146-28.842-5.146-28.842c-2.672-10.156-4.85-1.424-4.85-1.424
		c-1.387,7.721-5.146,4.063-5.146,4.063c-3.365-3.248-5.445,3.73-5.445,3.73c-3.828,19.225,1.188,39.809,1.188,39.809
		c6.6,29.52,5.807,64.182,5.807,64.182c-6.336,65.539-39.195,44.686-39.195,44.686c-20.986-15.707-11.846-92.484-11.846-92.484
		c1.881-17.064-1.485-17.469-1.485-17.469c-3.166-0.203-2.276,9.141-2.276,9.141c0.693,7.92,0.693,12.389,0.693,12.389
		c-0.594,6.906-3.167,3.928-3.167,3.928c-1.98-3.25-1.288-11.645-1.288-11.645c-0.395-3.049-0.99-2.846-0.99-2.846
		c-2.672,0.408-1.88-7.109-1.88-7.109c-0.198-5.484-1.484-0.406-1.484-0.406c-1.288,8.938-2.673,0.611-2.673,0.611
		c-0.197-6.297-1.089-2.438-1.089-2.438c-0.692,8.938-1.979,3.045-1.979,3.045c0-2.436-1.047-1.42-1.047-1.42
		c-2.335,8.125-0.041,17.467-0.041,17.467c0.395,10.969-2.178,14.625-2.178,14.625c-3.366,6.906-7.128-6.092-7.128-6.092
		c-1.782-4.877,0.99-16.656,0.99-16.656c-0.792-6.908-1.782,1.623-1.782,1.623c-3.563,10.156-2.036-21.529-2.036-21.529
		c-0.254-4.061-1.329-6.094-1.329-6.094c-9.305-14.219-10.096-39.811-10.096-39.811c-0.198-4.875-2.111-3.113-2.111-3.113
		c-2.903,1.082-6.138,10.83-6.138,10.83c-0.066,5.959-3.628,13-3.628,13c-5.809,7.584-13.463,0-13.463,0
		c-8.975-14.623,0-35.748,0-35.748c-3.959,2.707-4.223-4.793-4.223-4.793c-2.641-11.836-18.215-19.79-18.215-19.79
		c-14.78-4.541-15.164,13.208-15.164,13.208c-0.386,8.666-6.742,21.125-6.742,21.125c-9.767,12.998-15.311,0-15.311,0
		c-5.543-11.375,9.934-34.333,9.934-34.333c6.768-9.416,0.327-7.493,0.327-7.493c-6.634-0.118,0.519-6.024,0.519-6.024
		c9.283-10.693,0-8.119,0-8.119c-9.019,0.902-7.348-2.574-7.348-2.574c1.979-4.921,13.127-5.767,13.127-5.767"/>
	<g>
		<path fill="none" stroke="#FAEE48" stroke-width="2" stroke-miterlimit="10" d="M176.442,266.2c0,0-11.396,7.512-8.396,18.779
			C168.046,284.979,171.857,291.958,176.442,266.2z"/>
		<path fill="none" stroke="#FAEE48" stroke-width="2" stroke-miterlimit="10" d="M353.981,309.192
			c-4.719-11.744,3.305-6.771,3.305-6.771c4.248,2.818,12.271,15.295,12.271,15.295c4.787,10.063,10.99,6.037,10.99,6.037
			c3.439-6.842-3.035-24.953-3.035-24.953c-6.471-20.93-31.353-29.381-31.353-29.381c-6.877-4.428-10.721,4.242-10.721,4.242
			c-2.021,10.684-15.24,12.182-15.24,12.182c-5.531,2.738-25.787-2.74-25.787-2.74c-2.391-3.623-7.622,2.74-7.622,2.74
			c-2.121,3.947-8.598,6.518-8.598,6.518c-3.236,0-3.236-5.896-3.236-5.896c-0.607-3.883,3.438-3.361,3.438-3.361
			c5.259,0.807,2.495-4.023,2.495-4.023c-1.955,0.803-17.667-9.258-17.667-9.258c-3.034-1.207-2.629,2.783-2.629,2.783
			c1.416,1.979,5.056,8.486,5.056,8.486c2.631,7.648,0,4.752,0,4.752c-3.438,3.947-12.488-12.182-12.488-12.182
			c-9.252-22.32-28.372,12.182-28.372,12.182s-4.956,6.311-1.417,15.369c0,0,3.945,8.254,8.8-1.607c0,0,8.193-19.32,11.936-14.49
			c0,0,1.82,5.031,4.45,4.227c0,0,1.82-2.012,2.125,3.623c0,0,0.201,14.686-1.418,8.248c0,0-4.217-14.152-3.748,2.508"/>
		<path fill="none" stroke="#FAEE48" stroke-width="2" stroke-miterlimit="10" d="M332.673,302.42c0,0-5.932-8.451-9.371,19.32
			c0,0,4.137,97.396-9.158,95.385c0,0-8.568-0.807-10.934-22.137c0,0-1.959-40.246-3.98-57.15c0,0-3.846-22.539-9.609-23.342
			c0,0-3.131-2.818-3.741,2.012c0,0-1.417,18.916-7.688,1.207c0,0-5.058-10.484-1.82,6.832c0,0,3.034,2.021,3.236,8.463
			c0,0,2.461,2.414,2.039-0.402c0,0,3.629-5.838,6.256,15.494"/>
		<path fill="none" stroke="#FAEE48" stroke-width="2" stroke-miterlimit="10" d="M268.923,348.1c0,0,0.671-11.268-1.96-3.018
			c0,0-1.314,3.824-1.314,9.258c0,0-0.303,16.098-4.246,15.295c0,0-2.428-0.402-1.923-3.221c0,0-0.349-0.604,0.786-1.609
			c0,0,1.035-0.605,1.236-2.416c0,0,1.357-10.465,0.629-14.086c0,0-0.325-3.221-1.135-2.215c0,0-1.92-0.406-0.101-4.027
			c0,0,1.012-3.418,0.606-6.637c0,0-0.846-5.635-2.092,1.408c0,0-1.346,13.684-0.739,17.105c0,0-0.91,4.83-1.518-0.604
			c0,0,0.102-5.232,0-7.447c0,0-0.355-6.021-1.341-0.191"/>
		<path fill="none" stroke="#FAEE48" stroke-width="2" stroke-miterlimit="10" d="M271.01,336.43c0,0,0.81-11.066,1.012-1.811
			c0,0,0.102,5.684-0.506,5.66C271.516,340.28,270.708,339.784,271.01,336.43z"/>
	</g>
</g>
</svg>
