<?xml version="1.0" encoding="utf-8"?>
<!-- Generator: Adobe Illustrator 16.0.0, SVG Export Plug-In . SVG Version: 6.00 Build 0)  -->
<!DOCTYPE svg PUBLIC "-//W3C//DTD SVG 1.1//EN" "http://www.w3.org/Graphics/SVG/1.1/DTD/svg11.dtd">
<svg version="1.1" id="Layer_1" xmlns="http://www.w3.org/2000/svg" xmlns:xlink="http://www.w3.org/1999/xlink" x="0px" y="0px"
	 width="600px" height="600px" viewBox="6 13.092 600 600" enable-background="new 6 13.092 600 600" xml:space="preserve">
<circle fill="#EE2C52" stroke="#FFFFFF" stroke-miterlimit="10" cx="99.077" cy="516.931" r="46.793"/>
<circle fill="#EE2C52" stroke="#FFFFFF" stroke-miterlimit="10" cx="493.651" cy="516.931" r="46.793"/>
<path fill="#EE2C52" stroke="#FFFFFF" stroke-miterlimit="10" d="M581.4,62.46H479.398l-18.244,43.17
	c-1.053-0.202-2.167-0.331-3.354-0.331H28.023c-10.098,0-16.628,8.079-14.51,17.95L59.67,338.264
	c2.118,9.878,12.111,17.957,22.209,17.957h358.069c0.949,0,1.824-0.135,2.693-0.27l11.737,30.869H30.6
	c-11.83,0-21.42,9.59-21.42,21.42s9.59,21.42,21.42,21.42h485.904L447.458,248.08l60.343-142.78h73.6
	c11.829,0,21.42-9.59,21.42-21.42S593.229,62.46,581.4,62.46z"/>
</svg>
