<?xml version="1.0" encoding="utf-8"?>
<!-- Generator: Adobe Illustrator 16.0.0, SVG Export Plug-In . SVG Version: 6.00 Build 0)  -->
<!DOCTYPE svg PUBLIC "-//W3C//DTD SVG 1.1//EN" "http://www.w3.org/Graphics/SVG/1.1/DTD/svg11.dtd">
<svg version="1.1" id="Layer_1" xmlns="http://www.w3.org/2000/svg" xmlns:xlink="http://www.w3.org/1999/xlink" x="0px" y="0px"
	 width="431.139px" height="88.158px" viewBox="0 0 431.139 88.158" enable-background="new 0 0 431.139 88.158"
	 xml:space="preserve">
<g>
	<path fill="#010101" d="M0,45.024C4.231,23.706,6.814,9.631,7.746,2.796c1.709-0.311,3.437-0.612,5.185-0.903
		c1.747-0.291,3.62-0.437,5.62-0.437s3.747,0.34,5.242,1.02c1.494,0.68,2.709,1.622,3.641,2.825c1.785,2.292,2.68,5.379,2.68,9.261
		c0,4.272-1.127,8.776-3.379,13.513c-2.369,4.932-5.475,8.951-9.319,12.057c-4.389,3.457-9.086,5.184-14.096,5.184
		C2.465,45.315,1.358,45.218,0,45.024z M10.426,37.802c2.718-1.747,5.222-5.377,7.514-10.892c1.281-3.067,2.135-5.65,2.563-7.747
		c0.427-2.097,0.641-3.747,0.641-4.951c0-1.203-0.407-2.222-1.223-3.058c-0.815-0.834-2.097-1.252-3.845-1.252
		c-0.66,3.34-1.418,6.931-2.271,10.775C12.367,27.201,11.241,32.909,10.426,37.802z"/>
	<path fill="#010101" d="M43.626,1.806c-4.427,22.522-7.126,36.541-8.097,42.054c-1.087,0-2.97,0.175-5.649,0.524
		s-4.058,0.544-4.136,0.583c1.242-4.504,2.389-9.416,3.437-14.736c2.407-12.153,4.115-21.144,5.126-26.968L43.626,1.806z"/>
	<path fill="#010101" d="M56.207,44.092c-2.99-9.823-4.543-15.435-4.66-16.833l-0.757,0.233c-0.312,1.787-0.777,4.272-1.397,7.456
		c-0.622,3.185-1.107,5.728-1.456,7.63l-9.669,2.504c4.038-19.531,6.503-33.394,7.396-41.588c4.505-1.397,9.553-2.097,15.145-2.097
		c4.193,0,6.678,1.456,7.455,4.369c0.233,0.894,0.35,2,0.35,3.32c0,1.321-0.271,2.748-0.815,4.281c-0.544,1.534-1.281,3-2.213,4.397
		c-1.942,2.835-4.33,5.009-7.165,6.523c1.515,3.262,2.863,6.34,4.049,9.232c1.184,2.893,2.184,5.329,2.999,7.31L56.207,44.092z
		 M56.789,9.669l-2.563,0.058l-1.922,9.494c1.553-0.155,3.514-1.145,5.883-2.97c2.446-1.864,3.669-3.397,3.669-4.602
		c0-1.126-1.068-1.767-3.203-1.922C58.032,9.689,57.41,9.669,56.789,9.669z"/>
	<path fill="#010101" d="M70.07,9.96l0.291-7.63c2.019,0.155,4.057,0.233,6.115,0.233c5.437,0,10.737-0.33,15.901-0.99l-0.641,3.204
		c-0.194,0.894-0.378,1.815-0.553,2.767c-0.175,0.952-0.341,1.776-0.495,2.476c-0.894,0.233-1.787,0.398-2.68,0.495
		c-0.894,0.097-1.768,0.224-2.621,0.378c-0.699,2.991-1.397,6.698-2.097,11.125c-1.554,9.786-2.642,16.912-3.262,21.376
		l-10.718,1.689c3.146-14.755,5.262-26.307,6.349-34.656c-0.932-0.117-1.863-0.155-2.795-0.117
		C71.934,10.349,71.002,10.232,70.07,9.96z"/>
	<path fill="#010101" d="M101.174,19.513c1.281-3.184,3.378-9.086,6.29-17.707l9.262,2.039c-2.137,4.35-4.059,8.291-5.767,11.824
		l-3.728,7.688c-0.738,1.553-1.467,3.068-2.185,4.543c-0.719,1.476-1.369,2.854-1.951,4.136c-0.583,2.951-1.495,6.563-2.737,10.833
		l-10.193,1.282l2.737-11.999c0-4.814-0.194-10.135-0.582-15.959c-0.389-5.825-0.622-9.183-0.699-10.077l-0.116-1.281l9.727-3.728
		v10.368l-0.058,5.825V19.513z"/>
	<path fill="#010101" d="M141.247,24.172c4.465-11.999,7.416-19.513,8.854-22.542c1.98-0.233,3.601-0.446,4.863-0.641
		c1.262-0.194,2.339-0.358,3.232-0.495c0.894-0.136,1.864-0.3,2.912-0.495c-1.902,11.262-3.494,25.454-4.775,42.578l-10.427,1.864
		c0-1.398,0.175-3.649,0.524-6.756l0.815-6.99c0.388-3.533,0.758-6.271,1.106-8.213h-0.523c-0.545,1.67-1.156,3.428-1.835,5.271
		c-0.68,1.845-1.369,3.719-2.068,5.621c-0.698,1.903-1.389,3.777-2.067,5.621c-0.68,1.845-1.272,3.602-1.776,5.271
		c-1.398,0.039-2.583,0.098-3.553,0.175l-3.495,0.175l1.922-22.134h-0.873c-0.079,0.505-0.282,1.369-0.612,2.592
		s-0.698,2.621-1.106,4.194c-0.407,1.572-0.854,3.203-1.34,4.893c-0.485,1.689-0.941,3.252-1.368,4.688
		c-0.699,2.486-1.204,4.214-1.515,5.184l-9.844,0.641c6.329-19.104,10.62-33.084,12.872-41.937c2.214,0,4.291-0.117,6.232-0.35
		s4.038-0.446,6.291-0.641c-0.116,0.854-0.243,1.826-0.379,2.912c-0.137,1.088-0.291,2.233-0.466,3.437
		c-0.175,1.204-0.359,2.438-0.554,3.699c-0.194,1.262-0.437,2.893-0.728,4.893c-0.291,2-0.67,4.495-1.136,7.485H141.247z"/>
	<path fill="#010101" d="M190.406,14.096c0,2.369-0.34,4.99-1.02,7.863c-0.68,2.874-1.602,5.514-2.767,7.921
		c-1.165,2.408-2.515,4.563-4.048,6.465c-1.534,1.903-3.137,3.515-4.806,4.834c-3.456,2.718-6.776,4.077-9.96,4.077
		c-2.679,0-4.796-0.97-6.349-2.912c-1.709-2.135-2.563-5.242-2.563-9.319c0-4.427,1.028-9.203,3.087-14.329
		c2.058-5.126,4.756-9.397,8.096-12.814c3.611-3.649,7.397-5.475,11.358-5.475c3.262,0,5.649,1.321,7.164,3.961
		C189.804,6.504,190.406,9.747,190.406,14.096z M182.136,17.765c0-3.223-0.933-4.834-2.796-4.834c-2.369,0-4.505,1.165-6.407,3.495
		c-1.515,1.864-2.816,4.408-3.902,7.63c-0.854,2.641-1.281,5.126-1.281,7.456c0,1.554,0.659,2.719,1.979,3.495
		c0.388,0.272,0.835,0.408,1.34,0.408c1.786,0,3.368-0.611,4.747-1.834c1.378-1.223,2.534-2.728,3.466-4.514
		c0.932-1.786,1.64-3.699,2.126-5.737C181.893,21.289,182.136,19.435,182.136,17.765z"/>
	<path fill="#010101" d="M194.368,2.621c0.854-0.077,1.854-0.175,2.999-0.291c1.146-0.117,2.271-0.223,3.379-0.32
		c1.106-0.097,2.262-0.204,3.465-0.321c-1.01,4.776-1.806,8.563-2.388,11.358s-1.049,5.029-1.397,6.698
		c-0.35,1.67-0.661,3.204-0.933,4.602c-0.621,2.951-1.029,4.874-1.223,5.766c-0.583,2.679-0.874,4.408-0.874,5.184
		c0,0.777,0.165,1.369,0.495,1.776c0.329,0.408,0.776,0.612,1.34,0.612c0.563,0,1.067-0.271,1.515-0.815
		c0.445-0.543,0.815-1.184,1.106-1.922c0.291-0.737,0.514-1.494,0.67-2.271c0.154-0.776,0.32-1.563,0.495-2.359
		c0.175-0.795,0.407-1.902,0.698-3.32c0.292-1.417,0.583-2.892,0.874-4.427c0.291-1.533,0.592-3.096,0.903-4.688
		c0.815-4.078,1.767-9.241,2.854-15.494l9.028-0.583l-0.291,1.515c-0.466,2.446-0.981,5.271-1.544,8.475
		c-0.563,3.204-1.077,5.97-1.543,8.3c-1.204,6.058-2.098,10.358-2.68,12.901c-0.582,2.544-1.389,4.611-2.417,6.203
		c-1.029,1.593-2.224,2.913-3.582,3.961c-2.603,1.941-5.612,2.912-9.028,2.912c-2.097,0-3.902-0.583-5.417-1.747
		c-1.709-1.398-2.563-3.242-2.563-5.534c0-0.155,0-0.31,0-0.466c0-0.155,0.048-0.679,0.146-1.573c0.097-0.893,0.32-2.495,0.67-4.805
		c0.349-2.31,0.728-4.718,1.136-7.223c0.407-2.504,0.845-5.018,1.311-7.543c0.466-2.523,0.893-4.814,1.281-6.873
		C193.707,5.883,194.212,3.32,194.368,2.621z"/>
	<path fill="#010101" d="M217.55,9.96l0.291-7.63c2.019,0.155,4.057,0.233,6.115,0.233c5.437,0,10.737-0.33,15.901-0.99
		l-0.641,3.204c-0.194,0.894-0.378,1.815-0.553,2.767c-0.175,0.952-0.341,1.776-0.495,2.476c-0.894,0.233-1.787,0.398-2.68,0.495
		c-0.894,0.097-1.768,0.224-2.621,0.378c-0.699,2.991-1.397,6.698-2.097,11.125c-1.554,9.786-2.642,16.912-3.262,21.376
		l-10.718,1.689c3.146-14.755,5.262-26.307,6.349-34.656c-0.932-0.117-1.863-0.155-2.795-0.117
		C219.413,10.349,218.481,10.232,217.55,9.96z"/>
	<path fill="#010101" d="M233.509,45.141c4.154-20.425,6.679-34.986,7.572-43.685c3.728,0.312,6.95,0.466,9.669,0.466
		c-1.903,8.077-3.165,13.746-3.786,17.008l5.883-0.699c0.543-2.795,1.038-5.523,1.485-8.184c0.446-2.659,1.02-5.388,1.718-8.184
		c1.553-0.271,3.204-0.475,4.951-0.611c1.748-0.136,2.951-0.223,3.611-0.262l0.99-0.117c-1.903,6.213-3.767,14.931-5.592,26.153
		c-0.894,5.048-1.709,10.213-2.446,15.494l-9.319,1.048c0.504-2.368,0.961-4.602,1.369-6.698c0.407-2.097,0.815-4.174,1.223-6.232
		c0.408-2.058,0.747-3.824,1.02-5.3l-5.824,0.524c-0.895,4.932-2.001,10.717-3.32,17.357L233.509,45.141z"/>
	<path fill="#010101" d="M271.253,45.024c4.231-21.318,6.814-35.394,7.746-42.229c1.709-0.311,3.437-0.612,5.185-0.903
		c1.747-0.291,3.62-0.437,5.62-0.437s3.747,0.34,5.242,1.02c1.494,0.68,2.709,1.622,3.641,2.825c1.785,2.292,2.68,5.379,2.68,9.261
		c0,4.272-1.127,8.776-3.379,13.513c-2.369,4.932-5.475,8.951-9.319,12.057c-4.389,3.457-9.086,5.184-14.096,5.184
		C273.718,45.315,272.611,45.218,271.253,45.024z M281.679,37.802c2.718-1.747,5.222-5.377,7.514-10.892
		c1.281-3.067,2.135-5.65,2.563-7.747c0.427-2.097,0.641-3.747,0.641-4.951c0-1.203-0.407-2.222-1.223-3.058
		c-0.815-0.834-2.097-1.252-3.845-1.252c-0.66,3.34-1.418,6.931-2.271,10.775C283.62,27.201,282.494,32.909,281.679,37.802z"/>
	<path fill="#010101" d="M330.722,14.096c0,2.369-0.34,4.99-1.02,7.863c-0.68,2.874-1.602,5.514-2.767,7.921
		c-1.165,2.408-2.515,4.563-4.048,6.465c-1.534,1.903-3.137,3.515-4.806,4.834c-3.456,2.718-6.776,4.077-9.96,4.077
		c-2.679,0-4.796-0.97-6.349-2.912c-1.709-2.135-2.563-5.242-2.563-9.319c0-4.427,1.028-9.203,3.087-14.329
		c2.058-5.126,4.756-9.397,8.096-12.814c3.611-3.649,7.397-5.475,11.358-5.475c3.262,0,5.649,1.321,7.164,3.961
		C330.119,6.504,330.722,9.747,330.722,14.096z M322.451,17.765c0-3.223-0.933-4.834-2.796-4.834c-2.369,0-4.505,1.165-6.407,3.495
		c-1.515,1.864-2.816,4.408-3.902,7.63c-0.854,2.641-1.281,5.126-1.281,7.456c0,1.554,0.659,2.719,1.979,3.495
		c0.388,0.272,0.835,0.408,1.34,0.408c1.786,0,3.368-0.611,4.747-1.834c1.378-1.223,2.534-2.728,3.466-4.514
		c0.932-1.786,1.64-3.699,2.126-5.737C322.208,21.289,322.451,19.435,322.451,17.765z"/>
	<path fill="#010101" d="M336.139,1.34h1.688c0.776,0,2.951-0.078,6.524-0.233c0.543,2.795,1.048,5.397,1.514,7.805
		c1.242,6.912,2.097,11.358,2.563,13.338c0.154-0.815,0.329-1.747,0.523-2.796c0.194-1.048,0.408-2.145,0.642-3.291
		c0.232-1.145,0.466-2.32,0.698-3.524c0.388-1.902,1.185-5.728,2.389-11.475l7.28-0.874c-4.232,19.61-6.873,33.686-7.921,42.229
		c-0.467,0-2.068,0.33-4.806,0.99c-2.737,0.661-4.379,1.087-4.922,1.281c-0.777-10.639-1.631-18.173-2.563-22.6
		c-0.117,0.738-0.272,1.602-0.467,2.592s-0.388,2.049-0.582,3.175c-0.738,4.232-1.709,9.339-2.912,15.318l-8.737,2.039
		c4.427-21.085,7.009-35.763,7.747-44.034C335.342,1.321,335.789,1.34,336.139,1.34z"/>
	<path fill="#010101" d="M361.65,2.621c0.854-0.077,1.854-0.175,2.999-0.291c1.146-0.117,2.271-0.223,3.379-0.32
		c1.106-0.097,2.262-0.204,3.465-0.321c-1.01,4.776-1.806,8.563-2.388,11.358s-1.049,5.029-1.397,6.698
		c-0.35,1.67-0.661,3.204-0.933,4.602c-0.621,2.951-1.029,4.874-1.223,5.766c-0.583,2.679-0.874,4.408-0.874,5.184
		c0,0.777,0.165,1.369,0.495,1.776c0.329,0.408,0.776,0.612,1.34,0.612c0.563,0,1.067-0.271,1.515-0.815
		c0.445-0.543,0.815-1.184,1.106-1.922c0.291-0.737,0.514-1.494,0.67-2.271c0.154-0.776,0.32-1.563,0.495-2.359
		c0.175-0.795,0.407-1.902,0.698-3.32c0.292-1.417,0.583-2.892,0.874-4.427c0.291-1.533,0.592-3.096,0.903-4.688
		c0.815-4.078,1.767-9.241,2.854-15.494l9.028-0.583l-0.291,1.515c-0.466,2.446-0.981,5.271-1.544,8.475
		c-0.563,3.204-1.077,5.97-1.543,8.3c-1.204,6.058-2.098,10.358-2.68,12.901c-0.582,2.544-1.389,4.611-2.417,6.203
		c-1.029,1.593-2.224,2.913-3.582,3.961c-2.603,1.941-5.612,2.912-9.028,2.912c-2.097,0-3.902-0.583-5.417-1.747
		c-1.709-1.398-2.563-3.242-2.563-5.534c0-0.155,0-0.31,0-0.466c0-0.155,0.048-0.679,0.146-1.573c0.097-0.893,0.32-2.495,0.67-4.805
		c0.349-2.31,0.728-4.718,1.136-7.223c0.407-2.504,0.845-5.018,1.311-7.543c0.466-2.523,0.893-4.814,1.281-6.873
		C360.989,5.883,361.494,3.32,361.65,2.621z"/>
	<path fill="#010101" d="M384.833,9.96l0.291-7.63c2.019,0.155,4.057,0.233,6.115,0.233c5.437,0,10.737-0.33,15.901-0.99
		L406.5,4.776c-0.194,0.894-0.378,1.815-0.553,2.767c-0.175,0.952-0.341,1.776-0.495,2.476c-0.894,0.233-1.787,0.398-2.68,0.495
		c-0.894,0.097-1.768,0.224-2.621,0.378c-0.699,2.991-1.397,6.698-2.097,11.125c-1.554,9.786-2.642,16.912-3.262,21.376
		l-10.718,1.689c3.146-14.755,5.262-26.307,6.349-34.656c-0.932-0.117-1.863-0.155-2.795-0.117
		C386.696,10.349,385.765,10.232,384.833,9.96z"/>
	<path fill="#010101" d="M422.11,14.562c0.193-0.776,0.291-1.592,0.291-2.446c0-0.854-0.214-1.543-0.641-2.068
		c-0.428-0.524-0.884-0.786-1.369-0.786s-0.961,0.117-1.427,0.35s-0.932,0.544-1.397,0.932c-1.088,0.894-1.631,1.855-1.631,2.883
		c0,1.029,0.271,1.864,0.815,2.504c0.543,0.641,1.213,1.233,2.009,1.777c0.796,0.544,1.66,1.106,2.593,1.689
		c0.932,0.583,1.806,1.321,2.621,2.213c1.863,2.175,2.795,5.067,2.795,8.679c0,4.35-1.592,7.941-4.775,10.775
		c-3.029,2.719-6.854,4.078-11.475,4.078c-3.418,0-6.544-1.786-9.378-5.359l4.427-8.679c0.543,1.087,1.592,2.078,3.146,2.971
		c1.553,0.932,2.718,1.398,3.494,1.398s1.428-0.078,1.951-0.233c0.524-0.155,1-0.388,1.428-0.699
		c0.97-0.699,1.456-1.543,1.456-2.534s-0.312-1.893-0.932-2.708c-0.622-0.815-1.39-1.592-2.301-2.33
		c-0.913-0.737-1.903-1.485-2.971-2.243c-1.068-0.757-2.049-1.563-2.941-2.417c-2.176-1.941-3.262-3.98-3.262-6.116
		c0-2.135,0.611-4.096,1.834-5.883c1.224-1.786,2.757-3.329,4.602-4.63c1.844-1.301,3.863-2.33,6.058-3.087
		c2.193-0.757,4.049-1.136,5.563-1.136c1.515,0,2.747,0.137,3.699,0.408c0.951,0.272,1.776,0.68,2.476,1.223
		c1.514,1.243,2.271,3.068,2.271,5.476c0,0.582-0.05,1.146-0.146,1.689c-0.098,0.544-0.186,1.146-0.263,1.806L422.11,14.562z"/>
</g>
</svg>
