<?xml version="1.0" encoding="utf-8"?>
<!-- Generator: Adobe Illustrator 16.0.0, SVG Export Plug-In . SVG Version: 6.00 Build 0)  -->
<!DOCTYPE svg PUBLIC "-//W3C//DTD SVG 1.1//EN" "http://www.w3.org/Graphics/SVG/1.1/DTD/svg11.dtd">
<svg version="1.1" id="Layer_1" xmlns="http://www.w3.org/2000/svg" xmlns:xlink="http://www.w3.org/1999/xlink" x="0px" y="0px"
	 width="431.139px" height="88.158px" viewBox="0 0 431.139 88.158" enable-background="new 0 0 431.139 88.158"
	 xml:space="preserve">
<g>
	<g>
		<path fill="#010101" d="M0,45.024C4.231,23.706,6.814,9.631,7.746,2.796c1.709-0.311,3.437-0.612,5.185-0.903
			c1.747-0.291,3.62-0.437,5.62-0.437s3.747,0.34,5.242,1.02c1.494,0.68,2.709,1.622,3.641,2.825c1.785,2.292,2.68,5.379,2.68,9.261
			c0,4.272-1.127,8.776-3.379,13.513c-2.369,4.932-5.475,8.951-9.319,12.057c-4.389,3.457-9.086,5.184-14.096,5.184
			C2.465,45.315,1.358,45.218,0,45.024z M10.426,37.802c2.718-1.747,5.222-5.377,7.514-10.892c1.281-3.067,2.135-5.65,2.563-7.747
			c0.427-2.097,0.641-3.747,0.641-4.951c0-1.203-0.407-2.222-1.223-3.058c-0.815-0.834-2.097-1.252-3.845-1.252
			c-0.66,3.34-1.418,6.931-2.271,10.775C12.367,27.201,11.241,32.909,10.426,37.802z"/>
		<path fill="#010101" d="M43.626,1.806c-4.427,22.522-7.126,36.541-8.097,42.054c-1.087,0-2.97,0.175-5.649,0.524
			s-4.058,0.544-4.136,0.583c1.242-4.504,2.389-9.416,3.437-14.736c2.407-12.153,4.115-21.144,5.126-26.968L43.626,1.806z"/>
		<path fill="#010101" d="M56.207,44.092c-2.99-9.823-4.543-15.435-4.66-16.833l-0.757,0.233c-0.312,1.787-0.777,4.272-1.397,7.456
			c-0.622,3.185-1.107,5.728-1.456,7.63l-9.669,2.504c4.038-19.531,6.503-33.394,7.396-41.588c4.505-1.397,9.553-2.097,15.145-2.097
			c4.193,0,6.678,1.456,7.455,4.369c0.233,0.894,0.35,2,0.35,3.32c0,1.321-0.271,2.748-0.815,4.281
			c-0.544,1.534-1.281,3-2.213,4.397c-1.942,2.835-4.33,5.009-7.165,6.523c1.515,3.262,2.863,6.34,4.049,9.232
			c1.184,2.893,2.184,5.329,2.999,7.31L56.207,44.092z M56.789,9.669l-2.563,0.058l-1.922,9.494c1.553-0.155,3.514-1.145,5.883-2.97
			c2.446-1.864,3.669-3.397,3.669-4.602c0-1.126-1.068-1.767-3.203-1.922C58.032,9.689,57.41,9.669,56.789,9.669z"/>
		<path fill="#010101" d="M70.07,9.96l0.291-7.63c2.019,0.155,4.057,0.233,6.115,0.233c5.437,0,10.737-0.33,15.901-0.99
			l-0.641,3.204c-0.194,0.894-0.378,1.815-0.553,2.767c-0.175,0.952-0.341,1.776-0.495,2.476c-0.894,0.233-1.787,0.398-2.68,0.495
			c-0.894,0.097-1.768,0.224-2.621,0.378c-0.699,2.991-1.397,6.698-2.097,11.125c-1.554,9.786-2.642,16.912-3.262,21.376
			l-10.718,1.689c3.146-14.755,5.262-26.307,6.349-34.656c-0.932-0.117-1.863-0.155-2.795-0.117
			C71.934,10.349,71.002,10.232,70.07,9.96z"/>
		<path fill="#010101" d="M101.174,19.513c1.281-3.184,3.378-9.086,6.29-17.707l9.262,2.039c-2.137,4.35-4.059,8.291-5.767,11.824
			l-3.728,7.688c-0.738,1.553-1.467,3.068-2.185,4.543c-0.719,1.476-1.369,2.854-1.951,4.136c-0.583,2.951-1.495,6.563-2.737,10.833
			l-10.193,1.282l2.737-11.999c0-4.814-0.194-10.135-0.582-15.959c-0.389-5.825-0.622-9.183-0.699-10.077l-0.116-1.281l9.727-3.728
			v10.368l-0.058,5.825V19.513z"/>
		<path fill="#010101" d="M141.247,24.172c4.465-11.999,7.416-19.513,8.854-22.542c1.98-0.233,3.601-0.446,4.863-0.641
			c1.262-0.194,2.339-0.358,3.232-0.495c0.894-0.136,1.864-0.3,2.912-0.495c-1.902,11.262-3.494,25.454-4.775,42.578l-10.427,1.864
			c0-1.398,0.175-3.649,0.524-6.756l0.815-6.99c0.388-3.533,0.758-6.271,1.106-8.213h-0.523c-0.545,1.67-1.156,3.428-1.835,5.271
			c-0.68,1.845-1.369,3.719-2.068,5.621c-0.698,1.903-1.389,3.777-2.067,5.621c-0.68,1.845-1.272,3.602-1.776,5.271
			c-1.398,0.039-2.583,0.098-3.553,0.175l-3.495,0.175l1.922-22.134h-0.873c-0.079,0.505-0.282,1.369-0.612,2.592
			s-0.698,2.621-1.106,4.194c-0.407,1.572-0.854,3.203-1.34,4.893c-0.485,1.689-0.941,3.252-1.368,4.688
			c-0.699,2.486-1.204,4.214-1.515,5.184l-9.844,0.641c6.329-19.104,10.62-33.084,12.872-41.937c2.214,0,4.291-0.117,6.232-0.35
			s4.038-0.446,6.291-0.641c-0.116,0.854-0.243,1.826-0.379,2.912c-0.137,1.088-0.291,2.233-0.466,3.437
			c-0.175,1.204-0.359,2.438-0.554,3.699c-0.194,1.262-0.437,2.893-0.728,4.893c-0.291,2-0.67,4.495-1.136,7.485H141.247z"/>
		<path fill="#010101" d="M190.406,14.096c0,2.369-0.34,4.99-1.02,7.863c-0.68,2.874-1.602,5.514-2.767,7.921
			c-1.165,2.408-2.515,4.563-4.048,6.465c-1.534,1.903-3.137,3.515-4.806,4.834c-3.456,2.718-6.776,4.077-9.96,4.077
			c-2.679,0-4.796-0.97-6.349-2.912c-1.709-2.135-2.563-5.242-2.563-9.319c0-4.427,1.028-9.203,3.087-14.329
			c2.058-5.126,4.756-9.397,8.096-12.814c3.611-3.649,7.397-5.475,11.358-5.475c3.262,0,5.649,1.321,7.164,3.961
			C189.804,6.504,190.406,9.747,190.406,14.096z M182.136,17.765c0-3.223-0.933-4.834-2.796-4.834c-2.369,0-4.505,1.165-6.407,3.495
			c-1.515,1.864-2.816,4.408-3.902,7.63c-0.854,2.641-1.281,5.126-1.281,7.456c0,1.554,0.659,2.719,1.979,3.495
			c0.388,0.272,0.835,0.408,1.34,0.408c1.786,0,3.368-0.611,4.747-1.834c1.378-1.223,2.534-2.728,3.466-4.514
			c0.932-1.786,1.64-3.699,2.126-5.737C181.893,21.289,182.136,19.435,182.136,17.765z"/>
		<path fill="#010101" d="M194.368,2.621c0.854-0.077,1.854-0.175,2.999-0.291c1.146-0.117,2.271-0.223,3.379-0.32
			c1.106-0.097,2.262-0.204,3.465-0.321c-1.01,4.776-1.806,8.563-2.388,11.358s-1.049,5.029-1.397,6.698
			c-0.35,1.67-0.661,3.204-0.933,4.602c-0.621,2.951-1.029,4.874-1.223,5.766c-0.583,2.679-0.874,4.408-0.874,5.184
			c0,0.777,0.165,1.369,0.495,1.776c0.329,0.408,0.776,0.612,1.34,0.612c0.563,0,1.067-0.271,1.515-0.815
			c0.445-0.543,0.815-1.184,1.106-1.922c0.291-0.737,0.514-1.494,0.67-2.271c0.154-0.776,0.32-1.563,0.495-2.359
			c0.175-0.795,0.407-1.902,0.698-3.32c0.292-1.417,0.583-2.892,0.874-4.427c0.291-1.533,0.592-3.096,0.903-4.688
			c0.815-4.078,1.767-9.241,2.854-15.494l9.028-0.583l-0.291,1.515c-0.466,2.446-0.981,5.271-1.544,8.475
			c-0.563,3.204-1.077,5.97-1.543,8.3c-1.204,6.058-2.098,10.358-2.68,12.901c-0.582,2.544-1.389,4.611-2.417,6.203
			c-1.029,1.593-2.224,2.913-3.582,3.961c-2.603,1.941-5.612,2.912-9.028,2.912c-2.097,0-3.902-0.583-5.417-1.747
			c-1.709-1.398-2.563-3.242-2.563-5.534c0-0.155,0-0.31,0-0.466c0-0.155,0.048-0.679,0.146-1.573
			c0.097-0.893,0.32-2.495,0.67-4.805c0.349-2.31,0.728-4.718,1.136-7.223c0.407-2.504,0.845-5.018,1.311-7.543
			c0.466-2.523,0.893-4.814,1.281-6.873C193.707,5.883,194.212,3.32,194.368,2.621z"/>
		<path fill="#010101" d="M217.55,9.96l0.291-7.63c2.019,0.155,4.057,0.233,6.115,0.233c5.437,0,10.737-0.33,15.901-0.99
			l-0.641,3.204c-0.194,0.894-0.378,1.815-0.553,2.767c-0.175,0.952-0.341,1.776-0.495,2.476c-0.894,0.233-1.787,0.398-2.68,0.495
			c-0.894,0.097-1.768,0.224-2.621,0.378c-0.699,2.991-1.397,6.698-2.097,11.125c-1.554,9.786-2.642,16.912-3.262,21.376
			l-10.718,1.689c3.146-14.755,5.262-26.307,6.349-34.656c-0.932-0.117-1.863-0.155-2.795-0.117
			C219.413,10.349,218.481,10.232,217.55,9.96z"/>
		<path fill="#010101" d="M233.509,45.141c4.154-20.425,6.679-34.986,7.572-43.685c3.728,0.312,6.95,0.466,9.669,0.466
			c-1.903,8.077-3.165,13.746-3.786,17.008l5.883-0.699c0.543-2.795,1.038-5.523,1.485-8.184c0.446-2.659,1.02-5.388,1.718-8.184
			c1.553-0.271,3.204-0.475,4.951-0.611c1.748-0.136,2.951-0.223,3.611-0.262l0.99-0.117c-1.903,6.213-3.767,14.931-5.592,26.153
			c-0.894,5.048-1.709,10.213-2.446,15.494l-9.319,1.048c0.504-2.368,0.961-4.602,1.369-6.698c0.407-2.097,0.815-4.174,1.223-6.232
			c0.408-2.058,0.747-3.824,1.02-5.3l-5.824,0.524c-0.895,4.932-2.001,10.717-3.32,17.357L233.509,45.141z"/>
		<path fill="#010101" d="M271.253,45.024c4.231-21.318,6.814-35.394,7.746-42.229c1.709-0.311,3.437-0.612,5.185-0.903
			c1.747-0.291,3.62-0.437,5.62-0.437s3.747,0.34,5.242,1.02c1.494,0.68,2.709,1.622,3.641,2.825c1.785,2.292,2.68,5.379,2.68,9.261
			c0,4.272-1.127,8.776-3.379,13.513c-2.369,4.932-5.475,8.951-9.319,12.057c-4.389,3.457-9.086,5.184-14.096,5.184
			C273.718,45.315,272.611,45.218,271.253,45.024z M281.679,37.802c2.718-1.747,5.222-5.377,7.514-10.892
			c1.281-3.067,2.135-5.65,2.563-7.747c0.427-2.097,0.641-3.747,0.641-4.951c0-1.203-0.407-2.222-1.223-3.058
			c-0.815-0.834-2.097-1.252-3.845-1.252c-0.66,3.34-1.418,6.931-2.271,10.775C283.62,27.201,282.494,32.909,281.679,37.802z"/>
		<path fill="#010101" d="M330.722,14.096c0,2.369-0.34,4.99-1.02,7.863c-0.68,2.874-1.602,5.514-2.767,7.921
			c-1.165,2.408-2.515,4.563-4.048,6.465c-1.534,1.903-3.137,3.515-4.806,4.834c-3.456,2.718-6.776,4.077-9.96,4.077
			c-2.679,0-4.796-0.97-6.349-2.912c-1.709-2.135-2.563-5.242-2.563-9.319c0-4.427,1.028-9.203,3.087-14.329
			c2.058-5.126,4.756-9.397,8.096-12.814c3.611-3.649,7.397-5.475,11.358-5.475c3.262,0,5.649,1.321,7.164,3.961
			C330.119,6.504,330.722,9.747,330.722,14.096z M322.451,17.765c0-3.223-0.933-4.834-2.796-4.834c-2.369,0-4.505,1.165-6.407,3.495
			c-1.515,1.864-2.816,4.408-3.902,7.63c-0.854,2.641-1.281,5.126-1.281,7.456c0,1.554,0.659,2.719,1.979,3.495
			c0.388,0.272,0.835,0.408,1.34,0.408c1.786,0,3.368-0.611,4.747-1.834c1.378-1.223,2.534-2.728,3.466-4.514
			c0.932-1.786,1.64-3.699,2.126-5.737C322.208,21.289,322.451,19.435,322.451,17.765z"/>
		<path fill="#010101" d="M336.139,1.34h1.688c0.776,0,2.951-0.078,6.524-0.233c0.543,2.795,1.048,5.397,1.514,7.805
			c1.242,6.912,2.097,11.358,2.563,13.338c0.154-0.815,0.329-1.747,0.523-2.796c0.194-1.048,0.408-2.145,0.642-3.291
			c0.232-1.145,0.466-2.32,0.698-3.524c0.388-1.902,1.185-5.728,2.389-11.475l7.28-0.874c-4.232,19.61-6.873,33.686-7.921,42.229
			c-0.467,0-2.068,0.33-4.806,0.99c-2.737,0.661-4.379,1.087-4.922,1.281c-0.777-10.639-1.631-18.173-2.563-22.6
			c-0.117,0.738-0.272,1.602-0.467,2.592s-0.388,2.049-0.582,3.175c-0.738,4.232-1.709,9.339-2.912,15.318l-8.737,2.039
			c4.427-21.085,7.009-35.763,7.747-44.034C335.342,1.321,335.789,1.34,336.139,1.34z"/>
		<path fill="#010101" d="M361.65,2.621c0.854-0.077,1.854-0.175,2.999-0.291c1.146-0.117,2.271-0.223,3.379-0.32
			c1.106-0.097,2.262-0.204,3.465-0.321c-1.01,4.776-1.806,8.563-2.388,11.358s-1.049,5.029-1.397,6.698
			c-0.35,1.67-0.661,3.204-0.933,4.602c-0.621,2.951-1.029,4.874-1.223,5.766c-0.583,2.679-0.874,4.408-0.874,5.184
			c0,0.777,0.165,1.369,0.495,1.776c0.329,0.408,0.776,0.612,1.34,0.612c0.563,0,1.067-0.271,1.515-0.815
			c0.445-0.543,0.815-1.184,1.106-1.922c0.291-0.737,0.514-1.494,0.67-2.271c0.154-0.776,0.32-1.563,0.495-2.359
			c0.175-0.795,0.407-1.902,0.698-3.32c0.292-1.417,0.583-2.892,0.874-4.427c0.291-1.533,0.592-3.096,0.903-4.688
			c0.815-4.078,1.767-9.241,2.854-15.494l9.028-0.583l-0.291,1.515c-0.466,2.446-0.981,5.271-1.544,8.475
			c-0.563,3.204-1.077,5.97-1.543,8.3c-1.204,6.058-2.098,10.358-2.68,12.901c-0.582,2.544-1.389,4.611-2.417,6.203
			c-1.029,1.593-2.224,2.913-3.582,3.961c-2.603,1.941-5.612,2.912-9.028,2.912c-2.097,0-3.902-0.583-5.417-1.747
			c-1.709-1.398-2.563-3.242-2.563-5.534c0-0.155,0-0.31,0-0.466c0-0.155,0.048-0.679,0.146-1.573
			c0.097-0.893,0.32-2.495,0.67-4.805c0.349-2.31,0.728-4.718,1.136-7.223c0.407-2.504,0.845-5.018,1.311-7.543
			c0.466-2.523,0.893-4.814,1.281-6.873C360.989,5.883,361.494,3.32,361.65,2.621z"/>
		<path fill="#010101" d="M384.833,9.96l0.291-7.63c2.019,0.155,4.057,0.233,6.115,0.233c5.437,0,10.737-0.33,15.901-0.99
			L406.5,4.776c-0.194,0.894-0.378,1.815-0.553,2.767c-0.175,0.952-0.341,1.776-0.495,2.476c-0.894,0.233-1.787,0.398-2.68,0.495
			c-0.894,0.097-1.768,0.224-2.621,0.378c-0.699,2.991-1.397,6.698-2.097,11.125c-1.554,9.786-2.642,16.912-3.262,21.376
			l-10.718,1.689c3.146-14.755,5.262-26.307,6.349-34.656c-0.932-0.117-1.863-0.155-2.795-0.117
			C386.696,10.349,385.765,10.232,384.833,9.96z"/>
		<path fill="#010101" d="M422.11,14.562c0.193-0.776,0.291-1.592,0.291-2.446c0-0.854-0.214-1.543-0.641-2.068
			c-0.428-0.524-0.884-0.786-1.369-0.786s-0.961,0.117-1.427,0.35s-0.932,0.544-1.397,0.932c-1.088,0.894-1.631,1.855-1.631,2.883
			c0,1.029,0.271,1.864,0.815,2.504c0.543,0.641,1.213,1.233,2.009,1.777c0.796,0.544,1.66,1.106,2.593,1.689
			c0.932,0.583,1.806,1.321,2.621,2.213c1.863,2.175,2.795,5.067,2.795,8.679c0,4.35-1.592,7.941-4.775,10.775
			c-3.029,2.719-6.854,4.078-11.475,4.078c-3.418,0-6.544-1.786-9.378-5.359l4.427-8.679c0.543,1.087,1.592,2.078,3.146,2.971
			c1.553,0.932,2.718,1.398,3.494,1.398s1.428-0.078,1.951-0.233c0.524-0.155,1-0.388,1.428-0.699
			c0.97-0.699,1.456-1.543,1.456-2.534s-0.312-1.893-0.932-2.708c-0.622-0.815-1.39-1.592-2.301-2.33
			c-0.913-0.737-1.903-1.485-2.971-2.243c-1.068-0.757-2.049-1.563-2.941-2.417c-2.176-1.941-3.262-3.98-3.262-6.116
			c0-2.135,0.611-4.096,1.834-5.883c1.224-1.786,2.757-3.329,4.602-4.63c1.844-1.301,3.863-2.33,6.058-3.087
			c2.193-0.757,4.049-1.136,5.563-1.136c1.515,0,2.747,0.137,3.699,0.408c0.951,0.272,1.776,0.68,2.476,1.223
			c1.514,1.243,2.271,3.068,2.271,5.476c0,0.582-0.05,1.146-0.146,1.689c-0.098,0.544-0.186,1.146-0.263,1.806L422.11,14.562z"/>
	</g>
	<g>
		<g>
			<path fill="#EE2C52" d="M99.683,66.815c-0.55-0.483-0.937-1.515-1.15-2.395s-0.311-1.773-0.297-2.681s0.125-1.814,0.327-2.722
				s0.388-1.927,0.729-2.553c0.271-0.498,0.848-1,1.317-1.403s0.965-0.773,1.488-1.111s1.056-0.646,1.597-0.93
				s1.248-0.837,1.608-0.876c0.088-0.01,0.332,0.222,0.354,0.221c0.066-0.003,0.376-0.386,0.619-0.507s0.492-0.223,0.747-0.304
				s0.51-0.163,0.765-0.244s0.529-0.313,0.684-0.36c0.382-0.118,1.2,0.007,1.728-0.104s1.045-0.251,1.551-0.42
				s1.016-0.312,1.53-0.431s1.275-0.027,1.698-0.134c0.219-0.056,0.589-0.28,0.947-0.35s0.712-0.125,1.063-0.173
				s0.694-0.112,1.027-0.189s0.86-0.456,0.89-0.448c0.043,0.011,0.269,0.336,0.539,0.35s0.537-0.002,0.746,0.004
				c0.135,0.004,0.254,0.069,0.328,0.162s0.143,0.189,0.202,0.291s0.115,0.171,0.167,0.209s0.181-0.135,0.246-0.151
				c0.076-0.02,0.21,0.164,0.092,0.278s-0.229,0.229-0.229,0.229c0.009,0.022,0.425,0.107,0.542,0.272s0.47,0.292,0.646,0.444
				c0.087,0.076,0.098,0.245,0.034,0.301s-0.209,0.263-0.194,0.311c0.095,0.298,1.208,1.003,1.303,1.597s-0.026,1.158-0.365,1.688
				s-0.824,0.972-1.459,1.325s-1.285,0.532-1.939,0.522c-0.777-0.012-1.51-0.019-2.187-0.01s-1.335,0.046-1.979,0.109
				s-1.264,0.172-1.86,0.331s-1.233,0.577-1.638,0.685c-0.503,0.134-1.387,0.061-2.015,0.218s-1.23,0.358-1.809,0.602
				s-1.145,0.507-1.7,0.792s-1.429,0.555-1.667,0.833c-0.156,0.183-0.277,0.65-0.483,0.808s-0.563,0.323-0.654,0.46
				c-0.151,0.226-0.093,0.836-0.029,1.187s0.078,0.89,0.204,1.074c0.721,1.054,3.729,2.076,5.871,2.827s5.482,1.206,6.431,2.027
				c0.157,0.136,0.33,0.652,0.548,0.965s0.411,0.626,0.578,0.937s0.276,0.647,0.325,1.012s0.001,0.964-0.216,1.195
				c-0.271,0.29-1.075,0.525-1.664,0.744s-1.299,0.595-1.765,0.635c-0.174,0.015-0.496-0.111-0.8-0.219s-0.623-0.207-0.958-0.299
				s-0.673-0.167-1.017-0.227s-0.745-0.019-1.009-0.047c-1.299-0.14-3.093-1.118-4.631-1.902s-3.446-1.606-4.17-2.45
				c-0.201-0.233-0.376-0.738-0.589-1.087S100.002,67.095,99.683,66.815z"/>
			<path fill="#EE2C52" d="M143.407,60.54c0.08,0.34-0.057,0.972-0.01,1.363s0.116,0.778,0.184,1.146
				c0.062,0.338,0.109,0.684,0.156,1.016s0.118,0.828,0.016,1.167c-0.146,0.484-0.557,1.085-0.741,1.574s-0.347,1.102-0.586,1.532
				c-0.382,0.687-1.068,1.366-1.56,1.913s-0.895,1.154-1.208,1.439c-0.104,0.094-0.278,0.202-0.395,0.334s-0.239,0.276-0.371,0.407
				c-0.059,0.059-0.146,0.149-0.249,0.272s-0.183,0.201-0.242,0.237c-0.276-0.157-0.413-0.235-0.688-0.394
				c-0.13,0.332-0.197,0.498-0.328,0.83c-0.219,0.012-0.328,0.017-0.546,0.028c-0.183,0.134-0.274,0.202-0.457,0.336
				c-0.629,0.658-1.261,1.189-1.893,1.593s-1.321,0.733-2.068,0.989s-1.577,0.463-2.49,0.617s-2.21,0.565-3.086,0.48
				c-0.333-0.032-0.775-0.261-1.084-0.346s-0.607-0.186-0.868-0.26c-0.449-0.128-1.519-0.271-1.732-0.528
				c-0.063-0.075-0.112-0.354-0.245-0.458s-0.292-0.159-0.385-0.203c-0.342-0.163-0.63-0.633-0.753-1.038s-0.23-0.843-0.327-1.299
				c-0.06-0.28-0.126-0.541-0.195-0.788s-0.148-0.502-0.239-0.767c0.269-0.005,0.404-0.009,0.672-0.014
				c-0.243-0.409-0.363-0.614-0.604-1.023c-0.032-0.081-0.079-0.159-0.138-0.234s-0.104-0.153-0.136-0.234
				c0.041-0.222,0.062-0.33,0.103-0.552c0.326-1.586,0.661-3.031,1.006-4.334s0.83-2.418,1.448-3.349
				c0.038-0.15,0.056-0.228,0.094-0.378c0.199-0.481,0.376-0.877,0.531-1.188s0.297-0.61,0.416-0.893
				c0.2-0.476,0.472-1.212,0.672-1.316c0.155-0.081,0.631-0.052,0.846-0.204s0.445-0.396,0.559-0.425
				c0.193-0.051,0.551,0.162,0.641,0.305s0.155,0.367,0.221,0.633c0.057,0.227,0.162,0.497,0.279,0.791s0.564,0.591,0.663,0.774
				c0.05,0.093,0.023,0.399,0.061,0.613s0.069,0.457,0.116,0.699c0.083,0.423,0.178,0.878,0.233,1.337s0.107,1.021-0.019,1.278
				c-0.161,0.329-0.651,0.833-0.92,1.371s-0.491,1.094-0.667,1.666s-0.298,1.131-0.365,1.681s-0.073,1.029-0.013,1.429
				c0.046,0.199,0.069,0.296,0.115,0.495c0.257,0.032,0.386,0.049,0.643,0.081c0.779-0.009,1.494-0.054,2.145-0.132
				s1.269-0.208,1.85-0.389s1.148-0.42,1.701-0.718s1.144-0.652,1.77-1.067s1.198-0.923,1.719-1.519s0.984-1.233,1.392-1.914
				s0.754-1.368,1.037-2.063s0.485-1.812,0.697-1.992c0.149-0.127,0.693-0.286,0.779-0.699c0.003-0.157,0.005-0.237,0.008-0.395
				c-0.066-0.157-0.012-0.32,0.098-0.48c0.244-0.355,0.907-0.873,1.202-0.793c0.235,0.064,0.619,0.626,0.861,0.962
				S143.348,60.287,143.407,60.54z"/>
			<path fill="#EE2C52" d="M163.708,67.115c-0.605-0.085-1.264-0.139-1.977-0.159s-1.418-0.039-2.107-0.047
				c-0.493-0.005-0.968-0.016-1.423-0.039s-1.098-0.159-1.232-0.086c-0.21,0.115-0.492,0.905-0.725,1.271s-0.483,0.721-0.73,1.059
				c-0.259,0.354-0.5,0.732-0.725,1.111s-0.429,0.876-0.671,1.224c-0.222,0.318-0.563,0.64-0.775,0.926s-0.374,0.739-0.563,0.993
				c-0.213,0.286-0.637,0.623-0.85,0.979s-0.38,0.666-0.501,0.931c-0.088,0.156-0.131,0.234-0.219,0.391
				c-0.172,0.113-0.279,0.21-0.317,0.286s-0.18,0.141-0.225,0.194c-0.097,0.115-0.225,0.49-0.392,0.715
				c-0.071,0.096-0.125,0.212-0.168,0.312s-0.067,0.172-0.075,0.218c-0.04,0.23-0.235,0.375-0.266,0.42
				c-0.027,0.04-0.016,0.24-0.063,0.363s-0.092,0.242-0.138,0.35c-0.113,0.261-0.218,0.528-0.188,0.646
				c0.022,0.087,0.114,0.197,0.165,0.277s0.054,0.236,0.084,0.301c0.047,0.099,0.252,0.191,0.307,0.23
				c0.085,0.061,0.225,0.192,0.41,0.319c0.112,0.162,0.168,0.242,0.281,0.403c0.012,0.691-0.197,1.203-0.609,1.537
				c-0.452,0.366-1.137,0.484-2.045,0.325c-0.182-0.032-0.272-0.048-0.454-0.08c-0.106-0.138-0.154-0.283-0.178-0.317
				c-0.072-0.101-0.343-0.19-0.46-0.259s-0.206-0.247-0.29-0.343c-0.175-0.198-0.546-0.357-0.73-0.486
				c-0.123-0.094-0.186-0.143-0.309-0.236c0.046-0.254,0.078-0.398,0.075-0.413c-0.031-0.179-0.228-0.495-0.269-0.765
				s-0.058-0.542-0.067-0.799c-0.007-0.212-0.03-0.421-0.059-0.617s-0.136-0.409-0.154-0.53c-0.143-0.956,0.543-2.448,1.035-3.312
				s0.983-1.704,1.485-2.482c0.273-0.424,0.561-0.854,0.842-1.292s0.538-0.898,0.775-1.38c0.156-0.115,0.235-0.171,0.391-0.286
				c0.236-0.339,0.43-0.622,0.582-0.845s0.316-0.452,0.477-0.684c0.102-0.146,0.194-0.293,0.281-0.433s0.236-0.361,0.233-0.368
				c-0.01-0.022-0.279-0.045-0.402-0.055s-0.25-0.01-0.373-0.01c-0.147,0-0.285-0.011-0.408-0.021s-0.245-0.026-0.366-0.048
				c-0.169-0.03-0.307-0.093-0.356-0.099c-0.189-0.024-0.588,0.072-0.903,0.015c-0.145-0.026-0.217-0.038-0.362-0.064
				c-0.073-0.014-0.138-0.031-0.196-0.054s-0.112-0.041-0.16-0.05c-0.242-0.045-0.472-0.005-0.599,0
				c-0.23,0.009-0.568-0.105-0.834-0.155c-0.145-0.027-0.217-0.043-0.362-0.07c-0.048-0.009-0.111-0.018-0.186-0.02
				s-0.135-0.008-0.184-0.017c-0.169-0.032-0.349-0.082-0.535-0.153s-0.447-0.191-0.572-0.345c-0.239-0.293-0.373-0.658-0.465-0.7
				c-0.098-0.191-0.147-0.284-0.245-0.476c0.003-0.143-0.007-0.284-0.03-0.42s-0.035-0.297-0.059-0.457
				c-0.036-0.238-0.092-0.513-0.124-0.794s-0.029-0.636,0.062-0.975c0.045-0.171,0.135-0.309,0.225-0.387s0.166-0.146,0.227-0.205
				c0.083-0.198,0.125-0.299,0.209-0.497c0.183,0.051,0.275,0.077,0.458,0.127c0.4,0.078,0.601,0.116,1.001,0.193
				c0.763,0.146,1.543,0.264,2.341,0.353s1.625,0.177,2.468,0.251c0.482,0.042,0.977,0.082,1.474,0.121s1.314,0.235,1.546,0.125
				c0.104-0.05,0.259-0.371,0.386-0.54c0.155-0.045,0.231-0.069,0.386-0.114c0.433,0.049,0.728,0.152,0.886,0.31
				s0.303,0.39,0.388,0.437c0.273,0.15,1.071,0.072,1.618,0.101s1.11,0.033,1.666,0.033c0.819,0,1.663,0.029,2.5,0.059
				s1.637,0.101,2.401,0.209c0.334,0.048,0.656,0.106,0.963,0.173s0.589,0.138,0.846,0.22c0.13,0.117,0.195,0.177,0.325,0.294
				c0.053,0.149,0.138,0.291,0.254,0.425s0.243,0.269,0.365,0.403c0.254,0.281,0.502,0.635,0.745,1.021s0.364,1.12,0.124,1.574
				c-0.12,0.228-0.396,0.397-0.499,0.432c-0.152,0.15-0.227,0.225-0.38,0.375c-0.144-0.033-0.216-0.049-0.359-0.082
				c-0.145-0.02-0.281-0.021-0.407-0.002s-0.258,0.037-0.379,0.071c-0.1,0.028-0.206,0.063-0.307,0.085s-0.226,0.047-0.338,0.042
				c-0.199-0.009-0.394-0.059-0.525-0.089S163.854,67.135,163.708,67.115z"/>
			<path fill="#EE2C52" d="M181.431,66.264c0.045,0.07,0.003,0.291-0.017,0.371s-0.038,0.152-0.057,0.222s-0.032,0.146-0.04,0.228
				s0.063,0.277,0.04,0.373c-0.127,0.538-1.22,1.237-1.916,1.465s-1.44,0.362-2.231,0.411s-1.601,0.099-2.432,0.149
				s-2.003,0.648-2.532,0.633c-0.195-0.006-0.59-0.187-0.859-0.101s-0.85-0.087-1.126-0.027c-0.116,0.025-0.36,0.199-0.587,0.23
				s-0.661,0.076-0.682,0.111c-0.03,0.05,0.088,0.441,0.048,0.661s-0.035,0.5,0.025,0.552c0.341,0.292,1.799,0.278,2.851,0.306
				s2.856-0.059,3.087,0.168c0.031,0.03-0.009,0.197-0.062,0.227s-0.087,0.132-0.057,0.187c0.066,0.118,0.316,0.301,0.469,0.494
				s0.307,0.377,0.462,0.559s0.319,0.337,0.493,0.461s0.547,0.127,0.633,0.186c0.078,0.053,0.128,0.409,0.143,0.635
				s-0.035,0.549-0.163,0.674c-0.24,0.233-0.843,0.435-1.268,0.661s-0.865,0.421-1.321,0.584s-0.936,0.281-1.434,0.355
				s-1.055,0.052-1.639-0.027c-0.122-0.017-0.217-0.026-0.279-0.033s-0.178-0.123-0.23-0.132c-0.105-0.017-0.495,0.095-0.849,0.005
				s-0.726,0.011-0.851,0.004c-0.164-0.01-0.581-0.242-0.967-0.278s-0.88-0.273-1.008-0.252c-0.274,0.046-0.887,0.915-1.284,1.431
				s-1.126,1.586-1.093,1.664c0.071,0.17,1.535,0.365,2.101,0.414s1.102,0.072,1.609,0.075s1.029,0.01,1.561,0.014
				s1.396,0.244,1.997,0.179c0.423-0.046,1.143-0.3,1.839-0.307s1.527-0.251,1.935-0.204c0.144,0.017,0.355,0.231,0.488,0.422
				s0.259,0.369,0.382,0.534s0.254,0.313,0.393,0.445s0.43,0.143,0.55,0.196c0.074,0.033,0.148,0.22,0.173,0.352
				s0.045,0.26,0.059,0.379s0.048,0.22,0.103,0.308s0.312,0.12,0.312,0.12c0.05,0.084-0.944,1.282-1.478,1.641
				s-1.129,0.609-1.784,0.753s-1.375,0.232-2.162,0.264s-1.672,0.061-2.615,0.127c-0.23,0.017-0.423-0.01-0.569-0.086
				s-0.338-0.148-0.522-0.152c-0.54-0.011-1.309,0.072-2.132,0.063s-1.651-0.081-2.485-0.215s-1.619-0.341-2.354-0.62
				s-1.308-0.704-1.727-1.183c-0.167-0.19-0.285-0.401-0.316-0.631s-0.372-0.454-0.437-0.578c-0.068-0.13,0.018-0.648-0.003-1.03
				s-0.04-0.782-0.055-1.199s-0.013-0.825,0.007-1.225s0.096-0.758,0.215-1.07c0.127-0.334,0.326-0.628,0.603-0.872
				s0.324-0.814,0.372-0.869c0.023-0.026,0.21-0.06,0.25-0.16s0.261-0.055,0.315-0.078c0.152-0.065,0.425-0.767,0.65-1.113
				s0.455-0.681,0.688-1.003s0.466-0.649,0.7-0.983s0.718-0.94,0.699-1.131c-0.02-0.196-0.505-0.713-0.613-1.095
				s-0.173-0.759-0.196-1.129s-0.029-0.748-0.024-1.138s-0.157-0.984-0.09-1.204c0.07-0.23,0.626-0.556,1.006-0.728
				s0.784-0.3,1.212-0.384s0.889-0.141,1.382-0.17s1.04-0.047,1.557-0.116c0.963-0.129,1.89-0.304,2.666-0.375
				s1.535-0.117,2.279-0.138s1.517-0.035,2.319-0.042s2.241-0.347,2.742-0.138c0.151,0.063,0.506,0.413,0.581,0.375
				c0.095-0.049,0.236-0.254,0.36-0.159s0.181-0.175,0.181-0.175c0.01-0.003,0.476,0.782,0.823,1.086S181.3,66.061,181.431,66.264z"
				/>
			<path fill="#EE2C52" d="M213.38,84.643c-0.153,0.397-0.378,0.801-0.672,1.209s-0.639,0.771-1.036,1.083s-0.84,0.572-1.327,0.777
				s-1.067,0.376-1.533,0.33c-0.295-0.029-0.553-0.157-0.667-0.241s-0.237-0.163-0.358-0.237c-0.075-0.046-0.146-0.088-0.209-0.124
				s-0.119-0.067-0.169-0.092c-0.182-0.074-0.273-0.111-0.455-0.186c0.065-0.182,0.096-0.273,0.161-0.455
				c0.055-0.187,0.046-0.331-0.028-0.438s-0.236-0.256-0.448-0.449c-0.074-0.067-0.149-0.144-0.224-0.216s-0.136-0.145-0.185-0.216
				c-0.252-0.273-0.378-0.408-0.63-0.682c0.412-0.088,0.619-0.133,1.03-0.223c0.636-0.15,1.063-0.354,1.282-0.608
				s0.414-1.128,0.27-1.294c-0.132-0.151-0.922-0.125-1.263-0.062s-0.689,0.139-1.043,0.223c-0.454,0.107-0.918,0.193-1.387,0.263
				s-0.979,0.095-1.533,0.077c-0.202-0.007-0.39-0.016-0.565-0.033s-0.365-0.042-0.566-0.072c-0.15-0.033-0.226-0.05-0.375-0.083
				c-0.041-0.26-0.085-0.408-0.134-0.445s-0.099-0.081-0.147-0.13c-0.122-0.122-0.248-0.282-0.378-0.486s-0.044-0.569-0.065-0.761
				c-0.017-0.151-0.202-0.64-0.202-0.64c-0.014-0.003-0.285,0.563-0.372,0.864c-0.065,0.138-0.099,0.208-0.165,0.346
				c-0.152,0.022-0.228,0.032-0.38,0.055c-0.051,0.021-0.09,0.074-0.119,0.155s-0.043,0.144-0.045,0.19
				c-0.085,0.235-0.128,0.354-0.213,0.589c-0.052,0.045-0.105,0.083-0.157,0.116s-0.129,0.075-0.155,0.116
				c-0.083,0.13-0.132,0.416-0.217,0.624s-0.167,0.405-0.252,0.588c-0.138,0.298-0.26,0.595-0.362,0.884s-0.146,0.57-0.133,0.853
				c-0.068,0.151-0.102,0.228-0.169,0.379c-0.133,0.135-0.277,0.241-0.434,0.316s-0.348,0.133-0.47,0.206
				c-0.05,0.03-0.125,0.083-0.215,0.114s-0.162,0.056-0.213,0.076c-0.053,0.152-0.079,0.229-0.132,0.381
				c-0.185,0.02-0.277,0.03-0.462,0.049c-0.283,0.033-0.484,0.058-0.6,0.075s-0.248,0.024-0.4,0.017
				c-0.152-0.022-0.229-0.033-0.381-0.056c-0.269-0.226-0.477-0.409-0.623-0.546s-0.373-0.263-0.512-0.396
				c-0.215-0.205-0.327-0.515-0.344-0.656s-0.031-0.28-0.056-0.39c-0.031-0.136-0.068-0.262-0.075-0.356s-0.035-0.166-0.083-0.216
				c-0.188-0.18-0.281-0.272-0.468-0.452c0.174-0.116,0.262-0.174,0.436-0.29c0.029-0.237,0.043-0.356,0.072-0.594
				c0.574-1.164,1.171-2.281,1.793-3.351s1.257-2.171,1.911-3.281c0.214-0.364,0.426-0.73,0.629-1.096s0.597-0.847,0.626-1.096
				c0.005-0.045-0.03-0.154-0.026-0.248s0.03-0.216,0.089-0.313c0.225-0.371,0.526-0.732,0.712-1.041s0.376-0.625,0.556-0.943
				c0.215-0.382,0.432-0.769,0.654-1.135s0.5-0.74,0.832-1.126c0.237-0.089,0.355-0.136,0.592-0.226
				c0.074-0.021,0.16-0.046,0.259-0.077s0.208-0.043,0.33-0.039c0.218,0.036,0.326,0.052,0.544,0.088
				c0.691-0.281,1.3-0.688,1.825-1.223s1.062-1.184,1.611-1.943c0.149-0.193,0.224-0.289,0.373-0.482
				c0.185,0.117,0.279,0.173,0.464,0.29c0.119,0.073,0.286,0.143,0.501,0.206s0.449,0.142,0.683,0.206
				c0.413,0.113,0.841,0.216,1.225,0.34s0.789,0.319,0.932,0.542c0.171,0.266,0.222,0.659,0.243,0.847s0.064,0.383,0.102,0.565
				c0.079,0.382,0.13,0.797,0.186,1.196s0.042,0.911,0.111,1.337c0.059,0.36,0.216,0.793,0.298,1.181s0.153,0.789,0.228,1.181
				c0.106,0.557,0.234,1.11,0.353,1.639s0.29,1.379,0.469,1.499c0.074,0.05,0.339,0.035,0.372,0.037
				c0.081,0.004,0.255-0.082,0.391-0.104s0.291-0.044,0.464-0.066c0.164-0.014,0.245-0.018,0.409-0.031
				c0.059,0.141,0.088,0.209,0.147,0.35c0.024,0.117,0.177,0.298,0.37,0.354c0.248,0.071,0.559,0.089,0.708,0.194
				s0.285,0.218,0.409,0.335c0.1,0.094,0.199,0.164,0.299,0.211c0.224,0.084,0.336,0.126,0.561,0.21
				c-0.119,0.211-0.179,0.319-0.298,0.53c-0.249,0.422-0.603,0.824-1.066,1.21s-1.457,0.768-1.561,0.962
				c-0.026,0.049,0.043,0.276,0.055,0.405s0.057,0.271,0.093,0.404c0.096,0.361,0.134,0.812,0.183,1.233s0.047,0.853-0.005,1.298
				C213.425,84.557,213.411,84.587,213.38,84.643z M202.62,78.36c0.698-0.064,1.428-0.055,2.039-0.097s1.951-0.117,2.039-0.248
				c0.111-0.164-0.328-1.442-0.508-2.209s-0.37-1.529-0.572-2.284c-0.092,0.139-0.138,0.207-0.23,0.346
				c-0.504,0.479-0.994,1.019-1.468,1.614s-0.877,1.19-1.223,1.686c-0.142,0.204-0.312,0.41-0.468,0.616s-0.43,0.617-0.43,0.617
				c0.008,0.013,0.293-0.024,0.43-0.02S202.501,78.371,202.62,78.36z"/>
			<path fill="#EE2C52" d="M215.708,71.78c0.034-0.393,0.443-0.914,0.819-1.268s0.789-0.653,1.236-0.902s0.914-0.46,1.397-0.629
				s0.977-0.298,1.375-0.439c0.925-0.328,1.99-0.812,3.08-1.2s2.205-0.743,3.34-1.062s2.299-0.544,3.497-0.677
				s3.284-0.198,3.809,0.263c0.097,0.085,0.204,0.444,0.36,0.647s0.316,0.407,0.484,0.609s0.32,0.396,0.452,0.589
				s0.182,0.488,0.251,0.604c0.105,0.176,0.461,0.415,0.621,0.652s0.263,0.724,0.128,0.96c-0.103,0.179-0.457,0.383-0.68,0.548
				s-0.533,0.416-0.73,0.445c-0.629,0.092-1.829-0.185-2.752-0.071s-2.07,0.418-2.481,0.286c-0.173-0.056-0.494-0.299-0.799-0.287
				s-0.619,0.067-0.945,0.173s-0.652,0.209-0.979,0.313s-0.764,0.054-0.934,0.103c-0.179,0.051-0.533,0.326-0.887,0.395
				c-0.353,0.068-1.035,0.077-1.151,0.188c-0.036,0.034,0.005,0.192,0.079,0.226s0.03,0.172,0.041,0.228
				c0.02,0.101,0.345,0.273,0.58,0.338c0.234,0.064,0.483,0.127,0.743,0.189s0.487,0.146,0.687,0.245s0.344,0.444,0.42,0.497
				c0.124,0.085,0.69,0.059,0.967,0.214s0.506,0.344,0.687,0.572s0.318,0.478,0.415,0.744s0.118,0.548,0.156,0.715
				c0.037,0.16,0.171,0.265,0.269,0.237s0.273,0.023,0.339,0.126c0.12,0.19,0.283,0.604,0.594,0.909s0.65,0.682,0.752,1.008
				c0.145,0.464,0.134,1.102,0.178,1.558s-0.021,0.926-0.203,1.4c-0.337,0.881-0.831,1.674-1.474,2.378s-1.382,1.335-2.214,1.889
				s-1.729,1.031-2.686,1.43c-0.958,0.398-2.091,0.978-2.807,1.007c-0.079,0.003-0.205-0.02-0.306,0.006s-0.079-0.176-0.079-0.176
				c-0.008-0.006-0.423,0.277-0.665,0.328s-0.503,0.069-0.784,0.062s-0.57-0.02-0.863-0.04s-0.686,0.078-0.821,0.04
				c-0.129-0.036-0.341-0.32-0.482-0.472s-0.251-0.523-0.328-0.578c-0.042-0.03-0.185-0.055-0.173-0.172s-0.134-0.177-0.134-0.177
				c-0.016-0.029,0.22-0.37,0.208-0.405s-0.05-0.063-0.114-0.086s-0.124-0.053-0.174-0.088s-0.065-0.097-0.038-0.16
				c0.08-0.181,0.137-0.403,0.11-0.649s-0.054-0.498-0.08-0.756s-0.008-0.504,0.054-0.738s0.306-0.525,0.545-0.566
				c0.621-0.106,1.67,0.053,2.437-0.109s1.485-0.394,2.159-0.688s1.315-0.609,1.922-0.952s1.542-0.64,1.799-0.929
				c0.089-0.101,0.172-0.391,0.305-0.535s0.273-0.276,0.42-0.398s0.28-0.256,0.4-0.4s0.211-0.328,0.244-0.533
				c0.025-0.157-0.028-0.268-0.142-0.299s-0.17-0.114-0.175-0.255c-0.165-0.037-0.251-0.056-0.416-0.093
				c-0.48-0.243-1.019-0.445-1.619-0.605c-0.6-0.16-1.288-0.549-1.539-0.542c-0.168,0.005-0.523,0.186-0.76,0.12
				s-0.564-0.158-0.916-0.194c-0.784-0.081-1.656-0.103-2.437-0.211s-1.91-0.276-2.251-0.615c-0.056-0.056-0.11-0.22-0.185-0.313
				s-0.324-0.037-0.408-0.066c-0.104-0.036-0.298-0.369-0.446-0.545s-0.38-0.422-0.409-0.578c-0.033-0.185,0.086-0.521,0.111-0.721
				s-0.196-0.463-0.222-0.582c-0.034-0.155,0.17-0.549,0.219-0.736S215.688,72.011,215.708,71.78z"/>
			<path fill="#EE2C52" d="M248.204,84.983c-0.014-0.008-0.128,0.01-0.159-0.058s-0.043-0.139-0.036-0.21s0.039-0.129,0.099-0.181
				s0.247-0.023,0.247-0.023c0.006-0.009-0.6-0.666-0.714-0.962s-0.618-0.902-0.605-1.077c0.003-0.039,0.109-0.181,0.124-0.312
				s0.04-0.256,0.067-0.376s0.07-0.213,0.128-0.276s0.25,0.033,0.25,0.033c0.011-0.007-0.092-0.464-0.056-0.632
				s0.08-0.326,0.131-0.472s0.083-0.285,0.096-0.428s-0.153-0.392-0.153-0.483c0-0.352,0.675-1.332,0.761-2.058
				s-0.033-1.627,0.087-1.968c0.063-0.181,0.368-0.527,0.497-0.892s0.213-0.737,0.253-1.117s0.041-0.752,0.008-1.113
				s-0.196-0.694-0.224-0.845c-0.012-0.063,0.066-0.153,0.15-0.173s0.29,0.009,0.313-0.01c0.213-0.177,0.103-1.999,0.057-3.148
				s-0.027-2.262,0.053-3.34s0.283-2.041,0.61-2.885s1.564-1.837,1.768-1.748c0.167,0.073,0.501,1.055,0.82,1.469
				s0.663,0.816,1.03,1.201s0.742,0.766,1.124,1.148s0.946,0.895,1.091,1.297c0.133,0.368,0.049,1.161,0.042,1.869
				s-0.036,1.431-0.09,2.168s-0.111,1.45-0.172,2.141s-0.229,1.384-0.197,1.755c0.008,0.092,0.13,0.18,0.281,0.198
				s0.117,0.395,0.117,0.395c0.059,0.056,1.423-0.48,2.18-0.722s1.501-0.481,2.23-0.724s1.441-0.516,2.137-0.817
				s1.767-0.716,1.938-1.032c0.282-0.521,0.033-2.265,0.104-3.386s-0.505-2.782-0.375-3.318c0.022-0.091,0.23-0.293,0.305-0.469
				s0.369-0.329,0.387-0.37c0.062-0.146-0.352-1.07-0.408-1.666s-0.033-1.161,0.074-1.696s0.312-1.017,0.612-1.449
				s0.986-0.986,1.204-0.936c0.233,0.055,0.707,0.832,1.018,1.308s0.624,0.957,0.938,1.443s0.646,0.941,0.99,1.364
				s1.037,0.77,1.232,1.021c0.299,0.387,0.383,1.62,0.561,2.458s0.462,1.803,0.513,2.609c0.06,0.95-0.152,2.126-0.284,3.153
				s0.082,2.501-0.134,3.237c-0.056,0.19-0.289,0.51-0.369,0.818s-0.154,0.614-0.223,0.921s-0.155,0.613-0.264,0.913
				s-0.44,0.655-0.458,0.777c-0.022,0.151,0.21,0.613,0.189,0.912s0.241,0.67,0.393,0.992c0.241,0.513,0.151,1.318-0.019,1.828
				s-0.44,0.967-0.809,1.362s-0.808,0.728-1.323,1s-1.202,0.752-1.54,0.763c-0.178,0.006-0.524-0.218-0.76-0.34
				s-0.508-0.2-0.82-0.23c0.06-0.136,0.091-0.204,0.15-0.34c-0.566-0.398-1.068-0.835-1.5-1.312s-0.674-1.051-0.734-1.729
				c-0.003-0.023,0.001-0.187,0.014-0.483s0.032-0.611,0.053-0.944s0.044-0.649,0.069-0.948s0.036-0.48,0.032-0.483
				c-0.149-0.104-1.391,0.4-2.109,0.725s-1.416,0.673-2.094,1.047s-1.304,0.75-1.882,1.133s-1.317,0.76-1.402,0.947
				c-0.015,0.031-0.036,0.275-0.127,0.615s-0.203,0.697-0.342,1.077s-0.299,0.726-0.484,1.027s-0.626,0.449-0.627,0.45
				c-0.009,0.015,0.123,0.193,0.18,0.246s0.092,0.269,0.036,0.334c-0.15,0.178-0.793,0.351-1.117,0.571s-0.655,0.411-0.999,0.574
				s-0.727,0.259-1.147,0.286s-1.371-0.07-1.547-0.301c-0.047-0.061-0.102-0.304-0.266-0.419s-0.331-0.21-0.504-0.289
				s-0.326-0.148-0.459-0.208S248.21,84.987,248.204,84.983z"/>
			<path fill="#EE2C52" d="M291.733,59.731c0.064,0.054,0.091,0.272,0.096,0.355s0.009,0.161,0.012,0.232s0.012,0.147,0.029,0.228
				s0.142,0.249,0.148,0.347c0.038,0.551-0.803,1.541-1.402,1.965s-1.272,0.778-2.017,1.061s-1.506,0.569-2.286,0.865
				s-1.725,1.217-2.235,1.359c-0.189,0.053-0.621-0.002-0.854,0.16s-0.839,0.168-1.087,0.308c-0.104,0.059-0.282,0.295-0.49,0.393
				s-0.611,0.27-0.621,0.31c-0.014,0.057,0.215,0.396,0.242,0.617s0.115,0.489,0.188,0.521c0.413,0.178,1.806-0.269,2.82-0.555
				s2.717-0.907,3.006-0.758c0.038,0.02,0.051,0.188,0.009,0.231s-0.046,0.154-0.001,0.197c0.099,0.094,0.39,0.192,0.594,0.331
				s0.41,0.271,0.612,0.398s0.403,0.224,0.606,0.29s0.564-0.039,0.665-0.009c0.09,0.027,0.243,0.35,0.324,0.561
				s0.129,0.534,0.043,0.691c-0.161,0.295-0.679,0.669-1.018,1.012s-0.703,0.661-1.092,0.952s-0.813,0.546-1.268,0.765
				s-0.993,0.363-1.575,0.461c-0.121,0.021-0.218,0.04-0.279,0.052s-0.206-0.065-0.259-0.058c-0.105,0.016-0.445,0.236-0.812,0.256
				s-0.691,0.228-0.813,0.258c-0.16,0.04-0.63-0.06-1.01,0.021s-0.922-0.001-1.038,0.058c-0.249,0.126-0.576,1.14-0.802,1.75
				s-0.607,1.849-0.554,1.913c0.118,0.141,1.579-0.106,2.135-0.229s1.076-0.259,1.563-0.406s0.988-0.298,1.499-0.452
				s1.409-0.18,1.966-0.422c0.392-0.17,1.002-0.63,1.667-0.844s1.39-0.69,1.795-0.768c0.144-0.027,0.409,0.115,0.593,0.258
				s0.356,0.275,0.523,0.396s0.339,0.224,0.511,0.308s0.453,0.009,0.585,0.024c0.08,0.01,0.208,0.164,0.271,0.282
				s0.121,0.234,0.17,0.344s0.11,0.196,0.189,0.264s0.336,0.021,0.336,0.021c0.072,0.065-0.525,1.504-0.931,2.006
				s-0.9,0.918-1.485,1.25s-1.249,0.63-1.992,0.894s-1.584,0.558-2.467,0.901c-0.216,0.084-0.406,0.118-0.568,0.089
				s-0.368-0.041-0.546,0.01c-0.521,0.15-1.23,0.456-2.021,0.692s-1.604,0.415-2.441,0.535s-1.647,0.156-2.434,0.108
				s-1.461-0.283-2.004-0.616c-0.216-0.133-0.391-0.299-0.488-0.509s-0.492-0.324-0.591-0.423c-0.104-0.104-0.176-0.624-0.31-0.982
				s-0.271-0.734-0.41-1.128s-0.256-0.786-0.355-1.174s-0.135-0.75-0.114-1.084c0.022-0.356,0.126-0.696,0.317-1.012
				s0.069-0.875,0.1-0.941c0.015-0.032,0.183-0.118,0.19-0.227s0.232-0.13,0.277-0.168c0.126-0.107,0.177-0.857,0.289-1.256
				s0.232-0.788,0.359-1.165s0.254-0.758,0.378-1.146s0.408-1.109,0.333-1.285c-0.077-0.182-0.694-0.533-0.911-0.865
				s-0.391-0.673-0.521-1.02s-0.254-0.707-0.364-1.081s-0.439-0.889-0.44-1.118c-0.001-0.241,0.434-0.718,0.746-0.995
				s0.66-0.52,1.045-0.727s0.81-0.398,1.272-0.573s0.978-0.352,1.452-0.571c0.883-0.409,1.718-0.854,2.439-1.152
				s1.436-0.569,2.142-0.811s1.44-0.485,2.207-0.731s2.045-1,2.589-0.949c0.163,0.016,0.608,0.247,0.669,0.188
				c0.076-0.074,0.149-0.312,0.296-0.258s0.123-0.223,0.123-0.223c0.01-0.006,0.688,0.606,1.112,0.793
				S291.548,59.576,291.733,59.731z"/>
			<path fill="#EE2C52" d="M304.774,76.682c-0.649,0.371-1.362,0.755-2.14,1.151s-1.581,0.688-2.408,0.873
				c-1.253,0.281-2.582,0.259-3.157-0.202c-0.176-0.141-0.339-0.369-0.445-0.442c-0.093-0.063-0.186-0.155-0.271-0.245
				s-0.145-0.3-0.225-0.404c-0.19-0.248-0.685-0.577-0.949-0.964s-0.476-0.798-0.632-1.231s-0.266-0.885-0.325-1.352
				s-0.107-0.967-0.036-1.355c0.018-0.094,0.039-0.203,0.032-0.298s-0.011-0.204-0.008-0.321c0.01-0.378,0.05-0.764,0.087-1.131
				s0.28-0.847,0.265-0.994c-0.012-0.11-0.19-0.411-0.147-0.685s0.128-0.539,0.182-0.758c0.21-0.854,0.276-1.747,0.374-2.404
				s0.202-1.309,0.31-1.955c0.186-1.116,0.34-2.226,0.473-3.313s-0.07-2.788,0.229-3.475c0.056-0.128,0.287-0.281,0.369-0.338
				c0.117-0.081,0.267-0.173,0.332-0.181c0.318-0.038,1.012,0.192,1.624,0.254s1.205-0.052,1.488-0.041
				c0.166,0.006,0.354,0.125,0.415,0.171s0.122,0.084,0.177,0.119c0.326,0.211,0.63,0.483,0.894,0.745s0.524,0.773,0.47,1.169
				c-0.027,0.195-0.231,0.367-0.248,0.388c-0.118,0.146-0.041,0.901-0.096,1.252s-0.112,0.708-0.185,1.055
				c-0.078,0.377-0.161,0.764-0.225,1.14s0.022,0.966-0.061,1.348c-0.024,0.112-0.112,0.259-0.127,0.358s-0.034,0.212-0.056,0.337
				s-0.046,0.257-0.077,0.396s-0.169,0.298-0.196,0.388c-0.108,0.358,0.063,1.117-0.011,1.52s-0.157,0.809-0.238,1.21
				c-0.146,0.721-0.25,1.453-0.331,2.169s0.055,2.343,0.093,2.359c0.021,0.009,0.224-0.125,0.335-0.15s0.217-0.048,0.315-0.07
				c0.222-0.051,0.605-0.008,0.799-0.077c0.529-0.189,1.411-0.943,2.268-1.22s1.721-0.545,2.566-0.765
				c0.338-0.088,0.687-0.171,1.03-0.257s0.729-0.291,0.939-0.309c0.176-0.015,0.407,0.086,0.472,0.082s0.156-0.021,0.279-0.052
				c0.172-0.044,0.354-0.099,0.448-0.08c0.29,0.057,0.69,0.286,0.989,0.33s0.609,0.069,0.924,0.087
				c0.29,0.017,0.584,0.047,0.869,0.081s0.571,0.11,0.865,0.227c0.258,0.558,0.389,0.836,0.647,1.393
				c0.227,0.158,0.325,0.287,0.33,0.349c0.014,0.154,0.035,0.33-0.04,0.447c0.069,0.142,0.105,0.212,0.175,0.354
				c-0.354,0.167-0.588,0.313-0.7,0.439s-0.216,0.333-0.309,0.408c-0.11,0.09-0.335,0.124-0.422,0.146s-0.166,0.044-0.24,0.063
				c-0.348,0.091-0.842,0.414-1.223,0.497c-0.525,0.115-1.443,0.042-2.164,0.223c-0.273,0.068-0.557,0.151-0.85,0.248
				s-0.601,0.187-0.879,0.29c-0.28,0.104-0.583,0.229-0.889,0.327s-0.62,0.186-0.944,0.264
				C305.262,76.435,305.099,76.518,304.774,76.682z"/>
			<path fill="#EE2C52" d="M325.09,71.255c-0.631,0.407-1.325,0.831-2.083,1.271s-1.546,0.774-2.364,1.006
				c-1.239,0.351-2.571,0.399-3.173-0.029c-0.183-0.131-0.362-0.35-0.473-0.417c-0.097-0.059-0.192-0.148-0.282-0.233
				s-0.161-0.289-0.246-0.389c-0.204-0.237-0.718-0.537-1.004-0.909s-0.518-0.771-0.698-1.196s-0.311-0.869-0.396-1.332
				s-0.161-0.96-0.11-1.353c0.013-0.095,0.028-0.203,0.016-0.297s-0.022-0.203-0.025-0.32c-0.01-0.378,0.009-0.767,0.026-1.136
				s0.237-0.86,0.214-1.007c-0.018-0.109-0.217-0.401-0.188-0.677s0.099-0.545,0.141-0.767c0.164-0.864,0.187-1.761,0.249-2.422
				s0.132-1.318,0.204-1.97c0.126-1.125,0.221-2.242,0.296-3.335s-0.219-2.781,0.043-3.482c0.049-0.131,0.275-0.294,0.354-0.355
				c0.112-0.087,0.257-0.188,0.321-0.2c0.317-0.056,1.023,0.136,1.64,0.164s1.204-0.12,1.488-0.125
				c0.167-0.003,0.361,0.108,0.425,0.15s0.128,0.077,0.185,0.109c0.338,0.192,0.657,0.447,0.936,0.694s0.566,0.746,0.532,1.144
				c-0.017,0.197-0.212,0.377-0.228,0.398c-0.11,0.153,0.008,0.902-0.028,1.256s-0.074,0.712-0.128,1.062
				c-0.059,0.381-0.12,0.771-0.163,1.149s0.073,0.969,0.011,1.354c-0.019,0.113-0.1,0.262-0.109,0.362s-0.021,0.211-0.036,0.338
				s-0.033,0.261-0.057,0.402s-0.154,0.308-0.177,0.398c-0.089,0.363,0.124,1.111,0.072,1.517s-0.115,0.818-0.175,1.224
				c-0.107,0.728-0.172,1.464-0.215,2.184s0.179,2.336,0.218,2.351c0.021,0.008,0.217-0.136,0.327-0.167s0.213-0.061,0.311-0.089
				c0.22-0.063,0.607-0.039,0.798-0.119c0.521-0.219,1.364-1.021,2.208-1.344s1.692-0.641,2.527-0.907
				c0.334-0.106,0.68-0.207,1.02-0.312s0.716-0.332,0.926-0.361c0.176-0.024,0.409,0.063,0.474,0.056s0.159-0.031,0.28-0.069
				c0.17-0.053,0.353-0.116,0.447-0.103c0.294,0.041,0.704,0.246,1.007,0.273s0.615,0.035,0.931,0.036
				c0.292,0,0.588,0.015,0.875,0.033s0.579,0.077,0.88,0.177c0.288,0.542,0.434,0.813,0.723,1.355
				c0.235,0.146,0.342,0.269,0.351,0.33c0.021,0.153,0.051,0.329-0.018,0.45c0.077,0.138,0.115,0.206,0.192,0.344
				c-0.345,0.186-0.573,0.345-0.679,0.478s-0.196,0.345-0.285,0.425c-0.106,0.097-0.326,0.141-0.412,0.168s-0.167,0.052-0.24,0.075
				c-0.344,0.109-0.821,0.462-1.199,0.566c-0.521,0.145-1.444,0.123-2.157,0.344c-0.271,0.084-0.55,0.183-0.838,0.296
				s-0.591,0.219-0.864,0.337c-0.275,0.119-0.572,0.26-0.873,0.375s-0.61,0.222-0.931,0.317
				C325.566,70.985,325.406,71.074,325.09,71.255z"/>
		</g>
	</g>
</g>
</svg>
