<?xml version="1.0" encoding="utf-8"?>
<!-- Generator: Adobe Illustrator 16.0.0, SVG Export Plug-In . SVG Version: 6.00 Build 0)  -->
<!DOCTYPE svg PUBLIC "-//W3C//DTD SVG 1.1//EN" "http://www.w3.org/Graphics/SVG/1.1/DTD/svg11.dtd">
<svg version="1.1" id="Layer_1" xmlns="http://www.w3.org/2000/svg" xmlns:xlink="http://www.w3.org/1999/xlink" x="0px" y="0px"
	 width="431.139px" height="88.158px" viewBox="0 0 431.139 88.158" enable-background="new 0 0 431.139 88.158"
	 xml:space="preserve">
<g>
	<g>
		<path fill="#010101" stroke="#FFFFFF" stroke-miterlimit="10" d="M0,45.024C4.231,23.706,6.814,9.631,7.746,2.796
			c1.709-0.311,3.437-0.612,5.185-0.903c1.747-0.291,3.62-0.437,5.62-0.437s3.747,0.34,5.242,1.02
			c1.494,0.68,2.709,1.622,3.641,2.825c1.785,2.292,2.68,5.379,2.68,9.261c0,4.272-1.127,8.776-3.379,13.513
			c-2.369,4.932-5.475,8.951-9.319,12.057c-4.389,3.457-9.086,5.184-14.096,5.184C2.465,45.315,1.358,45.218,0,45.024z
			 M10.426,37.802c2.718-1.747,5.222-5.377,7.514-10.892c1.281-3.067,2.135-5.65,2.563-7.747c0.427-2.097,0.641-3.747,0.641-4.951
			c0-1.203-0.407-2.222-1.223-3.058c-0.815-0.834-2.097-1.252-3.845-1.252c-0.66,3.34-1.418,6.931-2.271,10.775
			C12.367,27.201,11.241,32.909,10.426,37.802z"/>
		<path fill="#010101" stroke="#FFFFFF" stroke-miterlimit="10" d="M43.626,1.806C39.199,24.328,36.5,38.347,35.529,43.86
			c-1.087,0-2.97,0.175-5.649,0.524c-2.679,0.35-4.058,0.544-4.136,0.583c1.242-4.504,2.389-9.416,3.437-14.736
			c2.407-12.153,4.115-21.144,5.126-26.968L43.626,1.806z"/>
		<path fill="#010101" stroke="#FFFFFF" stroke-miterlimit="10" d="M56.207,44.092c-2.99-9.823-4.543-15.435-4.66-16.833
			l-0.757,0.233c-0.312,1.787-0.777,4.272-1.397,7.456c-0.622,3.185-1.107,5.728-1.456,7.63l-9.669,2.504
			c4.038-19.531,6.503-33.394,7.396-41.588c4.505-1.397,9.553-2.097,15.145-2.097c4.193,0,6.678,1.456,7.455,4.369
			c0.233,0.894,0.35,2,0.35,3.32c0,1.321-0.271,2.748-0.815,4.281c-0.544,1.534-1.281,3-2.213,4.397
			c-1.942,2.835-4.33,5.009-7.165,6.523c1.515,3.262,2.863,6.34,4.049,9.232c1.184,2.893,2.184,5.329,2.999,7.31L56.207,44.092z
			 M56.789,9.669l-2.563,0.058l-1.922,9.494c1.553-0.155,3.514-1.145,5.883-2.97c2.446-1.864,3.669-3.397,3.669-4.602
			c0-1.126-1.068-1.767-3.203-1.922C58.032,9.689,57.41,9.669,56.789,9.669z"/>
		<path fill="#010101" stroke="#FFFFFF" stroke-miterlimit="10" d="M70.07,9.96l0.291-7.63c2.019,0.155,4.057,0.233,6.115,0.233
			c5.437,0,10.737-0.33,15.901-0.99l-0.641,3.204c-0.194,0.894-0.378,1.815-0.553,2.767c-0.175,0.952-0.341,1.776-0.495,2.476
			c-0.894,0.233-1.787,0.398-2.68,0.495c-0.894,0.097-1.768,0.224-2.621,0.378c-0.699,2.991-1.397,6.698-2.097,11.125
			c-1.554,9.786-2.642,16.912-3.262,21.376L69.31,45.083c3.146-14.755,5.262-26.307,6.349-34.656
			c-0.932-0.117-1.863-0.155-2.795-0.117C71.934,10.349,71.002,10.232,70.07,9.96z"/>
		<path fill="#010101" stroke="#FFFFFF" stroke-miterlimit="10" d="M101.174,19.513c1.281-3.184,3.378-9.086,6.29-17.707
			l9.262,2.039c-2.137,4.35-4.059,8.291-5.767,11.824l-3.728,7.688c-0.738,1.553-1.467,3.068-2.185,4.543
			c-0.719,1.476-1.369,2.854-1.951,4.136c-0.583,2.951-1.495,6.563-2.737,10.833l-10.193,1.282l2.737-11.999
			c0-4.814-0.194-10.135-0.582-15.959c-0.389-5.825-0.622-9.183-0.699-10.077l-0.116-1.281l9.727-3.728v10.368l-0.058,5.825V19.513
			L101.174,19.513z"/>
		<path fill="#010101" stroke="#FFFFFF" stroke-miterlimit="10" d="M141.247,24.172c4.465-11.999,7.416-19.513,8.854-22.542
			c1.98-0.233,3.601-0.446,4.863-0.641c1.262-0.194,2.339-0.358,3.232-0.495c0.894-0.136,1.864-0.3,2.912-0.495
			c-1.902,11.262-3.494,25.454-4.775,42.578l-10.427,1.864c0-1.398,0.175-3.649,0.524-6.756l0.815-6.99
			c0.388-3.533,0.758-6.271,1.106-8.213h-0.523c-0.545,1.67-1.156,3.428-1.835,5.271c-0.68,1.845-1.369,3.719-2.068,5.621
			c-0.698,1.903-1.389,3.777-2.067,5.621c-0.68,1.845-1.272,3.602-1.776,5.271c-1.398,0.039-2.583,0.098-3.553,0.175l-3.495,0.175
			l1.922-22.134h-0.873c-0.079,0.505-0.282,1.369-0.612,2.592c-0.33,1.223-0.698,2.621-1.106,4.194
			c-0.407,1.572-0.854,3.203-1.34,4.893c-0.485,1.689-0.941,3.252-1.368,4.688c-0.699,2.486-1.204,4.214-1.515,5.184l-9.844,0.641
			c6.329-19.104,10.62-33.084,12.872-41.937c2.214,0,4.291-0.117,6.232-0.35c1.941-0.233,4.038-0.446,6.291-0.641
			c-0.116,0.854-0.243,1.826-0.379,2.912c-0.137,1.088-0.291,2.233-0.466,3.437c-0.175,1.204-0.359,2.438-0.554,3.699
			c-0.194,1.262-0.437,2.893-0.728,4.893s-0.67,4.495-1.136,7.485H141.247z"/>
		<path fill="#010101" stroke="#FFFFFF" stroke-miterlimit="10" d="M190.406,14.096c0,2.369-0.34,4.99-1.02,7.863
			c-0.68,2.874-1.602,5.514-2.767,7.921c-1.165,2.408-2.515,4.563-4.048,6.465c-1.534,1.903-3.137,3.515-4.806,4.834
			c-3.456,2.718-6.776,4.077-9.96,4.077c-2.679,0-4.796-0.97-6.349-2.912c-1.709-2.135-2.563-5.242-2.563-9.319
			c0-4.427,1.028-9.203,3.087-14.329c2.058-5.126,4.756-9.397,8.096-12.814c3.611-3.649,7.397-5.475,11.358-5.475
			c3.262,0,5.649,1.321,7.164,3.961C189.804,6.504,190.406,9.747,190.406,14.096z M182.136,17.765c0-3.223-0.933-4.834-2.796-4.834
			c-2.369,0-4.505,1.165-6.407,3.495c-1.515,1.864-2.816,4.408-3.902,7.63c-0.854,2.641-1.281,5.126-1.281,7.456
			c0,1.554,0.659,2.719,1.979,3.495c0.388,0.272,0.835,0.408,1.34,0.408c1.786,0,3.368-0.611,4.747-1.834
			c1.378-1.223,2.534-2.728,3.466-4.514c0.932-1.786,1.64-3.699,2.126-5.737C181.893,21.289,182.136,19.435,182.136,17.765z"/>
		<path fill="#010101" stroke="#FFFFFF" stroke-miterlimit="10" d="M194.368,2.621c0.854-0.077,1.854-0.175,2.999-0.291
			c1.146-0.117,2.271-0.223,3.379-0.32c1.106-0.097,2.262-0.204,3.465-0.321c-1.01,4.776-1.806,8.563-2.388,11.358
			c-0.582,2.795-1.049,5.029-1.397,6.698c-0.35,1.67-0.661,3.204-0.933,4.602c-0.621,2.951-1.029,4.874-1.223,5.766
			c-0.583,2.679-0.874,4.408-0.874,5.184c0,0.777,0.165,1.369,0.495,1.776c0.329,0.408,0.776,0.612,1.34,0.612
			c0.563,0,1.067-0.271,1.515-0.815c0.445-0.543,0.815-1.184,1.106-1.922c0.291-0.737,0.514-1.494,0.67-2.271
			c0.154-0.776,0.32-1.563,0.495-2.359c0.175-0.795,0.407-1.902,0.698-3.32c0.292-1.417,0.583-2.892,0.874-4.427
			c0.291-1.533,0.592-3.096,0.903-4.688c0.815-4.078,1.767-9.241,2.854-15.494l9.028-0.583l-0.291,1.515
			c-0.466,2.446-0.98,5.271-1.544,8.475c-0.563,3.204-1.077,5.97-1.543,8.3c-1.204,6.058-2.098,10.358-2.68,12.901
			c-0.582,2.544-1.389,4.611-2.417,6.203c-1.029,1.593-2.224,2.913-3.582,3.961c-2.603,1.941-5.612,2.912-9.028,2.912
			c-2.097,0-3.902-0.583-5.417-1.747c-1.709-1.398-2.563-3.242-2.563-5.534c0-0.155,0-0.31,0-0.466c0-0.155,0.048-0.679,0.146-1.573
			c0.097-0.893,0.32-2.495,0.67-4.805c0.349-2.31,0.728-4.718,1.136-7.223c0.407-2.504,0.845-5.018,1.311-7.543
			c0.466-2.523,0.893-4.814,1.281-6.873C193.707,5.883,194.212,3.32,194.368,2.621z"/>
		<path fill="#010101" stroke="#FFFFFF" stroke-miterlimit="10" d="M217.55,9.96l0.291-7.63c2.02,0.155,4.057,0.233,6.115,0.233
			c5.438,0,10.736-0.33,15.9-0.99l-0.641,3.204c-0.193,0.894-0.378,1.815-0.553,2.767c-0.176,0.952-0.342,1.776-0.495,2.476
			c-0.894,0.233-1.787,0.398-2.681,0.495c-0.893,0.097-1.768,0.224-2.62,0.378c-0.699,2.991-1.397,6.698-2.097,11.125
			c-1.555,9.786-2.643,16.912-3.263,21.376l-10.718,1.689c3.146-14.755,5.262-26.307,6.35-34.656
			c-0.933-0.117-1.863-0.155-2.795-0.117C219.413,10.349,218.481,10.232,217.55,9.96z"/>
		<path fill="#010101" stroke="#FFFFFF" stroke-miterlimit="10" d="M233.509,45.142c4.154-20.426,6.68-34.986,7.572-43.686
			c3.729,0.312,6.95,0.466,9.669,0.466c-1.903,8.077-3.165,13.746-3.786,17.008l5.883-0.699c0.543-2.795,1.038-5.523,1.485-8.184
			c0.446-2.659,1.021-5.388,1.718-8.184c1.553-0.271,3.204-0.475,4.951-0.611c1.748-0.136,2.951-0.223,3.611-0.262l0.99-0.117
			c-1.903,6.213-3.768,14.931-5.593,26.153c-0.894,5.048-1.709,10.213-2.446,15.494l-9.318,1.048
			c0.504-2.368,0.961-4.602,1.369-6.698c0.406-2.097,0.814-4.174,1.223-6.232c0.408-2.058,0.747-3.824,1.02-5.3l-5.823,0.524
			c-0.896,4.932-2.001,10.717-3.32,17.357L233.509,45.142z"/>
		<path fill="#010101" stroke="#FFFFFF" stroke-miterlimit="10" d="M271.253,45.024c4.23-21.318,6.814-35.395,7.746-42.229
			c1.709-0.311,3.438-0.612,5.186-0.903c1.746-0.291,3.619-0.437,5.619-0.437s3.747,0.34,5.242,1.02
			c1.494,0.68,2.709,1.622,3.641,2.825c1.785,2.292,2.681,5.379,2.681,9.261c0,4.272-1.128,8.776-3.38,13.513
			c-2.368,4.932-5.475,8.951-9.318,12.057c-4.389,3.457-9.086,5.185-14.096,5.185C273.718,45.315,272.61,45.218,271.253,45.024z
			 M281.679,37.802c2.719-1.747,5.223-5.377,7.514-10.892c1.281-3.067,2.136-5.65,2.563-7.747c0.427-2.097,0.642-3.747,0.642-4.951
			c0-1.203-0.408-2.222-1.224-3.058c-0.815-0.834-2.097-1.252-3.845-1.252c-0.66,3.34-1.418,6.931-2.271,10.775
			C283.62,27.201,282.494,32.909,281.679,37.802z"/>
		<path fill="#010101" stroke="#FFFFFF" stroke-miterlimit="10" d="M330.722,14.096c0,2.369-0.34,4.99-1.02,7.863
			c-0.68,2.874-1.603,5.514-2.768,7.921c-1.165,2.408-2.515,4.563-4.048,6.465c-1.534,1.903-3.137,3.515-4.806,4.834
			c-3.456,2.718-6.776,4.077-9.96,4.077c-2.679,0-4.796-0.97-6.349-2.912c-1.709-2.135-2.563-5.242-2.563-9.319
			c0-4.427,1.028-9.203,3.087-14.329c2.059-5.126,4.756-9.397,8.096-12.814c3.611-3.649,7.397-5.475,11.358-5.475
			c3.262,0,5.649,1.321,7.164,3.961C330.119,6.504,330.722,9.747,330.722,14.096z M322.451,17.765c0-3.223-0.934-4.834-2.796-4.834
			c-2.369,0-4.505,1.165-6.407,3.495c-1.515,1.864-2.816,4.408-3.902,7.63c-0.854,2.641-1.28,5.126-1.28,7.456
			c0,1.554,0.658,2.719,1.979,3.495c0.388,0.272,0.835,0.408,1.34,0.408c1.786,0,3.368-0.611,4.747-1.834
			c1.378-1.223,2.534-2.728,3.466-4.514c0.933-1.786,1.641-3.699,2.126-5.737C322.208,21.289,322.451,19.435,322.451,17.765z"/>
		<path fill="#010101" stroke="#FFFFFF" stroke-miterlimit="10" d="M336.139,1.34h1.688c0.775,0,2.951-0.078,6.523-0.233
			c0.543,2.795,1.049,5.397,1.515,7.805c1.242,6.912,2.097,11.358,2.563,13.338c0.154-0.815,0.329-1.747,0.523-2.796
			c0.193-1.048,0.408-2.145,0.642-3.291c0.232-1.145,0.466-2.32,0.698-3.524c0.388-1.902,1.185-5.728,2.389-11.475l7.28-0.874
			c-4.232,19.61-6.873,33.686-7.921,42.229c-0.467,0-2.068,0.33-4.806,0.99c-2.737,0.661-4.38,1.088-4.923,1.281
			c-0.776-10.639-1.631-18.173-2.563-22.6c-0.117,0.738-0.272,1.602-0.467,2.592c-0.195,0.99-0.389,2.049-0.582,3.175
			c-0.738,4.232-1.709,9.339-2.912,15.318l-8.737,2.039c4.427-21.084,7.009-35.763,7.747-44.033
			C335.342,1.321,335.789,1.34,336.139,1.34z"/>
		<path fill="#010101" stroke="#FFFFFF" stroke-miterlimit="10" d="M361.65,2.621c0.854-0.077,1.854-0.175,2.999-0.291
			c1.146-0.117,2.271-0.223,3.379-0.32c1.105-0.097,2.262-0.204,3.465-0.321c-1.01,4.776-1.807,8.563-2.388,11.358
			c-0.582,2.795-1.05,5.029-1.397,6.698c-0.35,1.67-0.661,3.204-0.933,4.602c-0.621,2.951-1.029,4.874-1.224,5.766
			c-0.583,2.679-0.874,4.408-0.874,5.184c0,0.777,0.165,1.369,0.495,1.776c0.329,0.408,0.776,0.612,1.34,0.612
			s1.067-0.271,1.516-0.815c0.444-0.543,0.814-1.184,1.105-1.922c0.291-0.737,0.515-1.494,0.67-2.271
			c0.154-0.776,0.32-1.563,0.495-2.359c0.175-0.795,0.407-1.902,0.698-3.32c0.292-1.417,0.583-2.892,0.874-4.427
			c0.291-1.533,0.592-3.096,0.903-4.688c0.814-4.078,1.767-9.241,2.854-15.494l9.028-0.583l-0.291,1.515
			c-0.466,2.446-0.981,5.271-1.544,8.475c-0.563,3.204-1.077,5.97-1.543,8.3c-1.204,6.058-2.099,10.358-2.681,12.901
			c-0.582,2.544-1.389,4.611-2.417,6.203c-1.028,1.593-2.224,2.913-3.582,3.961c-2.603,1.941-5.611,2.912-9.027,2.912
			c-2.098,0-3.902-0.583-5.417-1.747c-1.709-1.398-2.563-3.242-2.563-5.534c0-0.155,0-0.31,0-0.466c0-0.155,0.048-0.679,0.146-1.573
			c0.097-0.893,0.319-2.495,0.67-4.805c0.349-2.31,0.728-4.718,1.136-7.223c0.407-2.504,0.845-5.018,1.312-7.543
			c0.466-2.523,0.893-4.814,1.28-6.873C360.989,5.883,361.494,3.32,361.65,2.621z"/>
		<path fill="#010101" stroke="#FFFFFF" stroke-miterlimit="10" d="M384.833,9.96l0.291-7.63c2.019,0.155,4.057,0.233,6.115,0.233
			c5.437,0,10.736-0.33,15.9-0.99l-0.64,3.203c-0.194,0.894-0.378,1.815-0.553,2.767s-0.341,1.776-0.495,2.476
			c-0.895,0.233-1.787,0.398-2.68,0.495c-0.895,0.097-1.769,0.224-2.621,0.378c-0.699,2.991-1.397,6.698-2.098,11.125
			c-1.554,9.786-2.642,16.912-3.262,21.376l-10.718,1.689c3.146-14.755,5.262-26.307,6.349-34.656
			c-0.932-0.117-1.863-0.155-2.795-0.117C386.696,10.349,385.765,10.232,384.833,9.96z"/>
		<path fill="#010101" stroke="#FFFFFF" stroke-miterlimit="10" d="M422.11,14.562c0.192-0.776,0.291-1.592,0.291-2.446
			c0-0.854-0.215-1.543-0.642-2.068c-0.428-0.524-0.884-0.786-1.369-0.786c-0.484,0-0.961,0.117-1.427,0.35
			s-0.932,0.544-1.396,0.932c-1.089,0.894-1.632,1.855-1.632,2.883c0,1.029,0.271,1.864,0.815,2.504
			c0.543,0.641,1.213,1.233,2.009,1.777s1.66,1.106,2.593,1.689s1.807,1.321,2.621,2.213c1.863,2.175,2.795,5.067,2.795,8.679
			c0,4.35-1.592,7.941-4.774,10.775c-3.029,2.719-6.854,4.078-11.476,4.078c-3.418,0-6.544-1.786-9.378-5.358l4.428-8.679
			c0.543,1.087,1.592,2.078,3.146,2.971c1.553,0.932,2.718,1.398,3.494,1.398s1.428-0.078,1.951-0.233
			c0.523-0.155,1-0.388,1.428-0.699c0.97-0.699,1.456-1.543,1.456-2.534c0-0.991-0.313-1.893-0.932-2.708
			c-0.622-0.815-1.391-1.592-2.302-2.33c-0.913-0.737-1.902-1.485-2.971-2.243c-1.068-0.757-2.049-1.563-2.94-2.417
			c-2.177-1.941-3.263-3.98-3.263-6.116c0-2.135,0.611-4.096,1.834-5.883c1.225-1.786,2.757-3.329,4.603-4.63
			c1.844-1.301,3.862-2.33,6.058-3.087c2.193-0.757,4.049-1.136,5.563-1.136s2.747,0.137,3.698,0.408s1.776,0.68,2.477,1.223
			c1.514,1.243,2.271,3.068,2.271,5.476c0,0.582-0.05,1.146-0.146,1.689c-0.099,0.544-0.187,1.146-0.263,1.806L422.11,14.562z"/>
	</g>
	<g>
		<g>
			<path fill="#EE2C52" stroke="#FFFFFF" stroke-miterlimit="10" d="M99.683,66.815c-0.55-0.483-0.937-1.516-1.15-2.396
				c-0.213-0.88-0.311-1.772-0.297-2.681c0.014-0.908,0.125-1.814,0.327-2.723s0.388-1.927,0.729-2.553
				c0.271-0.498,0.848-1,1.317-1.402c0.469-0.403,0.965-0.773,1.488-1.111s1.056-0.646,1.597-0.93
				c0.541-0.285,1.248-0.838,1.608-0.877c0.088-0.01,0.332,0.223,0.354,0.222c0.066-0.003,0.376-0.386,0.619-0.507
				c0.243-0.121,0.492-0.224,0.747-0.305c0.255-0.08,0.51-0.162,0.765-0.244c0.255-0.08,0.529-0.313,0.684-0.359
				c0.382-0.118,1.2,0.007,1.728-0.104c0.528-0.111,1.045-0.252,1.551-0.421s1.016-0.312,1.53-0.431
				c0.514-0.119,1.275-0.027,1.698-0.135c0.219-0.055,0.589-0.279,0.947-0.35c0.358-0.07,0.712-0.125,1.063-0.173
				c0.351-0.048,0.694-0.112,1.027-0.188c0.333-0.077,0.86-0.457,0.89-0.448c0.043,0.011,0.269,0.336,0.539,0.35
				c0.27,0.015,0.537-0.002,0.746,0.005c0.135,0.004,0.254,0.068,0.328,0.161c0.074,0.093,0.143,0.189,0.202,0.291
				c0.059,0.103,0.115,0.171,0.167,0.209c0.052,0.038,0.181-0.135,0.246-0.151c0.076-0.02,0.21,0.164,0.092,0.278
				c-0.118,0.114-0.229,0.229-0.229,0.229c0.009,0.021,0.425,0.107,0.542,0.271c0.117,0.165,0.47,0.293,0.646,0.444
				c0.087,0.076,0.098,0.245,0.034,0.301c-0.064,0.056-0.209,0.263-0.194,0.312c0.095,0.298,1.208,1.002,1.303,1.597
				c0.095,0.594-0.026,1.158-0.365,1.688c-0.339,0.529-0.824,0.972-1.459,1.324c-0.635,0.354-1.285,0.532-1.939,0.522
				c-0.777-0.013-1.51-0.019-2.187-0.011c-0.677,0.01-1.335,0.047-1.979,0.109s-1.264,0.172-1.86,0.331
				c-0.596,0.159-1.233,0.577-1.638,0.685c-0.503,0.135-1.387,0.062-2.015,0.219c-0.628,0.156-1.23,0.357-1.809,0.602
				c-0.579,0.244-1.145,0.508-1.7,0.792c-0.555,0.285-1.429,0.556-1.667,0.833c-0.156,0.184-0.277,0.65-0.483,0.809
				s-0.563,0.322-0.654,0.459c-0.151,0.227-0.093,0.837-0.029,1.188c0.064,0.352,0.078,0.891,0.204,1.074
				c0.721,1.054,3.729,2.076,5.871,2.827s5.482,1.206,6.431,2.026c0.157,0.137,0.33,0.652,0.548,0.965
				c0.218,0.313,0.411,0.627,0.578,0.938s0.276,0.646,0.325,1.012s0.001,0.965-0.216,1.195c-0.271,0.29-1.075,0.525-1.664,0.744
				s-1.299,0.595-1.765,0.635c-0.174,0.016-0.496-0.111-0.8-0.219c-0.304-0.107-0.623-0.207-0.958-0.299s-0.673-0.168-1.017-0.228
				c-0.344-0.06-0.745-0.019-1.009-0.047c-1.299-0.14-3.093-1.118-4.631-1.901c-1.538-0.785-3.446-1.606-4.17-2.451
				c-0.201-0.232-0.376-0.737-0.589-1.086C100.468,67.384,100.002,67.095,99.683,66.815z"/>
			<path fill="#EE2C52" stroke="#FFFFFF" stroke-miterlimit="10" d="M143.407,60.54c0.08,0.34-0.057,0.973-0.01,1.363
				s0.116,0.777,0.184,1.146c0.062,0.339,0.109,0.685,0.156,1.017c0.047,0.332,0.118,0.828,0.016,1.166
				c-0.146,0.484-0.557,1.086-0.741,1.574c-0.184,0.489-0.347,1.103-0.586,1.532c-0.382,0.687-1.068,1.366-1.56,1.913
				c-0.492,0.547-0.895,1.154-1.208,1.439c-0.104,0.094-0.278,0.201-0.395,0.334c-0.117,0.132-0.239,0.275-0.371,0.406
				c-0.059,0.06-0.146,0.149-0.249,0.272s-0.183,0.2-0.242,0.237c-0.276-0.157-0.413-0.235-0.688-0.395
				c-0.13,0.332-0.197,0.498-0.328,0.83c-0.219,0.012-0.328,0.018-0.546,0.027c-0.183,0.135-0.274,0.203-0.457,0.337
				c-0.629,0.657-1.261,1.188-1.893,1.593c-0.632,0.404-1.321,0.732-2.068,0.989c-0.747,0.256-1.577,0.463-2.49,0.616
				c-0.913,0.154-2.21,0.565-3.086,0.48c-0.333-0.031-0.775-0.261-1.084-0.346c-0.309-0.085-0.607-0.186-0.868-0.26
				c-0.449-0.129-1.519-0.271-1.732-0.528c-0.063-0.075-0.112-0.354-0.245-0.458s-0.292-0.159-0.385-0.203
				c-0.342-0.163-0.63-0.633-0.753-1.038s-0.23-0.843-0.327-1.299c-0.06-0.28-0.126-0.541-0.195-0.788
				c-0.069-0.247-0.148-0.502-0.239-0.768c0.269-0.004,0.404-0.008,0.672-0.014c-0.243-0.408-0.363-0.613-0.604-1.023
				c-0.032-0.08-0.079-0.158-0.138-0.233c-0.059-0.075-0.104-0.153-0.136-0.233c0.041-0.223,0.062-0.33,0.103-0.553
				c0.326-1.586,0.661-3.031,1.006-4.334c0.345-1.303,0.83-2.418,1.448-3.349c0.038-0.15,0.056-0.228,0.094-0.378
				c0.199-0.481,0.376-0.877,0.531-1.188c0.155-0.311,0.297-0.61,0.416-0.893c0.2-0.476,0.472-1.212,0.672-1.316
				c0.155-0.081,0.631-0.052,0.846-0.204c0.215-0.152,0.445-0.396,0.559-0.425c0.193-0.051,0.551,0.162,0.641,0.306
				c0.09,0.143,0.155,0.366,0.221,0.633c0.057,0.227,0.162,0.496,0.279,0.791c0.117,0.293,0.564,0.591,0.663,0.773
				c0.05,0.094,0.023,0.399,0.061,0.613s0.069,0.457,0.116,0.699c0.083,0.423,0.178,0.878,0.233,1.337
				c0.055,0.459,0.107,1.021-0.019,1.278c-0.161,0.328-0.651,0.832-0.92,1.371c-0.269,0.537-0.491,1.094-0.667,1.666
				c-0.176,0.571-0.298,1.131-0.365,1.68c-0.067,0.551-0.073,1.029-0.013,1.43c0.046,0.199,0.069,0.296,0.115,0.495
				c0.257,0.032,0.386,0.049,0.643,0.081c0.779-0.01,1.494-0.055,2.145-0.133c0.651-0.077,1.269-0.207,1.85-0.389
				c0.581-0.181,1.148-0.42,1.701-0.718c0.553-0.298,1.144-0.651,1.77-1.067c0.626-0.414,1.198-0.923,1.719-1.519
				c0.521-0.597,0.984-1.233,1.392-1.914c0.408-0.681,0.754-1.368,1.037-2.063c0.283-0.694,0.485-1.812,0.697-1.991
				c0.149-0.128,0.693-0.286,0.779-0.699c0.003-0.157,0.005-0.237,0.008-0.396c-0.066-0.156-0.012-0.319,0.098-0.479
				c0.244-0.354,0.907-0.873,1.202-0.793c0.235,0.063,0.619,0.626,0.861,0.962C142.975,59.878,143.348,60.287,143.407,60.54z"/>
			<path fill="#EE2C52" stroke="#FFFFFF" stroke-miterlimit="10" d="M163.708,67.115c-0.605-0.085-1.264-0.14-1.977-0.159
				s-1.418-0.039-2.107-0.047c-0.493-0.006-0.968-0.016-1.423-0.039c-0.455-0.023-1.098-0.159-1.232-0.086
				c-0.21,0.115-0.492,0.904-0.725,1.271c-0.233,0.365-0.483,0.721-0.73,1.059c-0.259,0.354-0.5,0.732-0.725,1.111
				s-0.429,0.875-0.671,1.224c-0.222,0.317-0.563,0.64-0.775,0.926c-0.212,0.286-0.374,0.739-0.563,0.993
				c-0.213,0.285-0.637,0.623-0.85,0.979c-0.213,0.356-0.38,0.666-0.501,0.932c-0.088,0.156-0.131,0.234-0.219,0.391
				c-0.172,0.113-0.279,0.21-0.317,0.286s-0.18,0.142-0.225,0.194c-0.097,0.115-0.225,0.49-0.392,0.715
				c-0.071,0.096-0.125,0.212-0.168,0.312c-0.043,0.101-0.067,0.173-0.075,0.218c-0.04,0.23-0.235,0.375-0.266,0.42
				c-0.027,0.041-0.016,0.24-0.063,0.363c-0.047,0.123-0.092,0.242-0.138,0.35c-0.113,0.262-0.218,0.529-0.188,0.646
				c0.022,0.087,0.114,0.197,0.165,0.277s0.054,0.236,0.084,0.301c0.047,0.1,0.252,0.191,0.307,0.23
				c0.085,0.061,0.225,0.191,0.41,0.318c0.112,0.162,0.168,0.242,0.281,0.403c0.012,0.69-0.197,1.203-0.609,1.537
				c-0.452,0.366-1.137,0.483-2.045,0.325c-0.182-0.032-0.272-0.049-0.454-0.08c-0.106-0.139-0.154-0.283-0.178-0.317
				c-0.072-0.101-0.343-0.19-0.46-0.259c-0.117-0.069-0.206-0.247-0.29-0.344c-0.175-0.197-0.546-0.356-0.73-0.485
				c-0.123-0.095-0.186-0.144-0.309-0.236c0.046-0.254,0.078-0.397,0.075-0.413c-0.031-0.179-0.228-0.494-0.269-0.765
				s-0.058-0.542-0.067-0.799c-0.007-0.212-0.03-0.421-0.059-0.617s-0.136-0.409-0.154-0.53c-0.143-0.955,0.543-2.447,1.035-3.312
				c0.492-0.864,0.983-1.704,1.485-2.482c0.273-0.424,0.561-0.854,0.842-1.292c0.281-0.438,0.538-0.898,0.775-1.38
				c0.156-0.114,0.235-0.171,0.391-0.286c0.236-0.339,0.43-0.621,0.582-0.845s0.316-0.452,0.477-0.685
				c0.102-0.146,0.194-0.293,0.281-0.433s0.236-0.36,0.233-0.368c-0.01-0.021-0.279-0.045-0.402-0.055s-0.25-0.01-0.373-0.01
				c-0.147,0-0.285-0.012-0.408-0.021s-0.245-0.025-0.366-0.048c-0.169-0.03-0.307-0.093-0.356-0.099
				c-0.189-0.024-0.588,0.072-0.903,0.015c-0.145-0.026-0.217-0.038-0.362-0.063c-0.073-0.015-0.138-0.031-0.196-0.055
				s-0.112-0.041-0.16-0.05c-0.242-0.045-0.472-0.005-0.599,0c-0.23,0.009-0.568-0.104-0.834-0.155
				c-0.145-0.027-0.217-0.043-0.362-0.07c-0.048-0.008-0.111-0.018-0.186-0.02s-0.135-0.008-0.184-0.017
				c-0.169-0.032-0.349-0.082-0.535-0.153c-0.186-0.07-0.447-0.191-0.572-0.345c-0.239-0.293-0.373-0.658-0.465-0.7
				c-0.098-0.191-0.147-0.284-0.245-0.477c0.003-0.143-0.007-0.283-0.03-0.42c-0.023-0.136-0.035-0.297-0.059-0.457
				c-0.036-0.237-0.092-0.513-0.124-0.793c-0.032-0.281-0.029-0.637,0.062-0.976c0.045-0.171,0.135-0.31,0.225-0.387
				c0.09-0.078,0.166-0.146,0.227-0.205c0.083-0.198,0.125-0.3,0.209-0.497c0.183,0.051,0.275,0.077,0.458,0.127
				c0.4,0.078,0.601,0.116,1.001,0.193c0.763,0.146,1.543,0.264,2.341,0.353s1.625,0.177,2.468,0.251
				c0.482,0.042,0.977,0.082,1.474,0.121s1.314,0.234,1.546,0.125c0.104-0.05,0.259-0.371,0.386-0.54
				c0.155-0.045,0.231-0.069,0.386-0.114c0.433,0.049,0.728,0.152,0.886,0.311s0.303,0.39,0.388,0.437
				c0.273,0.15,1.071,0.072,1.618,0.101c0.547,0.029,1.11,0.033,1.666,0.033c0.819,0,1.663,0.029,2.5,0.06s1.637,0.101,2.401,0.209
				c0.334,0.048,0.656,0.106,0.963,0.173c0.307,0.066,0.589,0.139,0.846,0.221c0.13,0.116,0.195,0.176,0.325,0.293
				c0.053,0.149,0.138,0.291,0.254,0.426c0.116,0.134,0.243,0.269,0.365,0.402c0.254,0.281,0.502,0.635,0.745,1.021
				c0.243,0.386,0.364,1.119,0.124,1.574c-0.12,0.228-0.396,0.396-0.499,0.432c-0.152,0.15-0.227,0.225-0.38,0.375
				c-0.144-0.033-0.216-0.049-0.359-0.082c-0.145-0.02-0.281-0.021-0.407-0.002s-0.258,0.037-0.379,0.07
				c-0.1,0.028-0.206,0.063-0.307,0.086c-0.101,0.021-0.226,0.047-0.338,0.041c-0.199-0.008-0.394-0.059-0.525-0.088
				C163.995,67.158,163.854,67.135,163.708,67.115z"/>
			<path fill="#EE2C52" stroke="#FFFFFF" stroke-miterlimit="10" d="M181.431,66.265c0.045,0.069,0.003,0.291-0.017,0.37
				c-0.02,0.08-0.038,0.152-0.057,0.222c-0.019,0.07-0.032,0.146-0.04,0.229c-0.008,0.082,0.063,0.277,0.04,0.373
				c-0.127,0.538-1.22,1.236-1.916,1.465c-0.696,0.229-1.44,0.362-2.231,0.411s-1.601,0.099-2.432,0.149
				c-0.831,0.05-2.003,0.647-2.532,0.633c-0.195-0.006-0.59-0.188-0.859-0.102c-0.269,0.086-0.85-0.087-1.126-0.026
				c-0.116,0.024-0.36,0.198-0.587,0.229s-0.661,0.076-0.682,0.111c-0.03,0.05,0.088,0.441,0.048,0.661s-0.035,0.5,0.025,0.552
				c0.341,0.292,1.799,0.277,2.851,0.307c1.052,0.027,2.856-0.06,3.087,0.168c0.031,0.029-0.009,0.196-0.062,0.227
				c-0.053,0.029-0.087,0.132-0.057,0.188c0.066,0.117,0.316,0.301,0.469,0.493c0.153,0.193,0.307,0.377,0.462,0.56
				c0.155,0.182,0.319,0.336,0.493,0.461c0.174,0.123,0.547,0.127,0.633,0.186c0.078,0.053,0.128,0.409,0.143,0.635
				c0.015,0.227-0.035,0.549-0.163,0.674c-0.24,0.233-0.843,0.436-1.268,0.662c-0.425,0.226-0.865,0.42-1.321,0.584
				c-0.456,0.162-0.936,0.28-1.434,0.354s-1.055,0.052-1.639-0.026c-0.122-0.018-0.217-0.027-0.279-0.033
				c-0.062-0.008-0.178-0.123-0.23-0.133c-0.105-0.017-0.495,0.096-0.849,0.006s-0.726,0.011-0.851,0.004
				c-0.164-0.01-0.581-0.242-0.967-0.278c-0.386-0.036-0.88-0.272-1.008-0.252c-0.274,0.046-0.887,0.915-1.284,1.431
				s-1.126,1.586-1.093,1.664c0.071,0.17,1.535,0.365,2.101,0.414s1.102,0.072,1.609,0.075c0.507,0.003,1.029,0.01,1.561,0.014
				c0.532,0.004,1.396,0.244,1.997,0.179c0.423-0.045,1.143-0.3,1.839-0.307c0.696-0.007,1.527-0.251,1.935-0.204
				c0.144,0.017,0.355,0.231,0.488,0.423c0.133,0.19,0.259,0.368,0.382,0.533s0.254,0.313,0.393,0.445
				c0.139,0.132,0.43,0.143,0.55,0.195c0.074,0.033,0.148,0.221,0.173,0.353s0.045,0.26,0.059,0.379
				c0.014,0.119,0.048,0.22,0.103,0.308c0.055,0.088,0.312,0.121,0.312,0.121c0.05,0.084-0.944,1.281-1.478,1.641
				c-0.534,0.359-1.129,0.609-1.784,0.753s-1.375,0.231-2.162,0.264s-1.672,0.062-2.615,0.127c-0.23,0.017-0.423-0.01-0.569-0.086
				c-0.146-0.075-0.338-0.147-0.522-0.151c-0.54-0.012-1.309,0.071-2.132,0.063c-0.823-0.009-1.651-0.081-2.485-0.215
				c-0.834-0.135-1.619-0.342-2.354-0.62c-0.735-0.279-1.308-0.704-1.727-1.183c-0.167-0.19-0.285-0.401-0.316-0.631
				c-0.031-0.23-0.372-0.455-0.437-0.578c-0.068-0.131,0.018-0.648-0.003-1.03c-0.021-0.382-0.04-0.782-0.055-1.199
				s-0.013-0.825,0.007-1.226c0.02-0.399,0.096-0.758,0.215-1.069c0.127-0.334,0.326-0.628,0.603-0.872
				c0.277-0.244,0.324-0.814,0.372-0.869c0.023-0.025,0.21-0.06,0.25-0.16c0.04-0.1,0.261-0.055,0.315-0.078
				c0.152-0.064,0.425-0.767,0.65-1.112c0.225-0.347,0.455-0.681,0.688-1.003c0.233-0.322,0.466-0.649,0.7-0.983
				s0.718-0.94,0.699-1.131c-0.02-0.196-0.505-0.713-0.613-1.095c-0.108-0.383-0.173-0.76-0.196-1.129
				c-0.023-0.371-0.029-0.748-0.024-1.139c0.005-0.39-0.157-0.984-0.09-1.203c0.07-0.23,0.626-0.557,1.006-0.729
				s0.784-0.301,1.212-0.385s0.889-0.141,1.382-0.17c0.493-0.028,1.04-0.047,1.557-0.115c0.963-0.129,1.89-0.305,2.666-0.375
				c0.776-0.071,1.535-0.117,2.279-0.139c0.744-0.021,1.517-0.035,2.319-0.041c0.802-0.008,2.241-0.348,2.742-0.139
				c0.151,0.063,0.506,0.413,0.581,0.375c0.095-0.049,0.236-0.254,0.36-0.158c0.124,0.094,0.181-0.176,0.181-0.176
				c0.01-0.003,0.476,0.782,0.823,1.086C180.592,65.772,181.3,66.062,181.431,66.265z"/>
			<path fill="#EE2C52" stroke="#FFFFFF" stroke-miterlimit="10" d="M213.38,84.644c-0.153,0.396-0.378,0.801-0.672,1.209
				c-0.294,0.407-0.639,0.771-1.036,1.082c-0.397,0.313-0.84,0.572-1.327,0.777c-0.487,0.205-1.067,0.376-1.533,0.33
				c-0.295-0.029-0.553-0.157-0.667-0.241c-0.114-0.084-0.237-0.163-0.358-0.237c-0.075-0.045-0.146-0.088-0.209-0.123
				c-0.063-0.037-0.119-0.067-0.169-0.092c-0.182-0.074-0.273-0.111-0.455-0.187c0.065-0.183,0.096-0.272,0.161-0.455
				c0.055-0.187,0.046-0.331-0.028-0.438c-0.074-0.106-0.236-0.256-0.448-0.449c-0.074-0.066-0.149-0.144-0.224-0.215
				c-0.075-0.072-0.136-0.146-0.185-0.217c-0.252-0.272-0.378-0.408-0.63-0.682c0.412-0.088,0.619-0.133,1.03-0.223
				c0.636-0.15,1.063-0.354,1.282-0.608c0.219-0.254,0.414-1.128,0.27-1.294c-0.132-0.15-0.922-0.125-1.263-0.063
				c-0.341,0.063-0.689,0.14-1.043,0.224c-0.454,0.106-0.918,0.192-1.387,0.263c-0.469,0.07-0.979,0.096-1.533,0.077
				c-0.202-0.007-0.39-0.017-0.565-0.033c-0.175-0.017-0.365-0.042-0.566-0.071c-0.15-0.033-0.226-0.051-0.375-0.084
				c-0.041-0.26-0.085-0.408-0.134-0.444c-0.049-0.037-0.099-0.081-0.147-0.13c-0.122-0.122-0.248-0.282-0.378-0.486
				s-0.044-0.568-0.065-0.761c-0.017-0.151-0.202-0.64-0.202-0.64c-0.014-0.004-0.285,0.563-0.372,0.863
				c-0.065,0.139-0.099,0.208-0.165,0.346c-0.152,0.022-0.228,0.032-0.38,0.056c-0.051,0.021-0.09,0.073-0.119,0.155
				c-0.029,0.08-0.043,0.144-0.045,0.189c-0.085,0.234-0.128,0.354-0.213,0.589c-0.052,0.045-0.105,0.083-0.157,0.116
				c-0.052,0.033-0.129,0.075-0.155,0.115c-0.083,0.131-0.132,0.416-0.217,0.625c-0.085,0.207-0.167,0.404-0.252,0.588
				c-0.138,0.298-0.26,0.595-0.362,0.884s-0.146,0.569-0.133,0.853c-0.068,0.151-0.102,0.229-0.169,0.379
				c-0.133,0.136-0.277,0.242-0.434,0.316c-0.157,0.075-0.348,0.133-0.47,0.206c-0.05,0.03-0.125,0.083-0.215,0.114
				s-0.162,0.056-0.213,0.076c-0.053,0.152-0.079,0.229-0.132,0.381c-0.185,0.02-0.277,0.029-0.462,0.049
				c-0.283,0.033-0.484,0.059-0.6,0.075c-0.116,0.017-0.248,0.024-0.4,0.017c-0.152-0.021-0.229-0.033-0.381-0.056
				c-0.269-0.226-0.477-0.409-0.623-0.546s-0.373-0.264-0.512-0.396c-0.215-0.205-0.327-0.515-0.344-0.656
				c-0.017-0.141-0.031-0.279-0.056-0.39c-0.031-0.136-0.068-0.262-0.075-0.356c-0.007-0.094-0.035-0.166-0.083-0.215
				c-0.188-0.181-0.281-0.272-0.468-0.453c0.174-0.115,0.262-0.174,0.436-0.289c0.029-0.237,0.043-0.356,0.072-0.594
				c0.574-1.164,1.171-2.281,1.793-3.352s1.257-2.171,1.911-3.281c0.214-0.363,0.426-0.73,0.629-1.096
				c0.203-0.366,0.597-0.848,0.626-1.096c0.005-0.045-0.03-0.154-0.026-0.248c0.004-0.094,0.03-0.217,0.089-0.313
				c0.225-0.371,0.526-0.731,0.712-1.041s0.376-0.625,0.556-0.942c0.215-0.383,0.432-0.77,0.654-1.136s0.5-0.739,0.832-1.126
				c0.237-0.089,0.355-0.136,0.592-0.226c0.074-0.021,0.16-0.046,0.259-0.077s0.208-0.043,0.33-0.039
				c0.218,0.036,0.326,0.052,0.544,0.088c0.691-0.281,1.3-0.688,1.825-1.223c0.525-0.535,1.062-1.184,1.611-1.943
				c0.149-0.193,0.224-0.289,0.373-0.482c0.185,0.117,0.279,0.174,0.464,0.291c0.119,0.072,0.286,0.143,0.501,0.205
				c0.215,0.063,0.449,0.143,0.683,0.207c0.413,0.112,0.841,0.215,1.225,0.34c0.384,0.123,0.789,0.318,0.932,0.541
				c0.171,0.267,0.222,0.66,0.243,0.848s0.064,0.383,0.102,0.564c0.079,0.383,0.13,0.797,0.186,1.196
				c0.056,0.399,0.042,0.911,0.111,1.337c0.059,0.36,0.216,0.793,0.298,1.182c0.082,0.388,0.153,0.789,0.228,1.181
				c0.106,0.558,0.234,1.11,0.353,1.639c0.119,0.529,0.29,1.38,0.469,1.499c0.074,0.051,0.339,0.035,0.372,0.037
				c0.081,0.004,0.255-0.082,0.391-0.104c0.136-0.022,0.291-0.045,0.464-0.066c0.164-0.014,0.245-0.018,0.409-0.031
				c0.059,0.141,0.088,0.209,0.147,0.35c0.024,0.117,0.177,0.299,0.37,0.354c0.248,0.071,0.559,0.089,0.708,0.194
				s0.285,0.218,0.409,0.335c0.1,0.094,0.199,0.164,0.299,0.211c0.224,0.084,0.336,0.126,0.561,0.21
				c-0.119,0.211-0.179,0.318-0.298,0.53c-0.249,0.422-0.603,0.823-1.066,1.21c-0.463,0.386-1.457,0.768-1.561,0.962
				c-0.026,0.049,0.043,0.276,0.055,0.405c0.012,0.129,0.057,0.271,0.093,0.403c0.096,0.361,0.134,0.813,0.183,1.233
				c0.049,0.421,0.047,0.854-0.005,1.298C213.425,84.558,213.411,84.587,213.38,84.644z M202.62,78.36
				c0.698-0.064,1.428-0.055,2.039-0.098c0.611-0.041,1.951-0.117,2.039-0.248c0.111-0.164-0.328-1.441-0.508-2.209
				c-0.18-0.767-0.37-1.529-0.572-2.283c-0.092,0.139-0.138,0.207-0.23,0.346c-0.504,0.479-0.994,1.02-1.468,1.613
				c-0.474,0.596-0.877,1.19-1.223,1.687c-0.142,0.204-0.312,0.41-0.468,0.616c-0.156,0.206-0.43,0.617-0.43,0.617
				c0.008,0.013,0.293-0.024,0.43-0.021S202.501,78.371,202.62,78.36z"/>
			<path fill="#EE2C52" stroke="#FFFFFF" stroke-miterlimit="10" d="M215.708,71.78c0.034-0.393,0.443-0.914,0.818-1.268
				c0.377-0.354,0.789-0.654,1.236-0.902c0.447-0.25,0.914-0.461,1.397-0.629c0.483-0.17,0.978-0.299,1.375-0.439
				c0.925-0.328,1.989-0.813,3.08-1.2c1.09-0.388,2.204-0.743,3.34-1.062c1.135-0.319,2.299-0.545,3.497-0.678
				c1.197-0.133,3.283-0.197,3.809,0.264c0.098,0.085,0.204,0.443,0.36,0.646c0.155,0.203,0.315,0.407,0.483,0.609
				s0.32,0.396,0.453,0.589c0.131,0.192,0.182,0.488,0.25,0.604c0.105,0.176,0.461,0.414,0.621,0.651s0.264,0.724,0.129,0.96
				c-0.104,0.18-0.457,0.383-0.681,0.549c-0.224,0.164-0.533,0.416-0.729,0.444c-0.629,0.093-1.83-0.185-2.752-0.071
				c-0.924,0.114-2.07,0.418-2.481,0.286c-0.173-0.056-0.494-0.299-0.799-0.286c-0.306,0.012-0.619,0.066-0.945,0.172
				c-0.326,0.106-0.651,0.209-0.979,0.313c-0.326,0.104-0.764,0.054-0.934,0.103c-0.179,0.051-0.533,0.326-0.887,0.396
				c-0.354,0.067-1.035,0.077-1.151,0.188c-0.036,0.033,0.005,0.191,0.079,0.226s0.03,0.172,0.041,0.228
				c0.02,0.102,0.346,0.273,0.58,0.338s0.482,0.127,0.743,0.189c0.26,0.063,0.487,0.146,0.687,0.245
				c0.2,0.099,0.344,0.444,0.42,0.497c0.125,0.085,0.69,0.059,0.967,0.214c0.277,0.155,0.507,0.344,0.688,0.571
				c0.182,0.229,0.318,0.479,0.415,0.744c0.097,0.267,0.118,0.549,0.156,0.715c0.036,0.16,0.171,0.266,0.269,0.238
				c0.098-0.028,0.273,0.022,0.34,0.125c0.119,0.19,0.282,0.604,0.594,0.909c0.311,0.306,0.65,0.683,0.752,1.009
				c0.145,0.463,0.134,1.102,0.178,1.558s-0.021,0.926-0.203,1.399c-0.337,0.881-0.831,1.674-1.475,2.379
				c-0.643,0.703-1.381,1.334-2.213,1.889c-0.832,0.554-1.729,1.031-2.687,1.43c-0.958,0.398-2.091,0.979-2.807,1.008
				c-0.079,0.002-0.205-0.021-0.306,0.006c-0.102,0.025-0.08-0.177-0.08-0.177c-0.008-0.006-0.422,0.277-0.664,0.328
				c-0.242,0.052-0.504,0.069-0.784,0.062c-0.281-0.006-0.57-0.02-0.863-0.039c-0.293-0.021-0.687,0.078-0.821,0.039
				c-0.129-0.035-0.341-0.319-0.481-0.472c-0.142-0.151-0.251-0.522-0.328-0.577c-0.042-0.031-0.185-0.056-0.173-0.173
				c0.012-0.116-0.135-0.177-0.135-0.177c-0.016-0.029,0.221-0.37,0.209-0.404c-0.013-0.035-0.051-0.063-0.114-0.087
				c-0.064-0.022-0.124-0.053-0.175-0.088c-0.049-0.035-0.064-0.097-0.037-0.16c0.08-0.181,0.137-0.403,0.109-0.649
				c-0.027-0.245-0.054-0.497-0.08-0.756c-0.025-0.258-0.008-0.504,0.055-0.737c0.062-0.234,0.306-0.525,0.545-0.566
				c0.621-0.106,1.67,0.054,2.438-0.108c0.766-0.162,1.484-0.395,2.158-0.688s1.314-0.608,1.922-0.952
				c0.607-0.343,1.542-0.64,1.799-0.929c0.09-0.101,0.172-0.392,0.305-0.535c0.134-0.144,0.273-0.276,0.421-0.397
				c0.147-0.123,0.28-0.256,0.399-0.4c0.12-0.145,0.211-0.328,0.244-0.533c0.025-0.156-0.027-0.268-0.142-0.299
				s-0.171-0.114-0.175-0.255c-0.166-0.037-0.252-0.056-0.416-0.093c-0.48-0.243-1.02-0.445-1.619-0.605s-1.288-0.549-1.539-0.542
				c-0.168,0.005-0.523,0.187-0.76,0.12c-0.237-0.066-0.564-0.158-0.916-0.193c-0.784-0.082-1.656-0.104-2.438-0.211
				c-0.781-0.109-1.91-0.277-2.251-0.615c-0.056-0.057-0.11-0.221-0.185-0.313c-0.075-0.093-0.324-0.037-0.408-0.065
				c-0.104-0.037-0.299-0.369-0.446-0.545c-0.148-0.177-0.38-0.423-0.409-0.578c-0.033-0.186,0.086-0.521,0.111-0.722
				s-0.196-0.463-0.222-0.582c-0.034-0.155,0.17-0.549,0.219-0.735C215.758,72.337,215.688,72.011,215.708,71.78z"/>
			<path fill="#EE2C52" stroke="#FFFFFF" stroke-miterlimit="10" d="M248.204,84.983c-0.014-0.008-0.128,0.01-0.159-0.059
				c-0.03-0.068-0.043-0.139-0.036-0.21c0.008-0.071,0.039-0.129,0.1-0.181c0.06-0.053,0.246-0.023,0.246-0.023
				c0.006-0.009-0.6-0.666-0.713-0.962c-0.115-0.296-0.619-0.901-0.605-1.077c0.003-0.039,0.109-0.181,0.124-0.312
				c0.015-0.132,0.04-0.257,0.067-0.376c0.026-0.12,0.069-0.213,0.127-0.276c0.059-0.063,0.25,0.033,0.25,0.033
				c0.012-0.007-0.092-0.464-0.056-0.632s0.08-0.326,0.132-0.473c0.051-0.146,0.082-0.285,0.096-0.428
				c0.013-0.143-0.153-0.392-0.153-0.482c0-0.353,0.675-1.332,0.761-2.059c0.086-0.726-0.033-1.627,0.088-1.968
				c0.063-0.181,0.367-0.526,0.496-0.892s0.213-0.737,0.254-1.117c0.039-0.381,0.041-0.752,0.008-1.113s-0.196-0.693-0.225-0.845
				c-0.012-0.063,0.066-0.153,0.15-0.173c0.084-0.021,0.289,0.009,0.313-0.01c0.213-0.178,0.104-2,0.057-3.148
				c-0.045-1.149-0.026-2.262,0.054-3.34s0.282-2.041,0.61-2.885c0.326-0.845,1.563-1.838,1.768-1.748
				c0.167,0.072,0.501,1.055,0.82,1.469c0.318,0.414,0.662,0.816,1.029,1.201s0.742,0.766,1.125,1.147
				c0.381,0.382,0.945,0.896,1.09,1.297c0.133,0.368,0.049,1.161,0.043,1.869c-0.008,0.708-0.037,1.431-0.09,2.168
				c-0.055,0.737-0.111,1.45-0.173,2.142c-0.061,0.69-0.229,1.384-0.196,1.754c0.008,0.093,0.129,0.181,0.28,0.199
				c0.151,0.018,0.117,0.395,0.117,0.395c0.06,0.056,1.423-0.48,2.181-0.723c0.756-0.241,1.5-0.48,2.229-0.724
				s1.44-0.516,2.137-0.817c0.696-0.301,1.767-0.715,1.938-1.031c0.281-0.521,0.033-2.266,0.104-3.387
				c0.071-1.121-0.505-2.781-0.375-3.317c0.021-0.091,0.23-0.293,0.305-0.47c0.075-0.176,0.369-0.328,0.388-0.369
				c0.062-0.146-0.353-1.07-0.408-1.666s-0.033-1.161,0.074-1.696c0.106-0.535,0.312-1.017,0.612-1.448
				c0.299-0.433,0.985-0.986,1.203-0.937c0.233,0.055,0.707,0.832,1.019,1.308c0.311,0.477,0.624,0.957,0.938,1.443
				c0.313,0.486,0.646,0.941,0.989,1.363c0.345,0.424,1.037,0.771,1.231,1.021c0.3,0.387,0.384,1.62,0.562,2.458
				c0.179,0.838,0.462,1.804,0.513,2.608c0.061,0.951-0.152,2.127-0.283,3.154c-0.133,1.026,0.082,2.5-0.135,3.236
				c-0.056,0.189-0.289,0.51-0.369,0.818c-0.08,0.308-0.153,0.613-0.223,0.921c-0.068,0.307-0.154,0.612-0.264,0.913
				c-0.109,0.3-0.44,0.654-0.458,0.777c-0.022,0.15,0.21,0.612,0.188,0.911c-0.021,0.3,0.241,0.671,0.394,0.992
				c0.241,0.513,0.151,1.317-0.019,1.828c-0.171,0.51-0.44,0.967-0.81,1.362c-0.369,0.395-0.808,0.728-1.323,1
				c-0.515,0.271-1.201,0.752-1.54,0.763c-0.178,0.006-0.524-0.218-0.76-0.34c-0.236-0.122-0.508-0.2-0.82-0.23
				c0.06-0.136,0.091-0.204,0.15-0.34c-0.566-0.397-1.068-0.835-1.5-1.312c-0.433-0.478-0.675-1.051-0.734-1.729
				c-0.003-0.022,0.001-0.187,0.015-0.483c0.013-0.295,0.031-0.61,0.053-0.943s0.044-0.648,0.068-0.948
				c0.025-0.299,0.037-0.479,0.033-0.483c-0.15-0.104-1.392,0.4-2.109,0.726c-0.719,0.325-1.416,0.673-2.094,1.047
				c-0.679,0.374-1.305,0.75-1.883,1.133c-0.578,0.384-1.316,0.761-1.402,0.947c-0.015,0.03-0.035,0.274-0.127,0.615
				c-0.09,0.34-0.203,0.696-0.342,1.077c-0.139,0.379-0.299,0.726-0.483,1.026c-0.185,0.302-0.626,0.449-0.628,0.45
				c-0.008,0.016,0.123,0.193,0.181,0.246s0.092,0.27,0.036,0.334c-0.15,0.178-0.793,0.352-1.117,0.57
				c-0.324,0.221-0.654,0.412-0.999,0.574c-0.344,0.164-0.728,0.26-1.147,0.287c-0.42,0.026-1.371-0.07-1.547-0.302
				c-0.047-0.062-0.102-0.304-0.266-0.419s-0.331-0.21-0.504-0.289s-0.326-0.148-0.459-0.208S248.21,84.987,248.204,84.983z"/>
			<path fill="#EE2C52" stroke="#FFFFFF" stroke-miterlimit="10" d="M291.733,59.731c0.063,0.054,0.091,0.271,0.096,0.354
				s0.009,0.161,0.012,0.231c0.003,0.072,0.012,0.147,0.029,0.229s0.143,0.249,0.148,0.348c0.037,0.551-0.804,1.541-1.402,1.965
				c-0.6,0.424-1.272,0.777-2.018,1.061c-0.744,0.283-1.506,0.568-2.285,0.865c-0.78,0.296-1.726,1.217-2.235,1.359
				c-0.188,0.053-0.621-0.002-0.854,0.159c-0.232,0.162-0.839,0.169-1.086,0.308c-0.104,0.06-0.283,0.296-0.49,0.394
				c-0.209,0.099-0.611,0.271-0.621,0.31c-0.014,0.058,0.215,0.396,0.242,0.617c0.026,0.221,0.114,0.489,0.188,0.521
				c0.413,0.178,1.807-0.27,2.82-0.555c1.014-0.287,2.717-0.907,3.006-0.758c0.037,0.02,0.051,0.188,0.009,0.23
				s-0.046,0.154-0.001,0.197c0.1,0.094,0.391,0.191,0.594,0.33c0.204,0.14,0.41,0.271,0.612,0.398s0.403,0.225,0.606,0.29
				s0.563-0.039,0.664-0.009c0.09,0.027,0.243,0.35,0.324,0.561s0.129,0.534,0.043,0.691c-0.16,0.295-0.679,0.669-1.018,1.012
				c-0.34,0.344-0.703,0.661-1.092,0.952c-0.39,0.291-0.813,0.546-1.269,0.765s-0.993,0.363-1.575,0.461
				c-0.121,0.021-0.218,0.041-0.279,0.053c-0.061,0.012-0.205-0.065-0.258-0.059c-0.105,0.016-0.445,0.236-0.813,0.256
				c-0.367,0.021-0.691,0.229-0.813,0.258c-0.16,0.041-0.631-0.06-1.011,0.021s-0.922-0.001-1.038,0.059
				c-0.248,0.125-0.576,1.14-0.802,1.75c-0.226,0.609-0.606,1.849-0.554,1.912c0.117,0.142,1.578-0.105,2.135-0.229
				s1.076-0.259,1.563-0.406c0.487-0.146,0.988-0.298,1.5-0.451c0.51-0.154,1.408-0.181,1.965-0.423
				c0.393-0.17,1.002-0.63,1.668-0.844c0.664-0.214,1.39-0.69,1.795-0.769c0.144-0.026,0.408,0.115,0.593,0.259
				c0.185,0.143,0.356,0.274,0.522,0.396c0.168,0.121,0.34,0.225,0.512,0.309s0.453,0.009,0.585,0.023
				c0.079,0.01,0.208,0.164,0.271,0.282c0.063,0.118,0.121,0.233,0.17,0.344s0.11,0.196,0.189,0.265
				c0.079,0.067,0.336,0.021,0.336,0.021c0.072,0.065-0.525,1.504-0.932,2.006c-0.405,0.503-0.899,0.918-1.484,1.25
				s-1.249,0.63-1.992,0.894c-0.742,0.265-1.584,0.559-2.467,0.902c-0.216,0.084-0.406,0.117-0.568,0.088
				c-0.162-0.028-0.367-0.041-0.546,0.01c-0.521,0.15-1.229,0.457-2.021,0.693c-0.791,0.235-1.604,0.414-2.441,0.534
				s-1.646,0.156-2.434,0.108c-0.787-0.049-1.461-0.283-2.004-0.616c-0.217-0.133-0.391-0.299-0.488-0.509
				c-0.098-0.211-0.492-0.324-0.591-0.424c-0.104-0.104-0.177-0.623-0.31-0.981c-0.135-0.358-0.271-0.733-0.41-1.128
				c-0.14-0.395-0.256-0.786-0.355-1.174c-0.1-0.389-0.135-0.75-0.114-1.084c0.022-0.356,0.126-0.696,0.317-1.012
				c0.191-0.316,0.068-0.875,0.1-0.941c0.016-0.032,0.184-0.118,0.19-0.227c0.007-0.109,0.231-0.131,0.276-0.168
				c0.127-0.107,0.178-0.857,0.289-1.257c0.112-0.399,0.232-0.788,0.359-1.165s0.254-0.758,0.378-1.146s0.408-1.109,0.333-1.285
				c-0.077-0.183-0.693-0.533-0.911-0.865c-0.217-0.332-0.391-0.673-0.521-1.02c-0.131-0.347-0.254-0.707-0.364-1.081
				s-0.438-0.889-0.44-1.118c0-0.241,0.435-0.718,0.746-0.995c0.313-0.277,0.66-0.52,1.045-0.727s0.811-0.398,1.272-0.573
				s0.978-0.353,1.452-0.571c0.883-0.408,1.718-0.854,2.438-1.152c0.722-0.297,1.437-0.568,2.142-0.811
				c0.707-0.242,1.44-0.484,2.207-0.73c0.768-0.246,2.045-1,2.59-0.949c0.162,0.016,0.607,0.246,0.669,0.188
				c0.075-0.074,0.149-0.312,0.296-0.258c0.146,0.055,0.123-0.223,0.123-0.223c0.01-0.006,0.688,0.605,1.111,0.793
				C290.782,59.508,291.548,59.576,291.733,59.731z"/>
			<path fill="#EE2C52" stroke="#FFFFFF" stroke-miterlimit="10" d="M304.774,76.683c-0.649,0.37-1.362,0.754-2.141,1.15
				c-0.777,0.396-1.581,0.688-2.408,0.873c-1.252,0.281-2.582,0.259-3.156-0.202c-0.176-0.142-0.34-0.369-0.445-0.442
				c-0.094-0.063-0.186-0.154-0.271-0.244c-0.084-0.09-0.145-0.301-0.225-0.404c-0.189-0.248-0.686-0.577-0.949-0.964
				c-0.264-0.388-0.476-0.798-0.632-1.231c-0.155-0.433-0.267-0.885-0.325-1.352s-0.107-0.967-0.035-1.355
				c0.018-0.094,0.039-0.203,0.031-0.298c-0.007-0.095-0.011-0.204-0.008-0.321c0.01-0.377,0.05-0.764,0.087-1.131
				s0.28-0.847,0.265-0.994c-0.012-0.109-0.189-0.41-0.146-0.685s0.128-0.539,0.182-0.758c0.211-0.854,0.276-1.747,0.375-2.404
				c0.098-0.657,0.201-1.31,0.309-1.955c0.187-1.116,0.341-2.226,0.474-3.313c0.133-1.086-0.069-2.787,0.229-3.475
				c0.056-0.128,0.287-0.281,0.369-0.338c0.116-0.081,0.267-0.173,0.332-0.181c0.317-0.038,1.012,0.192,1.623,0.254
				c0.612,0.062,1.205-0.052,1.488-0.041c0.166,0.006,0.354,0.125,0.415,0.171s0.122,0.084,0.177,0.119
				c0.326,0.211,0.631,0.482,0.895,0.745c0.264,0.262,0.523,0.772,0.47,1.169c-0.026,0.195-0.231,0.367-0.248,0.388
				c-0.118,0.146-0.041,0.901-0.096,1.252c-0.056,0.351-0.112,0.708-0.185,1.056c-0.078,0.377-0.162,0.764-0.226,1.14
				s0.022,0.966-0.062,1.348c-0.023,0.112-0.111,0.259-0.127,0.358c-0.015,0.099-0.033,0.212-0.056,0.337s-0.046,0.257-0.077,0.396
				s-0.169,0.299-0.195,0.389c-0.108,0.357,0.063,1.117-0.012,1.52c-0.074,0.403-0.156,0.809-0.238,1.21
				c-0.146,0.722-0.25,1.453-0.33,2.169c-0.082,0.717,0.055,2.344,0.093,2.359c0.021,0.009,0.224-0.125,0.335-0.15
				s0.217-0.048,0.314-0.07c0.223-0.051,0.605-0.008,0.799-0.076c0.529-0.189,1.412-0.943,2.269-1.221
				c0.856-0.276,1.722-0.545,2.566-0.765c0.338-0.088,0.687-0.171,1.029-0.257c0.344-0.086,0.729-0.291,0.939-0.309
				c0.176-0.016,0.407,0.086,0.472,0.082c0.065-0.004,0.156-0.021,0.279-0.053c0.172-0.044,0.354-0.099,0.448-0.08
				c0.29,0.057,0.689,0.286,0.988,0.33c0.3,0.045,0.609,0.069,0.925,0.088c0.29,0.017,0.584,0.047,0.868,0.08
				c0.285,0.034,0.571,0.11,0.865,0.227c0.258,0.559,0.389,0.837,0.647,1.394c0.227,0.158,0.325,0.287,0.33,0.349
				c0.014,0.154,0.034,0.33-0.04,0.447c0.068,0.143,0.104,0.213,0.175,0.354c-0.354,0.167-0.588,0.313-0.7,0.438
				c-0.112,0.127-0.216,0.333-0.309,0.408c-0.11,0.09-0.335,0.124-0.423,0.146c-0.087,0.021-0.165,0.043-0.239,0.063
				c-0.349,0.091-0.842,0.414-1.224,0.497c-0.524,0.115-1.442,0.042-2.164,0.224c-0.272,0.067-0.557,0.15-0.85,0.248
				c-0.293,0.096-0.601,0.187-0.879,0.289c-0.28,0.104-0.583,0.229-0.889,0.327c-0.307,0.099-0.621,0.187-0.944,0.265
				C305.263,76.435,305.099,76.519,304.774,76.683z"/>
			<path fill="#EE2C52" stroke="#FFFFFF" stroke-miterlimit="10" d="M325.09,71.255c-0.631,0.407-1.325,0.831-2.083,1.271
				c-0.758,0.439-1.546,0.773-2.364,1.006c-1.238,0.351-2.57,0.398-3.173-0.029c-0.183-0.131-0.361-0.35-0.473-0.417
				c-0.097-0.06-0.192-0.147-0.282-0.233c-0.09-0.084-0.161-0.289-0.246-0.389c-0.204-0.236-0.718-0.537-1.004-0.908
				c-0.286-0.373-0.518-0.771-0.698-1.197c-0.18-0.424-0.311-0.868-0.396-1.332c-0.085-0.463-0.161-0.959-0.11-1.353
				c0.014-0.095,0.028-0.202,0.017-0.297c-0.013-0.094-0.022-0.203-0.025-0.319c-0.01-0.379,0.009-0.768,0.026-1.137
				c0.017-0.369,0.236-0.859,0.214-1.007c-0.019-0.108-0.217-0.401-0.188-0.677c0.029-0.276,0.1-0.545,0.142-0.768
				c0.164-0.863,0.187-1.761,0.249-2.422c0.062-0.66,0.132-1.318,0.204-1.97c0.126-1.125,0.221-2.242,0.296-3.335
				c0.074-1.094-0.22-2.781,0.043-3.482c0.049-0.131,0.274-0.294,0.354-0.354c0.112-0.087,0.257-0.188,0.321-0.2
				c0.316-0.057,1.022,0.136,1.64,0.164c0.617,0.027,1.204-0.12,1.488-0.125c0.167-0.003,0.361,0.107,0.425,0.15
				c0.064,0.041,0.128,0.076,0.186,0.108c0.338,0.192,0.656,0.447,0.936,0.694c0.279,0.246,0.566,0.746,0.532,1.144
				c-0.018,0.197-0.212,0.377-0.229,0.398c-0.109,0.153,0.009,0.901-0.027,1.256s-0.074,0.712-0.128,1.062
				c-0.06,0.381-0.12,0.771-0.163,1.149s0.072,0.969,0.011,1.354c-0.02,0.112-0.1,0.262-0.109,0.361
				c-0.009,0.1-0.021,0.211-0.036,0.338c-0.015,0.127-0.032,0.262-0.057,0.402s-0.154,0.309-0.177,0.398
				c-0.089,0.362,0.124,1.11,0.072,1.517c-0.053,0.405-0.115,0.817-0.176,1.224c-0.106,0.729-0.172,1.465-0.215,2.184
				c-0.043,0.721,0.18,2.337,0.218,2.352c0.021,0.008,0.218-0.136,0.327-0.167c0.11-0.03,0.213-0.062,0.312-0.089
				c0.22-0.063,0.606-0.039,0.798-0.119c0.521-0.219,1.364-1.021,2.208-1.344c0.844-0.323,1.692-0.641,2.527-0.907
				c0.334-0.106,0.68-0.207,1.02-0.312c0.34-0.105,0.716-0.332,0.926-0.361c0.176-0.023,0.409,0.063,0.475,0.056
				c0.064-0.007,0.158-0.03,0.279-0.069c0.17-0.053,0.354-0.115,0.447-0.103c0.294,0.041,0.704,0.246,1.007,0.272
				c0.303,0.027,0.615,0.035,0.932,0.037c0.292,0,0.588,0.015,0.875,0.033c0.286,0.018,0.578,0.076,0.88,0.176
				c0.288,0.543,0.434,0.813,0.723,1.355c0.235,0.146,0.342,0.27,0.351,0.33c0.021,0.152,0.052,0.329-0.018,0.45
				c0.077,0.138,0.115,0.206,0.192,0.344c-0.346,0.187-0.573,0.345-0.68,0.478c-0.105,0.134-0.195,0.346-0.284,0.426
				c-0.106,0.097-0.326,0.141-0.412,0.168s-0.167,0.052-0.24,0.074c-0.344,0.109-0.821,0.463-1.199,0.566
				c-0.521,0.145-1.444,0.123-2.157,0.344c-0.271,0.084-0.55,0.184-0.838,0.297c-0.288,0.112-0.591,0.219-0.864,0.336
				c-0.274,0.119-0.571,0.261-0.873,0.375c-0.301,0.115-0.609,0.223-0.931,0.317C325.566,70.985,325.406,71.074,325.09,71.255z"/>
		</g>
	</g>
</g>
</svg>
